<svg width="24" height="24" viewBox="0 0 24 24" fill="none" xmlns="http://www.w3.org/2000/svg">
<path d="M12.3011 18.9507C11.3911 18.9507 10.568 18.831 9.83198 18.5915C9.1093 18.338 8.47361 18 7.92491 17.5775C7.3896 17.1549 6.94796 16.669 6.60001 16.1197L8.02529 14.5986C8.30633 15.0915 8.66097 15.5282 9.08923 15.9084C9.51748 16.2746 10.0126 16.5634 10.5747 16.7746C11.1368 16.9859 11.7524 17.0915 12.4216 17.0915C13.3316 17.0915 14.0476 16.9296 14.5695 16.6056C15.1048 16.2676 15.3725 15.7676 15.3725 15.1056C15.3725 14.7254 15.2387 14.3873 14.971 14.0915C14.7034 13.7817 14.2216 13.5423 13.5257 13.3732L10.5948 12.6549C9.81859 12.4718 9.17621 12.2183 8.66766 11.8944C8.1725 11.5704 7.80447 11.1761 7.56358 10.7113C7.32268 10.2324 7.20224 9.71127 7.20224 9.14789C7.20224 8.37324 7.39629 7.67606 7.78439 7.05634C8.18588 6.43662 8.76134 5.94366 9.51079 5.57747C10.2602 5.19718 11.1636 5.00704 12.2208 5.00704C13.3584 5.00704 14.3554 5.23239 15.2119 5.6831C16.0684 6.1338 16.7777 6.80986 17.3398 7.71127L15.9747 9.10563C15.4796 8.30282 14.9175 7.72535 14.2885 7.37324C13.6595 7.02113 12.91 6.84507 12.0402 6.84507C11.3978 6.84507 10.8692 6.93662 10.4543 7.11972C10.0528 7.28873 9.75168 7.52817 9.55094 7.83803C9.35019 8.1338 9.24982 8.46479 9.24982 8.83099C9.24982 9.12676 9.30335 9.39437 9.41042 9.6338C9.53086 9.87324 9.74499 10.0845 10.0528 10.2676C10.3606 10.4507 10.7955 10.6056 11.3576 10.7324L13.9673 11.3451C15.2119 11.6408 16.0952 12.0775 16.6171 12.6549C17.139 13.2324 17.4 13.9718 17.4 14.8732C17.4 15.7042 17.1859 16.4296 16.7576 17.0493C16.3294 17.6549 15.7338 18.1268 14.971 18.4648C14.2082 18.7887 13.3182 18.9507 12.3011 18.9507ZM11.458 21V3H13.0639V21H11.458Z"/>
</svg>
