<svg width="24" height="24" viewBox="0 0 24 24" fill="none" xmlns="http://www.w3.org/2000/svg">
<path fill-rule="evenodd" clip-rule="evenodd" d="M7.85179 3C7.53809 3 7.30379 3.22856 7.20744 3.50692L3.04559 17.2844C2.98068 17.4667 2.97772 17.6941 3.08511 17.8917L4.47484 20.6522L4.48038 20.6612C4.61098 20.8735 4.83871 21.018 5.078 21.018H17.0741C17.3877 21.018 17.6222 20.7895 17.7186 20.5112L20.9635 9.34564L20.9651 9.3398C21.0291 9.10882 21.0033 8.89261 20.9028 8.71989C20.806 8.55325 20.6533 8.45017 20.4977 8.4054C20.1978 8.31906 19.7858 8.43739 19.6667 8.89592L16.5922 19.5293H5.48464L4.43866 17.444L8.3338 4.48875H18.0175L14.3045 16.7744H7.3421C6.97116 16.7744 6.66007 17.1037 6.66007 17.5188C6.66007 17.9338 6.97116 18.2631 7.3421 18.2631H14.7863C15.1 18.2631 15.3345 18.0346 15.4308 17.7563L19.5943 3.97261C19.7585 3.43592 19.3484 3 18.9469 3H7.85179ZM9.70098 5.75488C9.48966 5.75488 9.3145 5.8438 9.19402 5.9918C9.07696 6.13558 9.02272 6.32103 9.02262 6.49909C9.02252 6.67716 9.07655 6.86274 9.19366 7.00666C9.3142 7.1548 9.4895 7.24362 9.70098 7.24362H15.4797C15.6911 7.24362 15.8662 7.15472 15.9867 7.00667C16.1038 6.86284 16.1579 6.67736 16.158 6.49931C16.158 6.32126 16.1039 6.13572 15.9869 5.99184C15.8664 5.84374 15.6911 5.75488 15.4797 5.75488H9.70098ZM9.81655 7.75842C9.60524 7.75842 9.43007 7.84734 9.30959 7.99534C9.19253 8.13913 9.1383 8.32458 9.13819 8.50264C9.13809 8.68071 9.19212 8.86629 9.30923 9.01021C9.42977 9.15834 9.60507 9.24717 9.81655 9.24717H13.9772C14.1886 9.24717 14.3638 9.15827 14.4843 9.01022C14.6013 8.86639 14.6555 8.68091 14.6555 8.50286C14.6556 8.3248 14.6015 8.13927 14.4844 7.99539C14.3639 7.84729 14.1887 7.75842 13.9772 7.75842H9.81655Z"/>
</svg>
