<svg width="85" height="54" viewBox="0 0 85 54" fill="none" xmlns="http://www.w3.org/2000/svg">
<path d="M44.7981 13.0544L52.8139 21.1102C55.3658 23.6749 59.5012 23.6749 62.0496 21.1102L70.0654 13.0544L57.4317 0.357605L44.7981 13.0544Z" fill="#FF562C"/>
<path d="M72.362 15.3625L59.7284 28.0593L67.7441 36.1152C70.296 38.6798 74.4315 38.6798 76.9799 36.1152L84.9957 28.0593L72.362 15.3625Z" fill="#FF562C"/>
<path d="M14.9338 13.0544L22.9496 21.1102C25.5015 23.6749 29.637 23.6749 32.1854 21.1102L40.2011 13.0544L27.5675 0.357605L14.9338 13.0544Z" fill="#FF562C"/>
<path d="M29.8642 28.0593L37.88 36.1152C40.4319 38.6798 44.5673 38.6798 47.1157 36.1152L55.1315 28.0593L42.4978 15.3625L29.8642 28.0593Z" fill="#FF562C"/>
<path d="M44.7981 43.0679L52.8139 51.1237C55.3658 53.6884 59.5012 53.6884 62.0496 51.1237L70.0654 43.0679L57.4317 30.3711L44.7981 43.0679Z" fill="#FF562C"/>
<path d="M0 28.0593L8.01576 36.1152C10.5677 38.6798 14.7031 38.6798 17.2515 36.1152L25.2673 28.0593L12.6336 15.3625L0 28.0593Z" fill="#FF562C"/>
<path d="M14.9338 43.0679L22.9496 51.1237C25.5015 53.6884 29.637 53.6884 32.1854 51.1237L40.2011 43.0679L27.5675 30.3711L14.9338 43.0679Z" fill="#FF562C"/>
</svg>