<?xml version="1.0" encoding="utf-8"?>
<!-- Generator: Adobe Illustrator 23.1.1, SVG Export Plug-In . SVG Version: 6.00 Build 0)  -->
<svg version="1.1" xmlns="http://www.w3.org/2000/svg" xmlns:xlink="http://www.w3.org/1999/xlink" x="0px" y="0px"
	 viewBox="0 0 101 101" style="enable-background:new 0 0 101 101;" xml:space="preserve">
<style type="text/css">
	.st0{fill:#E17729;}
	.st1{fill:#5C6DBA;stroke:#5C6DBA;}
</style>
<g id="Calque_1">
	<path class="st0" d="M57.3,34.8c0-3.8-3.1-6.8-6.8-6.8c-3.8,0-6.8,3.1-6.8,6.8s3.1,6.8,6.8,6.8C54.2,41.6,57.3,38.6,57.3,34.8z"/>
	<path class="st0" d="M56,44.5H45c-2.4,0-4.4,2-4.4,4.4v6.4h19.8v-6.4C60.4,46.5,58.4,44.5,56,44.5z"/>
	<path class="st0" d="M82.9,34.8c0-3.8-3.1-6.8-6.8-6.8s-6.8,3.1-6.8,6.8s3.1,6.8,6.8,6.8S82.9,38.6,82.9,34.8z"/>
	<path class="st0" d="M81.6,44.5h-11c-2.4,0-4.4,2-4.4,4.4v6.4H86v-6.4C86,46.5,84,44.5,81.6,44.5z"/>
	<path class="st0" d="M30.4,44.5h-11c-2.4,0-4.4,2-4.4,4.4v6.4h19.8v-6.4C34.8,46.5,32.8,44.5,30.4,44.5z"/>
	<path class="st0" d="M31.7,34.8c0-3.8-3.1-6.8-6.8-6.8s-6.8,3.1-6.8,6.8c0,3.8,3.1,6.8,6.8,6.8S31.7,38.6,31.7,34.8z"/>
</g>
<g id="Calque_2">
</g>
<g id="Calque_3">
	<g transform="translate(0.000000,2000.000000) scale(0.100000,-0.100000)">
		<path class="st1" d="M949.2,19993c26.6-4.2,47-24,52.3-50.4c1.1-5.3,1.1-713.1,0-718.4c-3.6-18.2-14.3-33.5-30.1-42.8
			c-4.6-2.7-10.3-5-16.8-6.8l-4.9-1.4l-298.7-0.2l-298.7-0.1l-22.2-22c-12.2-12.1-49.7-49.3-83.2-82.6c-44.2-44-61.7-61-63.4-61.9
			c-2-1-3.2-1.3-6.3-1.3c-4.9,0-8.8,1.7-11.5,5.2c-3.5,4.6-3.3-0.8-3.3,85.1v77.6h-48.8c-41,0-49.5,0.1-53.2,0.8
			c-15.6,2.7-29.5,10.9-38.8,22.9c-7.4,9.5-11.5,19.2-13,31c-0.4,2.9-0.5,83.6-0.4,269.6c0.2,248.6,0.2,443.6,1,446.8
			c2.3,9.4,6,17.4,10.9,24.1c9.5,12.7,21.4,20.4,38.1,24.5c3.4,0.9,29.2,0.9,445.2,1C859.9,19993.7,945.9,19993.6,949.2,19993z
			 M62.9,19964c-1.7-0.4-5-1.7-7.4-2.9c-6-2.9-11.7-8.6-14.7-14.7c-3.9-8-3.6-159.8-3.6-452.3c0-260,0-262.9,1-266.8
			c3-11.9,12-21.1,24.2-24.6c2.8-0.8,7.8-0.9,66.1-1.1l63.1-0.2l0.1-73.5l0.2-73.6l23.4,23.2c12.9,12.8,42.6,42.3,66,65.5
			c23.4,23.3,46.4,45.9,51,50.3l8.5,8l302.3,0.1c287.1,0.1,302.4,0.2,305.3,1.1c12.3,3.6,21.1,12.6,24.2,24.7c1,3.8,1,8.7,1,266.7
			c0,292.5,0.3,444.3-3.6,452.3c-3,6.1-8.7,11.8-14.7,14.8c-2.4,1.1-5.6,2.4-7.1,2.8c-2.4,0.7-61.6,0.8-442.4,0.8
			C115.1,19964.8,65.6,19964.7,62.9,19964z"/>
	</g>
</g>
</svg>