<svg width="100" height="97" viewBox="0 0 100 97" fill="none" xmlns="http://www.w3.org/2000/svg">
<path d="M42.8695 1.20971H2.46009C1.80763 1.20971 1.1819 1.45623 0.720543 1.89503C0.259188 2.33384 0 2.92899 0 3.54955V41.9862C0 42.6067 0.259188 43.2019 0.720543 43.6407C1.1819 44.0795 1.80763 44.326 2.46009 44.326H42.8695C43.5219 44.326 44.1477 44.0795 44.609 43.6407C45.0704 43.2019 45.3296 42.6067 45.3296 41.9862V3.54955C45.3296 2.92899 45.0704 2.33384 44.609 1.89503C44.1477 1.45623 43.5219 1.20971 42.8695 1.20971ZM40.4094 39.6417H4.92017V5.8894H40.4094V39.6417ZM42.8695 52.9249H2.46009C1.80763 52.9249 1.1819 53.1715 0.720543 53.6103C0.259188 54.0491 0 54.6442 0 55.2648V93.6967C0 94.3173 0.259188 94.9125 0.720543 95.3513C1.1819 95.7901 1.80763 96.0366 2.46009 96.0366H42.8695C43.5219 96.0366 44.1477 95.7901 44.609 95.3513C45.0704 94.9125 45.3296 94.3173 45.3296 93.6967V55.2648C45.3296 54.6442 45.0704 54.0491 44.609 53.6103C44.1477 53.1715 43.5219 52.9249 42.8695 52.9249ZM40.4094 91.3569H4.92017V57.6046H40.4094V91.3569ZM97.2374 52.9249H56.8329C56.1805 52.9249 55.5547 53.1715 55.0934 53.6103C54.632 54.0491 54.3728 54.6442 54.3728 55.2648V93.6967C54.3728 94.3173 54.632 94.9125 55.0934 95.3513C55.5547 95.7901 56.1805 96.0366 56.8329 96.0366H97.2399C97.8923 96.0366 98.5181 95.7901 98.9794 95.3513C99.4408 94.9125 99.7 94.3173 99.7 93.6967V55.2648C99.7 54.6442 99.4408 54.0491 98.9794 53.6103C98.5181 53.1715 97.8923 52.9249 97.2399 52.9249H97.2374ZM94.7773 91.3569H59.293V57.6046H94.7798L94.7773 91.3569ZM81.2813 15.3845C80.0973 14.764 78.7796 14.4095 77.4293 14.3482C76.079 14.2869 74.7318 14.5204 73.4911 15.0309C72.2503 15.5414 71.1489 16.3152 70.2712 17.2931C69.3936 18.2711 68.7629 19.4271 68.4276 20.6727C68.0923 21.9183 68.0612 23.2204 68.3368 24.4792C68.6124 25.738 69.1873 26.9201 70.0175 27.9348C70.8476 28.9496 71.911 29.7702 73.1262 30.3336C74.3413 30.8971 75.6759 31.1885 77.0278 31.1855C77.8729 31.184 78.7135 31.069 79.5248 30.8438C81.2006 30.3724 82.6924 29.44 83.8122 28.1639C84.9321 26.8879 85.63 25.3252 85.818 23.6727C86.0061 22.0201 85.6759 20.3516 84.869 18.8772C84.0622 17.4028 82.8147 16.1883 81.2837 15.3868L81.2813 15.3845ZM80.4793 24.559C80.1064 25.2054 79.5405 25.7322 78.853 26.0728C78.1655 26.4134 77.3872 26.5526 76.6166 26.4727C75.846 26.3929 75.1175 26.0976 74.5233 25.6241C73.929 25.1507 73.4957 24.5203 73.2779 23.8127C73.0601 23.1051 73.0678 22.352 73.2998 21.6485C73.5319 20.945 73.9779 20.3227 74.5816 19.8602C75.1854 19.3978 75.9197 19.1158 76.6918 19.0501C77.4639 18.9844 78.2391 19.1378 78.9196 19.4909C79.3737 19.7245 79.7747 20.0413 80.0993 20.4232C80.4239 20.805 80.6657 21.2443 80.8108 21.7156C80.9558 22.1868 81.0012 22.6808 80.9443 23.1689C80.8874 23.6569 80.7293 24.1294 80.4793 24.559ZM99.8599 28.7848C99.2111 26.9539 98.1209 25.2928 96.6765 23.9343L96.6002 20.7357C97.9779 19.315 98.9886 17.6086 99.5524 15.7518C99.6484 15.4399 99.675 15.1123 99.6305 14.79C99.586 14.4677 99.4714 14.1578 99.294 13.88L95.567 8.05843C95.3886 7.77972 95.151 7.53956 94.8692 7.35339C94.5875 7.16723 94.2679 7.03916 93.9311 6.97743C91.941 6.60229 89.8867 6.66955 87.9284 7.17397L84.9763 5.63904C84.3717 3.79555 83.321 2.1126 81.9086 0.725361C81.6685 0.494775 81.3826 0.311898 81.0676 0.187372C80.7525 0.062846 80.4146 -0.000843726 80.0734 8.43962e-06L72.9022 0.156779C72.5603 0.164301 72.2237 0.23956 71.9141 0.377748C71.6045 0.515936 71.3285 0.714019 71.1039 0.959347C69.7596 2.4104 68.7908 4.14038 68.2748 6.01107L65.4039 7.67236C63.4226 7.24707 61.364 7.27031 59.3939 7.74022C59.0604 7.81661 58.7474 7.95849 58.475 8.15674C58.2026 8.355 57.9768 8.60524 57.8121 8.89142L54.3679 14.8744C54.2064 15.1588 54.1082 15.4717 54.0794 15.7938C54.0507 16.1158 54.0919 16.4401 54.2006 16.7463C54.8545 18.5788 55.9497 20.2406 57.3988 21.5991L57.475 24.7977C56.0974 26.2184 55.0867 27.9248 54.5229 29.7815C54.4273 30.0937 54.4011 30.4213 54.446 30.7436C54.4909 31.0659 54.6059 31.3758 54.7837 31.6534L58.5107 37.4796C58.6885 37.7578 58.9255 37.9977 59.2063 38.1838C59.4872 38.37 59.8058 38.4983 60.1418 38.5606C62.1338 38.9421 64.192 38.8748 66.1517 38.3641L69.1039 39.9014C69.7113 41.7437 70.7616 43.426 72.1716 44.815C72.4014 45.0443 72.6777 45.2268 72.9839 45.3515C73.2901 45.4762 73.6196 45.5405 73.9527 45.5404H74.0093L81.1804 45.3813C81.5224 45.3738 81.8589 45.2985 82.1685 45.1603C82.4782 45.0221 82.7541 44.8241 82.9788 44.5787C84.3214 43.1278 85.2893 41.3988 85.8054 39.5293L88.6763 37.8657C90.6604 38.2884 92.7207 38.2651 94.6937 37.7979C95.0258 37.7206 95.3374 37.5783 95.6085 37.3801C95.8796 37.1819 96.1042 36.9321 96.2681 36.6467L99.7122 30.6613C99.8721 30.3753 99.9677 30.0608 99.9931 29.7378C100.019 29.4148 99.9732 29.0903 99.8599 28.7848ZM92.4968 33.4317C91.7194 33.5497 90.9273 33.5497 90.1499 33.4317C89.7569 33.108 89.2663 32.9109 88.7483 32.8689C88.2303 32.8268 87.7116 32.942 87.2667 33.1977L82.0734 36.2114C81.6296 36.4684 81.2827 36.8525 81.0825 37.3086C80.8823 37.7646 80.8391 38.2693 80.959 38.7502C80.7126 39.4615 80.3507 40.1318 79.8864 40.7367L75.0622 40.842C74.5664 40.2597 74.172 39.6056 73.8936 38.9046C73.9902 38.42 73.9232 37.9187 73.7023 37.4724C73.4814 37.0262 73.1178 36.6577 72.6636 36.4197L67.3178 33.64C66.8622 33.4026 66.3393 33.3085 65.8241 33.3711C65.3088 33.4337 64.8276 33.6499 64.4494 33.9886C63.6793 34.1399 62.8893 34.177 62.1074 34.0986L59.5981 30.177C59.8825 29.4783 60.2801 28.8261 60.7765 28.2443C61.2664 28.0804 61.6893 27.7733 61.9845 27.3668C62.2797 26.9604 62.4321 26.4755 62.4198 25.9816L62.2796 20.1929C62.2678 19.699 62.092 19.2214 61.7773 18.8284C61.4627 18.4354 61.0254 18.1472 60.528 18.0051C60.0039 17.4481 59.5747 16.8165 59.2561 16.1332L61.5711 12.1087C62.3485 11.991 63.1406 11.991 63.918 12.1087C64.3109 12.4325 64.8016 12.6295 65.3196 12.6715C65.8376 12.7136 66.3563 12.5984 66.8012 12.3427L72.0068 9.33131C72.4506 9.07432 72.7975 8.69025 72.9977 8.23418C73.1979 7.77811 73.2411 7.27346 73.1212 6.79258C73.3652 6.08102 73.7273 5.41117 74.1938 4.80839L79.018 4.7031C79.5116 5.28595 79.9059 5.93893 80.1865 6.63815C80.0906 7.12244 80.1578 7.62318 80.3787 8.06897C80.5996 8.51476 80.9628 8.88284 81.4166 9.12072L86.7599 11.9028C87.2157 12.1399 87.7388 12.2336 88.2541 12.1706C88.7694 12.1075 89.2505 11.8909 89.6284 11.5518C90.4034 11.3949 91.1996 11.3554 91.9876 11.4348L94.4944 15.3541C94.211 16.0533 93.8133 16.7055 93.316 17.2868C92.8265 17.4505 92.4039 17.7573 92.1087 18.1633C91.8136 18.5693 91.6609 19.0536 91.6727 19.5471L91.8129 25.3405C91.8247 25.8344 92.0005 26.312 92.3152 26.705C92.6298 27.0979 93.0671 27.3861 93.5645 27.5283C94.0887 28.0847 94.5172 28.7164 94.8339 29.4002L92.4968 33.4317Z" fill="#E17729"/>
<rect x="10.5391" y="9.89307" width="5.28341" height="25.1596" fill="#5C6DBA"/>
<rect x="20.0493" y="16.9377" width="5.28341" height="18.1149" fill="#5C6DBA"/>
<rect x="29.5591" y="22.9758" width="5.28341" height="12.0766" fill="#5C6DBA"/>
<rect x="10.5391" y="62.2249" width="5.28341" height="25.1596" fill="#5C6DBA"/>
<rect x="20.0493" y="69.2698" width="5.28341" height="18.1149" fill="#5C6DBA"/>
<rect x="29.5591" y="75.3081" width="5.28341" height="12.0766" fill="#5C6DBA"/>
<rect x="65.4854" y="62.2249" width="5.28341" height="25.1596" fill="#5C6DBA"/>
<rect x="74.9971" y="69.2698" width="5.28341" height="18.1149" fill="#5C6DBA"/>
<rect x="84.5068" y="75.3081" width="5.28341" height="12.0766" fill="#5C6DBA"/>
</svg>
