<svg width="102" height="99" viewBox="0 0 102 99" fill="none" xmlns="http://www.w3.org/2000/svg">
<path d="M98.1373 80.3968L98.1355 80.3979C97.6248 80.6839 97.0159 80.9199 96.3338 81.1012C96.3335 81.1012 96.3333 81.1013 96.333 81.1014L95.8425 81.2335L95.7788 81.2507L95.7127 81.2507L65.665 81.2658H65.6649L35.8154 81.2751L33.7268 83.269C32.4966 84.4434 28.7313 88.0462 25.3591 91.2733C23.1349 93.4031 21.582 94.8813 20.5629 95.8386C20.0537 96.317 19.6757 96.6672 19.4132 96.9042C19.2823 97.0223 19.1772 97.115 19.0976 97.1822C19.0579 97.2157 19.0213 97.2456 18.9891 97.2703C18.9653 97.2885 18.9169 97.3252 18.8622 97.3534L18.8547 97.3572L18.8546 97.3572C18.7298 97.4187 18.607 97.4678 18.4577 97.498C18.317 97.5264 18.1722 97.5341 18.0113 97.5366L18.0036 97.5367C17.3848 97.5366 16.8378 97.3218 16.4587 96.8443L16.4573 96.8425C16.4515 96.8351 16.443 96.8254 16.4326 96.8133C16.3724 96.744 16.2461 96.5985 16.1746 96.3829C16.1016 96.1629 16.0709 95.8589 16.0517 95.3827C16.0165 94.5131 16.0167 92.8638 16.0172 89.5928C16.0173 89.1849 16.0173 88.7518 16.0173 88.2917V81.2752H11.6032C9.54425 81.2752 8.29521 81.2728 7.51481 81.2624C6.75002 81.2522 6.40056 81.2346 6.16986 81.1948M98.1373 80.3968L6.25364 80.7018M98.1373 80.3968C99.8497 79.4283 101.021 77.8254 101.409 75.9156L98.1373 80.3968ZM6.16986 81.1948C4.48878 80.9141 2.97916 80.0555 1.95957 78.7947L1.95896 78.794C1.16033 77.8025 0.713226 76.7755 0.546303 75.5474L0.545807 75.5438C0.536606 75.472 0.532814 75.2776 0.529282 75.0231C0.525421 74.7452 0.521935 74.3448 0.518822 73.8175C0.512589 72.7624 0.507828 71.1949 0.504646 69.0738C0.498299 64.8315 0.498299 58.3723 0.505646 49.3636C0.506874 47.4614 0.508041 45.5899 0.509186 43.7559C0.515266 33.9805 0.520691 25.2724 0.531998 18.6707C0.538704 14.7507 0.547493 11.5727 0.559738 9.3548C0.565857 8.24602 0.572838 7.37602 0.580879 6.77284C0.584892 6.47156 0.589195 6.23492 0.593842 6.0677C0.596153 5.98447 0.598625 5.91553 0.601357 5.86325C0.60202 5.85058 0.602737 5.83803 0.603539 5.82586C0.604362 5.81322 0.605278 5.801 0.606293 5.78948L0.60643 5.78781C0.607521 5.77523 0.611572 5.72789 0.624168 5.67932M6.16986 81.1948C6.16927 81.1946 6.16867 81.1945 6.16808 81.1944L6.25364 80.7018M6.16986 81.1948C6.17039 81.1948 6.17088 81.1949 6.17141 81.195L6.25364 80.7018M0.624168 5.67932L1.09845 5.8024L0.624115 5.67954C0.62413 5.67947 0.624153 5.6794 0.624168 5.67932ZM0.624168 5.67932C0.87516 4.71037 1.2711 3.87359 1.80681 3.16891L1.80914 3.16584C2.83907 1.8325 4.14168 1.02908 5.9212 0.611435M5.9212 0.611435C5.91968 0.611801 5.91817 0.612175 5.91666 0.612549L6.03784 1.09765M5.9212 0.611435C5.92204 0.611237 5.92288 0.611038 5.92372 0.61084L6.03784 1.09765M5.9212 0.611435C6.01877 0.587715 6.14397 0.577858 6.32105 0.569984C6.51468 0.561378 6.81419 0.554161 7.28767 0.547943C8.23631 0.535484 9.90372 0.526817 12.8652 0.520645C18.7894 0.508301 29.9018 0.505951 50.8238 0.503593C68.7484 0.498444 79.875 0.498451 86.5621 0.506561C89.9054 0.51062 92.1399 0.516701 93.5596 0.525185C94.2692 0.529427 94.7767 0.534271 95.1179 0.539795C95.2882 0.542549 95.4192 0.545509 95.514 0.548721C95.5911 0.551338 95.6801 0.554825 95.7399 0.564293M6.03784 1.09765C4.35715 1.49165 3.15794 2.23759 2.20485 3.4715C1.71365 4.11763 1.34444 4.89259 1.10814 5.80491C1.03264 6.09586 1.02251 22.3624 1.00919 43.7387C1.00805 45.5783 1.00688 47.4557 1.00565 49.364C0.990944 67.3813 1.00565 75.1989 1.04175 75.4801C1.19605 76.6153 1.60515 77.5577 2.34835 78.4803C3.28685 79.6408 4.68524 80.4403 6.25364 80.7018M6.03784 1.09765C6.37674 1.01299 8.97924 1.00832 50.8239 1.00359C86.6734 0.993286 95.3287 1.00364 95.6617 1.05814M95.6617 1.05814L95.7373 0.563896C95.7381 0.564026 95.739 0.564163 95.7399 0.564293M95.6617 1.05814C98.3365 1.46726 100.391 3.38213 100.919 5.94316L101.409 5.84215C100.837 3.06892 98.6116 1.00457 95.7399 0.564293M95.6617 1.05814L95.7424 0.564713C95.7416 0.564575 95.7407 0.56443 95.7399 0.564293M5.9706 4.60429L5.96745 4.60578C5.47071 4.83685 4.98613 5.29953 4.73134 5.7846C4.73031 5.78867 4.72902 5.79401 4.72754 5.80068C4.72018 5.83385 4.71127 5.88454 4.70158 5.9565C4.68225 6.09995 4.66324 6.30201 4.6451 6.56697C4.60892 7.09548 4.57799 7.84648 4.55177 8.8222C4.49937 10.7721 4.4663 13.5976 4.44555 17.2884C4.40991 23.6264 4.41063 32.5047 4.41154 43.8593C4.41169 45.7276 4.41184 47.6629 4.41184 49.6649C4.41184 62.2601 4.41184 68.6273 4.42465 71.893C4.43106 73.5277 4.44067 74.3791 4.45485 74.8445C4.46825 75.2845 4.48547 75.3442 4.49494 75.3771C4.49555 75.3792 4.49612 75.3812 4.49667 75.3831L4.49761 75.3866C4.75565 76.3586 5.51641 77.1202 6.58186 77.4164L6.58269 77.4166C6.64789 77.4349 6.77145 77.4597 7.68845 77.4743C8.57839 77.4885 10.1653 77.4946 13.0956 77.5016L19.4394 77.5167L19.9375 77.5178L19.9382 78.016L19.948 85.1371V85.1375L19.9611 91.0981L21.4755 89.6524C22.7714 88.4138 25.7596 85.5566 28.111 83.306C30.459 81.0549 32.7739 78.8546 33.2493 78.4225C33.2497 78.4222 33.25 78.4219 33.2504 78.4216L34.0993 77.6434L34.2426 77.512L34.437 77.512L64.8441 77.5016C64.8441 77.5016 64.8441 77.5016 64.8442 77.5016C79.2874 77.4946 86.8921 77.4896 90.9226 77.476C92.9389 77.4692 94.0571 77.4602 94.6889 77.4477C95.0059 77.4415 95.1933 77.4345 95.3079 77.4271C95.389 77.4218 95.4204 77.417 95.4268 77.4159C96.5033 77.1097 97.2521 76.3616 97.5155 75.3755C97.5158 75.3745 97.516 75.3735 97.5163 75.3724C97.5246 75.3423 97.5417 75.28 97.5547 74.8149C97.5681 74.3356 97.5771 73.4669 97.5832 71.8213C97.5953 68.5333 97.5953 62.166 97.5953 49.6649C97.5953 47.6628 97.5954 45.7274 97.5956 43.859C97.5965 32.5045 97.5972 23.6263 97.5616 17.2884C97.5408 13.5976 97.5077 10.7721 97.4553 8.8222C97.4291 7.84648 97.3982 7.09548 97.362 6.56697C97.3439 6.30201 97.3248 6.09995 97.3055 5.9565C97.2958 5.88454 97.2869 5.83385 97.2796 5.80068C97.2781 5.79401 97.2768 5.78871 97.2758 5.78465L5.9706 4.60429ZM5.9706 4.60429C6.18829 4.50116 6.46921 4.39513 6.59718 4.36211C6.60458 4.36143 6.61906 4.36021 6.64275 4.3588C6.69571 4.35564 6.77601 4.35239 6.89339 4.34921C7.12738 4.34287 7.4937 4.33723 8.05236 4.33227C9.16874 4.32235 11.042 4.31524 14.1362 4.3103C20.3237 4.30043 31.3876 4.29926 51.0289 4.30162C70.1839 4.30162 81.2481 4.30421 87.5543 4.31479C90.7077 4.32008 92.6701 4.32737 93.8592 4.33732C94.4541 4.34229 94.853 4.34792 95.1098 4.35422C95.2387 4.35738 95.3282 4.36063 95.3873 4.36382C95.4093 4.36501 95.4242 4.36609 95.4334 4.36682C95.5584 4.40308 95.8254 4.50397 96.0408 4.60069L5.9706 4.60429ZM65.6647 80.7658L35.615 80.7752L33.3816 82.9073C32.1511 84.082 28.3855 87.6851 25.0134 90.912C20.5652 95.1716 18.8073 96.8193 18.6335 96.9087C18.4333 97.0074 18.3103 97.0319 18.0036 97.0366C17.5065 97.0366 17.1169 96.8693 16.8503 96.5334L65.6647 80.7658Z" fill="#5C6DBA" stroke="#5C6DBA"/>
<path d="M57.8664 33.9051C57.8664 30.2397 54.7643 27.2659 50.9728 27.2659C47.1812 27.2659 44.0791 30.2397 44.0791 33.9051C44.0791 37.5704 47.1669 40.5442 50.9728 40.5442C54.7786 40.5442 57.8664 37.5704 57.8664 33.9051Z" fill="#E17729"/>
<path d="M56.5187 43.3655H45.4314C42.9756 43.3655 40.9937 45.2881 40.9937 47.6395V53.8499H60.9709V47.6395C60.9565 45.2881 58.9746 43.3655 56.5187 43.3655Z" fill="#E17729"/>
<path d="M83.7707 33.9051C83.7707 30.2397 80.6686 27.2659 76.8771 27.2659C73.0855 27.2659 69.9834 30.2397 69.9834 33.9051C69.9834 37.5704 73.0712 40.5442 76.8771 40.5442C80.6829 40.5442 83.7707 37.5704 83.7707 33.9051Z" fill="#E17729"/>
<path d="M82.4064 43.3645H71.3191C68.8633 43.3645 66.8813 45.2871 66.8813 47.6385V53.8489H86.8586V47.6385C86.8586 45.2871 84.8623 43.3645 82.4064 43.3645Z" fill="#E17729"/>
<path d="M30.6667 43.365H19.5794C17.1235 43.365 15.1416 45.2876 15.1416 47.639V53.8494H35.1189V47.639C35.1045 45.2876 33.1082 43.365 30.6667 43.365Z" fill="#E17729"/>
<path d="M32.0144 33.9055C32.0144 30.2402 28.9266 27.2664 25.1207 27.2664C21.3148 27.2664 18.2271 30.2402 18.2271 33.9055C18.2271 37.5709 21.3292 40.5447 25.1207 40.5447C28.9122 40.5447 32.0144 37.5709 32.0144 33.9055Z" fill="#E17729"/>
</svg>