<svg width="99" height="99" viewBox="0 0 99 99" fill="none" xmlns="http://www.w3.org/2000/svg">
<path d="M56.2999 34.1999C56.2999 30.3999 53.2 27.3999 49.5 27.3999C45.7 27.3999 42.7 30.4999 42.7 34.1999C42.7 37.8999 45.8 40.9999 49.5 40.9999C53.2 40.9999 56.2999 37.9999 56.2999 34.1999Z" fill="#E17729"/>
<path d="M55.0001 43.8999H44.0001C41.6001 43.8999 39.6001 45.8999 39.6001 48.2999V54.6999H59.4001V48.2999C59.4001 45.8999 57.4001 43.8999 55.0001 43.8999Z" fill="#E17729"/>
<path d="M81.9 34.1999C81.9 30.3999 78.8 27.3999 75.1 27.3999C71.4 27.3999 68.3 30.4999 68.3 34.1999C68.3 37.8999 71.4 40.9999 75.1 40.9999C78.8 40.9999 81.9 37.9999 81.9 34.1999Z" fill="#E17729"/>
<path d="M80.6 43.8999H69.6C67.2 43.8999 65.2 45.8999 65.2 48.2999V54.6999H85V48.2999C85 45.8999 83 43.8999 80.6 43.8999Z" fill="#E17729"/>
<path d="M29.4 43.8999H18.4C16 43.8999 14 45.8999 14 48.2999V54.6999H33.8V48.2999C33.8 45.8999 31.8 43.8999 29.4 43.8999Z" fill="#E17729"/>
<path d="M30.7001 34.1999C30.7001 30.3999 27.6001 27.3999 23.9001 27.3999C20.2001 27.3999 17.1001 30.4999 17.1001 34.1999C17.1001 37.9999 20.2001 40.9999 23.9001 40.9999C27.6001 40.9999 30.7001 37.9999 30.7001 34.1999Z" fill="#E17729"/>
<path d="M93.25 0.519821C95.87 0.939821 97.88 2.89998 98.4 5.52998C98.51 6.05998 98.51 76.3799 98.4 76.9099C98.05 78.7199 96.99 80.2399 95.44 81.1599C94.99 81.4299 94.43 81.6599 93.79 81.8399L93.31 81.98L63.89 81.9999L34.47 82.0099L32.28 84.1999C31.08 85.3999 27.38 89.0999 24.08 92.4099C19.73 96.7799 18 98.4699 17.83 98.5599C17.63 98.6599 17.51 98.6899 17.21 98.6899C16.73 98.6899 16.34 98.5198 16.08 98.1698C15.74 97.7098 15.75 98.2499 15.75 89.7099V81.9999H10.94C6.9 81.9999 6.06 81.9898 5.7 81.9198C4.16 81.6498 2.79 80.8399 1.88 79.6399C1.15 78.6999 0.750003 77.7299 0.600003 76.5599C0.560003 76.2699 0.550003 68.2498 0.560003 49.7698C0.580003 25.0698 0.580003 5.68998 0.660003 5.37998C0.890003 4.44998 1.25 3.64994 1.73 2.98994C2.67 1.72994 3.84 0.95986 5.48 0.55986C5.81 0.46986 8.36 0.469862 49.33 0.459862C84.45 0.449862 92.93 0.459821 93.25 0.519821ZM5.95 3.3999C5.78 3.4399 5.46 3.56994 5.22 3.68994C4.63 3.97994 4.07 4.5399 3.77 5.1499C3.39 5.9399 3.42 21.0299 3.42 50.0899C3.42 75.9199 3.42 76.2099 3.52 76.5999C3.82 77.7799 4.7 78.6999 5.9 79.0399C6.18 79.1199 6.67 79.1299 12.41 79.1499L18.63 79.1698L18.64 86.4698L18.66 93.78L20.96 91.4698C22.23 90.1998 25.16 87.2699 27.46 84.9599C29.76 82.6399 32.03 80.3999 32.48 79.9599L33.32 79.1698L63.1 79.1599C91.38 79.1499 92.89 79.1399 93.17 79.0499C94.38 78.6899 95.25 77.7999 95.55 76.5999C95.65 76.2199 95.65 75.7399 95.65 50.0999C95.65 21.0399 95.68 5.94986 95.3 5.15986C95 4.54986 94.44 3.98994 93.85 3.68994C93.61 3.57994 93.3 3.44986 93.15 3.40986C92.91 3.33986 87.08 3.32998 49.57 3.32998C11.09 3.31998 6.21 3.3299 5.95 3.3999Z" fill="#5C6DBA" stroke="#5C6DBA" stroke-width="0.2" stroke-miterlimit="10" stroke-linecap="round" stroke-linejoin="round"/>
</svg>
