<svg width="100" height="99" viewBox="0 0 100 99" fill="none" xmlns="http://www.w3.org/2000/svg">
<path d="M16.3586 49.4204V96.0367H81.0812V49.4204" stroke="#5C6DBA" stroke-width="5" stroke-linejoin="round"/>
<path d="M48.7197 81.1592V96.0367" stroke="#5C6DBA" stroke-width="5"/>
<path d="M76.1647 0C69.9054 0 64.2201 1.07807 59.9269 2.95338C57.7802 3.8909 55.9677 5.01083 54.6065 6.41661C53.2452 7.82238 52.3293 9.6142 52.3293 11.5584V40.1144C52.3293 42.0584 53.2456 43.8292 54.6065 45.2349C55.9674 46.6409 57.7808 47.7606 59.9269 48.6982C64.219 50.5735 69.9071 51.6728 76.1647 51.6728C82.4223 51.6728 88.0862 50.5733 92.3813 48.6982C94.5288 47.7607 96.3394 46.6406 97.7017 45.2349C99.0639 43.8294 100 42.0592 100 40.1144V11.5584C100 9.6142 99.0842 7.82238 97.7229 6.41661C96.3617 5.01083 94.5492 3.8909 92.4025 2.95338C88.1093 1.07807 82.424 0 76.1647 0ZM76.1647 4.07943C81.941 4.07943 87.1698 5.12303 90.7639 6.69286C92.5609 7.47767 93.9418 8.39187 94.7861 9.26371C95.6303 10.1356 95.914 10.8741 95.914 11.5584C95.914 12.2428 95.6303 12.96 94.7861 13.8319C93.9418 14.7036 92.5609 15.6178 90.7639 16.4027C87.1698 17.9725 81.941 19.0373 76.1647 19.0373C70.3885 19.0373 65.1596 17.9725 61.5655 16.4027C59.7685 15.6178 58.3876 14.7036 57.5433 13.8319C56.6991 12.96 56.4154 12.2428 56.4154 11.5584C56.4154 10.8741 56.6991 10.1356 57.5433 9.26371C58.3876 8.39187 59.7685 7.47767 61.5655 6.69286C65.1596 5.12303 70.3885 4.07943 76.1647 4.07943ZM56.4154 18.2087C57.4471 18.9367 58.6218 19.5722 59.9269 20.1422C64.2201 22.0174 69.9054 23.1168 76.1647 23.1168C82.424 23.1168 88.1093 22.0174 92.4025 20.1422C93.7076 19.5722 94.8823 18.9367 95.914 18.2087V21.0771C95.914 21.7614 95.6303 22.4786 94.7861 23.3505C93.9418 24.2223 92.5609 25.1364 90.7639 25.9214C87.1698 27.4912 81.941 28.556 76.1647 28.556C70.3885 28.556 65.1596 27.4912 61.5655 25.9214C59.7685 25.1364 58.3876 24.2223 57.5433 23.3505C56.6991 22.4786 56.4154 21.7614 56.4154 21.0771V18.2087ZM56.4154 27.7273C57.4471 28.4554 58.6218 29.0908 59.9269 29.6609C64.2201 31.5361 69.9054 32.6355 76.1647 32.6355C82.424 32.6355 88.1093 31.5361 92.4025 29.6609C93.7076 29.0908 94.8823 28.4554 95.914 27.7273V30.5957C95.914 31.2801 95.6303 31.9973 94.7861 32.8692C93.9418 33.741 92.5609 34.6551 90.7639 35.4401C87.1698 37.0099 81.941 38.0747 76.1647 38.0747C70.3885 38.0747 65.1596 37.0099 61.5655 35.4401C59.7685 34.6551 58.3876 33.741 57.5433 32.8692C56.6991 31.9973 56.4154 31.2801 56.4154 30.5957V27.7273V27.7273ZM56.4154 37.246C57.4471 37.9741 58.6218 38.6095 59.9269 39.1795C64.2201 41.0548 69.9054 42.1541 76.1647 42.1541C82.424 42.1541 88.1093 41.0548 92.4025 39.1795C93.7076 38.6095 94.8823 37.9741 95.914 37.246V40.1144C95.914 40.7981 95.6099 41.5158 94.7648 42.3879C93.9197 43.2598 92.5407 44.1737 90.7426 44.9587C87.1463 46.5288 81.9391 47.5934 76.1647 47.5934C70.3903 47.5934 65.1584 46.5285 61.5655 44.9587C59.7691 44.1739 58.3873 43.2597 57.5433 42.3879C56.6994 41.516 56.4154 40.7989 56.4154 40.1144V37.246V37.246Z" fill="#E17729"/>
<path d="M24.1093 0C17.7781 0 12.0274 1.07807 7.68485 2.95338C5.51356 3.8909 3.68022 5.01083 2.3033 6.41661C0.926384 7.82238 0 9.6142 0 11.5584V40.1144C0 42.0584 0.926756 43.8292 2.3033 45.2349C3.67985 46.6409 5.51412 47.7606 7.68485 48.6982C12.0263 50.5735 17.7798 51.6728 24.1093 51.6728C30.4389 51.6728 36.1679 50.5733 40.5123 48.6982C42.6845 47.7607 44.516 46.6406 45.8938 45.2349C47.2717 43.8294 48.2187 42.0592 48.2187 40.1144V11.5584C48.2187 9.6142 47.2923 7.82238 45.9154 6.41661C44.5384 5.01083 42.7051 3.8909 40.5338 2.95338C36.1912 1.07807 30.4406 0 24.1093 0ZM24.1093 4.07943C29.952 4.07943 35.241 5.12303 38.8763 6.69286C40.694 7.47767 42.0908 8.39187 42.9448 9.26371C43.7987 10.1356 44.0856 10.8741 44.0856 11.5584C44.0856 12.2428 43.7987 12.96 42.9448 13.8319C42.0908 14.7036 40.694 15.6178 38.8763 16.4027C35.241 17.9725 29.952 19.0373 24.1093 19.0373C18.2667 19.0373 12.9777 17.9725 9.34237 16.4027C7.5247 15.6178 6.12786 14.7036 5.27392 13.8319C4.41998 12.96 4.13303 12.2428 4.13303 11.5584C4.13303 10.8741 4.41998 10.1356 5.27392 9.26371C6.12786 8.39187 7.5247 7.47767 9.34237 6.69286C12.9777 5.12303 18.2667 4.07943 24.1093 4.07943ZM4.13303 18.2087C5.17662 18.9367 6.36483 19.5722 7.68485 20.1422C12.0274 22.0174 17.7781 23.1168 24.1093 23.1168C30.4406 23.1168 36.1912 22.0174 40.5338 20.1422C41.8538 19.5722 43.0421 18.9367 44.0856 18.2087V21.0771C44.0856 21.7614 43.7987 22.4786 42.9448 23.3505C42.0908 24.2223 40.694 25.1364 38.8763 25.9214C35.241 27.4912 29.952 28.556 24.1093 28.556C18.2667 28.556 12.9777 27.4912 9.34237 25.9214C7.5247 25.1364 6.12786 24.2223 5.27392 23.3505C4.41998 22.4786 4.13303 21.7614 4.13303 21.0771V18.2087ZM4.13303 27.7273C5.17662 28.4554 6.36483 29.0908 7.68485 29.6609C12.0274 31.5361 17.7781 32.6355 24.1093 32.6355C30.4406 32.6355 36.1912 31.5361 40.5338 29.6609C41.8538 29.0908 43.0421 28.4554 44.0856 27.7273V30.5957C44.0856 31.2801 43.7987 31.9973 42.9448 32.8692C42.0908 33.741 40.694 34.6551 38.8763 35.4401C35.241 37.0099 29.952 38.0747 24.1093 38.0747C18.2667 38.0747 12.9777 37.0099 9.34237 35.4401C7.5247 34.6551 6.12786 33.741 5.27392 32.8692C4.41998 31.9973 4.13303 31.2801 4.13303 30.5957V27.7273V27.7273ZM4.13303 37.246C5.17662 37.9741 6.36483 38.6095 7.68485 39.1795C12.0274 41.0548 17.7781 42.1541 24.1093 42.1541C30.4406 42.1541 36.1912 41.0548 40.5338 39.1795C41.8538 38.6095 43.0421 37.9741 44.0856 37.246V40.1144C44.0856 40.7981 43.778 41.5158 42.9232 42.3879C42.0684 43.2598 40.6736 44.1737 38.8548 44.9587C35.2171 46.5288 29.9501 47.5934 24.1093 47.5934C18.2686 47.5934 12.9765 46.5285 9.34237 44.9587C7.52532 44.1739 6.12757 43.2597 5.27392 42.3879C4.42027 41.516 4.13303 40.7989 4.13303 40.1144V37.246V37.246Z" fill="#E17729"/>
<path d="M26.9753 40.24V72.4888L35.488 78.664L52.5132 81.0655L67.4955 77.9779L70.9005 71.1165V43.3277L67.4955 38.1816L54.5563 33.7217H40.255L26.9753 40.24Z" fill="#EDEDED"/>
<path d="M48.767 30.9766C42.5077 30.9766 36.8224 32.0645 32.5292 33.957C30.3825 34.9032 28.57 36.0334 27.2088 37.452C25.8475 38.8707 24.9316 40.679 24.9316 42.641V71.459C24.9316 73.4208 25.8479 75.2079 27.2088 76.6265C28.5697 78.0453 30.3831 79.1753 32.5292 80.1216C36.8213 82.0141 42.5094 83.1234 48.767 83.1234C55.0246 83.1234 60.6885 82.0138 64.9836 80.1216C67.1311 79.1754 68.9417 78.0451 70.304 76.6265C71.6662 75.2081 72.6024 73.4216 72.6024 71.459V42.641C72.6024 40.679 71.6865 38.8707 70.3252 37.452C68.964 36.0334 67.1515 34.9032 65.0048 33.957C60.7116 32.0645 55.0263 30.9766 48.767 30.9766ZM48.767 35.0934C54.5433 35.0934 59.7721 36.1466 63.3662 37.7308C65.1632 38.5228 66.5441 39.4454 67.3884 40.3253C68.2326 41.2051 68.5163 41.9504 68.5163 42.641C68.5163 43.3317 68.2326 44.0554 67.3884 44.9353C66.5441 45.8151 65.1632 46.7376 63.3662 47.5298C59.7721 49.114 54.5433 50.1886 48.767 50.1886C42.9908 50.1886 37.7619 49.114 34.1678 47.5298C32.3708 46.7376 30.9899 45.8151 30.1456 44.9353C29.3014 44.0554 29.0177 43.3317 29.0177 42.641C29.0177 41.9504 29.3014 41.2051 30.1456 40.3253C30.9899 39.4454 32.3708 38.5228 34.1678 37.7308C37.7619 36.1466 42.9908 35.0934 48.767 35.0934ZM29.0177 49.3523C30.0494 50.087 31.2241 50.7283 32.5292 51.3036C36.8224 53.196 42.5077 54.3054 48.767 54.3054C55.0263 54.3054 60.7116 53.196 65.0048 51.3036C66.3099 50.7283 67.4846 50.087 68.5163 49.3523V52.247C68.5163 52.9376 68.2326 53.6614 67.3884 54.5413C66.5441 55.4211 65.1632 56.3436 63.3662 57.1358C59.7721 58.72 54.5433 59.7946 48.767 59.7946C42.9908 59.7946 37.7619 58.72 34.1678 57.1358C32.3708 56.3436 30.9899 55.4211 30.1456 54.5413C29.3014 53.6614 29.0177 52.9376 29.0177 52.247V49.3523ZM29.0177 58.9583C30.0494 59.693 31.2241 60.3343 32.5292 60.9096C36.8224 62.802 42.5077 63.9114 48.767 63.9114C55.0263 63.9114 60.7116 62.802 65.0048 60.9096C66.3099 60.3343 67.4846 59.693 68.5163 58.9583V61.853C68.5163 62.5436 68.2326 63.2674 67.3884 64.1473C66.5441 65.0271 65.1632 65.9496 63.3662 66.7418C59.7721 68.326 54.5433 69.4006 48.767 69.4006C42.9908 69.4006 37.7619 68.326 34.1678 66.7418C32.3708 65.9496 30.9899 65.0271 30.1456 64.1473C29.3014 63.2674 29.0177 62.5436 29.0177 61.853V58.9583V58.9583ZM29.0177 68.5643C30.0494 69.299 31.2241 69.9403 32.5292 70.5156C36.8224 72.408 42.5077 73.5174 48.767 73.5174C55.0263 73.5174 60.7116 72.408 65.0048 70.5156C66.3099 69.9403 67.4846 69.299 68.5163 68.5643V71.459C68.5163 72.149 68.2122 72.8733 67.3671 73.7534C66.522 74.6333 65.143 75.5556 63.3449 76.3478C59.7486 77.9322 54.5414 79.0066 48.767 79.0066C42.9926 79.0066 37.7607 77.9319 34.1678 76.3478C32.3714 75.5557 30.9896 74.6332 30.1456 73.7534C29.3017 72.8735 29.0177 72.1498 29.0177 71.459V68.5643V68.5643Z" fill="#E17729"/>
</svg>
