<?xml version="1.0" encoding="UTF-8" standalone="no"?>
<!-- Created with Inkscape (http://www.inkscape.org/) -->

<svg
   xmlns:dc="http://purl.org/dc/elements/1.1/"
   xmlns:cc="http://creativecommons.org/ns#"
   xmlns:rdf="http://www.w3.org/1999/02/22-rdf-syntax-ns#"
   xmlns:svg="http://www.w3.org/2000/svg"
   xmlns="http://www.w3.org/2000/svg"
   xmlns:sodipodi="http://sodipodi.sourceforge.net/DTD/sodipodi-0.dtd"
   xmlns:inkscape="http://www.inkscape.org/namespaces/inkscape"
   width="640"
   height="480"
   viewBox="0 0 169.33333 127"
   version="1.1"
   id="svg8"
   inkscape:version="0.92.3 (2405546, 2018-03-11)"
   sodipodi:docname="git-lab.svg">
  <defs
     id="defs2" />
  <sodipodi:namedview
     id="base"
     pagecolor="#ffffff"
     bordercolor="#666666"
     borderopacity="1.0"
     inkscape:pageopacity="0.0"
     inkscape:pageshadow="2"
     inkscape:zoom="0.90509668"
     inkscape:cx="545.26177"
     inkscape:cy="507.39855"
     inkscape:document-units="mm"
     inkscape:current-layer="layer1"
     showgrid="false"
     units="px"
     inkscape:snap-global="false"
     inkscape:window-width="1680"
     inkscape:window-height="988"
     inkscape:window-x="-8"
     inkscape:window-y="-8"
     inkscape:window-maximized="1"
     inkscape:pagecheckerboard="true"
     showguides="true"
     inkscape:guide-bbox="true" />
  <metadata
     id="metadata5">
    <rdf:RDF>
      <cc:Work
         rdf:about="">
        <dc:format>image/svg+xml</dc:format>
        <dc:type
           rdf:resource="http://purl.org/dc/dcmitype/StillImage" />
        <dc:title />
      </cc:Work>
    </rdf:RDF>
  </metadata>
  <g
     inkscape:label="Calque 1"
     inkscape:groupmode="layer"
     id="layer1"
     transform="translate(0,-169.99998)">
    <flowRoot
       xml:space="preserve"
       id="flowRoot996"
       style="font-style:normal;font-weight:normal;font-size:10.66666698px;line-height:1.25;font-family:sans-serif;letter-spacing:0px;word-spacing:0px;fill:#000000;fill-opacity:1;stroke:none"
       transform="matrix(0.26458333,0,0,0.26458333,0,169.99998)"><flowRegion
         id="flowRegion998"
         style="font-size:10.66666698px"><rect
           id="rect1000"
           width="286.70972"
           height="162.41359"
           x="16.572815"
           y="131.41846"
           style="font-size:10.66666698px" /></flowRegion><flowPara
         id="flowPara1002" /></flowRoot>    <flowRoot
       xml:space="preserve"
       id="flowRoot1008"
       style="font-style:normal;font-weight:normal;font-size:8px;line-height:1.25;font-family:sans-serif;letter-spacing:0px;word-spacing:0px;fill:#000000;fill-opacity:1;stroke:none"
       transform="matrix(0.26458333,0,0,0.26458333,0,169.99998)"><flowRegion
         id="flowRegion1010"
         style="font-size:8px"><rect
           id="rect1012"
           width="106.34223"
           height="109.65679"
           x="35.907768"
           y="147.71506"
           style="font-size:8px" /></flowRegion><flowPara
         id="flowPara1014" /></flowRoot>    <flowRoot
       xml:space="preserve"
       id="flowRoot907"
       style="font-style:normal;font-weight:normal;font-size:5.33333349px;line-height:1.25;font-family:sans-serif;letter-spacing:0px;word-spacing:0px;fill:#000000;fill-opacity:1;stroke:none"
       transform="matrix(0.26458333,0,0,0.26458333,0,169.99998)"><flowRegion
         id="flowRegion909"
         style="font-size:5.33333349px"><rect
           id="rect911"
           width="118.21941"
           height="66.567474"
           x="282.5665"
           y="321.17719"
           style="font-size:5.33333349px" /></flowRegion><flowPara
         id="flowPara913" /></flowRoot>    <rect
       style="fill:#ffffff;fill-rule:evenodd;stroke-width:0.78006136"
       id="rect1322"
       width="169.33333"
       height="127"
       x="-3.5527137e-015"
       y="169.99998" />
    <rect
       style="fill:#f9f9f9;fill-opacity:1;fill-rule:evenodd;stroke-width:0.40358654"
       id="rect1355"
       width="42.333332"
       height="127"
       x="0"
       y="169.99998" />
    <rect
       style="fill:#2c5aa0;fill-opacity:1;fill-rule:evenodd;stroke-width:0.42251003"
       id="rect1324"
       width="169.33333"
       height="15"
       x="0"
       y="169.99998" />
    <g
       id="g1431"
       transform="translate(0,-0.50035401)">
      <rect
         ry="2.0670574"
         y="172.38123"
         x="97.151695"
         height="11.162108"
         width="54.156898"
         id="rect1326"
         style="fill:#ececec;fill-opacity:0.83898303;fill-rule:evenodd;stroke:none;stroke-width:0.20341557;paint-order:fill markers stroke" />
      <g
         id="flowRoot1328"
         style="font-style:normal;font-weight:normal;font-size:16px;line-height:1.25;font-family:sans-serif;letter-spacing:0px;word-spacing:0px;fill:#ffffff;fill-opacity:1;stroke:none"
         transform="matrix(0.41638098,0,0,0.46489879,347.9212,156.23715)"
         aria-label="Recherche">
        <path
           style="fill:#ffffff"
           inkscape:connector-curvature="0"
           id="path1336"
           d="m -589.77344,46.5 q 0.50782,0.171875 0.98438,0.734375 0.48437,0.5625 0.96875,1.546875 l 1.60156,3.1875 h -1.69531 l -1.49219,-2.992188 q -0.57812,-1.171875 -1.125,-1.554687 -0.53906,-0.382813 -1.47656,-0.382813 h -1.71875 v 4.929688 h -1.57813 V 40.304687 h 3.5625 q 2,0 2.98438,0.835938 0.98437,0.835937 0.98437,2.523437 0,1.101563 -0.51562,1.828125 -0.50781,0.726563 -1.48438,1.007813 z m -3.95312,-4.898438 v 4.140625 h 1.98437 q 1.14063,0 1.71875,-0.523437 0.58594,-0.53125 0.58594,-1.554688 0,-1.023437 -0.58594,-1.539062 -0.57812,-0.523438 -1.71875,-0.523438 z" />
        <path
           style="fill:#ffffff"
           inkscape:connector-curvature="0"
           id="path1338"
           d="M -577.47656,47.234375 V 47.9375 h -6.60938 q 0.0937,1.484375 0.89063,2.265625 0.80469,0.773437 2.23437,0.773437 0.82813,0 1.60157,-0.203125 0.78125,-0.203125 1.54687,-0.609375 v 1.359375 q -0.77344,0.328125 -1.58594,0.5 -0.8125,0.171875 -1.64843,0.171875 -2.09375,0 -3.32032,-1.21875 -1.21875,-1.21875 -1.21875,-3.296875 0,-2.148437 1.15625,-3.40625 1.16407,-1.265625 3.13282,-1.265625 1.76562,0 2.78906,1.140625 1.03125,1.132813 1.03125,3.085938 z m -1.4375,-0.421875 q -0.0156,-1.179688 -0.66406,-1.882813 -0.64063,-0.703125 -1.70313,-0.703125 -1.20312,0 -1.92969,0.679688 -0.71875,0.679687 -0.82812,1.914062 z" />
        <path
           style="fill:#ffffff"
           inkscape:connector-curvature="0"
           id="path1340"
           d="m -568.82031,43.554687 v 1.34375 q -0.60938,-0.335937 -1.22656,-0.5 -0.60938,-0.171875 -1.23438,-0.171875 -1.39844,0 -2.17187,0.890625 -0.77344,0.882813 -0.77344,2.484375 0,1.601563 0.77344,2.492188 0.77343,0.882812 2.17187,0.882812 0.625,0 1.23438,-0.164062 0.61718,-0.171875 1.22656,-0.507813 v 1.328125 q -0.60156,0.28125 -1.25,0.421875 -0.64063,0.140625 -1.36719,0.140625 -1.97656,0 -3.14062,-1.242187 -1.16407,-1.242188 -1.16407,-3.351563 0,-2.140625 1.17188,-3.367187 1.17969,-1.226563 3.22656,-1.226563 0.66406,0 1.29688,0.140625 0.63281,0.132813 1.22656,0.40625 z" />
        <path
           style="fill:#ffffff"
           inkscape:connector-curvature="0"
           id="path1342"
           d="m -559.03125,46.6875 v 5.28125 h -1.4375 v -5.234375 q 0,-1.242188 -0.48437,-1.859375 -0.48438,-0.617188 -1.45313,-0.617188 -1.16406,0 -1.83594,0.742188 -0.67187,0.742187 -0.67187,2.023437 v 4.945313 h -1.44531 V 39.8125 h 1.44531 v 4.765625 q 0.51562,-0.789063 1.21094,-1.179688 0.70312,-0.390625 1.61718,-0.390625 1.50782,0 2.28125,0.9375 0.77344,0.929688 0.77344,2.742188 z" />
        <path
           style="fill:#ffffff"
           inkscape:connector-curvature="0"
           id="path1344"
           d="M -548.66406,47.234375 V 47.9375 h -6.60938 q 0.0937,1.484375 0.89063,2.265625 0.80469,0.773437 2.23437,0.773437 0.82813,0 1.60157,-0.203125 0.78125,-0.203125 1.54687,-0.609375 v 1.359375 q -0.77344,0.328125 -1.58594,0.5 -0.8125,0.171875 -1.64843,0.171875 -2.09375,0 -3.32032,-1.21875 -1.21875,-1.21875 -1.21875,-3.296875 0,-2.148437 1.15625,-3.40625 1.16407,-1.265625 3.13282,-1.265625 1.76562,0 2.78906,1.140625 1.03125,1.132813 1.03125,3.085938 z m -1.4375,-0.421875 q -0.0156,-1.179688 -0.66406,-1.882813 -0.64063,-0.703125 -1.70313,-0.703125 -1.20312,0 -1.92969,0.679688 -0.71875,0.679687 -0.82812,1.914062 z" />
        <path
           style="fill:#ffffff"
           inkscape:connector-curvature="0"
           id="path1346"
           d="m -541.23437,44.5625 q -0.24219,-0.140625 -0.53125,-0.203125 -0.28125,-0.07031 -0.625,-0.07031 -1.21875,0 -1.875,0.796875 -0.64844,0.789063 -0.64844,2.273438 v 4.609375 h -1.44531 v -8.75 h 1.44531 v 1.359375 q 0.45312,-0.796875 1.17969,-1.179688 0.72656,-0.390625 1.76562,-0.390625 0.14844,0 0.32813,0.02344 0.17968,0.01563 0.39843,0.05469 z" />
        <path
           style="fill:#ffffff"
           inkscape:connector-curvature="0"
           id="path1348"
           d="m -533.75781,43.554687 v 1.34375 q -0.60938,-0.335937 -1.22656,-0.5 -0.60938,-0.171875 -1.23438,-0.171875 -1.39844,0 -2.17187,0.890625 -0.77344,0.882813 -0.77344,2.484375 0,1.601563 0.77344,2.492188 0.77343,0.882812 2.17187,0.882812 0.625,0 1.23438,-0.164062 0.61718,-0.171875 1.22656,-0.507813 v 1.328125 q -0.60156,0.28125 -1.25,0.421875 -0.64063,0.140625 -1.36719,0.140625 -1.97656,0 -3.14062,-1.242187 -1.16407,-1.242188 -1.16407,-3.351563 0,-2.140625 1.17188,-3.367187 1.17969,-1.226563 3.22656,-1.226563 0.66406,0 1.29688,0.140625 0.63281,0.132813 1.22656,0.40625 z" />
        <path
           style="fill:#ffffff"
           inkscape:connector-curvature="0"
           id="path1350"
           d="m -523.96875,46.6875 v 5.28125 h -1.4375 v -5.234375 q 0,-1.242188 -0.48437,-1.859375 -0.48438,-0.617188 -1.45313,-0.617188 -1.16406,0 -1.83594,0.742188 -0.67187,0.742187 -0.67187,2.023437 v 4.945313 h -1.44531 V 39.8125 h 1.44531 v 4.765625 q 0.51562,-0.789063 1.21094,-1.179688 0.70312,-0.390625 1.61718,-0.390625 1.50782,0 2.28125,0.9375 0.77344,0.929688 0.77344,2.742188 z" />
        <path
           style="fill:#ffffff"
           inkscape:connector-curvature="0"
           id="path1352"
           d="M -513.60156,47.234375 V 47.9375 h -6.60938 q 0.0937,1.484375 0.89063,2.265625 0.80469,0.773437 2.23437,0.773437 0.82813,0 1.60157,-0.203125 0.78125,-0.203125 1.54687,-0.609375 v 1.359375 q -0.77344,0.328125 -1.58594,0.5 -0.8125,0.171875 -1.64843,0.171875 -2.09375,0 -3.32032,-1.21875 -1.21875,-1.21875 -1.21875,-3.296875 0,-2.148437 1.15625,-3.40625 1.16407,-1.265625 3.13282,-1.265625 1.76562,0 2.78906,1.140625 1.03125,1.132813 1.03125,3.085938 z m -1.4375,-0.421875 q -0.0156,-1.179688 -0.66406,-1.882813 -0.64063,-0.703125 -1.70313,-0.703125 -1.20312,0 -1.92969,0.679688 -0.71875,0.679687 -0.82812,1.914062 z" />
      </g>
    </g>
    <rect
       y="202.52719"
       x="0"
       height="38.662243"
       width="42.333332"
       id="rect1357"
       style="fill:#e6e6e6;fill-opacity:1;fill-rule:evenodd;stroke-width:0.22267851" />
    <g
       aria-label="Repository"
       transform="matrix(0.26458333,0,0,0.26458333,151.1021,183.7393)"
       style="font-style:normal;font-weight:normal;font-size:16px;line-height:1.25;font-family:sans-serif;letter-spacing:0px;word-spacing:0px;fill:#0000c1;fill-opacity:1;stroke:none"
       id="flowRoot1359">
      <path
         d="m -550.84961,83.205078 q 0.50781,0.171875 0.98438,0.734375 0.48437,0.5625 0.96875,1.546875 l 1.60156,3.1875 h -1.69531 l -1.49219,-2.992187 q -0.57813,-1.171875 -1.125,-1.554688 -0.53906,-0.382812 -1.47656,-0.382812 h -1.71875 v 4.929687 h -1.57813 V 77.009766 h 3.5625 q 2,0 2.98438,0.835937 0.98437,0.835938 0.98437,2.523438 0,1.101562 -0.51562,1.828125 -0.50782,0.726562 -1.48438,1.007812 z m -3.95312,-4.898437 v 4.140625 h 1.98437 q 1.14063,0 1.71875,-0.523438 0.58594,-0.53125 0.58594,-1.554687 0,-1.023438 -0.58594,-1.539063 -0.57812,-0.523437 -1.71875,-0.523437 z"
         id="path1367"
         inkscape:connector-curvature="0"
         style="fill:#0000c1;fill-opacity:1" />
      <path
         d="m -538.55273,83.939453 v 0.703125 h -6.60938 q 0.0937,1.484375 0.89063,2.265625 0.80468,0.773438 2.23437,0.773438 0.82813,0 1.60156,-0.203125 0.78125,-0.203125 1.54688,-0.609375 v 1.359375 q -0.77344,0.328125 -1.58594,0.5 -0.8125,0.171875 -1.64844,0.171875 -2.09375,0 -3.32031,-1.21875 -1.21875,-1.21875 -1.21875,-3.296875 0,-2.148438 1.15625,-3.40625 1.16406,-1.265625 3.13281,-1.265625 1.76563,0 2.78907,1.140625 1.03125,1.132812 1.03125,3.085937 z m -1.4375,-0.421875 q -0.0156,-1.179687 -0.66407,-1.882812 -0.64062,-0.703125 -1.70312,-0.703125 -1.20313,0 -1.92969,0.679687 -0.71875,0.679688 -0.82812,1.914063 z"
         id="path1369"
         inkscape:connector-curvature="0"
         style="fill:#0000c1;fill-opacity:1" />
      <path
         d="m -534.80273,87.361328 v 4.640625 h -1.44532 V 79.923828 h 1.44532 v 1.328125 q 0.45312,-0.78125 1.14062,-1.15625 0.69531,-0.382812 1.65625,-0.382812 1.59375,0 2.58594,1.265625 1,1.265625 1,3.328125 0,2.0625 -1,3.328125 -0.99219,1.265625 -2.58594,1.265625 -0.96094,0 -1.65625,-0.375 -0.6875,-0.382813 -1.14062,-1.164063 z m 4.89062,-3.054687 q 0,-1.585938 -0.65625,-2.484375 -0.64844,-0.90625 -1.78906,-0.90625 -1.14063,0 -1.79688,0.90625 -0.64843,0.898437 -0.64843,2.484375 0,1.585937 0.64843,2.492187 0.65625,0.898438 1.79688,0.898438 1.14062,0 1.78906,-0.898438 0.65625,-0.90625 0.65625,-2.492187 z"
         id="path1371"
         inkscape:connector-curvature="0"
         style="fill:#0000c1;fill-opacity:1" />
      <path
         d="m -522.64648,80.931641 q -1.15625,0 -1.82813,0.90625 -0.67187,0.898437 -0.67187,2.46875 0,1.570312 0.66406,2.476562 0.67187,0.898438 1.83594,0.898438 1.14843,0 1.82031,-0.90625 0.67187,-0.90625 0.67187,-2.46875 0,-1.554688 -0.67187,-2.460938 -0.67188,-0.914062 -1.82031,-0.914062 z m 0,-1.21875 q 1.875,0 2.94531,1.21875 1.07031,1.21875 1.07031,3.375 0,2.148437 -1.07031,3.375 -1.07031,1.21875 -2.94531,1.21875 -1.88282,0 -2.95313,-1.21875 -1.0625,-1.226563 -1.0625,-3.375 0,-2.15625 1.0625,-3.375 1.07031,-1.21875 2.95313,-1.21875 z"
         id="path1373"
         inkscape:connector-curvature="0"
         style="fill:#0000c1;fill-opacity:1" />
      <path
         d="m -510.67773,80.181641 v 1.359375 q -0.60938,-0.3125 -1.26563,-0.46875 -0.65625,-0.15625 -1.35937,-0.15625 -1.07032,0 -1.60938,0.328125 -0.53125,0.328125 -0.53125,0.984375 0,0.5 0.38281,0.789062 0.38282,0.28125 1.53907,0.539063 l 0.49218,0.109375 q 1.53125,0.328125 2.17188,0.929687 0.64844,0.59375 0.64844,1.664063 0,1.21875 -0.96875,1.929687 -0.96094,0.710938 -2.64844,0.710938 -0.70313,0 -1.46875,-0.140625 -0.75781,-0.132813 -1.60156,-0.40625 v -1.484375 q 0.79687,0.414062 1.57031,0.625 0.77344,0.203125 1.53125,0.203125 1.01562,0 1.5625,-0.34375 0.54687,-0.351563 0.54687,-0.984375 0,-0.585938 -0.39843,-0.898438 -0.39063,-0.3125 -1.72657,-0.601562 l -0.5,-0.117188 q -1.33593,-0.28125 -1.92968,-0.859375 -0.59375,-0.585937 -0.59375,-1.601562 0,-1.234375 0.875,-1.90625 0.875,-0.671875 2.48437,-0.671875 0.79688,0 1.5,0.117187 0.70313,0.117188 1.29688,0.351563 z"
         id="path1375"
         inkscape:connector-curvature="0"
         style="fill:#0000c1;fill-opacity:1" />
      <path
         d="m -507.91211,79.923828 h 1.4375 v 8.75 h -1.4375 z m 0,-3.40625 h 1.4375 v 1.820313 h -1.4375 z"
         id="path1377"
         inkscape:connector-curvature="0"
         style="fill:#0000c1;fill-opacity:1" />
      <path
         d="m -502.05273,77.439453 v 2.484375 h 2.96093 v 1.117188 h -2.96093 v 4.75 q 0,1.070312 0.28906,1.375 0.29687,0.304687 1.19531,0.304687 h 1.47656 v 1.203125 h -1.47656 q -1.66406,0 -2.29687,-0.617187 -0.63282,-0.625 -0.63282,-2.265625 v -4.75 h -1.05468 v -1.117188 h 1.05468 v -2.484375 z"
         id="path1379"
         inkscape:connector-curvature="0"
         style="fill:#0000c1;fill-opacity:1" />
      <path
         d="m -493.80273,80.931641 q -1.15625,0 -1.82813,0.90625 -0.67187,0.898437 -0.67187,2.46875 0,1.570312 0.66406,2.476562 0.67187,0.898438 1.83594,0.898438 1.14843,0 1.82031,-0.90625 0.67187,-0.90625 0.67187,-2.46875 0,-1.554688 -0.67187,-2.460938 -0.67188,-0.914062 -1.82031,-0.914062 z m 0,-1.21875 q 1.875,0 2.94531,1.21875 1.07031,1.21875 1.07031,3.375 0,2.148437 -1.07031,3.375 -1.07031,1.21875 -2.94531,1.21875 -1.88282,0 -2.95313,-1.21875 -1.0625,-1.226563 -1.0625,-3.375 0,-2.15625 1.0625,-3.375 1.07031,-1.21875 2.95313,-1.21875 z"
         id="path1381"
         inkscape:connector-curvature="0"
         style="fill:#0000c1;fill-opacity:1" />
      <path
         d="m -482.3418,81.267578 q -0.24218,-0.140625 -0.53125,-0.203125 -0.28125,-0.07031 -0.625,-0.07031 -1.21875,0 -1.875,0.796875 -0.64843,0.789062 -0.64843,2.273437 v 4.609375 h -1.44532 v -8.75 h 1.44532 v 1.359375 q 0.45312,-0.796875 1.17968,-1.179687 0.72657,-0.390625 1.76563,-0.390625 0.14844,0 0.32812,0.02344 0.17969,0.01563 0.39844,0.05469 z"
         id="path1383"
         inkscape:connector-curvature="0"
         style="fill:#0000c1;fill-opacity:1" />
      <path
         d="m -477.17773,89.486328 q -0.60938,1.5625 -1.1875,2.039063 -0.57813,0.476562 -1.54688,0.476562 h -1.14844 v -1.203125 h 0.84375 q 0.59375,0 0.92188,-0.28125 0.32812,-0.28125 0.72656,-1.328125 l 0.25781,-0.65625 -3.53906,-8.609375 h 1.52344 l 2.73437,6.84375 2.73438,-6.84375 h 1.52344 z"
         id="path1385"
         inkscape:connector-curvature="0"
         style="fill:#0000c1;fill-opacity:1" />
    </g>
    <rect
       style="fill:#cccccc;fill-opacity:1;fill-rule:evenodd;stroke-width:0.08606607"
       id="rect1388"
       width="42.333332"
       height="5.7755628"
       x="0"
       y="209.52737" />
    <g
       aria-label="File"
       transform="matrix(0.33658667,0,0,0.34327467,90.244933,148.02757)"
       style="font-style:normal;font-weight:normal;font-size:12px;line-height:1.25;font-family:sans-serif;letter-spacing:0px;word-spacing:0px;fill:#2727c7;fill-opacity:1;stroke:none"
       id="flowRoot1390">
      <path
         d="m -248.51953,183.00586 h 5.02734 v 0.99609 h -3.84375 v 2.57813 h 3.46875 v 0.99609 h -3.46875 v 4.17774 h -1.18359 z"
         id="path1398"
         inkscape:connector-curvature="0"
         style="fill:#2727c7;fill-opacity:1" />
      <path
         d="m -242.51953,185.19141 h 1.07812 v 6.5625 h -1.07812 z m 0,-2.55469 h 1.07812 v 1.36523 h -1.07812 z"
         id="path1400"
         inkscape:connector-curvature="0"
         style="fill:#2727c7;fill-opacity:1" />
      <path
         d="m -239.19141,182.63672 h 1.07813 v 9.11719 h -1.07813 z"
         id="path1402"
         inkscape:connector-curvature="0"
         style="fill:#2727c7;fill-opacity:1" />
      <path
         d="m -230.25,188.20312 v 0.52735 h -4.95703 q 0.0703,1.11328 0.66797,1.69922 0.60351,0.58008 1.67578,0.58008 0.62109,0 1.20117,-0.15235 0.58594,-0.15234 1.16016,-0.45703 v 1.01953 q -0.58008,0.2461 -1.18946,0.375 -0.60937,0.12891 -1.23632,0.12891 -1.57032,0 -2.49024,-0.91406 -0.91406,-0.91407 -0.91406,-2.47266 0,-1.61133 0.86719,-2.55469 0.87304,-0.94922 2.34961,-0.94922 1.32421,0 2.09179,0.85547 0.77344,0.84961 0.77344,2.31445 z m -1.07812,-0.3164 q -0.0117,-0.88477 -0.49805,-1.41211 -0.48047,-0.52734 -1.27735,-0.52734 -0.90234,0 -1.44726,0.50976 -0.53906,0.50977 -0.62109,1.43555 z"
         id="path1404"
         inkscape:connector-curvature="0"
         style="fill:#2727c7;fill-opacity:1" />
    </g>
    <g
       id="g1436">
      <circle
         r="6"
         cy="177.27464"
         cx="8.4680672"
         id="path1407"
         style="opacity:1;fill:#ffcc00;fill-opacity:1;stroke:none;stroke-width:0.06318158;stroke-miterlimit:4;stroke-dasharray:none;stroke-opacity:1;paint-order:fill markers stroke" />
      <g
         id="flowRoot1409"
         style="font-style:normal;font-variant:normal;font-weight:normal;font-stretch:normal;font-size:32px;line-height:1.25;font-family:'Source Sans Pro';-inkscape-font-specification:'Source Sans Pro';letter-spacing:0px;word-spacing:0px;fill:#ffffff;fill-opacity:1;stroke:none"
         transform="matrix(0.34262627,0,0,0.30397085,23.260613,188.65498)"
         aria-label="A">
        <path
           inkscape:connector-curvature="0"
           id="path1417"
           d="m -40.145125,-36.090875 -0.992,-3.2 q -0.576,-1.76 -1.088,-3.488 -0.512,-1.76 -1.024,-3.584 h -0.128 q -0.48,1.824 -0.992,3.584 -0.512,1.728 -1.088,3.488 l -0.992,3.2 z m 0.672,2.144 h -7.648 l -2.016,6.4 h -2.72 l 7.104,-20.992 h 3.008 l 7.104,20.992 h -2.848 z" />
      </g>
    </g>
    <rect
       style="fill:#f2f2f2;fill-rule:evenodd;stroke:#c6c6c6;stroke-width:0.27618062;stroke-opacity:1"
       id="rect1438"
       width="96.55883"
       height="10.910861"
       x="64.653183"
       y="190.74525"
       ry="0.79191744" />
    <path
       style="fill:#f2f2f2;fill-rule:evenodd;stroke:#c6c6c6;stroke-width:0.22187227;stroke-opacity:1"
       d="m 65.136835,207.6512 h 95.591525 c 0.28299,0 0.51081,0.22782 0.51081,0.5108 v 6.01615 H 64.62603 V 208.162 c 0,-0.28298 0.227819,-0.5108 0.510805,-0.5108 z"
       id="rect1440"
       inkscape:connector-curvature="0"
       sodipodi:nodetypes="sssccss" />
    <path
       style="fill:#ffffff;fill-rule:evenodd;stroke:#c6c6c6;stroke-width:0.22187227;stroke-opacity:1"
       d="m 161.23917,214.17815 4e-4,6.91583 H 64.62643 l -4e-4,-6.91583 z"
       id="rect1442"
       inkscape:connector-curvature="0"
       sodipodi:nodetypes="ccccc" />
    <path
       style="fill:#ffffff;fill-rule:evenodd;stroke:#c6c6c6;stroke-width:0.22187227;stroke-opacity:1"
       d="m 161.23957,221.09398 5.3e-4,6.91583 H 64.626828 l -4e-4,-6.91583 z"
       id="rect1442-5"
       inkscape:connector-curvature="0"
       sodipodi:nodetypes="ccccc" />
    <path
       style="fill:#ffffff;fill-rule:evenodd;stroke:#c6c6c6;stroke-width:0.22187227;stroke-opacity:1"
       d="m 161.23996,228.00981 5.3e-4,6.91583 H 64.627228 l -4e-4,-6.91583 z"
       id="rect1442-6"
       inkscape:connector-curvature="0"
       sodipodi:nodetypes="ccccc" />
    <path
       style="fill:#ffffff;fill-rule:evenodd;stroke:#c6c6c6;stroke-width:0.22187227;stroke-opacity:1"
       d="m 161.24049,234.92564 5.3e-4,6.91583 H 64.627749 l -4e-4,-6.91583 z"
       id="rect1442-60"
       inkscape:connector-curvature="0"
       sodipodi:nodetypes="ccccc" />
    <g
       id="g1573">
      <path
         d="m 66.743625,209.71826 h 0.37483 l 0.91226,1.72117 v -1.72117 h 0.27009 v 2.05741 h -0.37482 l -0.91226,-1.72117 v 1.72117 h -0.2701 z"
         id="path1508"
         inkscape:connector-curvature="0"
         style="font-style:normal;font-weight:normal;font-size:medium;line-height:1.25;font-family:sans-serif;letter-spacing:0px;word-spacing:0px;fill:#000000;fill-opacity:1;stroke:none;stroke-width:0.26458332" />
      <path
         d="m 69.441825,210.41004 q -0.20395,0 -0.32246,0.15985 -0.11851,0.15848 -0.11851,0.43546 0,0.27699 0.11713,0.43684 0.11851,0.15847 0.32384,0.15847 0.20257,0 0.32108,-0.15985 0.11852,-0.15985 0.11852,-0.43546 0,-0.27423 -0.11852,-0.43408 -0.11851,-0.16123 -0.32108,-0.16123 z m 0,-0.21498 q 0.33073,0 0.51952,0.21498 0.18879,0.21497 0.18879,0.59531 0,0.37896 -0.18879,0.59531 -0.18879,0.21498 -0.51952,0.21498 -0.33211,0 -0.5209,-0.21498 -0.18741,-0.21635 -0.18741,-0.59531 0,-0.38034 0.18741,-0.59531 0.18879,-0.21498 0.5209,-0.21498 z"
         id="path1510"
         inkscape:connector-curvature="0"
         style="font-style:normal;font-weight:normal;font-size:medium;line-height:1.25;font-family:sans-serif;letter-spacing:0px;word-spacing:0px;fill:#000000;fill-opacity:1;stroke:none;stroke-width:0.26458332" />
      <path
         d="m 71.770715,210.52855 q 0.0951,-0.17088 0.22737,-0.25218 0.13229,-0.0813 0.31144,-0.0813 0.24115,0 0.37207,0.1695 0.13091,0.16812 0.13091,0.47956 v 0.93155 h -0.25494 v -0.92328 q 0,-0.22187 -0.0785,-0.32935 -0.0785,-0.10749 -0.23978,-0.10749 -0.19706,0 -0.31144,0.13091 -0.11438,0.13092 -0.11438,0.35692 v 0.87229 h -0.25493 v -0.92328 q 0,-0.22324 -0.0786,-0.32935 -0.0786,-0.10749 -0.24254,-0.10749 -0.1943,0 -0.30868,0.13229 -0.11437,0.13092 -0.11437,0.35554 v 0.87229 h -0.25494 v -1.5434 h 0.25494 v 0.23978 q 0.0868,-0.14194 0.20808,-0.20946 0.12127,-0.0675 0.28801,-0.0675 0.16812,0 0.28526,0.0854 0.11851,0.0854 0.17501,0.24805 z"
         id="path1512"
         inkscape:connector-curvature="0"
         style="font-style:normal;font-weight:normal;font-size:medium;line-height:1.25;font-family:sans-serif;letter-spacing:0px;word-spacing:0px;fill:#000000;fill-opacity:1;stroke:none;stroke-width:0.26458332" />
    </g>
    <g
       id="g1568"
       transform="translate(0.52916663,-0.52916667)">
      <path
         d="m 107.43324,210.16153 v 0.29352 q -0.14056,-0.13091 -0.30042,-0.19568 -0.15847,-0.0648 -0.33761,-0.0648 -0.35278,0 -0.5402,0.21635 -0.18741,0.21498 -0.18741,0.62288 0,0.40652 0.18741,0.62287 0.18742,0.21497 0.5402,0.21497 0.17914,0 0.33761,-0.0648 0.15986,-0.0648 0.30042,-0.19569 v 0.29077 q -0.14608,0.0992 -0.31006,0.14883 -0.16261,0.0496 -0.34451,0.0496 -0.46716,0 -0.73587,-0.28526 -0.26872,-0.28663 -0.26872,-0.78134 0,-0.4961 0.26872,-0.78135 0.26871,-0.28663 0.73587,-0.28663 0.18466,0 0.34727,0.0496 0.16398,0.0482 0.3073,0.14607 z"
         id="path1514"
         inkscape:connector-curvature="0"
         style="font-style:normal;font-weight:normal;font-size:medium;line-height:1.25;font-family:sans-serif;letter-spacing:0px;word-spacing:0px;fill:#000000;fill-opacity:1;stroke:none;stroke-width:0.26458332" />
      <path
         d="m 108.45298,210.69483 q -0.20394,0 -0.32246,0.15985 -0.11851,0.15848 -0.11851,0.43546 0,0.27699 0.11714,0.43684 0.11851,0.15847 0.32383,0.15847 0.20258,0 0.32109,-0.15985 0.11851,-0.15985 0.11851,-0.43546 0,-0.27423 -0.11851,-0.43408 -0.11851,-0.16123 -0.32109,-0.16123 z m 0,-0.21498 q 0.33073,0 0.51952,0.21498 0.1888,0.21497 0.1888,0.59531 0,0.37896 -0.1888,0.59531 -0.18879,0.21498 -0.51952,0.21498 -0.3321,0 -0.52089,-0.21498 -0.18742,-0.21635 -0.18742,-0.59531 0,-0.38034 0.18742,-0.59531 0.18879,-0.21498 0.52089,-0.21498 z"
         id="path1516"
         inkscape:connector-curvature="0"
         style="font-style:normal;font-weight:normal;font-size:medium;line-height:1.25;font-family:sans-serif;letter-spacing:0px;word-spacing:0px;fill:#000000;fill-opacity:1;stroke:none;stroke-width:0.26458332" />
      <path
         d="m 110.78187,210.81334 q 0.0951,-0.17088 0.22738,-0.25218 0.13229,-0.0813 0.31143,-0.0813 0.24116,0 0.37207,0.1695 0.13092,0.16812 0.13092,0.47956 v 0.93155 h -0.25494 v -0.92328 q 0,-0.22187 -0.0786,-0.32935 -0.0786,-0.10749 -0.23978,-0.10749 -0.19706,0 -0.31143,0.13091 -0.11438,0.13092 -0.11438,0.35692 v 0.87229 h -0.25494 v -0.92328 q 0,-0.22324 -0.0786,-0.32935 -0.0785,-0.10749 -0.24253,-0.10749 -0.1943,0 -0.30868,0.13229 -0.11438,0.13092 -0.11438,0.35554 v 0.87229 h -0.25494 v -1.5434 h 0.25494 v 0.23978 q 0.0868,-0.14194 0.20808,-0.20946 0.12127,-0.0675 0.28802,-0.0675 0.16812,0 0.28525,0.0854 0.11851,0.0854 0.17501,0.24805 z"
         id="path1518"
         inkscape:connector-curvature="0"
         style="font-style:normal;font-weight:normal;font-size:medium;line-height:1.25;font-family:sans-serif;letter-spacing:0px;word-spacing:0px;fill:#000000;fill-opacity:1;stroke:none;stroke-width:0.26458332" />
      <path
         d="m 113.53243,210.81334 q 0.0951,-0.17088 0.22738,-0.25218 0.13229,-0.0813 0.31144,-0.0813 0.24115,0 0.37207,0.1695 0.13091,0.16812 0.13091,0.47956 v 0.93155 h -0.25494 v -0.92328 q 0,-0.22187 -0.0786,-0.32935 -0.0785,-0.10749 -0.23977,-0.10749 -0.19706,0 -0.31144,0.13091 -0.11438,0.13092 -0.11438,0.35692 v 0.87229 h -0.25493 v -0.92328 q 0,-0.22324 -0.0785,-0.32935 -0.0786,-0.10749 -0.24254,-0.10749 -0.1943,0 -0.30868,0.13229 -0.11437,0.13092 -0.11437,0.35554 v 0.87229 h -0.25494 v -1.5434 h 0.25494 v 0.23978 q 0.0868,-0.14194 0.20808,-0.20946 0.12127,-0.0675 0.28801,-0.0675 0.16812,0 0.28525,0.0854 0.11852,0.0854 0.17501,0.24805 z"
         id="path1520"
         inkscape:connector-curvature="0"
         style="font-style:normal;font-weight:normal;font-size:medium;line-height:1.25;font-family:sans-serif;letter-spacing:0px;word-spacing:0px;fill:#000000;fill-opacity:1;stroke:none;stroke-width:0.26458332" />
      <path
         d="m 115.08135,210.51706 h 0.25356 v 1.5434 h -0.25356 z m 0,-0.60082 h 0.25356 v 0.32108 h -0.25356 z"
         id="path1522"
         inkscape:connector-curvature="0"
         style="font-style:normal;font-weight:normal;font-size:medium;line-height:1.25;font-family:sans-serif;letter-spacing:0px;word-spacing:0px;fill:#000000;fill-opacity:1;stroke:none;stroke-width:0.26458332" />
      <path
         d="m 116.11488,210.07885 v 0.43821 h 0.52227 v 0.19706 h -0.52227 v 0.83785 q 0,0.18879 0.051,0.24253 0.0524,0.0538 0.21084,0.0538 h 0.26045 v 0.21221 h -0.26045 q -0.29352,0 -0.40514,-0.10886 -0.11162,-0.11024 -0.11162,-0.39963 v -0.83785 h -0.18603 v -0.19706 h 0.18603 v -0.43821 z"
         id="path1524"
         inkscape:connector-curvature="0"
         style="font-style:normal;font-weight:normal;font-size:medium;line-height:1.25;font-family:sans-serif;letter-spacing:0px;word-spacing:0px;fill:#000000;fill-opacity:1;stroke:none;stroke-width:0.26458332" />
    </g>
    <g
       id="g1560"
       transform="translate(-66.559245,22.73763)">
      <path
         d="m 212.12417,186.6453 h 0.27974 v 1.24988 q 0,0.33073 0.1199,0.4768 0.11988,0.1447 0.3886,0.1447 0.26734,0 0.38723,-0.1447 0.11989,-0.14607 0.11989,-0.4768 v -1.24988 h 0.27974 v 1.28433 q 0,0.40239 -0.19981,0.60772 -0.19844,0.20533 -0.58705,0.20533 -0.38998,0 -0.5898,-0.20533 -0.19844,-0.20533 -0.19844,-0.60772 z"
         id="path1526"
         inkscape:connector-curvature="0"
         style="font-style:normal;font-weight:normal;font-size:medium;line-height:1.25;font-family:sans-serif;letter-spacing:0px;word-spacing:0px;fill:#000000;fill-opacity:1;stroke:none;stroke-width:0.26458332" />
      <path
         d="m 214.45719,188.4712 v 0.81856 h -0.25493 v -2.13045 h 0.25493 v 0.23427 q 0.0799,-0.13781 0.20119,-0.20395 0.12265,-0.0675 0.29215,-0.0675 0.28112,0 0.45613,0.22325 0.17639,0.22324 0.17639,0.58704 0,0.3638 -0.17639,0.58705 -0.17501,0.22324 -0.45613,0.22324 -0.1695,0 -0.29215,-0.0661 -0.12126,-0.0675 -0.20119,-0.20533 z m 0.86265,-0.53881 q 0,-0.27974 -0.11575,-0.43822 -0.11438,-0.15985 -0.31557,-0.15985 -0.2012,0 -0.31695,0.15985 -0.11438,0.15848 -0.11438,0.43822 0,0.27974 0.11438,0.43959 0.11575,0.15848 0.31695,0.15848 0.20119,0 0.31557,-0.15848 0.11575,-0.15985 0.11575,-0.43959 z"
         id="path1528"
         inkscape:connector-curvature="0"
         style="font-style:normal;font-weight:normal;font-size:medium;line-height:1.25;font-family:sans-serif;letter-spacing:0px;word-spacing:0px;fill:#000000;fill-opacity:1;stroke:none;stroke-width:0.26458332" />
      <path
         d="m 217.01897,187.39358 v -0.83509 h 0.25356 v 2.14422 h -0.25356 v -0.23151 q -0.0799,0.13781 -0.20258,0.20533 -0.12126,0.0661 -0.29214,0.0661 -0.27974,0 -0.45613,-0.22324 -0.17501,-0.22325 -0.17501,-0.58705 0,-0.3638 0.17501,-0.58704 0.17639,-0.22325 0.45613,-0.22325 0.17088,0 0.29214,0.0675 0.12265,0.0661 0.20258,0.20395 z m -0.86403,0.53881 q 0,0.27974 0.11437,0.43959 0.11576,0.15848 0.31695,0.15848 0.20119,0 0.31695,-0.15848 0.11576,-0.15985 0.11576,-0.43959 0,-0.27974 -0.11576,-0.43822 -0.11576,-0.15985 -0.31695,-0.15985 -0.20119,0 -0.31695,0.15985 -0.11437,0.15848 -0.11437,0.43822 z"
         id="path1530"
         inkscape:connector-curvature="0"
         style="font-style:normal;font-weight:normal;font-size:medium;line-height:1.25;font-family:sans-serif;letter-spacing:0px;word-spacing:0px;fill:#000000;fill-opacity:1;stroke:none;stroke-width:0.26458332" />
      <path
         d="m 218.49622,187.92688 q -0.3073,0 -0.42581,0.0703 -0.11851,0.0703 -0.11851,0.23978 0,0.13504 0.0882,0.21497 0.0896,0.0786 0.24254,0.0786 0.21083,0 0.33761,-0.14883 0.12816,-0.1502 0.12816,-0.39825 v -0.0565 z m 0.50574,-0.10473 v 0.88056 h -0.25356 v -0.23426 q -0.0868,0.14056 -0.21635,0.20808 -0.12954,0.0661 -0.31695,0.0661 -0.23702,0 -0.37758,-0.13229 -0.13918,-0.13367 -0.13918,-0.35692 0,-0.26045 0.17363,-0.39274 0.17501,-0.13229 0.5209,-0.13229 h 0.35553 v -0.0248 q 0,-0.17501 -0.11575,-0.2701 -0.11438,-0.0965 -0.32246,-0.0965 -0.13229,0 -0.2577,0.0317 -0.1254,0.0317 -0.24115,0.0951 v -0.23427 q 0.13918,-0.0537 0.27009,-0.0799 0.13091,-0.0276 0.25494,-0.0276 0.33486,0 0.50023,0.17364 0.16536,0.17363 0.16536,0.52641 z"
         id="path1532"
         inkscape:connector-curvature="0"
         style="font-style:normal;font-weight:normal;font-size:medium;line-height:1.25;font-family:sans-serif;letter-spacing:0px;word-spacing:0px;fill:#000000;fill-opacity:1;stroke:none;stroke-width:0.26458332" />
      <path
         d="m 219.77642,186.7211 v 0.43821 h 0.52228 v 0.19706 h -0.52228 v 0.83785 q 0,0.18879 0.051,0.24253 0.0524,0.0538 0.21084,0.0538 h 0.26045 v 0.21221 h -0.26045 q -0.29352,0 -0.40515,-0.10886 -0.11162,-0.11024 -0.11162,-0.39963 v -0.83785 h -0.18603 v -0.19706 h 0.18603 v -0.43821 z"
         id="path1534"
         inkscape:connector-curvature="0"
         style="font-style:normal;font-weight:normal;font-size:medium;line-height:1.25;font-family:sans-serif;letter-spacing:0px;word-spacing:0px;fill:#000000;fill-opacity:1;stroke:none;stroke-width:0.26458332" />
      <path
         d="m 221.95372,187.86762 v 0.12403 h -1.16582 q 0.0165,0.26182 0.1571,0.39963 0.14193,0.13642 0.39412,0.13642 0.14607,0 0.28249,-0.0358 0.13781,-0.0358 0.27286,-0.10748 v 0.23978 q -0.13643,0.0579 -0.27975,0.0882 -0.14331,0.0303 -0.29076,0.0303 -0.36932,0 -0.58567,-0.21498 -0.21497,-0.21497 -0.21497,-0.58153 0,-0.37896 0.20395,-0.60082 0.20532,-0.22325 0.55259,-0.22325 0.31144,0 0.49196,0.2012 0.1819,0.19981 0.1819,0.54432 z m -0.25356,-0.0744 q -0.003,-0.20808 -0.11713,-0.33211 -0.113,-0.12402 -0.30041,-0.12402 -0.21222,0 -0.34038,0.11989 -0.12678,0.11989 -0.14607,0.33762 z"
         id="path1536"
         inkscape:connector-curvature="0"
         style="font-style:normal;font-weight:normal;font-size:medium;line-height:1.25;font-family:sans-serif;letter-spacing:0px;word-spacing:0px;fill:#000000;fill-opacity:1;stroke:none;stroke-width:0.26458332" />
    </g>
    <g
       id="g3800"
       transform="translate(108.80405,2.8804825)">
      <ellipse
         ry="26.017017"
         rx="26.601671"
         cy="266.30576"
         cx="31.863541"
         id="path3775"
         style="opacity:1;fill:#ffdd55;fill-opacity:0.20762712;stroke:none;stroke-width:0.30499998;stroke-miterlimit:4;stroke-dasharray:none;stroke-opacity:1" />
      <g
         transform="matrix(0.53166435,0,0,0.57135858,124.84139,129.97122)"
         id="g3275">
        <path
           style="opacity:1;vector-effect:none;fill:#e24329;fill-opacity:1;stroke:none;stroke-width:0.26458332px;stroke-linecap:butt;stroke-linejoin:miter;stroke-miterlimit:4;stroke-dasharray:none;stroke-dashoffset:0;stroke-opacity:1"
           d="m -196.47379,210.55198 -10.33529,31.67098 v 2.48047 l 30.6958,22.11751 30.38574,-22.11751 v -2.48047 l -10.23193,-31.67098 c -0.52999,-0.61249 -1.09023,-0.89216 -1.757,0 l -7.028,21.5424 h -22.42757 l -7.2347,-21.5424 c -0.60951,-0.87455 -1.32049,-0.63302 -2.06705,0 z"
           id="path3245"
           inkscape:connector-curvature="0"
           sodipodi:nodetypes="cccccccccccc" />
        <path
           sodipodi:nodetypes="cccc"
           style="opacity:1;vector-effect:none;fill:#fc6d26;fill-opacity:1;stroke:none;stroke-width:0.26458332px;stroke-linecap:butt;stroke-linejoin:miter;stroke-miterlimit:4;stroke-dasharray:none;stroke-dashoffset:0;stroke-opacity:1"
           d="m -203.48038,232.06097 16.30834,-0.0183 11.05876,34.77824 z"
           id="path3247"
           inkscape:connector-curvature="0" />
        <path
           sodipodi:nodetypes="cccc"
           style="opacity:1;vector-effect:none;fill:#fc6d26;fill-opacity:1;stroke:none;stroke-width:0.26458332px;stroke-linecap:butt;stroke-linejoin:miter;stroke-miterlimit:4;stroke-dasharray:none;stroke-dashoffset:0;stroke-opacity:1"
           d="m -164.87189,232.1036 15.8276,-0.14778 -27.06899,34.86512 z"
           id="path3251"
           inkscape:connector-curvature="0" />
        <path
           sodipodi:nodetypes="ccccc"
           style="opacity:1;vector-effect:none;fill:#fca326;fill-opacity:1;stroke:none;stroke-width:0.26458332px;stroke-linecap:butt;stroke-linejoin:miter;stroke-miterlimit:4;stroke-dasharray:none;stroke-dashoffset:0;stroke-opacity:1"
           d="m -203.48038,232.06097 -3.3287,10.16199 v 2.48047 l 30.6958,22.11751 z"
           id="path3253"
           inkscape:connector-curvature="0" />
        <path
           style="opacity:1;vector-effect:none;fill:#fca326;fill-opacity:1;stroke:none;stroke-width:0.26458332px;stroke-linecap:butt;stroke-linejoin:miter;stroke-miterlimit:4;stroke-dasharray:none;stroke-dashoffset:0;stroke-opacity:1"
           d="m -149.04429,231.95582 3.31675,10.26714 v 2.48047 l -30.38574,22.11751 z"
           id="path3253-5"
           inkscape:connector-curvature="0"
           sodipodi:nodetypes="ccccc" />
      </g>
    </g>
  </g>
</svg>
