<?xml version="1.0" encoding="UTF-8" standalone="no"?>
<!-- Created with Inkscape (http://www.inkscape.org/) -->

<svg
   xmlns:dc="http://purl.org/dc/elements/1.1/"
   xmlns:cc="http://creativecommons.org/ns#"
   xmlns:rdf="http://www.w3.org/1999/02/22-rdf-syntax-ns#"
   xmlns:svg="http://www.w3.org/2000/svg"
   xmlns="http://www.w3.org/2000/svg"
   xmlns:sodipodi="http://sodipodi.sourceforge.net/DTD/sodipodi-0.dtd"
   xmlns:inkscape="http://www.inkscape.org/namespaces/inkscape"
   width="640"
   height="480"
   viewBox="0 0 169.33333 127"
   version="1.1"
   id="svg8"
   inkscape:version="0.92.3 (2405546, 2018-03-11)"
   sodipodi:docname="pres-romain.svg">
  <defs
     id="defs2" />
  <sodipodi:namedview
     id="base"
     pagecolor="#ffffff"
     bordercolor="#666666"
     borderopacity="1.0"
     inkscape:pageopacity="0.0"
     inkscape:pageshadow="2"
     inkscape:zoom="4"
     inkscape:cx="304.3822"
     inkscape:cy="153.00309"
     inkscape:document-units="mm"
     inkscape:current-layer="layer1"
     showgrid="false"
     units="px"
     inkscape:pagecheckerboard="true"
     inkscape:window-width="1680"
     inkscape:window-height="988"
     inkscape:window-x="-8"
     inkscape:window-y="-8"
     inkscape:window-maximized="1"
     inkscape:snap-global="true"
     inkscape:snap-bbox="false" />
  <metadata
     id="metadata5">
    <rdf:RDF>
      <cc:Work
         rdf:about="">
        <dc:format>image/svg+xml</dc:format>
        <dc:type
           rdf:resource="http://purl.org/dc/dcmitype/StillImage" />
        <dc:title></dc:title>
      </cc:Work>
    </rdf:RDF>
  </metadata>
  <g
     inkscape:label="Calque 1"
     inkscape:groupmode="layer"
     id="layer1"
     transform="translate(0,-169.99998)">
    <g
       id="g2875">
      <path
         inkscape:connector-curvature="0"
         id="rect2272"
         d="m 0,169.99997 h 169.33333 v 127 H 0 Z"
         style="fill:#f1efe9;fill-opacity:1;fill-rule:evenodd;stroke-width:0.62690252" />
      <g
         transform="translate(209.35222,8.1612543)"
         id="g1992">
        <g
           id="g1973"
           transform="translate(3.2974378,-0.02338608)">
          <path
             sodipodi:nodetypes="sssssssss"
             inkscape:connector-curvature="0"
             id="rect1947"
             d="m -74.581385,264.7826 h 3.137 c 0.38477,0 0.994483,0.30977 0.994483,0.69454 v 1.81901 c 0,0.38477 -0.309761,0.69453 -0.694531,0.69453 h -3.73724 c -0.38477,0 -0.694531,-0.30976 -0.694531,-0.69453 v -1.81901 c 0,-0.38477 0.610049,-0.69454 0.994819,-0.69454 z"
             style="fill:#616161;fill-opacity:1;fill-rule:evenodd;stroke-width:0.26806483" />
          <path
             sodipodi:nodetypes="csssscc"
             style="fill:#3d3d3d;fill-opacity:1;fill-rule:evenodd;stroke-width:0.26806483"
             d="m -70.449902,266.27704 v 1.01911 c 0,0.38477 -0.309761,0.69453 -0.694531,0.69453 h -3.73724 c -0.38477,0 -0.694531,-0.30976 -0.694531,-0.69453 v -1.01911 z"
             id="path1950"
             inkscape:connector-curvature="0" />
          <rect
             ry="0"
             y="263.82681"
             x="-74.706848"
             height="1.4031651"
             width="3.3675959"
             id="rect1952"
             style="fill:#90caf9;fill-opacity:1;fill-rule:evenodd;stroke-width:0.24637833" />
          <rect
             ry="0"
             y="267.08917"
             x="-74.706848"
             height="1.6370261"
             width="3.3675957"
             id="rect1952-8"
             style="fill:#90caf9;fill-opacity:1;fill-rule:evenodd;stroke-width:0.266119" />
        </g>
        <path
           style="opacity:1;fill:#00ff00;fill-opacity:1;stroke:none;stroke-width:0.05;stroke-miterlimit:4;stroke-dasharray:none;stroke-opacity:1"
           d="m -67.550701,265.50476 a 0.14031649,0.14616302 0 0 1 -0.140316,0.14616 0.14031649,0.14616302 0 0 1 -0.140317,-0.14616 0.14031649,0.14616302 0 0 1 0.140317,-0.14616 0.14031649,0.14616302 0 0 1 0.140316,0.14616 z"
           id="path1975"
           inkscape:connector-curvature="0" />
        <path
           style="fill:#000082;fill-opacity:0.16949152;fill-rule:evenodd;stroke-width:0.25233752"
           d="m -70.403869,267.34643 v 1.05763 h 1.403997 v -0.413 h 0.595536 v -0.64463 h -0.595536 -0.489307 z"
           id="rect1977"
           inkscape:connector-curvature="0"
           sodipodi:nodetypes="ccccccccc" />
      </g>
      <g
         id="flowRoot1994"
         style="font-style:normal;font-variant:normal;font-weight:bold;font-stretch:normal;font-size:30.66666794px;line-height:1.25;font-family:Arial;-inkscape-font-specification:'Arial Bold';letter-spacing:0.67000002px;word-spacing:0px;fill:#000000;fill-opacity:1;stroke:none"
         transform="matrix(0.26458333,0,0,0.26458333,220.20336,192.40755)"
         aria-label="Introduction à Git">
        <path
           inkscape:connector-curvature="0"
           id="path2002"
           d="M -648.44271,16.183684 V -5.7681402 h 4.43229 V 16.183684 Z" />
        <path
           inkscape:connector-curvature="0"
           id="path2004"
           d="m -624.69784,16.183684 h -4.20768 V 8.0677979 q 0,-2.575521 -0.26953,-3.3242189 -0.26953,-0.7636719 -0.88346,-1.1829428 -0.59896,-0.4192708 -1.45248,-0.4192708 -1.0931,0 -1.96159,0.5989584 -0.86849,0.5989583 -1.19791,1.5872396 -0.31446,0.9882813 -0.31446,3.653646 v 7.2024746 h -4.20768 V 0.28133923 h 3.9082 V 2.6172768 q 2.08138,-2.69531258 5.24089,-2.69531258 1.39258,0 2.54557,0.5091146 1.153,0.49414065 1.73698,1.27278648 0.59896,0.7786459 0.82357,1.7669272 0.23958,0.9882813 0.23958,2.8300782 z" />
        <path
           inkscape:connector-curvature="0"
           id="path2006"
           d="M -612.45297,0.28133923 V 3.635506 h -2.875 v 6.408854 q 0,1.946615 0.0749,2.276042 0.0899,0.314453 0.37435,0.524089 0.29948,0.209635 0.71875,0.209635 0.58399,0 1.69206,-0.404297 l 0.35937,3.264323 q -1.46744,0.628907 -3.32421,0.628907 -1.13803,0 -2.05144,-0.374349 -0.91341,-0.389323 -1.34765,-0.988282 -0.41927,-0.613932 -0.58399,-1.647135 -0.13476,-0.733724 -0.13476,-2.964844 V 3.635506 h -1.93164 V 0.28133923 h 1.93164 V -2.8781661 l 4.22265,-2.4557293 v 5.61523463 z" />
        <path
           inkscape:connector-curvature="0"
           id="path2008"
           d="m -604.8051,16.183684 h -4.20769 V 0.28133923 h 3.90821 V 2.542407 q 1.00325,-1.60221357 1.79687,-2.11132818 0.8086,-0.5091146 1.82682,-0.5091146 1.4375,0 2.77019,0.79361982 l -1.30274,3.66861996 q -1.06315,-0.6888021 -1.97656,-0.6888021 -0.88346,0 -1.4974,0.4941406 -0.61393,0.4791667 -0.9733,1.7519532 -0.3444,1.2727865 -0.3444,5.3307293 z" />
        <path
           inkscape:connector-curvature="0"
           id="path2010"
           d="m -597.21714,8.0079021 q 0,-2.0963543 1.03321,-4.0579429 1.0332,-1.9615886 2.91992,-2.99479181 1.90169,-1.03320317 4.23763,-1.03320317 3.60872,0 5.91471,2.35091158 2.30599,2.3359376 2.30599,5.9147138 0,3.6087244 -2.33593,5.9895834 -2.32097,2.365886 -5.85482,2.365886 -2.1862,0 -4.17774,-0.988282 -1.97656,-0.988281 -3.00976,-2.889974 -1.03321,-1.916666 -1.03321,-4.6569009 z m 4.31251,0.2246093 q 0,2.3658856 1.12304,3.6236986 1.12305,1.257812 2.77018,1.257812 1.64714,0 2.75521,-1.257812 1.12305,-1.257813 1.12305,-3.6536465 0,-2.3359376 -1.12305,-3.5937501 -1.10807,-1.2578126 -2.75521,-1.2578126 -1.64713,0 -2.77018,1.2578126 -1.12304,1.2578125 -1.12304,3.623698 z" />
        <path
           inkscape:connector-curvature="0"
           id="path2012"
           d="m -562.2418,16.183684 h -3.9082 v -2.335938 q -0.97331,1.36263 -2.30599,2.036458 -1.31771,0.658855 -2.66536,0.658855 -2.74024,0 -4.70183,-2.201172 -1.94661,-2.216146 -1.94661,-6.1692714 0,-4.0429689 1.90169,-6.1393232 1.90169,-2.11132818 4.80664,-2.11132818 2.66537,0 4.61198,2.21614588 v -7.9062503 h 4.20768 z m -11.23046,-8.2955736 q 0,2.5455726 0.70377,3.6835936 1.01823,1.647136 2.84505,1.647136 1.45248,0 2.47071,-1.227865 1.01823,-1.242838 1.01823,-3.6985677 0,-2.7402345 -0.98828,-3.9381512 -0.98829,-1.2128907 -2.5306,-1.2128907 -1.4974,0 -2.51563,1.1979167 -1.00325,1.1829428 -1.00325,3.5488283 z" />
        <path
           inkscape:connector-curvature="0"
           id="path2014"
           d="m -546.94224,16.183684 v -2.38086 q -0.86849,1.272787 -2.29101,2.006511 -1.40756,0.733724 -2.97982,0.733724 -1.60221,0 -2.875,-0.703776 -1.27279,-0.703776 -1.8418,-1.976563 -0.56901,-1.272787 -0.56901,-3.51888 V 0.28133923 h 4.20768 V 7.5886312 q 0,3.3541668 0.22461,4.1178388 0.23959,0.748698 0.85352,1.197917 0.61393,0.434244 1.55729,0.434244 1.07813,0 1.93164,-0.583984 0.85352,-0.598958 1.16797,-1.467448 0.31445,-0.883464 0.31445,-4.2975262 V 0.28133923 h 4.20769 V 16.183684 Z" />
        <path
           inkscape:connector-curvature="0"
           id="path2016"
           d="m -524.12575,4.9831623 -4.14779,0.748698 q -0.20963,-1.2428386 -0.95833,-1.8717449 -0.73373,-0.6289063 -1.91667,-0.6289063 -1.57226,0 -2.51562,1.0930991 -0.92839,1.078125 -0.92839,3.623698 0,2.8300778 0.94336,3.9980468 0.95833,1.167969 2.56055,1.167969 1.19791,0 1.96159,-0.673828 0.76367,-0.688802 1.07812,-2.350912 l 4.13281,0.703776 q -0.64388,2.845053 -2.4707,4.297527 -1.82682,1.452474 -4.89648,1.452474 -3.48894,0 -5.57032,-2.201172 -2.0664,-2.201172 -2.0664,-6.0944016 0,-3.9381512 2.08138,-6.1243492 2.08138,-2.20117198 5.63021,-2.20117198 2.90494,0 4.61197,1.25781258 1.72201,1.2428386 2.47071,3.8033855 z" />
        <path
           inkscape:connector-curvature="0"
           id="path2018"
           d="M -512.95901,0.28133923 V 3.635506 h -2.875 v 6.408854 q 0,1.946615 0.0749,2.276042 0.0898,0.314453 0.37435,0.524089 0.29948,0.209635 0.71875,0.209635 0.58398,0 1.69206,-0.404297 l 0.35937,3.264323 q -1.46745,0.628907 -3.32422,0.628907 -1.13802,0 -2.05143,-0.374349 -0.91341,-0.389323 -1.34766,-0.988282 -0.41927,-0.613932 -0.58398,-1.647135 -0.13477,-0.733724 -0.13477,-2.964844 V 3.635506 h -1.93164 V 0.28133923 h 1.93164 V -2.8781661 l 4.22266,-2.4557293 v 5.61523463 z" />
        <path
           inkscape:connector-curvature="0"
           id="path2020"
           d="m -509.33914,-1.8749109 v -3.8932293 h 4.20768 v 3.8932293 z m 0,18.0585949 V 0.28133923 h 4.20768 V 16.183684 Z" />
        <path
           inkscape:connector-curvature="0"
           id="path2022"
           d="m -501.13723,8.0079021 q 0,-2.0963543 1.0332,-4.0579429 1.0332,-1.9615886 2.91992,-2.99479181 1.9017,-1.03320317 4.23763,-1.03320317 3.60873,0 5.91472,2.35091158 2.30599,2.3359376 2.30599,5.9147138 0,3.6087244 -2.33594,5.9895834 -2.32096,2.365886 -5.85482,2.365886 -2.1862,0 -4.17773,-0.988282 -1.97657,-0.988281 -3.00977,-2.889974 -1.0332,-1.916666 -1.0332,-4.6569009 z m 4.3125,0.2246093 q 0,2.3658856 1.12304,3.6236986 1.12305,1.257812 2.77019,1.257812 1.64713,0 2.75521,-1.257812 1.12304,-1.257813 1.12304,-3.6536465 0,-2.3359376 -1.12304,-3.5937501 -1.10808,-1.2578126 -2.75521,-1.2578126 -1.64714,0 -2.77019,1.2578126 -1.12304,1.2578125 -1.12304,3.623698 z" />
        <path
           inkscape:connector-curvature="0"
           id="path2024"
           d="m -466.28169,16.183684 h -4.20768 V 8.0677979 q 0,-2.575521 -0.26954,-3.3242189 -0.26953,-0.7636719 -0.88346,-1.1829428 -0.59896,-0.4192708 -1.45247,-0.4192708 -1.0931,0 -1.96159,0.5989584 -0.86849,0.5989583 -1.19792,1.5872396 -0.31445,0.9882813 -0.31445,3.653646 v 7.2024746 h -4.20768 V 0.28133923 h 3.9082 V 2.6172768 q 2.08138,-2.69531258 5.24088,-2.69531258 1.39258,0 2.54558,0.5091146 1.15299,0.49414065 1.73698,1.27278648 0.59896,0.7786459 0.82356,1.7669272 0.23959,0.9882813 0.23959,2.8300782 z" />
        <path
           inkscape:connector-curvature="0"
           id="path2026"
           d="m -449.0094,5.1329019 -3.81836,-0.6888021 q 0.64388,-2.3059897 2.21615,-3.4140626 1.57226,-1.10807298 4.67187,-1.10807298 2.81511,0 4.19271,0.67382815 1.37761,0.65885423 1.93164,1.69205733 0.56901,1.0182292 0.56901,3.7584637 l -0.0449,4.9114586 q 0,2.096354 0.19466,3.099609 0.20964,0.988282 0.76367,2.126303 h -4.16276 q -0.16471,-0.419271 -0.40429,-1.242839 -0.10482,-0.374349 -0.14974,-0.494141 -1.07813,1.048178 -2.30599,1.572266 -1.22787,0.524089 -2.62045,0.524089 -2.45573,0 -3.87825,-1.332683 -1.40755,-1.332682 -1.40755,-3.36914 0,-1.347657 0.64388,-2.3958339 0.64388,-1.0631511 1.79687,-1.6171876 1.16797,-0.5690104 3.35417,-0.9882812 2.94987,-0.5540365 4.08789,-1.0332032 V 5.3874592 q 0,-1.2128906 -0.59896,-1.7220052 -0.59896,-0.5240886 -2.26107,-0.5240886 -1.12304,0 -1.75195,0.4492188 -0.62891,0.4342448 -1.01823,1.5423177 z m 5.63021,3.4140627 q -0.80859,0.2695312 -2.56055,0.6438802 -1.75195,0.374349 -2.29101,0.733724 -0.82357,0.5839842 -0.82357,1.4824222 0,0.883463 0.65885,1.527344 0.65886,0.64388 1.67709,0.64388 1.13802,0 2.17122,-0.748698 0.76367,-0.569011 1.00326,-1.392578 0.16471,-0.539063 0.16471,-2.0514327 z m -0.29948,-10.21224 h -2.65039 l -4.13281,-4.4772138 h 4.71679 z" />
        <path
           inkscape:connector-curvature="0"
           id="path2028"
           d="M -414.99622,8.1127198 V 4.4141519 h 9.55339 v 8.7447921 q -1.39258,1.347656 -4.04297,2.380859 -2.63542,1.01823 -5.3457,1.01823 -3.44401,0 -6.00456,-1.4375 -2.56055,-1.452474 -3.84831,-4.132813 -1.28776,-2.6953127 -1.28776,-5.8548181 0,-3.4290366 1.4375,-6.09440126 1.4375,-2.66536474 4.20769,-4.08789084 2.11132,-1.093099 5.25585,-1.093099 4.0879,0 6.37891,1.7220053 2.30599,1.7070313 2.96485,4.73177105 l -4.40235,0.82356775 q -0.46419,-1.61718757 -1.75195,-2.545573 -1.27279,-0.9433594 -3.18946,-0.9433594 -2.90494,0 -4.62695,1.84179691 -1.70703,1.84179699 -1.70703,5.46549499 0,3.9082033 1.73698,5.8697916 1.73698,1.946615 4.55208,1.946615 1.39258,0 2.78516,-0.539063 1.40755,-0.554036 2.41081,-1.332682 V 8.1127198 Z" />
        <path
           inkscape:connector-curvature="0"
           id="path2030"
           d="m -400.72986,-1.8749109 v -3.8932293 h 4.20768 v 3.8932293 z m 0,18.0585949 V 0.28133923 h 4.20768 V 16.183684 Z" />
        <path
           inkscape:connector-curvature="0"
           id="path2032"
           d="M -384.26234,0.28133923 V 3.635506 h -2.875 v 6.408854 q 0,1.946615 0.0749,2.276042 0.0898,0.314453 0.37435,0.524089 0.29948,0.209635 0.71875,0.209635 0.58398,0 1.69206,-0.404297 l 0.35937,3.264323 q -1.46745,0.628907 -3.32422,0.628907 -1.13802,0 -2.05143,-0.374349 -0.91341,-0.389323 -1.34766,-0.988282 -0.41927,-0.613932 -0.58398,-1.647135 -0.1348,-0.733724 -0.1348,-2.964844 V 3.635506 h -1.93164 V 0.28133923 H -391.36 V -2.8781661 l 4.22266,-2.4557293 v 5.61523463 z" />
      </g>
      <g
         id="flowRoot2035"
         style="font-style:normal;font-weight:normal;font-size:24px;line-height:1.25;font-family:sans-serif;letter-spacing:0px;word-spacing:0px;fill:#f05033;fill-opacity:1;stroke:none"
         transform="matrix(0.26458333,0,0,0.26458333,213.09399,154.70645)"
         aria-label="Maîtriser les bases de l'utilisation de Git à l'Insee">
        <path
           inkscape:connector-curvature="0"
           id="path2043"
           style="font-style:normal;font-variant:normal;font-weight:bold;font-stretch:normal;font-size:13.33333397px;font-family:sans-serif;-inkscape-font-specification:'sans-serif Bold';fill:#f05033;fill-opacity:1"
           d="m -683.25456,190.28776 h 3.19011 l 2.21354,5.20182 2.22656,-5.20182 h 3.1836 v 9.72005 h -2.3698 v -7.10937 l -2.23958,5.24088 h -1.58854 l -2.23959,-5.24088 v 7.10937 h -2.3763 z" />
        <path
           inkscape:connector-curvature="0"
           id="path2045"
           style="font-style:normal;font-variant:normal;font-weight:bold;font-stretch:normal;font-size:13.33333397px;font-family:sans-serif;-inkscape-font-specification:'sans-serif Bold';fill:#f05033;fill-opacity:1"
           d="m -666.80924,196.72656 q -0.72917,0 -1.10026,0.2474 -0.36459,0.24739 -0.36459,0.72916 0,0.44271 0.29297,0.69662 0.29948,0.2474 0.82682,0.2474 0.65756,0 1.10678,-0.46875 0.44921,-0.47527 0.44921,-1.1849 v -0.26693 z m 3.56119,-0.8789 v 4.16015 h -2.35026 v -1.08073 q -0.46875,0.66407 -1.05468,0.97006 -0.58594,0.29947 -1.42578,0.29947 -1.13282,0 -1.84245,-0.65755 -0.70313,-0.66406 -0.70313,-1.71875 0,-1.28255 0.87891,-1.88151 0.88542,-0.59896 2.77344,-0.59896 h 1.37369 v -0.18229 q 0,-0.55338 -0.43619,-0.80729 -0.4362,-0.26042 -1.36068,-0.26042 -0.7487,0 -1.39323,0.14974 -0.64453,0.14974 -1.19792,0.44922 v -1.77734 q 0.7487,-0.18229 1.50391,-0.27344 0.75521,-0.0977 1.51042,-0.0977 1.97265,0 2.84505,0.78125 0.8789,0.77474 0.8789,2.52605 z" />
        <path
           inkscape:connector-curvature="0"
           id="path2047"
           style="font-style:normal;font-variant:normal;font-weight:bold;font-stretch:normal;font-size:13.33333397px;font-family:sans-serif;-inkscape-font-specification:'sans-serif Bold';fill:#f05033;fill-opacity:1"
           d="m -661.06706,192.71615 h 2.33073 v 7.29166 h -2.33073 z m 0.3711,-3.3724 h 1.57552 l 1.66667,2.44792 h -1.15886 l -1.29557,-1.46485 -1.29557,1.46485 h -1.15886 z" />
        <path
           inkscape:connector-curvature="0"
           id="path2049"
           style="font-style:normal;font-variant:normal;font-weight:bold;font-stretch:normal;font-size:13.33333397px;font-family:sans-serif;-inkscape-font-specification:'sans-serif Bold';fill:#f05033;fill-opacity:1"
           d="m -653.93815,190.64583 v 2.07032 h 2.40234 v 1.66666 h -2.40234 v 3.09245 q 0,0.50781 0.20182,0.6901 0.20183,0.17579 0.80079,0.17579 h 1.19791 v 1.66666 h -1.9987 q -1.3802,0 -1.95963,-0.57291 -0.57292,-0.57943 -0.57292,-1.95964 v -3.09245 h -1.15885 v -1.66666 h 1.15885 v -2.07032 z" />
        <path
           inkscape:connector-curvature="0"
           id="path2051"
           style="font-style:normal;font-variant:normal;font-weight:bold;font-stretch:normal;font-size:13.33333397px;font-family:sans-serif;-inkscape-font-specification:'sans-serif Bold';fill:#f05033;fill-opacity:1"
           d="m -644.68685,194.70182 q -0.30599,-0.14323 -0.61198,-0.20833 -0.29947,-0.0716 -0.60546,-0.0716 -0.89844,0 -1.38672,0.57943 -0.48177,0.57292 -0.48177,1.64714 v 3.35937 h -2.33073 v -7.29166 h 2.33073 v 1.19791 q 0.44922,-0.71614 1.02864,-1.04166 0.58594,-0.33204 1.39974,-0.33204 0.11719,0 0.25391,0.013 0.13672,0.007 0.39713,0.0391 z" />
        <path
           inkscape:connector-curvature="0"
           id="path2053"
           style="font-style:normal;font-variant:normal;font-weight:bold;font-stretch:normal;font-size:13.33333397px;font-family:sans-serif;-inkscape-font-specification:'sans-serif Bold';fill:#f05033;fill-opacity:1"
           d="m -643.51497,192.71615 h 2.33073 v 7.29166 h -2.33073 z m 0,-2.83855 h 2.33073 v 1.90105 h -2.33073 z" />
        <path
           inkscape:connector-curvature="0"
           id="path2055"
           style="font-style:normal;font-variant:normal;font-weight:bold;font-stretch:normal;font-size:13.33333397px;font-family:sans-serif;-inkscape-font-specification:'sans-serif Bold';fill:#f05033;fill-opacity:1"
           d="m -633.23502,192.94401 v 1.77083 q -0.7487,-0.3125 -1.44532,-0.46875 -0.69661,-0.15625 -1.3151,-0.15625 -0.66406,0 -0.98958,0.16927 -0.31901,0.16276 -0.31901,0.50782 0,0.27994 0.24088,0.42968 0.2474,0.14974 0.87891,0.22136 l 0.41015,0.0586 q 1.79037,0.22787 2.40886,0.7487 0.61849,0.52083 0.61849,1.63411 0,1.16537 -0.85938,1.75131 -0.85937,0.58593 -2.5651,0.58593 -0.72266,0 -1.4974,-0.11718 -0.76823,-0.11068 -1.58203,-0.33854 v -1.77084 q 0.69662,0.33854 1.42578,0.50781 0.73568,0.16928 1.49089,0.16928 0.68359,0 1.02864,-0.18881 0.34506,-0.1888 0.34506,-0.55989 0,-0.3125 -0.24089,-0.46224 -0.23437,-0.15625 -0.94401,-0.24089 l -0.41016,-0.0521 q -1.55599,-0.19531 -2.18099,-0.72266 -0.625,-0.52734 -0.625,-1.60156 0,-1.15885 0.79428,-1.71875 0.79427,-0.5599 2.43489,-0.5599 0.64453,0 1.35417,0.0977 0.70963,0.0977 1.54297,0.30599 z" />
        <path
           inkscape:connector-curvature="0"
           id="path2057"
           style="font-style:normal;font-variant:normal;font-weight:bold;font-stretch:normal;font-size:13.33333397px;font-family:sans-serif;-inkscape-font-specification:'sans-serif Bold';fill:#f05033;fill-opacity:1"
           d="m -623.71028,196.34245 v 0.66406 h -5.44922 q 0.0846,0.82031 0.59244,1.23047 0.50782,0.41016 1.41928,0.41016 0.73567,0 1.5039,-0.21485 0.77474,-0.22135 1.58854,-0.66406 v 1.79687 q -0.82682,0.3125 -1.65364,0.46875 -0.82683,0.16276 -1.65365,0.16276 -1.97917,0 -3.07943,-1.0026 -1.09375,-1.00911 -1.09375,-2.82552 0,-1.78385 1.07422,-2.80599 1.08073,-1.02214 2.96875,-1.02214 1.71875,0 2.7474,1.03516 1.03516,1.03516 1.03516,2.76693 z m -2.39584,-0.77474 q 0,-0.66406 -0.39062,-1.06771 -0.38412,-0.41016 -1.00912,-0.41016 -0.67708,0 -1.10026,0.38412 -0.42318,0.3776 -0.52734,1.09375 z" />
        <path
           inkscape:connector-curvature="0"
           id="path2059"
           style="font-style:normal;font-variant:normal;font-weight:bold;font-stretch:normal;font-size:13.33333397px;font-family:sans-serif;-inkscape-font-specification:'sans-serif Bold';fill:#f05033;fill-opacity:1"
           d="m -616.5358,194.70182 q -0.30599,-0.14323 -0.61198,-0.20833 -0.29948,-0.0716 -0.60547,-0.0716 -0.89844,0 -1.38672,0.57943 -0.48177,0.57292 -0.48177,1.64714 v 3.35937 h -2.33073 v -7.29166 h 2.33073 v 1.19791 q 0.44922,-0.71614 1.02865,-1.04166 0.58593,-0.33204 1.39973,-0.33204 0.11719,0 0.25391,0.013 0.13672,0.007 0.39714,0.0391 z" />
        <path
           inkscape:connector-curvature="0"
           id="path2061"
           style="font-style:normal;font-variant:normal;font-weight:bold;font-stretch:normal;font-size:13.33333397px;font-family:sans-serif;-inkscape-font-specification:'sans-serif Bold';fill:#f05033;fill-opacity:1"
           d="m -610.72851,189.8776 h 2.33073 v 10.13021 h -2.33073 z" />
        <path
           inkscape:connector-curvature="0"
           id="path2063"
           style="font-style:normal;font-variant:normal;font-weight:bold;font-stretch:normal;font-size:13.33333397px;font-family:sans-serif;-inkscape-font-specification:'sans-serif Bold';fill:#f05033;fill-opacity:1"
           d="m -598.86653,196.34245 v 0.66406 h -5.44922 q 0.0846,0.82031 0.59245,1.23047 0.50781,0.41016 1.41927,0.41016 0.73568,0 1.50391,-0.21485 0.77473,-0.22135 1.58854,-0.66406 v 1.79687 q -0.82683,0.3125 -1.65365,0.46875 -0.82682,0.16276 -1.65364,0.16276 -1.97917,0 -3.07943,-1.0026 -1.09375,-1.00911 -1.09375,-2.82552 0,-1.78385 1.07422,-2.80599 1.08073,-1.02214 2.96875,-1.02214 1.71875,0 2.74739,1.03516 1.03516,1.03516 1.03516,2.76693 z m -2.39583,-0.77474 q 0,-0.66406 -0.39063,-1.06771 -0.38411,-0.41016 -1.00911,-0.41016 -0.67709,0 -1.10026,0.38412 -0.42318,0.3776 -0.52735,1.09375 z" />
        <path
           inkscape:connector-curvature="0"
           id="path2065"
           style="font-style:normal;font-variant:normal;font-weight:bold;font-stretch:normal;font-size:13.33333397px;font-family:sans-serif;-inkscape-font-specification:'sans-serif Bold';fill:#f05033;fill-opacity:1"
           d="m -591.4121,192.94401 v 1.77083 q -0.7487,-0.3125 -1.44531,-0.46875 -0.69662,-0.15625 -1.31511,-0.15625 -0.66406,0 -0.98958,0.16927 -0.31901,0.16276 -0.31901,0.50782 0,0.27994 0.24088,0.42968 0.2474,0.14974 0.87891,0.22136 l 0.41016,0.0586 q 1.79036,0.22787 2.40885,0.7487 0.61849,0.52083 0.61849,1.63411 0,1.16537 -0.85938,1.75131 -0.85937,0.58593 -2.5651,0.58593 -0.72266,0 -1.4974,-0.11718 -0.76822,-0.11068 -1.58203,-0.33854 v -1.77084 q 0.69662,0.33854 1.42578,0.50781 0.73568,0.16928 1.49089,0.16928 0.68359,0 1.02865,-0.18881 0.34505,-0.1888 0.34505,-0.55989 0,-0.3125 -0.24089,-0.46224 -0.23437,-0.15625 -0.94401,-0.24089 l -0.41015,-0.0521 q -1.55599,-0.19531 -2.18099,-0.72266 -0.625,-0.52734 -0.625,-1.60156 0,-1.15885 0.79427,-1.71875 0.79427,-0.5599 2.43489,-0.5599 0.64453,0 1.35417,0.0977 0.70964,0.0977 1.54297,0.30599 z" />
        <path
           inkscape:connector-curvature="0"
           id="path2067"
           style="font-style:normal;font-variant:normal;font-weight:bold;font-stretch:normal;font-size:13.33333397px;font-family:sans-serif;-inkscape-font-specification:'sans-serif Bold';fill:#f05033;fill-opacity:1"
           d="m -580.65038,198.50391 q 0.7487,0 1.13932,-0.54688 0.39714,-0.54687 0.39714,-1.58854 0,-1.04167 -0.39714,-1.58854 -0.39062,-0.54688 -1.13932,-0.54688 -0.7487,0 -1.15235,0.55339 -0.39713,0.54687 -0.39713,1.58203 0,1.03516 0.39713,1.58854 0.40365,0.54688 1.15235,0.54688 z m -1.54948,-4.72006 q 0.48177,-0.63802 1.06771,-0.9375 0.58593,-0.30599 1.34765,-0.30599 1.34766,0 2.21354,1.07422 0.86589,1.06771 0.86589,2.75391 0,1.6862 -0.86589,2.76042 -0.86588,1.0677 -2.21354,1.0677 -0.76172,0 -1.34765,-0.29947 -0.58594,-0.30599 -1.06771,-0.94402 v 1.05469 h -2.33073 V 189.8776 h 2.33073 z" />
        <path
           inkscape:connector-curvature="0"
           id="path2069"
           style="font-style:normal;font-variant:normal;font-weight:bold;font-stretch:normal;font-size:13.33333397px;font-family:sans-serif;-inkscape-font-specification:'sans-serif Bold';fill:#f05033;fill-opacity:1"
           d="m -571.70507,196.72656 q -0.72917,0 -1.10026,0.2474 -0.36459,0.24739 -0.36459,0.72916 0,0.44271 0.29297,0.69662 0.29948,0.2474 0.82683,0.2474 0.65755,0 1.10677,-0.46875 0.44921,-0.47527 0.44921,-1.1849 v -0.26693 z m 3.5612,-0.8789 v 4.16015 h -2.35027 v -1.08073 q -0.46875,0.66407 -1.05468,0.97006 -0.58594,0.29947 -1.42578,0.29947 -1.13282,0 -1.84245,-0.65755 -0.70313,-0.66406 -0.70313,-1.71875 0,-1.28255 0.87891,-1.88151 0.88542,-0.59896 2.77344,-0.59896 h 1.37369 v -0.18229 q 0,-0.55338 -0.43619,-0.80729 -0.4362,-0.26042 -1.36068,-0.26042 -0.7487,0 -1.39323,0.14974 -0.64453,0.14974 -1.19792,0.44922 v -1.77734 q 0.7487,-0.18229 1.50391,-0.27344 0.75521,-0.0977 1.51042,-0.0977 1.97265,0 2.84505,0.78125 0.87891,0.77474 0.87891,2.52605 z" />
        <path
           inkscape:connector-curvature="0"
           id="path2071"
           style="font-style:normal;font-variant:normal;font-weight:bold;font-stretch:normal;font-size:13.33333397px;font-family:sans-serif;-inkscape-font-specification:'sans-serif Bold';fill:#f05033;fill-opacity:1"
           d="m -560.26627,192.94401 v 1.77083 q -0.7487,-0.3125 -1.44532,-0.46875 -0.69661,-0.15625 -1.3151,-0.15625 -0.66406,0 -0.98958,0.16927 -0.31901,0.16276 -0.31901,0.50782 0,0.27994 0.24088,0.42968 0.2474,0.14974 0.87891,0.22136 l 0.41015,0.0586 q 1.79037,0.22787 2.40886,0.7487 0.61849,0.52083 0.61849,1.63411 0,1.16537 -0.85938,1.75131 -0.85937,0.58593 -2.5651,0.58593 -0.72266,0 -1.4974,-0.11718 -0.76823,-0.11068 -1.58203,-0.33854 v -1.77084 q 0.69662,0.33854 1.42578,0.50781 0.73568,0.16928 1.49089,0.16928 0.68359,0 1.02864,-0.18881 0.34506,-0.1888 0.34506,-0.55989 0,-0.3125 -0.24089,-0.46224 -0.23437,-0.15625 -0.94401,-0.24089 l -0.41016,-0.0521 q -1.55599,-0.19531 -2.18099,-0.72266 -0.625,-0.52734 -0.625,-1.60156 0,-1.15885 0.79428,-1.71875 0.79427,-0.5599 2.43489,-0.5599 0.64453,0 1.35417,0.0977 0.70963,0.0977 1.54297,0.30599 z" />
        <path
           inkscape:connector-curvature="0"
           id="path2073"
           style="font-style:normal;font-variant:normal;font-weight:bold;font-stretch:normal;font-size:13.33333397px;font-family:sans-serif;-inkscape-font-specification:'sans-serif Bold';fill:#f05033;fill-opacity:1"
           d="m -550.74153,196.34245 v 0.66406 h -5.44922 q 0.0846,0.82031 0.59245,1.23047 0.50781,0.41016 1.41927,0.41016 0.73568,0 1.50391,-0.21485 0.77473,-0.22135 1.58854,-0.66406 v 1.79687 q -0.82683,0.3125 -1.65365,0.46875 -0.82682,0.16276 -1.65364,0.16276 -1.97917,0 -3.07943,-1.0026 -1.09375,-1.00911 -1.09375,-2.82552 0,-1.78385 1.07422,-2.80599 1.08073,-1.02214 2.96875,-1.02214 1.71875,0 2.74739,1.03516 1.03516,1.03516 1.03516,2.76693 z m -2.39583,-0.77474 q 0,-0.66406 -0.39063,-1.06771 -0.38411,-0.41016 -1.00911,-0.41016 -0.67709,0 -1.10026,0.38412 -0.42318,0.3776 -0.52735,1.09375 z" />
        <path
           inkscape:connector-curvature="0"
           id="path2075"
           style="font-style:normal;font-variant:normal;font-weight:bold;font-stretch:normal;font-size:13.33333397px;font-family:sans-serif;-inkscape-font-specification:'sans-serif Bold';fill:#f05033;fill-opacity:1"
           d="m -543.28711,192.94401 v 1.77083 q -0.7487,-0.3125 -1.44531,-0.46875 -0.69662,-0.15625 -1.31511,-0.15625 -0.66406,0 -0.98958,0.16927 -0.31901,0.16276 -0.31901,0.50782 0,0.27994 0.24089,0.42968 0.24739,0.14974 0.8789,0.22136 l 0.41016,0.0586 q 1.79036,0.22787 2.40885,0.7487 0.61849,0.52083 0.61849,1.63411 0,1.16537 -0.85937,1.75131 -0.85938,0.58593 -2.56511,0.58593 -0.72265,0 -1.49739,-0.11718 -0.76823,-0.11068 -1.58203,-0.33854 v -1.77084 q 0.69661,0.33854 1.42578,0.50781 0.73567,0.16928 1.49088,0.16928 0.6836,0 1.02865,-0.18881 0.34505,-0.1888 0.34505,-0.55989 0,-0.3125 -0.24088,-0.46224 -0.23438,-0.15625 -0.94402,-0.24089 l -0.41015,-0.0521 q -1.55599,-0.19531 -2.18099,-0.72266 -0.625,-0.52734 -0.625,-1.60156 0,-1.15885 0.79427,-1.71875 0.79427,-0.5599 2.4349,-0.5599 0.64453,0 1.35416,0.0977 0.70964,0.0977 1.54297,0.30599 z" />
        <path
           inkscape:connector-curvature="0"
           id="path2077"
           style="font-style:normal;font-variant:normal;font-weight:bold;font-stretch:normal;font-size:13.33333397px;font-family:sans-serif;-inkscape-font-specification:'sans-serif Bold';fill:#f05033;fill-opacity:1"
           d="m -531.44466,193.78385 v -3.90625 h 2.34375 v 10.13021 h -2.34375 v -1.05469 q -0.48177,0.64454 -1.0612,0.94402 -0.57943,0.29947 -1.34115,0.29947 -1.34765,0 -2.21354,-1.0677 -0.86588,-1.07422 -0.86588,-2.76042 0,-1.6862 0.86588,-2.75391 0.86589,-1.07422 2.21354,-1.07422 0.75521,0 1.33464,0.30599 0.58594,0.29948 1.06771,0.9375 z m -1.53646,4.72006 q 0.7487,0 1.13932,-0.54688 0.39714,-0.54687 0.39714,-1.58854 0,-1.04167 -0.39714,-1.58854 -0.39062,-0.54688 -1.13932,-0.54688 -0.74219,0 -1.13932,0.54688 -0.39063,0.54687 -0.39063,1.58854 0,1.04167 0.39063,1.58854 0.39713,0.54688 1.13932,0.54688 z" />
        <path
           inkscape:connector-curvature="0"
           id="path2079"
           style="font-style:normal;font-variant:normal;font-weight:bold;font-stretch:normal;font-size:13.33333397px;font-family:sans-serif;-inkscape-font-specification:'sans-serif Bold';fill:#f05033;fill-opacity:1"
           d="m -519.56966,196.34245 v 0.66406 h -5.44921 q 0.0846,0.82031 0.59244,1.23047 0.50782,0.41016 1.41927,0.41016 0.73568,0 1.50391,-0.21485 0.77474,-0.22135 1.58854,-0.66406 v 1.79687 q -0.82682,0.3125 -1.65364,0.46875 -0.82683,0.16276 -1.65365,0.16276 -1.97917,0 -3.07943,-1.0026 -1.09375,-1.00911 -1.09375,-2.82552 0,-1.78385 1.07422,-2.80599 1.08073,-1.02214 2.96875,-1.02214 1.71875,0 2.7474,1.03516 1.03515,1.03516 1.03515,2.76693 z m -2.39583,-0.77474 q 0,-0.66406 -0.39062,-1.06771 -0.38412,-0.41016 -1.00912,-0.41016 -0.67708,0 -1.10026,0.38412 -0.42318,0.3776 -0.52734,1.09375 z" />
        <path
           inkscape:connector-curvature="0"
           id="path2081"
           style="font-style:normal;font-variant:normal;font-weight:bold;font-stretch:normal;font-size:13.33333397px;font-family:sans-serif;-inkscape-font-specification:'sans-serif Bold';fill:#f05033;fill-opacity:1"
           d="m -513.17643,189.8776 h 2.33073 v 10.13021 h -2.33073 z" />
        <path
           inkscape:connector-curvature="0"
           id="path2083"
           style="font-style:normal;font-variant:normal;font-weight:bold;font-stretch:normal;font-size:13.33333397px;font-family:sans-serif;-inkscape-font-specification:'sans-serif Bold';fill:#f05033;fill-opacity:1"
           d="m -506.90038,190.28776 v 3.61328 h -1.54296 v -3.61328 z" />
        <path
           inkscape:connector-curvature="0"
           id="path2085"
           style="font-style:normal;font-variant:normal;font-weight:bold;font-stretch:normal;font-size:13.33333397px;font-family:sans-serif;-inkscape-font-specification:'sans-serif Bold';fill:#f05033;fill-opacity:1"
           d="m -504.58268,197.16927 v -4.45312 h 2.34375 v 0.72916 q 0,0.59245 -0.007,1.49089 -0.007,0.89192 -0.007,1.1914 0,0.87891 0.0456,1.26954 0.0456,0.38411 0.15625,0.55989 0.14322,0.22787 0.37109,0.35156 0.23437,0.1237 0.53385,0.1237 0.72917,0 1.14584,-0.55989 0.41666,-0.5599 0.41666,-1.55599 v -3.60026 h 2.33073 v 7.29166 h -2.33073 v -1.05469 q -0.52734,0.63803 -1.11979,0.94402 -0.58594,0.29947 -1.29557,0.29947 -1.26302,0 -1.92709,-0.77474 -0.65755,-0.77473 -0.65755,-2.2526 z" />
        <path
           inkscape:connector-curvature="0"
           id="path2087"
           style="font-style:normal;font-variant:normal;font-weight:bold;font-stretch:normal;font-size:13.33333397px;font-family:sans-serif;-inkscape-font-specification:'sans-serif Bold';fill:#f05033;fill-opacity:1"
           d="m -492.45376,190.64583 v 2.07032 h 2.40234 v 1.66666 h -2.40234 v 3.09245 q 0,0.50781 0.20182,0.6901 0.20183,0.17579 0.80078,0.17579 h 1.19792 v 1.66666 h -1.9987 q -1.38021,0 -1.95963,-0.57291 -0.57292,-0.57943 -0.57292,-1.95964 v -3.09245 h -1.15885 v -1.66666 h 1.15885 v -2.07032 z" />
        <path
           inkscape:connector-curvature="0"
           id="path2089"
           style="font-style:normal;font-variant:normal;font-weight:bold;font-stretch:normal;font-size:13.33333397px;font-family:sans-serif;-inkscape-font-specification:'sans-serif Bold';fill:#f05033;fill-opacity:1"
           d="m -488.61913,192.71615 h 2.33073 v 7.29166 h -2.33073 z m 0,-2.83855 h 2.33073 v 1.90105 h -2.33073 z" />
        <path
           inkscape:connector-curvature="0"
           id="path2091"
           style="font-style:normal;font-variant:normal;font-weight:bold;font-stretch:normal;font-size:13.33333397px;font-family:sans-serif;-inkscape-font-specification:'sans-serif Bold';fill:#f05033;fill-opacity:1"
           d="m -484.0358,189.8776 h 2.33073 v 10.13021 h -2.33073 z" />
        <path
           inkscape:connector-curvature="0"
           id="path2093"
           style="font-style:normal;font-variant:normal;font-weight:bold;font-stretch:normal;font-size:13.33333397px;font-family:sans-serif;-inkscape-font-specification:'sans-serif Bold';fill:#f05033;fill-opacity:1"
           d="m -479.45246,192.71615 h 2.33073 v 7.29166 h -2.33073 z m 0,-2.83855 h 2.33073 v 1.90105 h -2.33073 z" />
        <path
           inkscape:connector-curvature="0"
           id="path2095"
           style="font-style:normal;font-variant:normal;font-weight:bold;font-stretch:normal;font-size:13.33333397px;font-family:sans-serif;-inkscape-font-specification:'sans-serif Bold';fill:#f05033;fill-opacity:1"
           d="m -469.17252,192.94401 v 1.77083 q -0.74869,-0.3125 -1.44531,-0.46875 -0.69661,-0.15625 -1.3151,-0.15625 -0.66406,0 -0.98959,0.16927 -0.31901,0.16276 -0.31901,0.50782 0,0.27994 0.24089,0.42968 0.2474,0.14974 0.87891,0.22136 l 0.41015,0.0586 q 1.79037,0.22787 2.40886,0.7487 0.61849,0.52083 0.61849,1.63411 0,1.16537 -0.85938,1.75131 -0.85937,0.58593 -2.5651,0.58593 -0.72266,0 -1.4974,-0.11718 -0.76823,-0.11068 -1.58203,-0.33854 v -1.77084 q 0.69661,0.33854 1.42578,0.50781 0.73568,0.16928 1.49089,0.16928 0.68359,0 1.02864,-0.18881 0.34505,-0.1888 0.34505,-0.55989 0,-0.3125 -0.24088,-0.46224 -0.23438,-0.15625 -0.94401,-0.24089 l -0.41016,-0.0521 q -1.55599,-0.19531 -2.18099,-0.72266 -0.625,-0.52734 -0.625,-1.60156 0,-1.15885 0.79427,-1.71875 0.79427,-0.5599 2.4349,-0.5599 0.64453,0 1.35417,0.0977 0.70963,0.0977 1.54296,0.30599 z" />
        <path
           inkscape:connector-curvature="0"
           id="path2097"
           style="font-style:normal;font-variant:normal;font-weight:bold;font-stretch:normal;font-size:13.33333397px;font-family:sans-serif;-inkscape-font-specification:'sans-serif Bold';fill:#f05033;fill-opacity:1"
           d="m -463.6582,196.72656 q -0.72916,0 -1.10026,0.2474 -0.36458,0.24739 -0.36458,0.72916 0,0.44271 0.29297,0.69662 0.29948,0.2474 0.82682,0.2474 0.65755,0 1.10677,-0.46875 0.44922,-0.47527 0.44922,-1.1849 v -0.26693 z m 3.5612,-0.8789 v 4.16015 h -2.35026 v -1.08073 q -0.46875,0.66407 -1.05469,0.97006 -0.58594,0.29947 -1.42578,0.29947 -1.13281,0 -1.84245,-0.65755 -0.70312,-0.66406 -0.70312,-1.71875 0,-1.28255 0.8789,-1.88151 0.88542,-0.59896 2.77344,-0.59896 h 1.3737 v -0.18229 q 0,-0.55338 -0.4362,-0.80729 -0.4362,-0.26042 -1.36068,-0.26042 -0.74869,0 -1.39322,0.14974 -0.64454,0.14974 -1.19792,0.44922 v -1.77734 q 0.7487,-0.18229 1.50391,-0.27344 0.7552,-0.0977 1.51041,-0.0977 1.97266,0 2.84505,0.78125 0.87891,0.77474 0.87891,2.52605 z" />
        <path
           inkscape:connector-curvature="0"
           id="path2099"
           style="font-style:normal;font-variant:normal;font-weight:bold;font-stretch:normal;font-size:13.33333397px;font-family:sans-serif;-inkscape-font-specification:'sans-serif Bold';fill:#f05033;fill-opacity:1"
           d="m -455.37043,190.64583 v 2.07032 h 2.40234 v 1.66666 h -2.40234 v 3.09245 q 0,0.50781 0.20182,0.6901 0.20182,0.17579 0.80078,0.17579 h 1.19792 v 1.66666 h -1.9987 q -1.38021,0 -1.95963,-0.57291 -0.57292,-0.57943 -0.57292,-1.95964 v -3.09245 h -1.15886 v -1.66666 h 1.15886 v -2.07032 z" />
        <path
           inkscape:connector-curvature="0"
           id="path2101"
           style="font-style:normal;font-variant:normal;font-weight:bold;font-stretch:normal;font-size:13.33333397px;font-family:sans-serif;-inkscape-font-specification:'sans-serif Bold';fill:#f05033;fill-opacity:1"
           d="m -451.5358,192.71615 h 2.33073 v 7.29166 h -2.33073 z m 0,-2.83855 h 2.33073 v 1.90105 h -2.33073 z" />
        <path
           inkscape:connector-curvature="0"
           id="path2103"
           style="font-style:normal;font-variant:normal;font-weight:bold;font-stretch:normal;font-size:13.33333397px;font-family:sans-serif;-inkscape-font-specification:'sans-serif Bold';fill:#f05033;fill-opacity:1"
           d="m -443.48241,194.20703 q -0.77474,0 -1.18489,0.5599 -0.40365,0.55338 -0.40365,1.60156 0,1.04818 0.40365,1.60807 0.41015,0.55339 1.18489,0.55339 0.76172,0 1.16537,-0.55339 0.40364,-0.55989 0.40364,-1.60807 0,-1.04818 -0.40364,-1.60156 -0.40365,-0.5599 -1.16537,-0.5599 z m 0,-1.66667 q 1.88151,0 2.9362,1.01563 1.0612,1.01562 1.0612,2.8125 0,1.79687 -1.0612,2.8125 -1.05469,1.01562 -2.9362,1.01562 -1.88802,0 -2.95573,-1.01562 -1.06119,-1.01563 -1.06119,-2.8125 0,-1.79688 1.06119,-2.8125 1.06771,-1.01563 2.95573,-1.01563 z" />
        <path
           inkscape:connector-curvature="0"
           id="path2105"
           style="font-style:normal;font-variant:normal;font-weight:bold;font-stretch:normal;font-size:13.33333397px;font-family:sans-serif;-inkscape-font-specification:'sans-serif Bold';fill:#f05033;fill-opacity:1"
           d="m -430.45507,195.56771 v 4.4401 h -2.34375 v -0.72265 -2.67579 q 0,-0.94401 -0.0456,-1.30208 -0.0391,-0.35807 -0.14322,-0.52734 -0.13672,-0.22787 -0.3711,-0.35156 -0.23437,-0.13021 -0.53385,-0.13021 -0.72917,0 -1.14584,0.5664 -0.41666,0.5599 -0.41666,1.55599 v 3.58724 h -2.33073 v -7.29166 h 2.33073 v 1.0677 q 0.52734,-0.63802 1.11979,-0.9375 0.59245,-0.30599 1.30859,-0.30599 1.26302,0 1.91407,0.77474 0.65755,0.77474 0.65755,2.25261 z" />
        <path
           inkscape:connector-curvature="0"
           id="path2107"
           style="font-style:normal;font-variant:normal;font-weight:bold;font-stretch:normal;font-size:13.33333397px;font-family:sans-serif;-inkscape-font-specification:'sans-serif Bold';fill:#f05033;fill-opacity:1"
           d="m -418.68422,193.78385 v -3.90625 h 2.34375 v 10.13021 h -2.34375 v -1.05469 q -0.48178,0.64454 -1.0612,0.94402 -0.57943,0.29947 -1.34115,0.29947 -1.34765,0 -2.21354,-1.0677 -0.86589,-1.07422 -0.86589,-2.76042 0,-1.6862 0.86589,-2.75391 0.86589,-1.07422 2.21354,-1.07422 0.75521,0 1.33464,0.30599 0.58593,0.29948 1.06771,0.9375 z m -1.53646,4.72006 q 0.7487,0 1.13932,-0.54688 0.39714,-0.54687 0.39714,-1.58854 0,-1.04167 -0.39714,-1.58854 -0.39062,-0.54688 -1.13932,-0.54688 -0.74219,0 -1.13933,0.54688 -0.39062,0.54687 -0.39062,1.58854 0,1.04167 0.39062,1.58854 0.39714,0.54688 1.13933,0.54688 z" />
        <path
           inkscape:connector-curvature="0"
           id="path2109"
           style="font-style:normal;font-variant:normal;font-weight:bold;font-stretch:normal;font-size:13.33333397px;font-family:sans-serif;-inkscape-font-specification:'sans-serif Bold';fill:#f05033;fill-opacity:1"
           d="m -406.80923,196.34245 v 0.66406 h -5.44922 q 0.0846,0.82031 0.59244,1.23047 0.50782,0.41016 1.41928,0.41016 0.73567,0 1.5039,-0.21485 0.77474,-0.22135 1.58854,-0.66406 v 1.79687 q -0.82682,0.3125 -1.65364,0.46875 -0.82683,0.16276 -1.65365,0.16276 -1.97916,0 -3.07943,-1.0026 -1.09375,-1.00911 -1.09375,-2.82552 0,-1.78385 1.07422,-2.80599 1.08073,-1.02214 2.96875,-1.02214 1.71875,0 2.7474,1.03516 1.03516,1.03516 1.03516,2.76693 z m -2.39584,-0.77474 q 0,-0.66406 -0.39062,-1.06771 -0.38412,-0.41016 -1.00912,-0.41016 -0.67708,0 -1.10026,0.38412 -0.42317,0.3776 -0.52734,1.09375 z" />
        <path
           inkscape:connector-curvature="0"
           id="path2111"
           style="font-style:normal;font-variant:normal;font-weight:bold;font-stretch:normal;font-size:13.33333397px;font-family:sans-serif;-inkscape-font-specification:'sans-serif Bold';fill:#f05033;fill-opacity:1"
           d="m -391.57486,199.28516 q -0.9375,0.45573 -1.94661,0.68359 -1.00912,0.22786 -2.08334,0.22786 -2.42838,0 -3.84765,-1.35416 -1.41927,-1.36068 -1.41927,-3.6849 0,-2.35026 1.44531,-3.69791 1.44531,-1.34766 3.95833,-1.34766 0.97005,0 1.85547,0.18229 0.89193,0.18229 1.67969,0.54036 v 2.01172 q -0.8138,-0.46224 -1.6211,-0.6901 -0.80078,-0.22786 -1.60807,-0.22786 -1.49739,0 -2.3112,0.83984 -0.80729,0.83333 -0.80729,2.38932 0,1.54297 0.78125,2.38281 0.78125,0.83985 2.22005,0.83985 0.39063,0 0.72266,-0.0456 0.33854,-0.0521 0.60547,-0.15625 v -1.88803 h -1.52995 v -1.67968 h 3.90625 z" />
        <path
           inkscape:connector-curvature="0"
           id="path2113"
           style="font-style:normal;font-variant:normal;font-weight:bold;font-stretch:normal;font-size:13.33333397px;font-family:sans-serif;-inkscape-font-specification:'sans-serif Bold';fill:#f05033;fill-opacity:1"
           d="m -389.47851,192.71615 h 2.33073 v 7.29166 h -2.33073 z m 0,-2.83855 h 2.33073 v 1.90105 h -2.33073 z" />
        <path
           inkscape:connector-curvature="0"
           id="path2115"
           style="font-style:normal;font-variant:normal;font-weight:bold;font-stretch:normal;font-size:13.33333397px;font-family:sans-serif;-inkscape-font-specification:'sans-serif Bold';fill:#f05033;fill-opacity:1"
           d="m -382.34959,190.64583 v 2.07032 h 2.40235 v 1.66666 h -2.40235 v 3.09245 q 0,0.50781 0.20182,0.6901 0.20183,0.17579 0.80079,0.17579 h 1.19791 v 1.66666 h -1.9987 q -1.3802,0 -1.95963,-0.57291 -0.57292,-0.57943 -0.57292,-1.95964 v -3.09245 h -1.15885 v -1.66666 h 1.15885 v -2.07032 z" />
        <path
           inkscape:connector-curvature="0"
           id="path2117"
           style="font-style:normal;font-variant:normal;font-weight:bold;font-stretch:normal;font-size:13.33333397px;font-family:sans-serif;-inkscape-font-specification:'sans-serif Bold';fill:#f05033;fill-opacity:1"
           d="m -370.61131,196.72656 q -0.72916,0 -1.10026,0.2474 -0.36458,0.24739 -0.36458,0.72916 0,0.44271 0.29297,0.69662 0.29948,0.2474 0.82682,0.2474 0.65755,0 1.10677,-0.46875 0.44922,-0.47527 0.44922,-1.1849 v -0.26693 z m 3.5612,-0.8789 v 4.16015 h -2.35026 v -1.08073 q -0.46875,0.66407 -1.05469,0.97006 -0.58594,0.29947 -1.42578,0.29947 -1.13281,0 -1.84245,-0.65755 -0.70312,-0.66406 -0.70312,-1.71875 0,-1.28255 0.8789,-1.88151 0.88542,-0.59896 2.77344,-0.59896 h 1.3737 v -0.18229 q 0,-0.55338 -0.4362,-0.80729 -0.4362,-0.26042 -1.36068,-0.26042 -0.74869,0 -1.39322,0.14974 -0.64454,0.14974 -1.19792,0.44922 v -1.77734 q 0.7487,-0.18229 1.50391,-0.27344 0.7552,-0.0977 1.51041,-0.0977 1.97266,0 2.84505,0.78125 0.87891,0.77474 0.87891,2.52605 z m -4.28385,-6.50391 1.83593,2.44792 h -1.27604 l -2.40234,-2.44792 z" />
        <path
           inkscape:connector-curvature="0"
           id="path2119"
           style="font-style:normal;font-variant:normal;font-weight:bold;font-stretch:normal;font-size:13.33333397px;font-family:sans-serif;-inkscape-font-specification:'sans-serif Bold';fill:#f05033;fill-opacity:1"
           d="m -360.23372,189.8776 h 2.33073 v 10.13021 h -2.33073 z" />
        <path
           inkscape:connector-curvature="0"
           id="path2121"
           style="font-style:normal;font-variant:normal;font-weight:bold;font-stretch:normal;font-size:13.33333397px;font-family:sans-serif;-inkscape-font-specification:'sans-serif Bold';fill:#f05033;fill-opacity:1"
           d="m -353.95767,190.28776 v 3.61328 h -1.54297 v -3.61328 z" />
        <path
           inkscape:connector-curvature="0"
           id="path2123"
           style="font-style:normal;font-variant:normal;font-weight:bold;font-stretch:normal;font-size:13.33333397px;font-family:sans-serif;-inkscape-font-specification:'sans-serif Bold';fill:#f05033;fill-opacity:1"
           d="m -351.45765,190.28776 h 2.50651 v 9.72005 h -2.50651 z" />
        <path
           inkscape:connector-curvature="0"
           id="path2125"
           style="font-style:normal;font-variant:normal;font-weight:bold;font-stretch:normal;font-size:13.33333397px;font-family:sans-serif;-inkscape-font-specification:'sans-serif Bold';fill:#f05033;fill-opacity:1"
           d="m -339.25715,195.56771 v 4.4401 h -2.34375 v -0.72265 -2.67579 q 0,-0.94401 -0.0456,-1.30208 -0.0391,-0.35807 -0.14323,-0.52734 -0.13672,-0.22787 -0.3711,-0.35156 -0.23437,-0.13021 -0.53385,-0.13021 -0.72917,0 -1.14583,0.5664 -0.41667,0.5599 -0.41667,1.55599 v 3.58724 h -2.33073 v -7.29166 h 2.33073 v 1.0677 q 0.52734,-0.63802 1.11979,-0.9375 0.59245,-0.30599 1.30859,-0.30599 1.26303,0 1.91407,0.77474 0.65755,0.77474 0.65755,2.25261 z" />
        <path
           inkscape:connector-curvature="0"
           id="path2127"
           style="font-style:normal;font-variant:normal;font-weight:bold;font-stretch:normal;font-size:13.33333397px;font-family:sans-serif;-inkscape-font-specification:'sans-serif Bold';fill:#f05033;fill-opacity:1"
           d="m -331.38605,192.94401 v 1.77083 q -0.74869,-0.3125 -1.44531,-0.46875 -0.69661,-0.15625 -1.3151,-0.15625 -0.66407,0 -0.98959,0.16927 -0.31901,0.16276 -0.31901,0.50782 0,0.27994 0.24089,0.42968 0.24739,0.14974 0.8789,0.22136 l 0.41016,0.0586 q 1.79037,0.22787 2.40885,0.7487 0.61849,0.52083 0.61849,1.63411 0,1.16537 -0.85937,1.75131 -0.85938,0.58593 -2.56511,0.58593 -0.72265,0 -1.49739,-0.11718 -0.76823,-0.11068 -1.58203,-0.33854 v -1.77084 q 0.69661,0.33854 1.42578,0.50781 0.73568,0.16928 1.49088,0.16928 0.6836,0 1.02865,-0.18881 0.34505,-0.1888 0.34505,-0.55989 0,-0.3125 -0.24088,-0.46224 -0.23438,-0.15625 -0.94401,-0.24089 l -0.41016,-0.0521 q -1.55599,-0.19531 -2.18099,-0.72266 -0.625,-0.52734 -0.625,-1.60156 0,-1.15885 0.79427,-1.71875 0.79427,-0.5599 2.4349,-0.5599 0.64453,0 1.35416,0.0977 0.70964,0.0977 1.54297,0.30599 z" />
        <path
           inkscape:connector-curvature="0"
           id="path2129"
           style="font-style:normal;font-variant:normal;font-weight:bold;font-stretch:normal;font-size:13.33333397px;font-family:sans-serif;-inkscape-font-specification:'sans-serif Bold';fill:#f05033;fill-opacity:1"
           d="m -321.8613,196.34245 v 0.66406 h -5.44922 q 0.0846,0.82031 0.59245,1.23047 0.50781,0.41016 1.41927,0.41016 0.73568,0 1.50391,-0.21485 0.77474,-0.22135 1.58854,-0.66406 v 1.79687 q -0.82682,0.3125 -1.65365,0.46875 -0.82682,0.16276 -1.65364,0.16276 -1.97917,0 -3.07943,-1.0026 -1.09375,-1.00911 -1.09375,-2.82552 0,-1.78385 1.07422,-2.80599 1.08073,-1.02214 2.96875,-1.02214 1.71875,0 2.7474,1.03516 1.03515,1.03516 1.03515,2.76693 z m -2.39583,-0.77474 q 0,-0.66406 -0.39063,-1.06771 -0.38411,-0.41016 -1.00911,-0.41016 -0.67708,0 -1.10026,0.38412 -0.42318,0.3776 -0.52734,1.09375 z" />
        <path
           inkscape:connector-curvature="0"
           id="path2131"
           style="font-style:normal;font-variant:normal;font-weight:bold;font-stretch:normal;font-size:13.33333397px;font-family:sans-serif;-inkscape-font-specification:'sans-serif Bold';fill:#f05033;fill-opacity:1"
           d="m -312.82486,196.34245 v 0.66406 h -5.44922 q 0.0846,0.82031 0.59245,1.23047 0.50781,0.41016 1.41927,0.41016 0.73568,0 1.50391,-0.21485 0.77474,-0.22135 1.58854,-0.66406 v 1.79687 q -0.82682,0.3125 -1.65365,0.46875 -0.82682,0.16276 -1.65364,0.16276 -1.97917,0 -3.07943,-1.0026 -1.09375,-1.00911 -1.09375,-2.82552 0,-1.78385 1.07422,-2.80599 1.08073,-1.02214 2.96875,-1.02214 1.71875,0 2.74739,1.03516 1.03516,1.03516 1.03516,2.76693 z m -2.39583,-0.77474 q 0,-0.66406 -0.39063,-1.06771 -0.38411,-0.41016 -1.00911,-0.41016 -0.67709,0 -1.10026,0.38412 -0.42318,0.3776 -0.52735,1.09375 z" />
      </g>
      <g
         id="flowRoot2134"
         style="font-style:normal;font-variant:normal;font-weight:normal;font-stretch:normal;font-size:6.66666698px;line-height:1.25;font-family:sans-serif;-inkscape-font-specification:sans-serif;letter-spacing:0px;word-spacing:0px;fill:#000000;fill-opacity:1;stroke:none"
         transform="matrix(0.26458333,0,0,0.26458333,216.62987,160.91992)"
         aria-label="Romain Warnan">
        <path
           inkscape:connector-curvature="0"
           id="path2142"
           d="m -523.04102,200.11979 q 0.21159,0.0716 0.41016,0.30599 0.20182,0.23438 0.40365,0.64453 l 0.66731,1.32813 h -0.70638 l -0.62174,-1.24675 q -0.24089,-0.48828 -0.46875,-0.64778 -0.22461,-0.15951 -0.61524,-0.15951 h -0.71614 v 2.05404 h -0.65755 v -4.86003 h 1.48437 q 0.83334,0 1.24349,0.34831 0.41016,0.34831 0.41016,1.05143 0,0.45899 -0.21485,0.76172 -0.21158,0.30273 -0.61849,0.41992 z m -1.64713,-2.04101 v 1.72526 h 0.82682 q 0.47526,0 0.71615,-0.2181 0.24414,-0.22136 0.24414,-0.64779 0,-0.42643 -0.24414,-0.64127 -0.24089,-0.2181 -0.71615,-0.2181 z" />
        <path
           inkscape:connector-curvature="0"
           id="path2144"
           d="m -519.62305,199.17253 q -0.48177,0 -0.76172,0.3776 -0.27994,0.37435 -0.27994,1.02865 0,0.65429 0.27669,1.0319 0.27995,0.37435 0.76497,0.37435 0.47852,0 0.75847,-0.37761 0.27994,-0.3776 0.27994,-1.02864 0,-0.64779 -0.27994,-1.02539 -0.27995,-0.38086 -0.75847,-0.38086 z m 0,-0.50782 q 0.78125,0 1.22722,0.50782 0.44596,0.50781 0.44596,1.40625 0,0.89518 -0.44596,1.40625 -0.44597,0.50781 -1.22722,0.50781 -0.7845,0 -1.23047,-0.50781 -0.4427,-0.51107 -0.4427,-1.40625 0,-0.89844 0.4427,-1.40625 0.44597,-0.50782 1.23047,-0.50782 z" />
        <path
           inkscape:connector-curvature="0"
           id="path2146"
           d="m -514.12174,199.45247 q 0.22461,-0.40364 0.53711,-0.5957 0.3125,-0.19206 0.73567,-0.19206 0.56966,0 0.87891,0.40039 0.30924,0.39714 0.30924,1.13282 v 2.20052 h -0.60221 v -2.18099 q 0,-0.52409 -0.18555,-0.778 -0.18554,-0.2539 -0.5664,-0.2539 -0.4655,0 -0.73568,0.30924 -0.27018,0.30925 -0.27018,0.8431 v 2.06055 h -0.60222 v -2.18099 q 0,-0.52735 -0.18554,-0.778 -0.18555,-0.2539 -0.57292,-0.2539 -0.45898,0 -0.72917,0.3125 -0.27018,0.30924 -0.27018,0.83984 v 2.06055 h -0.60221 v -3.64584 h 0.60221 v 0.56641 q 0.20508,-0.33529 0.49154,-0.49479 0.28646,-0.15951 0.68034,-0.15951 0.39713,0 0.67382,0.20183 0.27995,0.20182 0.41342,0.58593 z" />
        <path
           inkscape:connector-curvature="0"
           id="path2148"
           d="m -508.80599,200.56576 q -0.72591,0 -1.00586,0.16601 -0.27995,0.16602 -0.27995,0.56641 0,0.31901 0.20834,0.50781 0.21159,0.18555 0.57291,0.18555 0.49805,0 0.79753,-0.35157 0.30273,-0.35481 0.30273,-0.94075 v -0.13346 z m 1.19466,-0.2474 v 2.08008 h -0.59896 v -0.55339 q -0.20507,0.33203 -0.51106,0.49154 -0.30599,0.15625 -0.7487,0.15625 -0.5599,0 -0.89193,-0.3125 -0.32877,-0.31576 -0.32877,-0.8431 0,-0.61523 0.41015,-0.92773 0.41341,-0.3125 1.23047,-0.3125 h 0.83984 v -0.0586 q 0,-0.41341 -0.27343,-0.63802 -0.27019,-0.22786 -0.76172,-0.22786 -0.3125,0 -0.60873,0.0749 -0.29622,0.0749 -0.56966,0.22461 v -0.55339 q 0.32878,-0.12695 0.63802,-0.1888 0.30925,-0.0651 0.60222,-0.0651 0.79101,0 1.18164,0.41016 0.39062,0.41016 0.39062,1.24349 z" />
        <path
           inkscape:connector-curvature="0"
           id="path2150"
           d="m -506.37435,198.7526 h 0.59896 v 3.64584 h -0.59896 z m 0,-1.41927 h 0.59896 v 0.75847 h -0.59896 z" />
        <path
           inkscape:connector-curvature="0"
           id="path2152"
           d="m -501.49479,200.19792 v 2.20052 h -0.59896 v -2.18099 q 0,-0.51758 -0.20182,-0.77474 -0.20182,-0.25716 -0.60547,-0.25716 -0.48503,0 -0.76497,0.30924 -0.27995,0.30925 -0.27995,0.8431 v 2.06055 h -0.60222 v -3.64584 h 0.60222 v 0.56641 q 0.21484,-0.32878 0.50456,-0.49154 0.29296,-0.16276 0.67382,-0.16276 0.62826,0 0.95052,0.39063 0.32227,0.38737 0.32227,1.14258 z" />
        <path
           inkscape:connector-curvature="0"
           id="path2154"
           d="m -498.57812,197.53841 h 0.66406 l 1.02213,4.10807 1.01888,-4.10807 h 0.73894 l 1.02213,4.10807 1.01888,-4.10807 h 0.66732 l -1.2207,4.86003 h -0.82683 l -1.02539,-4.21875 -1.03515,4.21875 h -0.82683 z" />
        <path
           inkscape:connector-curvature="0"
           id="path2156"
           d="m -490.35547,200.56576 q -0.72591,0 -1.00586,0.16601 -0.27995,0.16602 -0.27995,0.56641 0,0.31901 0.20834,0.50781 0.21159,0.18555 0.57291,0.18555 0.49805,0 0.79753,-0.35157 0.30273,-0.35481 0.30273,-0.94075 v -0.13346 z m 1.19466,-0.2474 v 2.08008 h -0.59896 v -0.55339 q -0.20507,0.33203 -0.51106,0.49154 -0.30599,0.15625 -0.7487,0.15625 -0.5599,0 -0.89193,-0.3125 -0.32877,-0.31576 -0.32877,-0.8431 0,-0.61523 0.41015,-0.92773 0.41341,-0.3125 1.23047,-0.3125 h 0.83984 v -0.0586 q 0,-0.41341 -0.27343,-0.63802 -0.27019,-0.22786 -0.76172,-0.22786 -0.3125,0 -0.60873,0.0749 -0.29622,0.0749 -0.56966,0.22461 v -0.55339 q 0.32878,-0.12695 0.63802,-0.1888 0.30925,-0.0651 0.60222,-0.0651 0.79101,0 1.18164,0.41016 0.39062,0.41016 0.39062,1.24349 z" />
        <path
           inkscape:connector-curvature="0"
           id="path2158"
           d="m -485.8112,199.3125 q -0.10091,-0.0586 -0.22135,-0.0846 -0.11719,-0.0293 -0.26042,-0.0293 -0.50781,0 -0.78125,0.33203 -0.27018,0.32878 -0.27018,0.94726 v 1.92058 h -0.60221 v -3.64584 h 0.60221 v 0.56641 q 0.1888,-0.33203 0.49154,-0.49154 0.30273,-0.16276 0.73567,-0.16276 0.0618,0 0.13672,0.01 0.0749,0.007 0.16602,0.0228 z" />
        <path
           inkscape:connector-curvature="0"
           id="path2160"
           d="m -482.26302,200.19792 v 2.20052 h -0.59896 v -2.18099 q 0,-0.51758 -0.20182,-0.77474 -0.20182,-0.25716 -0.60547,-0.25716 -0.48503,0 -0.76497,0.30924 -0.27995,0.30925 -0.27995,0.8431 v 2.06055 h -0.60222 v -3.64584 h 0.60222 v 0.56641 q 0.21484,-0.32878 0.50455,-0.49154 0.29297,-0.16276 0.67383,-0.16276 0.62826,0 0.95052,0.39063 0.32227,0.38737 0.32227,1.14258 z" />
        <path
           inkscape:connector-curvature="0"
           id="path2162"
           d="m -479.40495,200.56576 q -0.72591,0 -1.00585,0.16601 -0.27995,0.16602 -0.27995,0.56641 0,0.31901 0.20833,0.50781 0.21159,0.18555 0.57292,0.18555 0.49804,0 0.79752,-0.35157 0.30274,-0.35481 0.30274,-0.94075 v -0.13346 z m 1.19467,-0.2474 v 2.08008 h -0.59896 v -0.55339 q -0.20508,0.33203 -0.51107,0.49154 -0.30599,0.15625 -0.7487,0.15625 -0.55989,0 -0.89192,-0.3125 -0.32878,-0.31576 -0.32878,-0.8431 0,-0.61523 0.41016,-0.92773 0.41341,-0.3125 1.23046,-0.3125 h 0.83985 v -0.0586 q 0,-0.41341 -0.27344,-0.63802 -0.27018,-0.22786 -0.76172,-0.22786 -0.3125,0 -0.60872,0.0749 -0.29623,0.0749 -0.56966,0.22461 v -0.55339 q 0.32877,-0.12695 0.63802,-0.1888 0.30924,-0.0651 0.60221,-0.0651 0.79102,0 1.18164,0.41016 0.39063,0.41016 0.39063,1.24349 z" />
        <path
           inkscape:connector-curvature="0"
           id="path2164"
           d="m -473.9427,200.19792 v 2.20052 h -0.59896 v -2.18099 q 0,-0.51758 -0.20183,-0.77474 -0.20182,-0.25716 -0.60546,-0.25716 -0.48503,0 -0.76498,0.30924 -0.27995,0.30925 -0.27995,0.8431 v 2.06055 h -0.60221 v -3.64584 h 0.60221 v 0.56641 q 0.21485,-0.32878 0.50456,-0.49154 0.29297,-0.16276 0.67383,-0.16276 0.62825,0 0.95052,0.39063 0.32227,0.38737 0.32227,1.14258 z" />
      </g>
      <path
         sodipodi:nodetypes="ccccccccc"
         inkscape:connector-curvature="0"
         id="rect2378"
         d="m 162.1407,287.28719 c -0.0638,0.004 -0.12362,0.0474 -0.18087,0.11678 l 1.62626,1.6366 -1.62626,1.63711 c 0.1145,0.13873 0.23938,0.17232 0.38499,0 l 1.57828,-1.593 c 0.0221,-0.0256 0.0196,-0.0749 0,-0.0924 l -1.57828,-1.58832 c -0.0728,-0.0862 -0.14036,-0.12098 -0.20412,-0.11678 z"
         style="fill:#3c5fba;fill-opacity:1;fill-rule:evenodd;stroke-width:0.23672917" />
      <g
         id="g2668"
         transform="matrix(1.1,0,0,1.0999999,-150.3934,146.14296)">
        <g
           id="g2657"
           transform="translate(-18.370483,-0.35477048)">
          <circle
             r="5"
             cy="96.209465"
             cx="223.37048"
             id="path2442"
             style="opacity:1;fill:#401f8b;fill-opacity:1;stroke:none;stroke-width:0.04710057;stroke-miterlimit:4;stroke-dasharray:none;stroke-opacity:1" />
          <g
             id="g2651">
            <circle
               style="opacity:1;fill:#ffffff;fill-opacity:1;stroke:none;stroke-width:0.03061537;stroke-miterlimit:4;stroke-dasharray:none;stroke-opacity:1"
               id="path2442-1-5"
               cx="223.37048"
               cy="96.209465"
               r="3.25" />
            <path
               style="opacity:1;fill:#7864a1;fill-opacity:1;stroke:none;stroke-width:0.04710057;stroke-miterlimit:4;stroke-dasharray:none;stroke-opacity:1"
               d="m 223.37018,91.209464 a 5,5 0 0 0 -4.99969,5.000212 5,5 0 0 0 4.99969,4.999694 5,5 0 0 0 5.00021,-4.999694 5,5 0 0 0 -5.00021,-5.000212 z m 0,0.199988 a 4.8000001,4.8000001 0 0 1 4.80023,4.800224 4.8000001,4.8000001 0 0 1 -4.80023,4.799714 4.8000001,4.8000001 0 0 1 -4.7997,-4.799714 4.8000001,4.8000001 0 0 1 4.7997,-4.800224 z"
               id="path2442-1-9"
               inkscape:connector-curvature="0" />
          </g>
        </g>
        <g
           id="g2647"
           transform="translate(2.25,2.104744)">
          <circle
             style="opacity:1;fill:#ffffff;fill-opacity:1;stroke:none;stroke-width:0.03061537;stroke-miterlimit:4;stroke-dasharray:none;stroke-opacity:1"
             id="circle2632"
             cx="203.25"
             cy="93.749977"
             r="3.25" />
          <g
             transform="translate(-1.9024555e-4)"
             id="g2635">
            <g
               id="g2761">
              <g
                 id="g3275"
                 transform="matrix(0.1728612,0,0,0.18053043,249.0583,32.871614)">
                <path
                   sodipodi:nodetypes="cccccccccccc"
                   inkscape:connector-curvature="0"
                   id="path3245"
                   d="m -196.47379,210.55198 -10.33529,31.67098 v 2.48047 l 30.6958,22.11751 30.38574,-22.11751 v -2.48047 l -10.23193,-31.67098 c -0.52999,-0.61249 -1.09023,-0.89216 -1.757,0 l -7.028,21.5424 h -22.42757 l -7.2347,-21.5424 c -0.60951,-0.87455 -1.32049,-0.63302 -2.06705,0 z"
                   style="opacity:1;vector-effect:none;fill:#e24329;fill-opacity:1;stroke:none;stroke-width:0.26458332px;stroke-linecap:butt;stroke-linejoin:miter;stroke-miterlimit:4;stroke-dasharray:none;stroke-dashoffset:0;stroke-opacity:1" />
                <path
                   inkscape:connector-curvature="0"
                   id="path3247"
                   d="m -203.48038,232.06097 16.30834,-0.0183 11.05876,34.77824 z"
                   style="opacity:1;vector-effect:none;fill:#fc6d26;fill-opacity:1;stroke:none;stroke-width:0.26458332px;stroke-linecap:butt;stroke-linejoin:miter;stroke-miterlimit:4;stroke-dasharray:none;stroke-dashoffset:0;stroke-opacity:1"
                   sodipodi:nodetypes="cccc" />
                <path
                   inkscape:connector-curvature="0"
                   id="path3251"
                   d="m -164.87189,232.1036 15.8276,-0.14778 -27.06899,34.86512 z"
                   style="opacity:1;vector-effect:none;fill:#fc6d26;fill-opacity:1;stroke:none;stroke-width:0.26458332px;stroke-linecap:butt;stroke-linejoin:miter;stroke-miterlimit:4;stroke-dasharray:none;stroke-dashoffset:0;stroke-opacity:1"
                   sodipodi:nodetypes="cccc" />
                <path
                   inkscape:connector-curvature="0"
                   id="path3253"
                   d="m -203.48038,232.06097 -3.3287,10.16199 v 2.48047 l 30.6958,22.11751 z"
                   style="opacity:1;vector-effect:none;fill:#fca326;fill-opacity:1;stroke:none;stroke-width:0.26458332px;stroke-linecap:butt;stroke-linejoin:miter;stroke-miterlimit:4;stroke-dasharray:none;stroke-dashoffset:0;stroke-opacity:1"
                   sodipodi:nodetypes="ccccc" />
                <path
                   sodipodi:nodetypes="ccccc"
                   inkscape:connector-curvature="0"
                   id="path3253-5"
                   d="m -149.04429,231.95582 3.31675,10.26714 v 2.48047 l -30.38574,22.11751 z"
                   style="opacity:1;vector-effect:none;fill:#fca326;fill-opacity:1;stroke:none;stroke-width:0.26458332px;stroke-linecap:butt;stroke-linejoin:miter;stroke-miterlimit:4;stroke-dasharray:none;stroke-dashoffset:0;stroke-opacity:1" />
              </g>
              <g
                 id="g1648"
                 transform="matrix(0.90909092,0,0,0.909091,411.84103,-108.10877)">
                <path
                   sodipodi:nodetypes="ccccccccccc"
                   style="opacity:1;vector-effect:none;fill:#ffffff;fill-opacity:1;stroke:none;stroke-width:0.26458332px;stroke-linecap:butt;stroke-linejoin:miter;stroke-miterlimit:4;stroke-dasharray:none;stroke-dashoffset:0;stroke-opacity:1"
                   d="m -229.5989,196.77819 c -0.15987,0.004 -0.30783,0.0441 -0.44855,0.10594 l -5.34594,5.61308 c -0.1058,0.32357 -0.17405,0.64287 0,0.93534 l 5.34593,5.67924 c 0.37835,0.12994 0.68333,0.0889 0.9679,0 l 5.24567,-5.67924 c 0.11015,-0.36689 0.0776,-0.66234 0,-0.93534 l -5.24567,-5.61309 c -0.18782,-0.0795 -0.35949,-0.11035 -0.51935,-0.10594 z"
                   id="path1644"
                   inkscape:connector-curvature="0" />
                <path
                   inkscape:connector-curvature="0"
                   id="path1584"
                   d="m -229.5989,196.77819 c -0.15987,0.004 -0.30783,0.0441 -0.44855,0.10594 l -1.03663,1.08882 1.34513,1.38648 c 0.0706,-0.0179 0.14311,-0.0276 0.21601,-0.0279 0.48918,8e-5 0.88569,0.40192 0.88574,0.89762 -2e-4,0.0793 -0.0108,0.15821 -0.0315,0.23461 l 1.44849,1.49552 c 0.11186,-0.0501 0.23274,-0.0761 0.35502,-0.0765 0.48918,8e-5 0.8857,0.40192 0.88574,0.89762 -4e-5,0.4957 -0.39656,0.89754 -0.88574,0.89762 -0.48917,-8e-5 -0.88569,-0.40193 -0.88573,-0.89762 2.6e-4,-0.0673 0.008,-0.13439 0.0232,-0.19999 l -1.46916,-1.5167 c -0.007,0.002 -0.0132,0.005 -0.0202,0.007 v 3.32641 c 0.28064,0.15842 0.45465,0.45839 0.45475,0.78393 -4e-5,0.4957 -0.39655,0.89754 -0.88573,0.89762 -0.48917,-8e-5 -0.8857,-0.40193 -0.88574,-0.89762 2.7e-4,-0.32961 0.17885,-0.63254 0.46509,-0.78909 v -3.45612 c -0.2146,-0.17013 -0.34,-0.43085 -0.34003,-0.70694 0,-0.11868 0.0231,-0.23617 0.0682,-0.34571 l -1.29139,-1.33584 -3.76153,3.94963 c -0.1058,0.32357 -0.17405,0.64287 0,0.93534 l 5.34593,5.67924 c 0.37835,0.12994 0.68333,0.0889 0.9679,0 l 5.24567,-5.67924 c 0.11015,-0.36689 0.0776,-0.66234 0,-0.93534 l -5.24567,-5.61309 c -0.18782,-0.0795 -0.35949,-0.11035 -0.51935,-0.10594 z"
                   style="opacity:1;vector-effect:none;fill:#f05033;fill-opacity:1;stroke:none;stroke-width:0.26458332px;stroke-linecap:butt;stroke-linejoin:miter;stroke-miterlimit:4;stroke-dasharray:none;stroke-dashoffset:0;stroke-opacity:1" />
              </g>
              <g
                 id="g1925"
                 transform="matrix(0.90909092,0,0,0.909091,340.94588,-38.541994)">
                <path
                   sodipodi:nodetypes="ccccccccccc"
                   inkscape:connector-curvature="0"
                   id="path1759"
                   d="m -134.86412,138.71863 c -0.0837,2.6e-4 -0.16765,0.0332 -0.23151,0.0987 l -5.70043,5.84254 c -0.12773,0.13093 -0.12707,0.34095 0.002,0.47077 l 5.749,5.79344 c 0.1288,0.12981 0.3353,0.12911 0.46302,-0.002 l 5.70043,-5.84254 c 0.12773,-0.13091 0.12747,-0.34099 -0.002,-0.47077 l -5.749,-5.79345 c -0.0644,-0.0649 -0.14782,-0.097 -0.23151,-0.0966 z"
                   style="fill:#ffffff;fill-opacity:1;fill-rule:evenodd;stroke:none;stroke-width:0.25399685" />
                <path
                   sodipodi:nodetypes="cccccccccccccc"
                   inkscape:connector-curvature="0"
                   id="rect1682"
                   d="m -134.54266,145.41806 c -0.0561,0.0308 -0.11052,0.0503 -0.16898,0.0636 v 1.23197 c 0.35855,0.0625 0.62046,0.37346 0.62115,0.73742 1.9e-4,0.41428 -0.33555,0.75025 -0.74983,0.75034 -0.41428,-1e-4 -0.75001,-0.33606 -0.74982,-0.75034 5.6e-4,-0.36129 0.25862,-0.67084 0.61392,-0.73639 v -1.23196 c -0.0573,-0.011 -0.11523,-0.0262 -0.16485,-0.0506 l -2.6541,2.72024 2.75021,2.77193 c 0.12881,0.12981 0.3353,0.12912 0.46303,-0.002 l 2.72748,-2.79518 z"
                   style="fill:#ffe680;fill-opacity:1;fill-rule:evenodd;stroke:none;stroke-width:0.25399685" />
                <path
                   sodipodi:nodetypes="cccccccc"
                   style="fill:#80b3ff;fill-opacity:1;fill-rule:evenodd;stroke:none;stroke-width:0.25399685"
                   d="m -138.06858,141.86479 -2.72748,2.79518 c -0.12773,0.13093 -0.12708,0.34095 0.002,0.47077 l 2.75022,2.77141 2.63963,-2.70526 c -0.066,-0.10398 -0.10116,-0.22461 -0.10129,-0.34779 7e-5,-0.11131 0.0287,-0.22074 0.0832,-0.31781 z"
                   id="path1767"
                   inkscape:connector-curvature="0" />
                <path
                   sodipodi:nodetypes="cccccccccccccccccccccccccc"
                   style="fill:#ff8080;fill-opacity:1;fill-rule:evenodd;stroke:none;stroke-width:0.25399685"
                   d="m -134.86412,138.71872 c -0.0837,2.6e-4 -0.16765,0.0332 -0.23151,0.0987 l -1.418,1.45366 1.38027,1.37666 c 0.0731,-0.0236 0.1495,-0.0358 0.22635,-0.0362 0.41448,-2e-4 0.75053,0.33586 0.75034,0.75034 -5e-5,0.0762 -0.0117,0.15205 -0.0346,0.22479 l 0.67592,0.67386 1.63298,-1.6738 -2.75022,-2.77141 c -0.0644,-0.0649 -0.14782,-0.097 -0.23151,-0.0966 z m -2.04949,1.96215 -0.90847,0.93173 2.64945,2.67012 c 0.0611,-0.0344 0.12795,-0.055 0.19637,-0.0682 v -1.11001 c -0.3814,-0.0352 -0.68101,-0.35201 -0.68109,-0.74259 2e-4,-0.10738 0.0235,-0.21347 0.0682,-0.31109 z m 2.29495,2.37248 c -0.03,0.0126 -0.0618,0.0193 -0.093,0.0279 v 1.1374 c 0.0665,0.0152 0.13111,0.0378 0.19017,0.0734 l 0.55294,-0.56689 z"
                   id="path1763"
                   inkscape:connector-curvature="0" />
                <path
                   sodipodi:nodetypes="cccccccccccccccc"
                   inkscape:connector-curvature="0"
                   id="rect1682-9"
                   d="m -131.63383,141.83739 -1.64073,1.68155 0.58136,0.54054 c 0.10272,-0.0399 0.21234,-0.0605 0.32298,-0.0605 0.48028,9e-5 0.86961,0.37833 0.86971,0.84491 -1e-4,0.4666 -0.38943,0.84482 -0.86971,0.84491 -0.48029,-9e-5 -0.86962,-0.37831 -0.86972,-0.84491 9e-5,-0.11329 0.0237,-0.22542 0.0693,-0.3297 l -0.54054,-0.54829 -0.56792,0.5824 c 0.0483,0.0929 0.0735,0.19605 0.0734,0.30075 -7e-5,0.11274 -0.0294,0.22349 -0.0853,0.32143 l 2.68305,2.70371 2.72645,-2.79466 c 0.12773,-0.13091 0.12748,-0.34098 -0.002,-0.47077 z"
                   style="fill:#8dd35f;fill-opacity:1;fill-rule:evenodd;stroke:none;stroke-width:0.25399685" />
              </g>
              <path
                 inkscape:connector-curvature="0"
                 id="path2442-1-5-7"
                 transform="matrix(0.26458333,0,0,0.26458333,0,169.99998)"
                 d="m 768.18945,-300.47266 a 12.283465,12.283465 0 0 0 -12.2832,12.28321 12.283465,12.283465 0 0 0 0.16016,1.89062 h -0.0371 l 0.0703,0.20703 a 12.283465,12.283465 0 0 0 12.08984,10.18555 12.283465,12.283465 0 0 0 12.28321,-12.2832 12.283465,12.283465 0 0 0 -12.28321,-12.28321 z m 0,0.37891 a 11.905512,11.905512 0 0 1 11.39844,8.50391 h -22.80273 a 11.905512,11.905512 0 0 1 11.40429,-8.50391 z m -11.68359,9.63672 h 23.35937 a 11.905512,11.905512 0 0 1 0.19141,1.51172 h -23.73437 a 11.905512,11.905512 0 0 1 0.18359,-1.51172 z m -0.20898,2.64648 h 23.77734 a 11.905512,11.905512 0 0 1 -0.1582,1.51172 h -23.46875 a 11.905512,11.905512 0 0 1 -0.15039,-1.51172 z m 0.39062,2.64453 h 22.99219 a 11.905512,11.905512 0 0 1 -11.49024,8.88282 11.905512,11.905512 0 0 1 -11.50195,-8.88282 z"
                 style="opacity:1;fill:#401f8b;fill-opacity:1;stroke:none;stroke-width:0.11571164;stroke-miterlimit:4;stroke-dasharray:none;stroke-opacity:1" />
            </g>
          </g>
        </g>
      </g>
    </g>
  </g>
</svg>
