<svg viewBox="0 0 120 120" xmlns="http://www.w3.org/2000/svg">
    <g class="onyxia-fill-useCases-typography-textFocus" fill="#FF562C">
        <path d="M52.9836 13.1941H13.2207C12.5787 13.1941 11.963 13.4375 11.509 13.8706C11.055 14.3038 10.8 14.8913 10.8 15.5038V53.4456C10.8 54.0581 11.055 54.6456 11.509 55.0788C11.963 55.5119 12.5787 55.7553 13.2207 55.7553H52.9836C53.6256 55.7553 54.2413 55.5119 54.6953 55.0788C55.1492 54.6456 55.4043 54.0581 55.4043 53.4456V15.5038C55.4043 14.8913 55.1492 14.3038 54.6953 13.8706C54.2413 13.4375 53.6256 13.1941 52.9836 13.1941ZM50.5628 51.1312H15.6414V17.8136H50.5628V51.1312ZM52.9836 64.2435H13.2207C12.5787 64.2435 11.963 64.4868 11.509 64.92C11.055 65.3531 10.8 65.9406 10.8 66.5532V104.49C10.8 105.103 11.055 105.69 11.509 106.123C11.963 106.557 12.5787 106.8 13.2207 106.8H52.9836C53.6256 106.8 54.2413 106.557 54.6953 106.123C55.1492 105.69 55.4043 105.103 55.4043 104.49V66.5532C55.4043 65.9406 55.1492 65.3531 54.6953 64.92C54.2413 64.4868 53.6256 64.2435 52.9836 64.2435ZM50.5628 102.181H15.6414V68.8629H50.5628V102.181ZM106.482 64.2435H66.7236C66.0816 64.2435 65.4659 64.4868 65.0119 64.92C64.5579 65.3531 64.3029 65.9406 64.3029 66.5532V104.49C64.3029 105.103 64.5579 105.69 65.0119 106.123C65.4659 106.557 66.0816 106.8 66.7236 106.8H106.484C107.126 106.8 107.742 106.557 108.196 106.123C108.65 105.69 108.905 105.103 108.905 104.49V66.5532C108.905 65.9406 108.65 65.3531 108.196 64.92C107.742 64.4868 107.126 64.2435 106.484 64.2435H106.482ZM104.061 102.181H69.1443V68.8629H104.063L104.061 102.181ZM90.7808 27.1864C89.6157 26.5739 88.3191 26.2239 86.9904 26.1634C85.6617 26.1029 84.3361 26.3335 83.1152 26.8373C81.8943 27.3412 80.8105 28.1051 79.9469 29.0705C79.0832 30.0358 78.4627 31.177 78.1327 32.4066C77.8028 33.6361 77.7722 34.9214 78.0434 36.164C78.3146 37.4066 78.8803 38.5734 79.6972 39.5751C80.5141 40.5768 81.5604 41.3868 82.7561 41.943C83.9518 42.4992 85.2651 42.7869 86.5953 42.7839C87.4269 42.7825 88.2541 42.6689 89.0524 42.4467C90.7014 41.9814 92.1693 41.0609 93.2712 39.8013C94.3732 38.5416 95.0599 36.9991 95.2449 35.3678C95.43 33.7366 95.1051 32.0896 94.3111 30.6341C93.5172 29.1787 92.2897 27.9799 90.7832 27.1887L90.7808 27.1864ZM89.9916 36.2428C89.6247 36.8809 89.0678 37.4009 88.3913 37.7371C87.7148 38.0733 86.949 38.2107 86.1907 38.1319C85.4324 38.053 84.7156 37.7615 84.1309 37.2942C83.5462 36.8268 83.1197 36.2046 82.9054 35.5061C82.6912 34.8076 82.6987 34.0642 82.927 33.3697C83.1553 32.6753 83.5943 32.061 84.1883 31.6045C84.7824 31.148 85.5049 30.8697 86.2647 30.8048C87.0244 30.7399 87.7873 30.8913 88.4569 31.2399C88.9038 31.4705 89.2983 31.7833 89.6177 32.1602C89.9371 32.5371 90.1751 32.9707 90.3178 33.436C90.4605 33.9012 90.5052 34.3888 90.4492 34.8705C90.3932 35.3523 90.2377 35.8187 89.9916 36.2428ZM109.062 40.4141C108.424 38.6068 107.351 36.9671 105.93 35.6261L105.855 32.4687C107.21 31.0663 108.205 29.3819 108.76 27.549C108.854 27.2411 108.88 26.9177 108.836 26.5996C108.793 26.2814 108.68 25.9755 108.505 25.7012L104.838 19.9547C104.662 19.6795 104.429 19.4425 104.151 19.2587C103.874 19.0749 103.56 18.9485 103.228 18.8876C101.27 18.5173 99.2485 18.5837 97.3216 19.0816L94.4167 17.5664C93.8218 15.7467 92.7879 14.0854 91.398 12.716C91.1618 12.4884 90.8805 12.3079 90.5705 12.185C90.2605 12.062 89.9279 11.9992 89.5922 12L82.5358 12.1548C82.1993 12.1622 81.8682 12.2365 81.5635 12.3729C81.2588 12.5093 80.9873 12.7048 80.7662 12.947C79.4434 14.3794 78.4901 16.0871 77.9824 17.9337L75.1574 19.5736C73.2078 19.1538 71.1822 19.1767 69.2436 19.6406C68.9154 19.716 68.6074 19.856 68.3394 20.0517C68.0713 20.2474 67.8491 20.4944 67.6871 20.7769L64.298 26.6829C64.1391 26.9636 64.0425 27.2725 64.0142 27.5904C63.9858 27.9083 64.0264 28.2284 64.1334 28.5306C64.7769 30.3396 65.8545 31.98 67.2804 33.321L67.3554 36.4784C65.9998 37.8808 65.0053 39.5652 64.4505 41.3981C64.3564 41.7062 64.3306 42.0296 64.3748 42.3478C64.419 42.6659 64.5322 42.9718 64.7071 43.2459L68.3745 48.997C68.5495 49.2717 68.7826 49.5084 69.059 49.6922C69.3354 49.8759 69.6489 50.0026 69.9795 50.0641C71.9396 50.4407 73.9649 50.3743 75.8933 49.8701L78.7982 51.3876C79.3959 53.2062 80.4294 54.8668 81.8168 56.238C82.0429 56.4643 82.3149 56.6445 82.6161 56.7676C82.9174 56.8906 83.2417 56.9541 83.5694 56.954H83.6251L90.6815 56.797C91.018 56.7895 91.3491 56.7152 91.6538 56.5788C91.9585 56.4424 92.23 56.2469 92.4511 56.0047C93.7722 54.5725 94.7246 52.8657 95.2325 51.0204L98.0575 49.3781C100.01 49.7954 102.037 49.7724 103.979 49.3112C104.305 49.2349 104.612 49.0944 104.879 48.8988C105.145 48.7031 105.367 48.4565 105.528 48.1748L108.917 42.2665C109.074 41.9842 109.168 41.6737 109.193 41.3549C109.218 41.036 109.174 40.7157 109.062 40.4141ZM101.817 45.0012C101.052 45.1177 100.272 45.1177 99.5075 45.0012C99.1208 44.6816 98.638 44.4872 98.1283 44.4457C97.6186 44.4042 97.1082 44.5178 96.6704 44.7703L91.5602 47.7452C91.1235 47.9989 90.7822 48.378 90.5852 48.8282C90.3882 49.2784 90.3456 49.7765 90.4636 50.2512C90.2212 50.9534 89.865 51.615 89.4082 52.2122L84.6612 52.3161C84.1734 51.7413 83.7852 51.0956 83.5113 50.4037C83.6063 49.9253 83.5404 49.4305 83.323 48.9899C83.1057 48.5494 82.7479 48.1857 82.301 47.9507L77.0407 45.2068C76.5924 44.9725 76.0779 44.8796 75.5709 44.9414C75.0638 45.0032 74.5903 45.2166 74.2182 45.5509C73.4604 45.7003 72.6831 45.7369 71.9136 45.6595L69.4445 41.7884C69.7244 41.0987 70.1156 40.455 70.604 39.8806C71.0861 39.7188 71.5023 39.4156 71.7927 39.0144C72.0832 38.6132 72.2331 38.1346 72.2211 37.6471L72.0831 31.9329C72.0715 31.4454 71.8985 30.9739 71.5889 30.586C71.2793 30.1981 70.849 29.9136 70.3595 29.7733C69.8438 29.2235 69.4215 28.6 69.108 27.9255L71.3859 23.9528C72.1509 23.8366 72.9303 23.8366 73.6953 23.9528C74.0819 24.2724 74.5648 24.4669 75.0745 24.5084C75.5842 24.5499 76.0946 24.4362 76.5324 24.1838L81.6546 21.2112C82.0914 20.9575 82.4327 20.5784 82.6297 20.1282C82.8267 19.678 82.8692 19.1798 82.7512 18.7051C82.9913 18.0027 83.3477 17.3415 83.8067 16.7465L88.5537 16.6425C89.0394 17.2179 89.4274 17.8625 89.7035 18.5527C89.6091 19.0307 89.6753 19.525 89.8926 19.9651C90.11 20.4051 90.4674 20.7685 90.9139 21.0033L96.1717 23.7495C96.6203 23.9836 97.1349 24.0761 97.642 24.0138C98.149 23.9516 98.6224 23.7378 98.9943 23.4031C99.7569 23.2482 100.54 23.2092 101.316 23.2876L103.782 27.1564C103.504 27.8466 103.112 28.4904 102.623 29.0642C102.141 29.2258 101.725 29.5287 101.435 29.9294C101.145 30.3302 100.994 30.8083 101.006 31.2954L101.144 37.0142C101.156 37.5017 101.328 37.9732 101.638 38.3611C101.948 38.749 102.378 39.0335 102.867 39.1738C103.383 39.7231 103.805 40.3467 104.117 41.0216L101.817 45.0012Z"/>
    </g>
    <g class="onyxia-fill-useCases-typography-textPrimary" fill="#2C323F">
        <path d="M21.1704 21.7656H26.3693V46.6013H21.1704V21.7656Z"/>
        <path d="M30.5285 28.7196H35.7274V46.6013H30.5285V28.7196Z"/>
        <path d="M39.8862 34.6799H45.085V46.601H39.8862V34.6799Z"/>
        <path d="M21.1704 73.4237H26.3693V98.2593H21.1704V73.4237Z"/>
        <path d="M30.5285 80.378H35.7274V98.2597H30.5285V80.378Z"/>
        <path d="M39.8862 86.3384H45.085V98.2596H39.8862V86.3384Z"/>
        <path d="M75.2376 73.4237H80.4364V98.2593H75.2376V73.4237Z"/>
        <path d="M84.5971 80.378H89.796V98.2597H84.5971V80.378Z"/>
        <path d="M93.9547 86.3384H99.1536V98.2596H93.9547V86.3384Z"/>
    </g>
</svg>
