<?xml version="1.0" encoding="UTF-8" standalone="no"?>
<svg
   xmlns:dc="http://purl.org/dc/elements/1.1/"
   xmlns:cc="http://creativecommons.org/ns#"
   xmlns:rdf="http://www.w3.org/1999/02/22-rdf-syntax-ns#"
   xmlns:svg="http://www.w3.org/2000/svg"
   xmlns="http://www.w3.org/2000/svg"
   xmlns:sodipodi="http://sodipodi.sourceforge.net/DTD/sodipodi-0.dtd"
   xmlns:inkscape="http://www.inkscape.org/namespaces/inkscape"
   width="41"
   height="40"
   viewBox="0 0 41 40"
   fill="none"
   version="1.1"
   id="svg47"
   sodipodi:docname="_work.svg">
  <metadata
     id="metadata53">
    <rdf:RDF>
      <cc:Work
         rdf:about="">
        <dc:format>image/svg+xml</dc:format>
        <dc:type
           rdf:resource="http://purl.org/dc/dcmitype/StillImage" />
      </cc:Work>
    </rdf:RDF>
  </metadata>
  <defs
     id="defs51" />
  <sodipodi:namedview
     pagecolor="#ffffff"
     bordercolor="#666666"
     borderopacity="1"
     objecttolerance="10"
     gridtolerance="10"
     guidetolerance="10"
     inkscape:pageopacity="0"
     inkscape:pageshadow="2"
     inkscape:window-width="640"
     inkscape:window-height="480"
     id="namedview49"
     showgrid="false" />
  <path
     fill-rule="evenodd"
     clip-rule="evenodd"
     d="m 24.137081,4.4207367 c -0.5849,-0.48212 -1.3878,-0.75407 -2.2262,-0.75407 h -10.553 c -1.716,0 -3.10716,1.11649 -3.10716,2.49375 V 27.772867 c 0,1.3773 1.39116,2.4938 3.10716,2.4938 l 16.9857,0 c 1.716,0 3.1071,-1.1165 3.1071,-2.4938 v -16.3101 c 0,-0.6499 -0.316,-1.2741 -0.8809,-1.7397003 z m -8.5101,6.4392303 c 1.1167,-0.5037 2.5956,-0.7933 4.2237,-0.7933 1.6282,0 3.107,0.2896 4.2238,0.7933 0.5584,0.2518 1.0298,0.5526 1.3839,0.9302 0.3541,0.3776 0.5923,0.8589 0.5923,1.3811 v 7.6702 c 0,0.5223 -0.2435,0.9978 -0.5978,1.3753 -0.3544,0.3776 -0.8253,0.6784 -1.3839,0.9303 -1.1173,0.5036 -2.5905,0.7989 -4.2183,0.7989 -1.6277,0 -3.1073,-0.2952 -4.2237,-0.7989 -0.5582,-0.2519 -1.0299,-0.5526 -1.3839,-0.9303 -0.354,-0.3775 -0.5924,-0.8532 -0.5924,-1.3753 v -7.6702 c 0,-0.5222 0.2383,-1.0035 0.5924,-1.3811 0.3541,-0.3776 0.8255,-0.6784 1.3839,-0.9302 z m 8.0212,1.0044 c -0.9348,-0.4217 -2.295,-0.702 -3.7975,-0.702 -1.5025,0 -2.8626,0.2803 -3.7975,0.702 -0.4674,0.2108 -0.8266,0.4564 -1.0462,0.6905 -0.2196,0.2342 -0.2934,0.4326 -0.2934,0.6164 0,0.1838 0.0738,0.3765 0.2934,0.6106 0.2196,0.2342 0.5788,0.4797 1.0462,0.6906 0.9349,0.4216 2.295,0.7076 3.7975,0.7076 1.5025,0 2.8627,-0.286 3.7975,-0.7076 0.4675,-0.2109 0.8267,-0.4564 1.0463,-0.6906 0.2196,-0.2341 0.2934,-0.4268 0.2934,-0.6106 0,-0.1838 -0.0738,-0.3822 -0.2934,-0.6164 -0.2196,-0.2341 -0.5788,-0.4797 -1.0463,-0.6905 z m -8.0212,3.6125 c -0.3395,-0.1531 -0.645,-0.3238 -0.9134,-0.5193 v 0.7704 c 0,0.1838 0.0738,0.3765 0.2934,0.6107 0.2196,0.2341 0.5788,0.4797 1.0462,0.6905 0.9349,0.4217 2.295,0.7077 3.7975,0.7077 1.5025,0 2.8627,-0.286 3.7975,-0.7077 0.4675,-0.2108 0.8267,-0.4564 1.0463,-0.6905 0.2196,-0.2342 0.2934,-0.4269 0.2934,-0.6107 v -0.7704 c -0.2684,0.1955 -0.574,0.3662 -0.9134,0.5193 -1.1168,0.5037 -2.5956,0.799 -4.2238,0.799 -1.6281,0 -3.107,-0.2953 -4.2237,-0.799 z m 0,2.5567 c -0.3395,-0.1531 -0.645,-0.3238 -0.9134,-0.5193 v 0.7704 c 0,0.1838 0.0738,0.3765 0.2934,0.6107 0.2196,0.2341 0.5788,0.4797 1.0462,0.6905 0.9349,0.4217 2.295,0.7077 3.7975,0.7077 1.5025,0 2.8627,-0.286 3.7975,-0.7077 0.4675,-0.2108 0.8267,-0.4564 1.0463,-0.6905 0.2196,-0.2342 0.2934,-0.4269 0.2934,-0.6107 v -0.7704 c -0.2684,0.1955 -0.574,0.3662 -0.9134,0.5193 -1.1168,0.5037 -2.5956,0.799 -4.2238,0.799 -1.6281,0 -3.107,-0.2953 -4.2237,-0.799 z m 0,2.5567 c -0.3395,-0.1531 -0.645,-0.3237 -0.9134,-0.5193 v 0.7705 c 0,0.1838 0.0739,0.3764 0.2934,0.6106 0.2195,0.2342 0.579,0.4797 1.0462,0.6905 0.9346,0.4217 2.2955,0.7077 3.7975,0.7077 1.5021,0 2.8565,-0.2859 3.792,-0.7077 0.4677,-0.2108 0.8264,-0.4563 1.0463,-0.6905 0.2198,-0.2342 0.2989,-0.427 0.2989,-0.6106 v -0.7705 c -0.2684,0.1956 -0.574,0.3662 -0.9134,0.5193 -1.1168,0.5037 -2.5956,0.799 -4.2238,0.799 -1.6281,0 -3.107,-0.2953 -4.2237,-0.799 z"
     fill="#2c323f"
     id="path45"
     sodipodi:nodetypes="ssssssssscscscsssscsccsssccsccsccsccsccccsccsccsccscccsccsccsccscccsscsccsccsc" />
</svg>
