<svg width="24" height="24" viewBox="0 0 24 24" fill="none" xmlns="http://www.w3.org/2000/svg">
<path fill-rule="evenodd" clip-rule="evenodd" d="M14.08 14.08V19.92H19.92V14.08H14.08ZM13.9 13C13.4029 13 13 13.4029 13 13.9V20.1C13 20.5971 13.4029 21 13.9 21H20.1C20.5971 21 21 20.5971 21 20.1V13.9C21 13.4029 20.5971 13 20.1 13H13.9Z" />
<path fill-rule="evenodd" clip-rule="evenodd" d="M4.08 14.08V19.92H9.92V14.08H4.08ZM3.9 13C3.40294 13 3 13.4029 3 13.9V20.1C3 20.5971 3.40294 21 3.9 21H10.1C10.5971 21 11 20.5971 11 20.1V13.9C11 13.4029 10.5971 13 10.1 13H3.9Z" />
<path fill-rule="evenodd" clip-rule="evenodd" d="M14.08 4.08V9.92H19.92V4.08H14.08ZM13.9 3C13.4029 3 13 3.40294 13 3.9V10.1C13 10.5971 13.4029 11 13.9 11H20.1C20.5971 11 21 10.5971 21 10.1V3.9C21 3.40294 20.5971 3 20.1 3H13.9Z" />
<rect x="3.5" y="3.5" width="7" height="7" rx="0.5"/>
</svg>
