<svg viewBox="-1 0 27 29" fill="none" xmlns="http://www.w3.org/2000/svg">
  <defs>
  <filter id="dropshadow" x="-4" y="0" width="108" height="108" filterUnits="userSpaceOnUse" color-interpolation-filters="sRGB">
    <feFlood flood-opacity="0" result="BackgroundImageFix"/>
    <feColorMatrix in="SourceAlpha" type="matrix" values="0 0 0 0 0 0 0 0 0 0 0 0 0 0 0 0 0 0 127 0"/>
    <feOffset dy="-1"/>
    <feGaussianBlur stdDeviation="2"/>
    <feColorMatrix type="matrix" values="0 0 0 0 0 0 0 0 0 0 0 0 0 0 0 0 0 0 0.1 0"/>
    <feBlend mode="normal" in2="BackgroundImageFix" result="effect1_dropShadow"/>
    <feBlend mode="normal" in="SourceGraphic" in2="effect1_dropShadow" result="shape"/>
  </filter>
  </defs>
  <path filter="url(#dropshadow)" fill-rule="evenodd" clip-rule="evenodd" d="M16.6847 0.754068C16.0998 0.271946 15.2969 0 14.4585 0H3.90548C2.18945 0 0.79834 1.11649 0.79834 2.49375V24.1062C0.79834 25.4835 2.18946 26.6 3.90548 26.6H20.8912C22.6072 26.6 23.9983 25.4835 23.9983 24.1062V7.79607C23.9983 7.1462 23.6823 6.522 23.1174 6.05639L16.6847 0.754068ZM8.17459 7.19328C9.29134 6.68957 10.7702 6.4 12.3983 6.4C14.0265 6.4 15.5053 6.68957 16.6221 7.19328C17.1805 7.4451 17.6519 7.74591 18.006 8.1235C18.3601 8.50109 18.5983 8.98238 18.5983 9.50459V17.1748C18.5983 17.6971 18.3548 18.1726 18.0005 18.5501C17.6461 18.9277 17.1752 19.2285 16.6166 19.4804C15.4993 19.984 14.0261 20.2793 12.3983 20.2793C10.7706 20.2793 9.29105 19.9841 8.17459 19.4804C7.61636 19.2285 7.14466 18.9278 6.79066 18.5501C6.43667 18.1726 6.19834 17.6969 6.19834 17.1748V9.50459C6.19834 8.98238 6.43657 8.50109 6.79066 8.1235C7.14475 7.74591 7.61622 7.4451 8.17459 7.19328ZM16.1958 8.19771C15.261 7.77605 13.9008 7.49574 12.3983 7.49574C10.8958 7.49574 9.53571 7.77605 8.60084 8.19771C8.1334 8.40851 7.77419 8.65406 7.55459 8.88824C7.33499 9.12241 7.2612 9.32078 7.2612 9.50459C7.2612 9.68842 7.33499 9.88105 7.55459 10.1152C7.77419 10.3494 8.13341 10.5949 8.60084 10.8058C9.53571 11.2274 10.8958 11.5134 12.3983 11.5134C13.9008 11.5134 15.261 11.2274 16.1958 10.8058C16.6633 10.5949 17.0225 10.3494 17.2421 10.1152C17.4617 9.88105 17.5355 9.68842 17.5355 9.50459C17.5355 9.32078 17.4617 9.12241 17.2421 8.88824C17.0225 8.65406 16.6633 8.40851 16.1958 8.19771ZM8.17459 11.8102C7.83513 11.6571 7.52957 11.4864 7.2612 11.2909V12.0613C7.2612 12.2451 7.33499 12.4378 7.55459 12.672C7.77419 12.9061 8.1334 13.1517 8.60084 13.3625C9.53571 13.7842 10.8958 14.0702 12.3983 14.0702C13.9008 14.0702 15.261 13.7842 16.1958 13.3625C16.6633 13.1517 17.0225 12.9061 17.2421 12.672C17.4617 12.4378 17.5355 12.2451 17.5355 12.0613V11.2909C17.2671 11.4864 16.9615 11.6571 16.6221 11.8102C15.5053 12.3139 14.0265 12.6092 12.3983 12.6092C10.7702 12.6092 9.29134 12.3139 8.17459 11.8102ZM8.17459 14.3669C7.83513 14.2138 7.52957 14.0431 7.2612 13.8476V14.618C7.2612 14.8018 7.33499 14.9945 7.55459 15.2287C7.77419 15.4628 8.1334 15.7084 8.60084 15.9192C9.53571 16.3409 10.8958 16.6269 12.3983 16.6269C13.9008 16.6269 15.261 16.3409 16.1958 15.9192C16.6633 15.7084 17.0225 15.4628 17.2421 15.2287C17.4617 14.9945 17.5355 14.8018 17.5355 14.618V13.8476C17.2671 14.0431 16.9615 14.2138 16.6221 14.3669C15.5053 14.8706 14.0265 15.1659 12.3983 15.1659C10.7702 15.1659 9.29134 14.8706 8.17459 14.3669ZM8.17459 16.9236C7.83513 16.7705 7.52957 16.5999 7.2612 16.4043V17.1748C7.2612 17.3586 7.33506 17.5512 7.55459 17.7854C7.77412 18.0196 8.13356 18.2651 8.60084 18.4759C9.53539 18.8976 10.8963 19.1836 12.3983 19.1836C13.9004 19.1836 15.2548 18.8977 16.1903 18.4759C16.658 18.2651 17.0167 18.0196 17.2366 17.7854C17.4564 17.5512 17.5355 17.3584 17.5355 17.1748V16.4043C17.2671 16.5999 16.9615 16.7705 16.6221 16.9236C15.5053 17.4273 14.0265 17.7226 12.3983 17.7226C10.7702 17.7226 9.29134 17.4273 8.17459 16.9236Z" />
</svg>
