<svg width="24" height="24" viewBox="0 0 24 24" fill="none" xmlns="http://www.w3.org/2000/svg">
<path d="M10.2235 4.43424C10.1731 4.30848 10.0387 4.22016 9.89754 4.22016L6.4953 4.18896C6.30858 4.18896 6.14298 4.35313 6.14298 4.53985V8.24113H4.5177C4.32906 8.24113 4.16394 8.40529 4.16394 8.59201L4.16922 11.1274L2.59674 11.1389C2.48058 11.1389 2.3889 11.1792 2.32266 11.2579C2.25258 11.3419 2.22618 11.4336 2.23962 11.5469L3.49386 19.4976C3.52122 19.6728 3.66762 19.7952 3.85002 19.7952H20.1652C20.3481 19.7952 20.4945 19.6733 20.5214 19.4986L21.7876 11.5368L21.7895 11.5286C21.8145 11.4288 21.7939 11.3438 21.7238 11.2598C21.6575 11.1806 21.5659 11.1403 21.4511 11.1403H19.8004V8.60353C19.8004 8.24209 19.7591 8.24209 19.6847 8.24209H17.7743V5.50705C17.7743 5.33665 17.5603 5.15617 17.3577 5.15617L10.8359 5.19841L10.2235 4.43424ZM7.78458 5.78832L9.6273 5.80081L10.2671 6.52273C10.2988 6.55345 10.3281 6.58321 10.3564 6.61153C10.4923 6.74929 10.5475 6.79777 10.6324 6.79777L16.1639 6.7656V8.24209H7.78458V5.78832ZM18.1603 9.74113L18.1636 11.1053L5.93994 11.1298L5.93658 9.76561L18.1603 9.74113ZM19.3703 18.1219H4.93386L4.18266 12.7507H20.1518L19.3703 18.1219Z"/>
</svg>
