<svg width="20" height="20" viewBox="0 0 20 20" fill="none" xmlns="http://www.w3.org/2000/svg">
<path fill-rule="evenodd" clip-rule="evenodd" d="M9.99984 1.66699C5.39567 1.66699 1.6665 5.3949 1.6665 9.9975C1.6665 13.6838 4.05192 16.7973 7.36442 17.9011C7.78109 17.974 7.93734 17.7241 7.93734 17.5054C7.93734 17.3075 7.92692 16.6515 7.92692 15.9538C5.83317 16.3391 5.2915 15.4436 5.12484 14.975C5.03109 14.7355 4.62484 13.9962 4.27067 13.7983C3.979 13.6421 3.56234 13.2568 4.26025 13.2464C4.9165 13.236 5.38525 13.8504 5.5415 14.1003C6.2915 15.3603 7.48942 15.0062 7.96859 14.7875C8.0415 14.2461 8.26025 13.8816 8.49984 13.6733C6.64567 13.4651 4.70817 12.7466 4.70817 9.56015C4.70817 8.65421 5.03109 7.90446 5.56234 7.32133C5.479 7.11306 5.18734 6.25919 5.64567 5.11374C5.64567 5.11374 6.34359 4.89507 7.93734 5.96762C8.604 5.78018 9.31234 5.68646 10.0207 5.68646C10.729 5.68646 11.4373 5.78018 12.104 5.96762C13.6978 4.88465 14.3957 5.11374 14.3957 5.11374C14.854 6.25919 14.5623 7.11306 14.479 7.32133C15.0103 7.90446 15.3332 8.6438 15.3332 9.56015C15.3332 12.757 13.3853 13.4651 11.5311 13.6733C11.8332 13.9337 12.0936 14.4335 12.0936 15.2145C12.0936 16.3287 12.0832 17.2242 12.0832 17.5054C12.0832 17.7241 12.2394 17.9844 12.6561 17.9011C15.9478 16.7973 18.3332 13.6733 18.3332 9.9975C18.3332 5.3949 14.604 1.66699 9.99984 1.66699Z"/>
</svg>