<svg width="24" height="24" viewBox="0 0 24 24" fill="none" xmlns="http://www.w3.org/2000/svg">
<path d="M16.2731 3.61004C15.3035 2.69468 13.9988 2.17004 12.6937 2.17004H11.2451C8.48841 2.17004 6.15993 4.40204 6.15993 7.04444V10.0339H6.01593C4.93977 10.0339 4.15881 10.8676 4.15881 12.0163V19.8408C4.15881 20.938 5.06889 21.8308 6.18777 21.8308H17.7759C18.8948 21.8308 19.8049 20.938 19.8049 19.8408V12.0153C19.8049 10.8667 19.0268 10.0329 17.954 10.0329H17.81V7.04348C17.8095 5.76476 17.2638 4.54508 16.2731 3.61004ZM7.83513 7.03628C7.83513 5.07548 9.29913 3.75836 11.4788 3.75836H12.5838C13.6148 3.75836 14.4961 4.0598 15.1316 4.63052C15.7873 5.219 16.1339 6.05372 16.1339 7.04396V10.0334L7.83561 10.0252V7.03628H7.83513ZM18.1081 12.6801L18.1283 19.2369C18.1283 19.7088 17.7385 20.0923 17.2599 20.0923H6.75897C6.28041 20.0923 5.89065 19.7088 5.89065 19.2369L5.87049 12.6806C5.87049 12.2088 6.25977 11.8248 6.73881 11.8248H17.2403C17.7188 11.8248 18.1081 12.2083 18.1081 12.6801Z"/>
<path d="M11.9737 18.7786C12.3721 18.7786 12.6961 18.4613 12.6961 18.0715V16.0498L12.7686 16.0085C13.2659 15.7238 13.5625 15.2227 13.5625 14.6683C13.5625 13.8096 12.8497 13.1107 11.9737 13.1107C11.0977 13.1107 10.3849 13.8096 10.3849 14.6683C10.3849 15.2227 10.6816 15.7238 11.1789 16.0085L11.2513 16.0498V18.0715C11.2513 18.4613 11.5753 18.7786 11.9737 18.7786Z"/>
</svg>
