<svg viewBox="-3 0 66 75" fill="#2C323F" xmlns="http://www.w3.org/2000/svg">
  <defs>
  <filter id="dropshadow" x="-4" y="0" width="108" height="108" filterUnits="userSpaceOnUse" color-interpolation-filters="sRGB">
    <feFlood flood-opacity="0" result="BackgroundImageFix"/>
    <feColorMatrix in="SourceAlpha" type="matrix" values="0 0 0 0 0 0 0 0 0 0 0 0 0 0 0 0 0 0 127 0"/>
    <feOffset dy="4"/>
    <feGaussianBlur stdDeviation="2"/>
    <feColorMatrix type="matrix" values="0 0 0 0 0 0 0 0 0 0 0 0 0 0 0 0 0 0 0.1 0"/>
    <feBlend mode="normal" in2="BackgroundImageFix" result="effect1_dropShadow"/>
    <feBlend mode="normal" in="SourceGraphic" in2="effect1_dropShadow" result="shape"/>
  </filter>
  </defs>
  <path filter="url(#dropshadow)" fill-rule="evenodd" clip-rule="evenodd" d="M40.7776 2.57116C39.307 1.3534 37.2883 0.666504 35.1802 0.666504H8.64599C4.33127 0.666504 0.833496 3.48659 0.833496 6.96533V61.5552C0.833496 65.0339 4.33127 67.854 8.646 67.854H51.3543C55.6691 67.854 59.1668 65.0339 59.1668 61.5552V20.3582C59.1668 18.7167 58.3721 17.1401 56.9518 15.964L40.7776 2.57116ZM27.9489 31.5184L27.4193 31.2797C25.5832 30.4519 23.5195 30.1807 21.5128 30.5037C19.5061 30.8266 17.6553 31.7277 16.2158 33.0826C12.3727 36.6996 12.3727 42.5798 16.2157 46.1968C20.0588 49.8138 26.3065 49.8138 30.1496 46.1968C31.5892 44.842 32.5466 43.1 32.8897 41.2114C33.2328 39.3227 32.9447 37.3803 32.0652 35.6523L31.8115 35.1539L38.2894 29.0571L43.3249 33.7964L47.1876 30.161L42.152 25.4216L44.6698 23.0519L40.8072 19.4165L27.9489 31.5184ZM26.2869 42.5614C24.5782 44.1695 21.7871 44.1695 20.0784 42.5614C18.3697 40.9532 18.3697 38.3262 20.0784 36.7181C21.7871 35.1099 24.5782 35.1099 26.2869 36.7181C27.9956 38.3262 27.9956 40.9532 26.2869 42.5614Z" />
</svg>
