<?xml version="1.0" encoding="UTF-8" standalone="no"?>
<!-- Created with Inkscape (http://www.inkscape.org/) -->

<svg
   xmlns:dc="http://purl.org/dc/elements/1.1/"
   xmlns:cc="http://creativecommons.org/ns#"
   xmlns:rdf="http://www.w3.org/1999/02/22-rdf-syntax-ns#"
   xmlns:svg="http://www.w3.org/2000/svg"
   xmlns="http://www.w3.org/2000/svg"
   xmlns:xlink="http://www.w3.org/1999/xlink"
   xmlns:sodipodi="http://sodipodi.sourceforge.net/DTD/sodipodi-0.dtd"
   xmlns:inkscape="http://www.inkscape.org/namespaces/inkscape"
   width="46.225018mm"
   height="43.227558mm"
   viewBox="0 0 46.225017 43.227558"
   version="1.1"
   id="svg8"
   inkscape:version="0.92.3 (2405546, 2018-03-11)"
   sodipodi:docname="onyxia.svg"
   inkscape:export-filename="D:\kqhlz2\Mes Documents\My Pictures\onyxia.svg.png"
   inkscape:export-xdpi="96"
   inkscape:export-ydpi="96">
  <defs
     id="defs2">
    <linearGradient
       inkscape:collect="always"
       id="linearGradient881">
      <stop
         style="stop-color:#2c728c;stop-opacity:1;"
         offset="0"
         id="stop877" />
      <stop
         style="stop-color:#2c728c;stop-opacity:0;"
         offset="1"
         id="stop879" />
    </linearGradient>
    <linearGradient
       inkscape:collect="always"
       id="linearGradient873">
      <stop
         style="stop-color:#3995b8;stop-opacity:1;"
         offset="0"
         id="stop869" />
      <stop
         style="stop-color:#3995b8;stop-opacity:0;"
         offset="1"
         id="stop871" />
    </linearGradient>
    <inkscape:path-effect
       effect="powerstroke"
       id="path-effect977"
       is_visible="true"
       offset_points="1.5115083,0.3463543"
       sort_points="true"
       interpolator_type="CubicBezierJohan"
       interpolator_beta="0.2"
       start_linecap_type="zerowidth"
       linejoin_type="extrp_arc"
       miter_limit="4"
       end_linecap_type="zerowidth" />
    <inkscape:path-effect
       effect="powerstroke"
       id="path-effect973"
       is_visible="true"
       offset_points="1,0.13229166"
       sort_points="true"
       interpolator_type="CubicBezierJohan"
       interpolator_beta="0.2"
       start_linecap_type="zerowidth"
       linejoin_type="extrp_arc"
       miter_limit="4"
       end_linecap_type="zerowidth" />
    <inkscape:path-effect
       effect="powerstroke"
       id="path-effect965"
       is_visible="true"
       offset_points="0,0.13229166"
       sort_points="true"
       interpolator_type="CubicBezierJohan"
       interpolator_beta="0.2"
       start_linecap_type="zerowidth"
       linejoin_type="extrp_arc"
       miter_limit="4"
       end_linecap_type="zerowidth" />
    <inkscape:path-effect
       effect="powerstroke"
       id="path-effect956"
       is_visible="true"
       offset_points="0,0.13229166"
       sort_points="true"
       interpolator_type="CubicBezierJohan"
       interpolator_beta="0.2"
       start_linecap_type="zerowidth"
       linejoin_type="extrp_arc"
       miter_limit="4"
       end_linecap_type="zerowidth" />
    <inkscape:path-effect
       effect="powerstroke"
       id="path-effect878"
       is_visible="true"
       offset_points="0.057905329,-0.10062272"
       sort_points="true"
       interpolator_type="CubicBezierJohan"
       interpolator_beta="0.2"
       start_linecap_type="zerowidth"
       linejoin_type="extrp_arc"
       miter_limit="4"
       end_linecap_type="zerowidth" />
    <inkscape:path-effect
       effect="powerstroke"
       id="path-effect874"
       is_visible="true"
       offset_points="0.06405021,0.10455679"
       sort_points="true"
       interpolator_type="CubicBezierJohan"
       interpolator_beta="0.2"
       start_linecap_type="zerowidth"
       linejoin_type="extrp_arc"
       miter_limit="4"
       end_linecap_type="zerowidth" />
    <inkscape:path-effect
       effect="powerstroke"
       id="path-effect856"
       is_visible="true"
       offset_points="0,0.13052106"
       sort_points="true"
       interpolator_type="CubicBezierJohan"
       interpolator_beta="0.2"
       start_linecap_type="zerowidth"
       linejoin_type="extrp_arc"
       miter_limit="4"
       end_linecap_type="zerowidth" />
    <inkscape:path-effect
       effect="powerstroke"
       id="path-effect848"
       is_visible="true"
       offset_points="0,0.13229166"
       sort_points="true"
       interpolator_type="CubicBezierJohan"
       interpolator_beta="0.2"
       start_linecap_type="zerowidth"
       linejoin_type="extrp_arc"
       miter_limit="4"
       end_linecap_type="zerowidth" />
    <linearGradient
       inkscape:collect="always"
       xlink:href="#linearGradient873"
       id="linearGradient875"
       x1="91.24881"
       y1="17.006933"
       x2="91.154251"
       y2="17.867205"
       gradientUnits="userSpaceOnUse" />
    <linearGradient
       inkscape:collect="always"
       xlink:href="#linearGradient881"
       id="linearGradient883"
       x1="91.594109"
       y1="16.86923"
       x2="91.347717"
       y2="17.30772"
       gradientUnits="userSpaceOnUse" />
  </defs>
  <sodipodi:namedview
     id="base"
     pagecolor="#ffffff"
     bordercolor="#666666"
     borderopacity="1.0"
     inkscape:pageopacity="0.0"
     inkscape:pageshadow="2"
     inkscape:zoom="1.4"
     inkscape:cx="9.9236849"
     inkscape:cy="93.32425"
     inkscape:document-units="mm"
     inkscape:current-layer="layer2"
     showgrid="false"
     fit-margin-top="0"
     fit-margin-left="0"
     fit-margin-right="0"
     fit-margin-bottom="0"
     inkscape:window-width="1680"
     inkscape:window-height="988"
     inkscape:window-x="-8"
     inkscape:window-y="-8"
     inkscape:window-maximized="1"
     inkscape:snap-global="false"
     inkscape:pagecheckerboard="true" />
  <metadata
     id="metadata5">
    <rdf:RDF>
      <cc:Work
         rdf:about="">
        <dc:format>image/svg+xml</dc:format>
        <dc:type
           rdf:resource="http://purl.org/dc/dcmitype/StillImage" />
        <dc:title></dc:title>
      </cc:Work>
    </rdf:RDF>
  </metadata>
  <g
     inkscape:groupmode="layer"
     id="layer2"
     inkscape:label="svg"
     style="display:inline;opacity:1"
     transform="translate(-14.418264,-9.7261864)">
    <ellipse
       ry="21.321848"
       rx="21.255032"
       cy="19.029354"
       cx="46.344028"
       id="ellipse1010"
       style="opacity:1;fill:#ffdd55;fill-opacity:1;stroke:none;stroke-width:0.58442622;stroke-miterlimit:4;stroke-dasharray:none;stroke-opacity:1"
       transform="rotate(16.4)" />
    <path
       style="fill:#d4aa00;fill-opacity:1;stroke:none;stroke-width:0.26458332px;stroke-linecap:butt;stroke-linejoin:miter;stroke-opacity:1"
       d="m 27.465197,49.341899 11.708907,-0.731284 -8.953529,-0.434314 13.49711,-1.870887 -7.450138,0.167045 12.895755,-2.739515 -8.285356,0.701583 11.559408,-3.407686 -7.182869,0.935443 7.316505,-3.274052 -5.14494,1.102487 8.318765,-6.61492 -6.815373,3.507912 7.450137,-7.984677 -5.712885,3.741774 4.053281,-5.331186 -3.685267,1.937128 3.543525,-5.622396 -3.260043,1.795387 1.700893,-6.094866 c 0,0 -2.031622,3.49628 -2.031622,3.307292 0,-0.188989 0.28348,-6.142113 0.28348,-6.142113 l -1.606397,3.260044 0.14174,-4.866443 -0.897694,1.653645 -0.803198,-3.63802 -0.519718,2.22061 -1.41741,-3.02381 v 1.370164 l -3.009972,-2.96559 c 1.956777,0.190704 9.576629,2.286426 14.16027,9.769161 2.741145,4.375821 4.58606,11.653466 1.748139,18.804316 -1.008544,4.097368 -7.085208,11.072956 -13.654389,12.945684 -7.313695,2.051537 -13.612576,0.49772 -17.947115,-2.477916 z"
       id="path4729"
       inkscape:connector-curvature="0"
       sodipodi:nodetypes="ccccccccccccccccccccsccccccccccccc" />
    <g
       id="g4727">
      <path
         style="opacity:1;fill:none;fill-opacity:1;stroke:#030000;stroke-width:0.58442622;stroke-miterlimit:4;stroke-dasharray:none;stroke-opacity:1"
         d="m 18.2427,27.165894 c 0.123169,-0.609678 0.273827,-1.219185 0.452748,-1.827105 1.551678,-5.272149 4.954635,-9.493207 9.28764,-12.159026 m 0,0 c 4.951318,-3.046227 11.117054,-4.0616871 17.12265,-2.294144 11.261224,3.314357 17.694984,15.1589 14.370207,26.455523 C 56.151168,48.637766 44.326878,55.108672 33.065654,51.794312 22.410446,48.658313 16.077107,37.885521 18.242699,27.165894"
         id="path927"
         inkscape:connector-curvature="0"
         sodipodi:nodetypes="csccsssc" />
    </g>
    <g
       id="g1006"
       transform="translate(-55.373512,-0.94494073)">
      <g
         transform="translate(-91.506404,-22.87445)"
         id="g952">
        <path
           sodipodi:nodetypes="ccccscccccscccccccccccccccc"
           inkscape:connector-curvature="0"
           d="m 197.11739,73.134432 c -0.62227,1.192098 -6.61463,4.128614 -15.84115,2.790918 l 1.60903,-3.125008 c -0.52594,-4.735024 -0.79568,-11.143465 -3.64392,-15.21074 -1.25982,-0.637657 -2.46461,-1.060105 -3.95458,-1.513069 -1.48996,-0.452964 -3.69107,-0.496749 -4.7293,-1.250066 l -5.19557,-3.40184 -0.55073,-0.907882 c -0.69747,-1.898632 -1.83748,-5.913338 -1.83748,-5.913338 -0.36476,-0.250466 -0.47725,-1.322846 -0.63476,-1.987816 0,0 -0.42186,-0.04668 -0.60397,-0.97218 -0.1821,-0.925497 -0.64444,-3.274685 0.003,-4.356507 0.44844,-0.501816 0.61296,-0.435781 0.90346,-0.621725 1.07928,0.448981 2.43843,0.252929 3.42989,0.08719 1.51464,-0.868815 3.40651,-2.831672 4.18587,-2.505652 2.26245,0.131239 3.25178,1.959977 4.87767,2.939965 1.3987,0.931061 2.89176,1.012891 4.37654,1.169304 10.53922,-1.222889 6.13893,1.908154 13.16301,6.38106 l 9.9892,5.545843 c 1.22625,1.08945 0.91694,2.85142 -0.66291,3.291791 -0.48969,0.07413 -0.49208,0.07539 -1.00752,-0.01774 -2.98382,-1.181357 -5.1682,-3.428644 -8.95353,-3.541321 -0.45969,1.095264 -0.0259,2.900677 0.10481,3.90228 0.58625,0.330781 1.30347,0.675255 1.63245,1.209245 0.15731,0.321952 0.36511,0.868861 0.0209,1.745605 -0.19302,0.321861 -0.42878,0.588771 -0.85078,0.677675 z"
           style="fill:#f8a766;fill-opacity:1;stroke:none;stroke-width:0.26458332px;stroke-linecap:butt;stroke-linejoin:miter;stroke-opacity:1"
           id="path922" />
        <g
           id="g946" />
      </g>
      <path
         sodipodi:nodetypes="ccccccccccccccccccccccc"
         inkscape:connector-curvature="0"
         id="path967"
         d="m 70.802799,19.698946 0.892251,2.574147 c 1.117949,0.243916 1.746808,0.610104 2.539061,0.935444 4.177811,9.079701 9.653965,7.512989 14.633005,10.022608 1.21438,0.245473 5.637858,15.504997 8.018087,16.83798 l 2.640642,2.885259 c 3.860065,-0.824966 4.539665,-1.808954 6.045615,-2.751626 L 101.62924,35.63657 c -0.51455,-2.529948 -1.22952,-4.258196 -1.33635,-8.418991 3.75318,0.05704 6.34001,2.252388 9.42125,3.541321 0.96211,-0.02855 1.46888,-0.330295 1.80407,-0.734989 0.50168,-1.067849 -1.27757,-1.312615 -2.12634,-1.387854 -2.38376,-0.01242 -7.16322,-3.981768 -9.03216,-5.895242 -3.827441,-4.41116 -4.444055,-5.044877 -5.345394,-6.013564 -2.238251,-0.412479 -4.573915,-0.622748 -7.049235,0.233861 3.027008,1.17373 5.866767,2.285018 7.2146,3.723881 0.467722,-0.518164 0.770078,-0.716106 1.2378,-0.349604 0.613377,0.590102 0.152823,0.971311 -0.495399,1.473689 -1.567923,0.07351 -2.729701,-0.969665 -4.136509,-1.540618 -2.161625,-0.258815 -3.917917,0.195219 -4.789344,0.06693 -3.429959,-0.935443 -9.001689,-4.791485 -10.289876,-2.80633 -1.707448,0.93431 -4.059916,2.623026 -5.620071,2.169887 z"
         style="fill:#d38d59;fill-opacity:1;stroke:none;stroke-width:0.26458332px;stroke-linecap:butt;stroke-linejoin:miter;stroke-opacity:1" />
      <path
         sodipodi:nodetypes="cccc"
         inkscape:connector-curvature="0"
         id="path969"
         d="m 88.540922,17.258585 c 1.964534,-0.161996 3.760519,-0.942005 6.071243,0.165365 0.661185,1.639697 0.68009,2.461946 0.661458,3.236421 -2.147027,-1.619963 -4.396719,-2.726601 -6.732701,-3.401786 z"
         style="fill:#ffffff;fill-opacity:1;stroke:none;stroke-width:0.26458332px;stroke-linecap:butt;stroke-linejoin:miter;stroke-opacity:1" />
      <path
         sodipodi:nodetypes="cccc"
         inkscape:connector-curvature="0"
         id="path981"
         d="m 70.894159,19.809924 c 0.46433,-0.392661 0.678702,0.214507 0.968563,0.519718 -0.09459,0.236698 -0.244979,0.752431 -0.401598,1.299293 -0.302063,-0.154039 -0.452141,-0.916015 -0.566965,-1.819011 z"
         style="fill:#ffffff;fill-opacity:1;stroke:none;stroke-width:0.26458332px;stroke-linecap:butt;stroke-linejoin:miter;stroke-opacity:1" />
      <path
         sodipodi:nodetypes="ccccc"
         inkscape:connector-curvature="0"
         id="path979"
         d="m 78.760787,18.109032 c 0.818949,-0.324743 1.637898,-0.116151 2.456847,0.566964 -0.130337,0.792745 -0.305242,1.518638 -0.685083,1.937128 -0.322711,0.22447 -1.00982,1.358005 -1.441035,0.04725 -0.270393,-0.74368 -0.606557,-1.443514 -0.330729,-2.551342 z"
         style="fill:#ffffff;fill-opacity:1;stroke:none;stroke-width:0.26458332px;stroke-linecap:butt;stroke-linejoin:miter;stroke-opacity:1" />
      <path
         sodipodi:nodetypes="cccccssc"
         inkscape:connector-curvature="0"
         id="path983"
         d="m 70.114582,14.754493 c 0.234036,-0.644344 0.587568,-0.721085 0.944941,-0.779576 1.837154,1.997649 2.86086,-0.04088 3.449032,0.04725 1.266123,-0.85853 1.926832,-1.792737 3.803385,-2.574963 0.715685,-0.07222 0.638363,0.400745 0.354354,1.015811 0,-0.04657 -3.595908,1.861059 -5.362538,3.283668 -0.535582,0.431286 -1.913504,-0.02362 -1.913504,-0.02362 -0.493612,-0.242911 -0.754428,-0.405668 -1.27567,-0.96857 z"
         style="fill:#fdcda7;fill-opacity:1;stroke:none;stroke-width:0.26458332px;stroke-linecap:butt;stroke-linejoin:miter;stroke-opacity:1" />
      <path
         sodipodi:nodetypes="cccc"
         inkscape:connector-curvature="0"
         id="path985"
         d="m 94.312734,17.26179 c 0.551369,0.584372 1.022794,1.347079 1.00226,3.207234 l 1.403164,-0.03341 c -0.08092,-1.889737 -1.183701,-2.600399 -2.405424,-3.173824 z"
         style="fill:#ae7951;fill-opacity:1;stroke:none;stroke-width:0.26458332px;stroke-linecap:butt;stroke-linejoin:miter;stroke-opacity:1" />
      <path
         sodipodi:nodetypes="cccc"
         inkscape:connector-curvature="0"
         id="path987"
         d="m 88.566439,17.245085 c 1.054547,-0.27209 2.047074,-0.327112 3.040192,-0.3842 0.544071,0.53693 0.549553,1.25339 0.751694,1.904296 -1.187879,-0.601803 -2.47933,-1.07414 -3.791886,-1.520096 z"
         style="fill:#92c2d4;fill-opacity:1;stroke:none;stroke-width:0.26458332px;stroke-linecap:butt;stroke-linejoin:miter;stroke-opacity:1" />
      <path
         sodipodi:nodetypes="ccccc"
         inkscape:connector-curvature="0"
         id="path989"
         d="m 91.671037,16.797927 c 0.864736,0.02061 1.862301,0.10637 2.634021,0.437035 0.418107,0.180658 0.5541,1.019583 0.803201,1.594587 -0.651065,-0.371333 0.182814,-1.21997 -2.846634,-0.826823 0.0992,-0.186211 -0.363011,-0.751224 -0.590588,-1.204799 z"
         style="fill:#e6e6e6;fill-opacity:1;stroke:none;stroke-width:0.26458332px;stroke-linecap:butt;stroke-linejoin:miter;stroke-opacity:1" />
      <path
         sodipodi:nodetypes="ccccc"
         inkscape:connector-curvature="0"
         id="path991"
         d="m 90.560731,18.002726 c 0.615913,-0.359708 0.919664,-0.396146 1.712706,0.106302 l -0.696895,-1.252046 -2.858444,0.33073 z"
         style="fill:url(#linearGradient875);fill-opacity:1;stroke:none;stroke-width:0.26458332px;stroke-linecap:butt;stroke-linejoin:miter;stroke-opacity:1" />
      <path
         sodipodi:nodetypes="cccc"
         inkscape:connector-curvature="0"
         id="path867"
         d="m 90.203465,16.969456 c 1.288574,0.05569 1.618944,0.239012 1.862535,0.5763 l -0.425963,-0.734991 z"
         style="fill:url(#linearGradient883);fill-opacity:1;stroke:none;stroke-width:0.26458332px;stroke-linecap:butt;stroke-linejoin:miter;stroke-opacity:1" />
      <path
         sodipodi:nodetypes="ccccc"
         inkscape:connector-curvature="0"
         id="path885"
         d="m 79.268692,20.991093 0.460661,0.295294 c 0.977118,-0.482951 1.271212,-1.51232 1.641832,-2.480469 l -0.744141,-0.531529 c -0.294339,2.125591 -0.749035,3.016442 -1.358352,2.716704 z"
         style="fill:#ececec;fill-opacity:1;stroke:none;stroke-width:0.26458332px;stroke-linecap:butt;stroke-linejoin:miter;stroke-opacity:1" />
      <path
         sodipodi:nodetypes="ccccc"
         inkscape:connector-curvature="0"
         id="path887"
         d="m 71.425686,19.839446 0.448849,0.472471 -0.397154,1.304612 -0.193435,-0.07619 c 0.12257,-0.418398 0.266287,-1.363367 0.14174,-1.700893 z"
         style="fill:#ececec;fill-opacity:1;stroke:none;stroke-width:0.26458332px;stroke-linecap:butt;stroke-linejoin:miter;stroke-opacity:1" />
      <path
         sodipodi:nodetypes="cccc"
         inkscape:connector-curvature="0"
         id="path931"
         d="m 91.924012,23.074895 c 0.95279,0.794419 1.831157,1.477206 2.605878,2.004521 -0.06785,-0.415342 0.01907,-0.753295 -0.551243,-1.419869 -0.820995,-0.535175 -1.500891,-0.717603 -2.054635,-0.584652 z"
         style="fill:#ffaaee;fill-opacity:1;stroke:none;stroke-width:0.26458332px;stroke-linecap:butt;stroke-linejoin:miter;stroke-opacity:1" />
      <g
         id="g920">
        <path
           style="fill:none;stroke:#000000;stroke-width:0.26458332px;stroke-linecap:butt;stroke-linejoin:miter;stroke-opacity:1"
           d="m 70.859832,19.750738 c 0.336765,0.0049 0.309307,-0.269228 1.024812,0.488184 1.712625,1.153132 3.591859,-0.292247 4.844145,-1.873806 0.726609,-0.338006 1.196289,-0.357561 2.078867,-0.261883 1.01347,-0.384264 1.841418,-0.0068 3.010228,1.112965 2.157678,1.284544 4.275553,2.067654 7.045228,3.021349 0.934178,0.32167 1.739565,0.583368 2.643292,0.636903 2.955896,0.211676 3.020866,1.770677 3.17143,2.260154 -0.762665,-0.298155 -1.921363,-1.425376 -3.17143,-2.260154"
           id="path844"
           inkscape:connector-curvature="0"
           sodipodi:nodetypes="cccccsccc" />
        <path
           style="fill:#000000;fill-rule:nonzero;stroke:none;stroke-width:0.26458332px;stroke-linecap:butt;stroke-linejoin:miter;stroke-opacity:1"
           d="m 94.677832,25.134604 c 0,0 -0.110784,0.0723 -0.110784,0.0723 0.185822,0.284717 0.386946,0.592455 0.553258,0.896516 0.120855,0.220952 0.199052,0.396274 0.254228,0.554565 0.05387,0.154545 0.08357,0.2873 0.112343,0.412614 0.04771,0.207778 0.06811,0.278026 0.117476,0.440586 -0.04062,-0.133733 -0.05768,-0.267178 -0.06572,-0.447632 -0.0055,-0.124558 -0.0074,-0.269386 -0.03589,-0.438146 -0.02969,-0.176056 -0.08675,-0.372753 -0.191553,-0.614998 -0.139012,-0.321327 -0.340263,-0.668764 -0.522582,-0.948113 0,0 -0.110784,0.0723 -0.110784,0.0723 z"
           id="path846"
           inkscape:connector-curvature="0"
           inkscape:path-effect="#path-effect848"
           inkscape:original-d="m 94.677832,25.134604 c 1.001139,1.533944 0.718848,1.692784 0.926521,2.376585"
           sodipodi:nodetypes="cc" />
        <path
           style="fill:none;stroke:#000000;stroke-width:0.26458332px;stroke-linecap:butt;stroke-linejoin:miter;stroke-opacity:1"
           d="m 78.807656,18.103233 c -0.15759,0.238014 -0.250691,0.524395 -0.230415,0.895809 0.03265,0.522897 0.404053,1.45064 0.567946,1.870886 0.218259,0.357888 0.323944,0.594007 0.902036,0.167044 1.000543,-0.740559 0.901789,-1.481119 1.169305,-2.221678"
           id="path850"
           inkscape:connector-curvature="0"
           sodipodi:nodetypes="ccccc" />
        <path
           style="fill:none;stroke:#000000;stroke-width:0.26458332px;stroke-linecap:butt;stroke-linejoin:miter;stroke-opacity:1"
           d="m 71.494596,21.738554 c 0.08297,-0.641012 0.218045,-1.12571 0.390046,-1.499632"
           id="path852"
           inkscape:connector-curvature="0"
           sodipodi:nodetypes="cc" />
        <path
           style="fill:#000000;fill-rule:nonzero;stroke:none;stroke-width:0.26458332px;stroke-linecap:butt;stroke-linejoin:miter;stroke-opacity:1"
           d="m 74.591813,13.887516 c 0,0 -0.08347,-0.100345 -0.08347,-0.100345 -0.309601,0.257526 -0.581542,0.502878 -0.908619,0.72225 -0.27648,0.185436 -0.460755,0.253804 -0.555829,0.268695 0.09109,-0.01427 0.29543,-0.01848 0.617487,-0.153656 0.340678,-0.142996 0.729729,-0.40023 1.013895,-0.636599 0,0 -0.08347,-0.100345 -0.08347,-0.100345 z"
           id="path854"
           inkscape:connector-curvature="0"
           inkscape:path-effect="#path-effect856"
           inkscape:original-d="m 74.591813,13.887516 c -0.808834,0.672788 -1.238547,0.842144 -1.547915,0.8906"
           sodipodi:nodetypes="cc" />
        <g
           id="g895">
          <path
             inkscape:connector-curvature="0"
             id="path864"
             d="m 87.864856,16.894294 c 0.278157,0.153602 0.543484,0.335536 0.858777,0.406153 1.517312,0.536193 2.99966,1.190317 4.383629,2.014211 0.76082,0.475547 1.482472,1.013007 2.238803,1.493748 0.301458,0.27664 0.602916,0.553281 0.904374,0.829922"
             style="fill:none;stroke:#000000;stroke-width:0.26458332px;stroke-linecap:butt;stroke-linejoin:miter;stroke-opacity:1" />
          <path
             inkscape:connector-curvature="0"
             id="path866"
             d="m 88.373346,17.181966 c 1.252315,-0.128458 2.492885,-0.445829 3.76008,-0.364214 0.99014,0.0059 2.017765,0.165216 2.846612,0.744167 0.13949,0.09268 0.273558,0.193477 0.401774,0.301203"
             style="fill:none;stroke:#000000;stroke-width:0.26458332px;stroke-linecap:butt;stroke-linejoin:miter;stroke-opacity:1" />
          <path
             inkscape:connector-curvature="0"
             id="path868"
             d="m 94.282881,17.186566 c 0.857935,0.941753 1.040852,2.283604 1.033539,3.509308 l -3.61e-4,0.04212 -5.22e-4,0.04239"
             style="fill:none;stroke:#000000;stroke-width:0.26458332px;stroke-linecap:butt;stroke-linejoin:miter;stroke-opacity:1" />
          <path
             inkscape:connector-curvature="0"
             id="path870"
             d="m 92.349263,18.881606 c 0.0075,-0.746927 -0.282607,-1.471982 -0.713496,-2.07243"
             style="fill:none;stroke:#000000;stroke-width:0.26458332px;stroke-linecap:butt;stroke-linejoin:miter;stroke-opacity:1" />
          <path
             inkscape:connector-curvature="0"
             d="m 96.701455,20.920041 c 0.0046,-0.02706 0.119782,-0.09568 0.122903,-0.124003 0.02454,-0.222659 0.0054,-0.549731 -0.109421,-0.943423 -0.125825,-0.431442 -0.317485,-0.785529 -0.414386,-0.987208 0.09454,0.19677 0.238009,0.586978 0.303613,1.011922 0.06211,0.402325 0.03565,0.684286 0.01234,0.895801 -0.0029,0.02592 0.08957,0.119855 0.08495,0.146911 z"
             id="path872"
             inkscape:original-d="m 96.701455,20.920041 c 0.120079,-0.704042 -0.09819,-1.424597 -0.400904,-2.054634"
             inkscape:path-effect="#path-effect874"
             style="fill:#000000;fill-rule:nonzero;stroke:none;stroke-width:0.26458332px;stroke-linecap:butt;stroke-linejoin:miter;stroke-opacity:1" />
          <path
             sodipodi:nodetypes="cc"
             inkscape:connector-curvature="0"
             d="m 96.166917,21.588215 c 0.0054,-9.34e-4 -0.004,-0.101975 -6.19e-4,-0.102931 0.01319,-0.0038 0.0356,-0.0056 0.0683,-0.01574 0.0328,-0.01019 0.07059,-0.02705 0.115095,-0.05458 0.09653,-0.05971 0.204832,-0.159935 0.243184,-0.210947 -0.04002,0.05323 -0.09725,0.180699 -0.16646,0.287454 -0.0311,0.04797 -0.06371,0.08974 -0.09995,0.123061 -0.03776,0.03473 -0.07485,0.0557 -0.105004,0.06429 -0.0073,0.0021 -0.04911,-0.09154 -0.05455,-0.09061 z"
             id="path876"
             inkscape:original-d="m 96.166917,21.588215 c 0.156441,-0.02688 0.291269,-0.205051 0.425958,-0.3842"
             inkscape:path-effect="#path-effect878"
             style="fill:#000000;fill-rule:nonzero;stroke:none;stroke-width:0.26458332px;stroke-linecap:butt;stroke-linejoin:miter;stroke-opacity:1" />
        </g>
        <path
           style="fill:none;stroke:#000000;stroke-width:0.26458332px;stroke-linecap:butt;stroke-linejoin:miter;stroke-opacity:1"
           d="m 100.63765,31.043449 c 0.55893,0.321184 1.33078,0.684852 1.65976,1.218842 0.15731,0.321952 0.34423,0.927326 0,1.80407 -0.19302,0.321861 -0.42878,0.588771 -0.84034,0.62965"
           id="path901"
           inkscape:connector-curvature="0"
           sodipodi:nodetypes="cccc" />
        <path
           style="fill:none;stroke:#000000;stroke-width:0.26458332px;stroke-linecap:butt;stroke-linejoin:miter;stroke-opacity:1"
           d="m 87.784968,33.724172 c 1.254246,0.320053 2.410827,1.201676 3.165552,4.393975"
           id="path903"
           inkscape:connector-curvature="0"
           sodipodi:nodetypes="cc" />
      </g>
      <g
         id="g961">
        <path
           sodipodi:nodetypes="ccscccccsccccccccccccccccc"
           inkscape:connector-curvature="0"
           d="M 91.406177,49.935489 C 90.880232,45.200465 90.610496,38.792024 87.762257,34.724749 86.502437,34.087092 85.297642,33.664644 83.807678,33.21168 82.317715,32.758716 80.116602,32.714931 79.078371,31.961614 77.435888,30.840435 75.937358,29.73982 73.882804,28.559774 73.724272,28.38787 73.49066,28.028207 73.355699,27.675516 72.746385,27.06274 71.569124,22.359609 71.494597,21.738554 c -0.364761,-0.250466 -0.477256,-1.322846 -0.634765,-1.987816 0,0 -0.421856,-0.04668 -0.603964,-0.97218 -0.182107,-0.925497 -0.644441,-3.274685 0.0026,-4.356507 0.448441,-0.501816 0.612955,-0.435781 0.903459,-0.621725 1.079274,0.448981 2.43843,0.252929 3.429886,0.08719 1.514643,-0.868815 3.406509,-2.831672 4.185869,-2.505652 2.262452,0.131239 3.251781,1.959977 4.877671,2.939965 1.398703,0.931061 2.891764,1.012891 4.376539,1.169304 10.539222,-1.222889 6.138931,1.908154 13.163018,6.38106 l 9.9892,5.545843 c 1.22625,1.08945 0.91694,2.85142 -0.66291,3.291791 -0.48969,0.07413 -0.49208,0.07539 -1.00752,-0.01774 -2.98382,-1.181357 -5.1682,-3.428644 -8.95353,-3.541321 -0.45969,1.095264 -0.0259,2.900677 0.0775,3.892683 0.11517,0.81483 0.205,1.362135 0.39025,2.054063 l 0.42917,1.598499 4.18123,15.573568 c -0.39167,0.319729 -5.3725,4.533453 -15.962374,2.827334 z"
           style="display:inline;opacity:1;fill:none;fill-opacity:1;stroke:#010000;stroke-width:0.26458332px;stroke-linecap:butt;stroke-linejoin:miter;stroke-opacity:1"
           id="path842" />
        <path
           style="fill:#000000;fill-rule:nonzero;stroke:none;stroke-width:0.26458332px;stroke-linecap:butt;stroke-linejoin:miter;stroke-opacity:1"
           d="m 100.56015,27.150766 c 0,0 0.12627,0.03946 0.12627,0.03946 0.076,-0.243172 0.13856,-0.428918 0.27257,-0.641458 0.10394,-0.164856 0.15241,-0.216518 0.15241,-0.216518 0,0 -0.0688,-0.02037 -0.25072,0.127993 -0.19208,0.156659 -0.3509,0.408194 -0.4268,0.651065 0,0 0.12627,0.03946 0.12627,0.03946 z"
           id="path954"
           inkscape:connector-curvature="0"
           inkscape:path-effect="#path-effect956"
           inkscape:original-d="m 100.56015,27.150766 c 0.1975,-0.632008 0.55125,-0.818517 0.55125,-0.818517 v 0"
           sodipodi:nodetypes="ccc" />
      </g>
      <path
         sodipodi:nodetypes="ccc"
         inkscape:original-d="m 76.067707,15.132469 1.496997,-0.855707 1.385071,-0.01836"
         inkscape:path-effect="#path-effect977"
         inkscape:connector-curvature="0"
         id="path975"
         d="m 76.067707,15.132469 c 0.272971,-0.156034 0.937786,-0.390901 1.521732,-0.609498 0.285288,0.05247 0.539793,0.09269 0.688331,0.09072 0.135319,-0.0018 0.536686,-0.353499 0.672005,-0.355293 -0.135319,0.0018 -0.545867,-0.339149 -0.681186,-0.337355 -0.152264,0.002 -0.414663,0.0513 -0.707096,0.113477 -0.03522,0.0075 -0.07042,0.01507 -0.1056,0.02274 0,0 -0.01141,0.0092 -0.01141,0.0092 -0.503916,0.405542 -1.088797,0.901418 -1.376773,1.06603 z"
         style="fill:#000000;fill-rule:nonzero;stroke:none;stroke-width:0.26458332px;stroke-linecap:butt;stroke-linejoin:miter;stroke-opacity:1" />
      <path
         sodipodi:nodetypes="ccccc"
         inkscape:connector-curvature="0"
         id="path861"
         d="m 89.409086,17.583401 1.511904,0.549248 c 0.08686,-0.315985 -0.165483,-0.829493 -0.472477,-1.128024 -0.167338,0.367908 -0.346479,0.482469 -0.673271,0.236227 -0.192233,0.04508 -0.264995,0.189519 -0.366156,0.342549 z"
         style="fill:#000000;fill-opacity:1;stroke:none;stroke-width:0.26458332px;stroke-linecap:butt;stroke-linejoin:miter;stroke-opacity:1" />
      <ellipse
         ry="0.25395274"
         rx="0.26281157"
         cy="17.356951"
         cx="91.194016"
         id="path865"
         style="opacity:1;fill:#ffffff;fill-opacity:1;stroke:none;stroke-width:1.46499991;stroke-miterlimit:4;stroke-dasharray:none;stroke-opacity:1" />
    </g>
  </g>
</svg>
