<?xml version="1.0" standalone="no"?>
<!DOCTYPE svg PUBLIC "-//W3C//DTD SVG 20010904//EN"
 "http://www.w3.org/TR/2001/REC-SVG-20010904/DTD/svg10.dtd">
<svg version="1.0" xmlns="http://www.w3.org/2000/svg"
 width="500.000000pt" height="500.000000pt" viewBox="0 0 500.000000 500.000000"
 preserveAspectRatio="xMidYMid meet">
<metadata>
Created by potrace 1.11, written by Peter Selinger 2001-2013
</metadata>
<g transform="translate(0.000000,500.000000) scale(0.100000,-0.100000)"
fill="#000000" stroke="none">
<path d="M1480 3465 l-305 -305 216 -215 c234 -233 265 -255 369 -261 59 -4
113 7 170 33 19 9 130 112 248 229 l212 213 -302 306 -303 306 -305 -306z"/>
<path d="M2912 3464 l-302 -304 200 -201 c111 -111 217 -213 238 -226 52 -36
111 -51 186 -49 109 4 144 28 381 266 l210 210 -290 293 c-160 160 -297 297
-305 303 -13 9 -69 -42 -318 -292z"/>
<path d="M763 2745 l-303 -305 213 -213 c247 -248 267 -261 392 -261 127 0
146 12 395 260 l215 214 -305 305 -305 305 -302 -305z"/>
<path d="M2200 2747 c-162 -164 -295 -302 -295 -307 0 -5 92 -102 205 -216
238 -241 265 -258 390 -259 126 0 154 19 394 260 113 114 206 210 206 214 0 7
-566 579 -590 597 -12 8 -72 -47 -310 -289z"/>
<path d="M3631 2745 l-304 -305 207 -209 c246 -247 273 -265 400 -265 130 0
146 11 394 259 l214 215 -304 305 -303 306 -304 -306z"/>
<path d="M1480 2025 l-304 -306 209 -210 c249 -248 279 -268 404 -265 124 3
146 18 389 261 l213 214 -304 305 -303 306 -304 -305z"/>
<path d="M2912 2024 l-302 -305 212 -213 c248 -247 268 -260 393 -261 130 0
147 12 395 260 l215 215 -305 304 -305 304 -303 -304z"/>
</g>
</svg>
