<svg width="24" height="24" viewBox="0 0 24 24" fill="none" xmlns="http://www.w3.org/2000/svg">
<path d="M20.1818 5H3.81818C3.33597 5 2.87351 5.21071 2.53253 5.58579C2.19156 5.96086 2 6.46957 2 7V17C2 17.5304 2.19156 18.0391 2.53253 18.4142C2.87351 18.7893 3.33597 19 3.81818 19H20.1818C20.664 19 21.1265 18.7893 21.4675 18.4142C21.8084 18.0391 22 17.5304 22 17V7C22 6.46957 21.8084 5.96086 21.4675 5.58579C21.1265 5.21071 20.664 5 20.1818 5V5ZM12.9091 7H14.7273V9H12.9091V7ZM12.9091 11H14.7273V13H12.9091V11ZM9.27273 7H11.0909V9H9.27273V7ZM9.27273 11H11.0909V13H9.27273V11ZM5.63636 7H7.45454V9H5.63636V7ZM5.63636 11H7.45454V13H5.63636V11ZM16.5455 17H7.45454V15H16.5455V17ZM18.3636 13H16.5455V11H18.3636V13ZM18.3636 9H16.5455V7H18.3636V9Z"/>
</svg>
