<svg width="40" height="40" viewBox="0 0 40 40" fill="none" xmlns="http://www.w3.org/2000/svg">
<path d="M33.6364 8.33333H6.36365C5.55996 8.33333 4.78919 8.68452 4.2209 9.30964C3.65261 9.93476 3.33334 10.7826 3.33334 11.6667V28.3333C3.33334 29.2174 3.65261 30.0652 4.2209 30.6904C4.78919 31.3155 5.55996 31.6667 6.36365 31.6667H33.6364C34.4401 31.6667 35.2108 31.3155 35.7791 30.6904C36.3474 30.0652 36.6667 29.2174 36.6667 28.3333V11.6667C36.6667 10.7826 36.3474 9.93476 35.7791 9.30964C35.2108 8.68452 34.4401 8.33333 33.6364 8.33333ZM21.5152 11.6667H24.5455V15H21.5152V11.6667ZM21.5152 18.3333H24.5455V21.6667H21.5152V18.3333ZM15.4546 11.6667H18.4849V15H15.4546V11.6667ZM15.4546 18.3333H18.4849V21.6667H15.4546V18.3333ZM9.39395 11.6667H12.4243V15H9.39395V11.6667ZM9.39395 18.3333H12.4243V21.6667H9.39395V18.3333ZM27.5758 28.3333H12.4243V25H27.5758V28.3333ZM30.6061 21.6667H27.5758V18.3333H30.6061V21.6667ZM30.6061 15H27.5758V11.6667H30.6061V15Z" fill="#2C323F"/>
</svg>
