<svg width="40" height="40" viewBox="0 0 40 40" fill="none" xmlns="http://www.w3.org/2000/svg">
<rect x="13.3333" y="28.3333" width="13.3333" height="3.33333" fill="#2C323F"/>
<rect x="13.3333" y="23.3333" width="13.3333" height="3.33333" fill="#2C323F"/>
<rect x="13.3333" y="18.3333" width="13.3333" height="3.33333" fill="#2C323F"/>
<rect x="13.3333" y="13.3333" width="13.3333" height="3.33333" fill="#2C323F"/>
<rect x="13.3333" y="8.33333" width="13.3333" height="3.33333" fill="#2C323F"/>
<path fill-rule="evenodd" clip-rule="evenodd" d="M12.0067 6.67832H27.9933C27.9954 6.67912 27.9987 6.68052 28.0033 6.68288C28.0213 6.69224 28.0638 6.71951 28.1163 6.78512C28.2282 6.92501 28.3333 7.17871 28.3333 7.5V32.5C28.3333 32.8213 28.2282 33.075 28.1163 33.2149C28.0638 33.2805 28.0213 33.3078 28.0033 33.3171C27.9987 33.3195 27.9954 33.3209 27.9933 33.3217H12.0067C12.0046 33.3209 12.0013 33.3195 11.9967 33.3171C11.9787 33.3078 11.9362 33.2805 11.8837 33.2149C11.7718 33.075 11.6667 32.8213 11.6667 32.5L11.6667 7.5C11.6667 7.1787 11.7718 6.925 11.8837 6.78512C11.9362 6.71951 11.9787 6.69224 11.9967 6.68288C12.0013 6.68052 12.0046 6.67912 12.0067 6.67832ZM12.0094 33.3226L12.0089 33.3225L12.0094 33.3226ZM12 5H28C28.5304 5 29.0391 5.26339 29.4142 5.73223C29.7893 6.20107 30 6.83696 30 7.5V32.5C30 33.163 29.7893 33.7989 29.4142 34.2678C29.0391 34.7366 28.5304 35 28 35H12C11.4696 35 10.9609 34.7366 10.5858 34.2678C10.2107 33.7989 10 33.163 10 32.5L10 7.5C10 6.83696 10.2107 6.20107 10.5858 5.73223C10.9609 5.26339 11.4696 5 12 5Z" fill="#2C323F"/>
</svg>
