<svg width="40" height="40" viewBox="0 0 40 40" fill="none" xmlns="http://www.w3.org/2000/svg">
<path d="M20.5019 31.5845C18.9851 31.5845 17.6134 31.385 16.3866 30.9859C15.1822 30.5634 14.1227 30 13.2082 29.2958C12.316 28.5915 11.5799 27.7817 11 26.8662L13.3755 24.331C13.8439 25.1526 14.4349 25.8803 15.1487 26.5141C15.8625 27.1244 16.6877 27.6056 17.6245 27.9577C18.5613 28.3099 19.5874 28.4859 20.7026 28.4859C22.2193 28.4859 23.4126 28.216 24.2825 27.6761C25.1747 27.1127 25.6208 26.2793 25.6208 25.1761C25.6208 24.5423 25.3978 23.9789 24.9517 23.4859C24.5056 22.9695 23.7026 22.5704 22.5428 22.2887L17.658 21.0915C16.3643 20.7864 15.2937 20.3639 14.4461 19.8239C13.6208 19.284 13.0074 18.6268 12.6059 17.8521C12.2045 17.054 12.0037 16.1854 12.0037 15.2465C12.0037 13.9554 12.3271 12.7934 12.974 11.7606C13.6431 10.7277 14.6022 9.9061 15.8513 9.29578C17.1004 8.66197 18.6059 8.34507 20.368 8.34507C22.2639 8.34507 23.9257 8.72066 25.3532 9.47183C26.7807 10.223 27.9628 11.3498 28.8996 12.8521L26.6245 15.1761C25.7993 13.838 24.8625 12.8756 23.8141 12.2887C22.7658 11.7019 21.5167 11.4085 20.0669 11.4085C18.9963 11.4085 18.1152 11.561 17.4238 11.8662C16.7546 12.1479 16.2528 12.5469 15.9182 13.0634C15.5836 13.5563 15.4164 14.108 15.4164 14.7183C15.4164 15.2113 15.5056 15.6573 15.684 16.0563C15.8848 16.4554 16.2416 16.8075 16.7546 17.1127C17.2677 17.4178 17.9926 17.6761 18.9294 17.8873L23.2788 18.9085C25.3532 19.4014 26.8253 20.1291 27.6952 21.0915C28.5651 22.054 29 23.2864 29 24.7887C29 26.1737 28.6431 27.3826 27.9294 28.4155C27.2156 29.4249 26.223 30.2113 24.9517 30.7746C23.6803 31.3146 22.197 31.5845 20.5019 31.5845ZM19.0967 35V5H21.7732V35H19.0967Z" fill="#2C323F"/>
</svg>
