<svg width="40" height="40" viewBox="0 0 40 40" fill="none" xmlns="http://www.w3.org/2000/svg">
<path fill-rule="evenodd" clip-rule="evenodd" d="M17.3334 6.66666H30.6667C31.3739 6.66666 32.0522 6.94761 32.5523 7.44771C33.0524 7.9478 33.3334 8.62608 33.3334 9.33333V22.6667C33.3334 23.3739 33.0524 24.0522 32.5523 24.5523C32.0522 25.0524 31.3739 25.3333 30.6667 25.3333H28V14.6667C28 13.9594 27.7191 13.2811 27.219 12.781C26.7189 12.2809 26.0406 12 25.3334 12H14.6667V9.33333C14.6667 8.62608 14.9476 7.9478 15.4477 7.44771C15.9478 6.94761 16.6261 6.66666 17.3334 6.66666ZM9.33335 14.6667H22.6667C24.1373 14.6667 25.3333 15.8627 25.3333 17.3333V30.6667C25.3333 32.1373 24.1373 33.3333 22.6667 33.3333H9.33335C7.86268 33.3333 6.66668 32.1373 6.66668 30.6667V17.3333C6.66668 15.8627 7.86268 14.6667 9.33335 14.6667Z" fill="#2C323F"/>
</svg>
