<svg width="40" height="40" viewBox="0 0 40 40" fill="none" xmlns="http://www.w3.org/2000/svg">
<path d="M36.4643 17.5218C36.2889 17.3124 36.0433 17.2077 35.7626 17.2077H35.3416V14.3107C35.3416 13.822 34.9205 13.4031 34.4293 13.4031H34.1135V10.5061C34.1135 10.0175 33.6925 9.59861 33.2012 9.59861H18.2892L17.3068 7.22514C17.1664 6.8761 16.8156 6.66667 16.4647 6.66667H6.81573C6.32451 6.66667 5.90347 7.08552 5.90347 7.57418V13.4031H5.58768C5.09646 13.4031 4.67542 13.822 4.67542 14.3107V17.2077H4.25437C3.97368 17.2077 3.72807 17.3124 3.55263 17.5218C3.37719 17.7312 3.30702 17.9756 3.34211 18.2548L5.44733 32.5655C5.51751 33.0192 5.90347 33.3333 6.3596 33.3333H33.6223C34.0784 33.3333 34.4644 33.0192 34.5346 32.5655L36.6398 18.2548C36.71 17.9756 36.6398 17.7312 36.4643 17.5218ZM7.728 8.48168H15.8682L16.8506 10.8552C16.991 11.2042 17.3419 11.4136 17.6927 11.4136H32.289V13.4031H7.728V8.48168ZM6.49995 15.2182H33.517V17.2077H6.49995V15.2182ZM32.8504 31.5183H7.1666L5.30699 19.0227H34.6749L32.8504 31.5183Z" fill="#2C323F" stroke="#2C323F" stroke-width="0.1"/>
</svg>
