<svg width="24" height="24" viewBox="0 0 24 24" fill="none" xmlns="http://www.w3.org/2000/svg">
<path fill-rule="evenodd" clip-rule="evenodd" d="M13.2432 4C13.7492 4 14.2336 4.16485 14.5866 4.45712L18.4684 7.6714C18.8093 7.95366 19 8.33205 19 8.726V18.6133C19 19.4482 18.1605 20.125 17.125 20.125H6.875C5.83947 20.125 5 19.4482 5 18.6133V5.51172C5 4.67682 5.83947 4 6.875 4H13.2432Z" fill="#2C323F"/>
<path d="M10.7574 13.2823C10.7574 13.0783 10.7069 12.9181 10.6058 12.8019C10.5047 12.6857 10.3271 12.5759 10.0731 12.4726C9.81902 12.3693 9.58442 12.2647 9.36927 12.1588C9.15411 12.0529 8.96877 11.9303 8.81324 11.7908C8.6577 11.6513 8.53846 11.4899 8.45551 11.3066C8.37256 11.1232 8.33108 10.9011 8.33108 10.6402C8.33108 10.2038 8.47884 9.84478 8.77435 9.56327C9.06987 9.27918 9.46388 9.11389 9.95641 9.06741V8.25H10.5747V9.0829C11.049 9.15263 11.421 9.34762 11.6906 9.66787C11.9628 9.98554 12.0989 10.3897 12.0989 10.8804H10.7846C10.7846 10.6118 10.7328 10.4052 10.6291 10.2606C10.5254 10.116 10.3776 10.0436 10.1858 10.0436C10.0147 10.0436 9.88123 10.0979 9.78532 10.2064C9.692 10.3122 9.64534 10.4595 9.64534 10.648C9.64534 10.8391 9.69978 10.9915 9.80865 11.1051C9.91752 11.2162 10.0925 11.3233 10.3336 11.4267C10.5747 11.5274 10.8015 11.6333 11.014 11.7443C11.2292 11.8528 11.4145 11.9768 11.5701 12.1162C11.7256 12.2557 11.8474 12.4184 11.9356 12.6043C12.0237 12.7903 12.0678 13.0137 12.0678 13.2745C12.0678 13.7162 11.9265 14.0764 11.6439 14.3554C11.364 14.6343 10.9816 14.797 10.4969 14.8435V15.6222H9.87864V14.8396C9.31353 14.7802 8.87934 14.5878 8.57605 14.2624C8.27535 13.9344 8.125 13.5031 8.125 12.9685H9.43537C9.43537 13.2629 9.50017 13.4876 9.62979 13.6426C9.76199 13.7949 9.94863 13.8711 10.1897 13.8711C10.366 13.8711 10.5047 13.8195 10.6058 13.7162C10.7069 13.6103 10.7574 13.4657 10.7574 13.2823Z"/>
<path d="M15.925 15.75H12.4138V14.7776H15.925V15.75Z" fill="#F5F5F5"/>
</svg>
