<svg width="40" height="40" viewBox="0 0 40 40" fill="none" xmlns="http://www.w3.org/2000/svg">
<path fill-rule="evenodd" clip-rule="evenodd" d="M22.072 6.66667C22.9153 6.66667 23.7227 6.94143 24.311 7.42854L30.7806 12.7857C31.3488 13.2561 31.6667 13.8868 31.6667 14.5433V31.0221C31.6667 32.4136 30.2676 33.5417 28.5417 33.5417H11.4583C9.73244 33.5417 8.33333 32.4136 8.33333 31.0221V9.1862C8.33333 7.7947 9.73244 6.66667 11.4583 6.66667H22.072Z" fill="#2C323F"/>
<path d="M17.929 22.1371C17.929 21.7971 17.8448 21.5302 17.6763 21.3365C17.5078 21.1428 17.2118 20.9599 16.7884 20.7877C16.365 20.6155 15.974 20.4412 15.6155 20.2647C15.2569 20.0882 14.948 19.8838 14.6887 19.6513C14.4295 19.4189 14.2308 19.1499 14.0925 18.8443C13.9543 18.5387 13.8851 18.1685 13.8851 17.7337C13.8851 17.0063 14.1314 16.408 14.6239 15.9388C15.1164 15.4653 15.7731 15.1898 16.594 15.1123V13.75H17.6244V15.1382C18.4151 15.2544 19.035 15.5794 19.4843 16.1131C19.938 16.6426 20.1648 17.3162 20.1648 18.134H17.9744C17.9744 17.6864 17.888 17.342 17.7152 17.101C17.5423 16.8599 17.2961 16.7394 16.9764 16.7394C16.6912 16.7394 16.4687 16.8298 16.3089 17.0106C16.1533 17.1871 16.0756 17.4324 16.0756 17.7466C16.0756 18.0652 16.1663 18.3191 16.3478 18.5085C16.5292 18.6936 16.8208 18.8722 17.2226 19.0444C17.6244 19.2123 18.0025 19.3888 18.3567 19.5739C18.7153 19.7546 19.0242 19.9613 19.2834 20.1937C19.5427 20.4261 19.7457 20.6973 19.8926 21.0072C20.0395 21.3171 20.113 21.6895 20.113 22.1242C20.113 22.8603 19.8775 23.4607 19.4066 23.9256C18.94 24.3905 18.3027 24.6617 17.4948 24.7392V26.0369H16.4644V24.7327C15.5226 24.6337 14.7989 24.313 14.2934 23.7707C13.7923 23.224 13.5417 22.5052 13.5417 21.6142H15.7256C15.7256 22.1049 15.8336 22.4793 16.0496 22.7376C16.27 22.9916 16.5811 23.1185 16.9828 23.1185C17.2766 23.1185 17.5078 23.0325 17.6763 22.8603C17.8448 22.6838 17.929 22.4428 17.929 22.1371Z" fill="#F5F5F5"/>
<path d="M26.5417 26.25H20.6897V24.6294H26.5417V26.25Z" fill="#F5F5F5"/>
</svg>
