<svg width="40" height="40" viewBox="0 0 40 40" fill="none" xmlns="http://www.w3.org/2000/svg">
<path fill-rule="evenodd" clip-rule="evenodd" d="M13.0863 5C12.5635 5 12.173 5.38093 12.0124 5.84486L5.07599 28.8074C4.96779 29.1111 4.96286 29.4901 5.14185 29.8195L7.45806 34.4204L7.4673 34.4354C7.68496 34.7891 8.06452 35.03 8.46333 35.03H28.4568C28.9796 35.03 29.3704 34.6492 29.531 34.1853L34.9391 15.5761L34.9418 15.5663C35.0485 15.1814 35.0054 14.821 34.8381 14.5331C34.6766 14.2554 34.4221 14.0836 34.1629 14.009C33.663 13.8651 32.9763 14.0623 32.7778 14.8265L27.6536 32.5488H9.14106L7.39776 29.0733L13.8897 7.48124H30.0292L23.8409 27.9573H12.2368C11.6186 27.9573 11.1001 28.5061 11.1001 29.1979C11.1001 29.8897 11.6186 30.4385 12.2368 30.4385H24.6438C25.1666 30.4385 25.5574 30.0577 25.718 29.5938L32.6571 6.62102C32.9308 5.72653 32.2473 5 31.5782 5H13.0863ZM16.1683 9.59146C15.8161 9.59146 15.5242 9.73966 15.3234 9.98633C15.1283 10.226 15.0379 10.535 15.0377 10.8318C15.0375 11.1286 15.1276 11.4379 15.3228 11.6778C15.5237 11.9247 15.8158 12.0727 16.1683 12.0727H25.7995C26.1518 12.0727 26.4437 11.9245 26.6445 11.6778C26.8396 11.4381 26.9299 11.1289 26.93 10.8322C26.93 10.5354 26.8399 10.2262 26.6448 9.98641C26.4439 9.73957 26.1519 9.59146 25.7995 9.59146H16.1683ZM16.3609 12.9307C16.0087 12.9307 15.7168 13.0789 15.516 13.3256C15.3209 13.5652 15.2305 13.8743 15.2303 14.1711C15.2302 14.4678 15.3202 14.7771 15.5154 15.017C15.7163 15.2639 16.0085 15.4119 16.3609 15.4119H23.2954C23.6476 15.4119 23.9396 15.2638 24.1404 15.017C24.3355 14.7773 24.4258 14.4682 24.4259 14.1714C24.4259 13.8747 24.3358 13.5654 24.1407 13.3256C23.9398 13.0788 23.6478 12.9307 23.2954 12.9307H16.3609Z" fill="#2C323F"/>
</svg>
