<svg width="40" height="40" viewBox="0 0 40 40" fill="none" xmlns="http://www.w3.org/2000/svg">
<path fill-rule="evenodd" clip-rule="evenodd" d="M10.7524 33.8533C13.4977 35.6876 16.7252 36.6667 20.0268 36.6667C24.4542 36.6667 28.7003 34.9079 31.8309 31.7773C34.9616 28.6466 36.7203 24.4006 36.7203 19.9732C36.7203 16.6715 35.7413 13.444 33.907 10.6988C32.0727 7.95354 29.4655 5.81389 26.4152 4.5504C23.3648 3.28691 20.0083 2.95632 16.7701 3.60045C13.5319 4.24457 10.5574 5.83447 8.22276 8.1691C5.88814 10.5037 4.29823 13.4782 3.65411 16.7164C3.00999 19.9547 3.34058 23.3112 4.60407 26.3615C5.86756 29.4118 8.00721 32.019 10.7524 33.8533ZM12.1303 8.15524C14.4677 6.59346 17.2157 5.75986 20.0268 5.75986C23.7955 5.76302 27.4089 7.2615 30.0737 9.92633C32.7385 12.5912 34.237 16.2045 34.2402 19.9732C34.2402 22.7843 33.4066 25.5323 31.8448 27.8697C30.283 30.207 28.0632 32.0288 25.466 33.1046C22.8689 34.1803 20.0111 34.4618 17.254 33.9134C14.4969 33.365 11.9643 32.0113 9.97651 30.0235C7.98874 28.0357 6.63506 25.5032 6.08663 22.7461C5.53821 19.9889 5.81968 17.1311 6.89545 14.534C7.97122 11.9368 9.79298 9.71702 12.1303 8.15524ZM21.2608 12.3001H18.7866V14.7981H21.2608V12.3001ZM21.2608 16.9148H18.7866V27.6463H21.2608V16.9148Z" fill="#2C323F"/>
</svg>
