<svg width="24" height="24" viewBox="0 0 24 24" fill="none" xmlns="http://www.w3.org/2000/svg">
<path fill-rule="evenodd" clip-rule="evenodd" d="M6.45146 20.312C8.0986 21.4126 10.0351 22 12.0161 22C14.6725 22 17.2202 20.9447 19.0986 19.0664C20.9769 17.188 22.0322 14.6403 22.0322 11.9839C22.0322 10.0029 21.4448 8.0664 20.3442 6.41926C19.2436 4.77212 17.6793 3.48833 15.8491 2.73024C14.0189 1.97214 12.005 1.77379 10.0621 2.16026C8.11913 2.54674 6.33443 3.50068 4.93365 4.90146C3.53288 6.30223 2.57893 8.08693 2.19246 10.0299C1.80599 11.9728 2.00434 13.9867 2.76243 15.8169C3.52053 17.6471 4.80432 19.2114 6.45146 20.312ZM7.2782 4.89314C8.68063 3.95607 10.3294 3.45591 12.0161 3.45591C14.2773 3.45781 16.4453 4.3569 18.0442 5.9558C19.6431 7.5547 20.5422 9.72272 20.5441 11.9839C20.5441 13.6706 20.0439 15.3194 19.1069 16.7218C18.1698 18.1242 16.8379 19.2173 15.2796 19.8627C13.7213 20.5082 12.0066 20.6771 10.3524 20.348C8.69811 20.019 7.17856 19.2068 5.9859 18.0141C4.79324 16.8214 3.98103 15.3019 3.65197 13.6476C3.32292 11.9934 3.4918 10.2787 4.13727 8.72038C4.78273 7.1621 5.87578 5.83021 7.2782 4.89314ZM12.7565 7.38003H11.272V8.87887H12.7565V7.38003ZM12.7565 10.1489H11.272V16.5878H12.7565V10.1489Z"/>
</svg>
