<svg width="40" height="40" viewBox="0 0 40 40" fill="none" xmlns="http://www.w3.org/2000/svg">
<path fill-rule="evenodd" clip-rule="evenodd" d="M17.2025 17.6357L17.7239 17.8708L30.3844 5.95504L34.1876 9.53456L31.7086 11.8678L36.6667 16.5342L32.8634 20.1138L27.9053 15.4473L21.5271 21.4503L21.7769 21.9411C22.6429 23.6425 22.9266 25.555 22.5887 27.4146C22.2509 29.2742 21.3082 30.9894 19.8907 32.3233C16.1068 35.8847 9.95519 35.8847 6.17127 32.3234C2.38734 28.762 2.38736 22.9723 6.17129 19.4109C7.58865 18.0768 9.41097 17.1896 11.3868 16.8716C13.3627 16.5537 15.3947 16.8206 17.2025 17.6357ZM9.97451 28.7438C11.6569 30.3273 14.4051 30.3273 16.0875 28.7438C17.7699 27.1604 17.7699 24.5739 16.0875 22.9905C14.4051 21.407 11.6569 21.407 9.97451 22.9905C8.29213 24.5739 8.29213 27.1604 9.97451 28.7438Z" fill="#2C323F"/>
</svg>
