<svg width="40" height="40" viewBox="0 0 40 40" fill="none" xmlns="http://www.w3.org/2000/svg">
<path fill-rule="evenodd" clip-rule="evenodd" d="M24.311 7.42854C23.7227 6.94143 22.9153 6.66667 22.072 6.66667H11.4583C9.73244 6.66667 8.33334 7.7947 8.33334 9.1862V31.0221C8.33334 32.4136 9.73245 33.5417 11.4583 33.5417H28.5417C30.2676 33.5417 31.6667 32.4136 31.6667 31.0221V14.5433C31.6667 13.8868 31.3488 13.2561 30.7806 12.7857L24.311 7.42854ZM19.1795 19.0074L18.9676 18.9119C18.2332 18.5808 17.4077 18.4724 16.605 18.6015C15.8024 18.7307 15.062 19.0911 14.4862 19.6331C12.949 21.0799 12.949 23.432 14.4862 24.8788C16.0234 26.3256 18.5225 26.3256 20.0598 24.8788C20.6356 24.3368 21.0186 23.6401 21.1558 22.8846C21.2931 22.1291 21.1778 21.3522 20.826 20.661L20.7245 20.4616L23.3157 18.0229L25.3299 19.9186L26.875 18.4645L24.8607 16.5687L25.8679 15.6208L24.3228 14.1667L19.1795 19.0074ZM18.5147 23.4246C17.8312 24.0679 16.7148 24.0679 16.0313 23.4246C15.3478 22.7813 15.3478 21.7306 16.0313 21.0873C16.7148 20.444 17.8312 20.444 18.5147 21.0873C19.1982 21.7306 19.1982 22.7813 18.5147 23.4246Z" fill="#2C323F"/>
</svg>
