<svg width="40" height="40" viewBox="0 0 40 40" fill="none" xmlns="http://www.w3.org/2000/svg">
<path fill-rule="evenodd" clip-rule="evenodd" d="M15.384 5.27484C15.5686 5.09029 15.8188 5 16.0849 5H23.8907C24.1568 5 24.407 5.09029 24.5916 5.27484C24.7762 5.45939 24.8665 5.70954 24.8665 5.97561V15.318L34.4403 29.98L34.4412 29.9813C35.119 30.9988 35.1986 32.2424 34.5788 33.2859C34.0253 34.3817 32.9846 35 31.7575 35H8.2181C6.98797 35 5.94508 34.3786 5.39267 33.2776C4.84901 32.255 4.84589 31.0152 5.53432 29.9815L5.53532 29.98L15.1092 15.318V5.97561C15.1092 5.70954 15.1995 5.45939 15.384 5.27484ZM17.0606 6.95122V15.6098C17.0606 15.6781 17.045 15.7374 17.0343 15.7725C17.0222 15.8121 17.0071 15.8504 16.9929 15.8834C16.9658 15.9468 16.9312 16.0159 16.9026 16.0731L16.9026 16.0731L16.9026 16.0732L16.8906 16.0971L7.12928 31.0423C6.87641 31.5039 6.84622 31.9727 7.07436 32.3833C7.31217 32.8113 7.73576 33.0488 8.2181 33.0488H31.7575C32.2346 33.0488 32.6542 32.8165 32.8934 32.3973C33.0864 31.9523 33.0821 31.4743 32.8463 31.0422L23.1128 16.1397C23.0022 16.0121 22.915 15.816 22.915 15.6098V6.95122H17.0606ZM8.40101 31.8901H31.2696L26.6959 24.8779C25.4762 23.6584 22.2441 21.9511 19.073 24.8779C15.9019 27.8048 13.2796 26.7072 12.3649 25.7926L8.40101 31.8901Z" fill="#2C323F"/>
</svg>
