<svg width="24" height="24" viewBox="0 0 24 24" fill="none" xmlns="http://www.w3.org/2000/svg">
<path fill-rule="evenodd" clip-rule="evenodd" d="M9.23043 3.1649C9.34117 3.05417 9.49128 3 9.65094 3H14.3344C14.4941 3 14.6442 3.05417 14.7549 3.1649C14.8657 3.27564 14.9199 3.42573 14.9199 3.58537V9.19078L20.6642 17.988L20.6647 17.9888C21.0714 18.5993 21.1192 19.3455 20.7473 19.9715C20.4152 20.629 19.7908 21 19.0545 21H4.93086C4.19278 21 3.56705 20.6271 3.2356 19.9666C2.90941 19.353 2.90754 18.6091 3.32059 17.9889L3.32119 17.988L9.06551 9.19078V3.58537C9.06551 3.42573 9.11968 3.27564 9.23043 3.1649ZM10.2364 4.17073V9.36585C10.2364 9.40688 10.227 9.44244 10.2206 9.46349C10.2133 9.48726 10.2043 9.51022 10.1958 9.53007C10.1795 9.56805 10.1588 9.60948 10.1416 9.64382L10.1415 9.6439L10.1415 9.64391L10.1344 9.65824L4.27757 18.6254C4.12585 18.9023 4.10773 19.1836 4.24462 19.43C4.3873 19.6868 4.64146 19.8293 4.93086 19.8293H19.0545C19.3407 19.8293 19.5925 19.6899 19.736 19.4384C19.8518 19.1714 19.8492 18.8846 19.7078 18.6253L13.8677 9.6838C13.8013 9.60726 13.749 9.48958 13.749 9.36585V4.17073H10.2364ZM5.04061 19.1341H18.7618L16.0175 14.9268C15.2857 14.1951 13.3465 13.1707 11.4438 14.9268C9.54115 16.6829 7.96779 16.0243 7.41894 15.4756L5.04061 19.1341Z"/>
</svg>
