<svg width="40" height="40" viewBox="0 0 40 40" fill="none" xmlns="http://www.w3.org/2000/svg">
<path d="M9.99999 16.6667C8.16666 16.6667 6.66666 18.1667 6.66666 20C6.66666 21.8333 8.16666 23.3333 9.99999 23.3333C11.8333 23.3333 13.3333 21.8333 13.3333 20C13.3333 18.1667 11.8333 16.6667 9.99999 16.6667ZM30 16.6667C28.1667 16.6667 26.6667 18.1667 26.6667 20C26.6667 21.8333 28.1667 23.3333 30 23.3333C31.8333 23.3333 33.3333 21.8333 33.3333 20C33.3333 18.1667 31.8333 16.6667 30 16.6667ZM20 16.6667C18.1667 16.6667 16.6667 18.1667 16.6667 20C16.6667 21.8333 18.1667 23.3333 20 23.3333C21.8333 23.3333 23.3333 21.8333 23.3333 20C23.3333 18.1667 21.8333 16.6667 20 16.6667Z" fill="#2C323F"/>
</svg>
