<svg width="40" height="40" viewBox="0 0 40 40" fill="none" xmlns="http://www.w3.org/2000/svg">
<path fill-rule="evenodd" clip-rule="evenodd" d="M23.4667 23.4667V33.2H33.2V23.4667H23.4667ZM23.1667 21.6667C22.3382 21.6667 21.6667 22.3382 21.6667 23.1667V33.5C21.6667 34.3284 22.3382 35 23.1667 35H33.5C34.3284 35 35 34.3284 35 33.5V23.1667C35 22.3382 34.3284 21.6667 33.5 21.6667H23.1667Z" fill="#2C323F"/>
<path fill-rule="evenodd" clip-rule="evenodd" d="M6.8 23.4667V33.2H16.5333V23.4667H6.8ZM6.5 21.6667C5.67157 21.6667 5 22.3382 5 23.1667V33.5C5 34.3284 5.67157 35 6.5 35H16.8333C17.6618 35 18.3333 34.3284 18.3333 33.5V23.1667C18.3333 22.3382 17.6618 21.6667 16.8333 21.6667H6.5Z" fill="#2C323F"/>
<path fill-rule="evenodd" clip-rule="evenodd" d="M23.4667 6.8V16.5333H33.2V6.8H23.4667ZM23.1667 5C22.3382 5 21.6667 5.67157 21.6667 6.5V16.8333C21.6667 17.6618 22.3382 18.3333 23.1667 18.3333H33.5C34.3284 18.3333 35 17.6618 35 16.8333V6.5C35 5.67157 34.3284 5 33.5 5H23.1667Z" fill="#2C323F"/>
<rect x="5.5" y="5.5" width="12.3333" height="12.3333" rx="0.5" fill="#2C323F" stroke="#2C323F"/>
</svg>
