<svg width="40" height="40" viewBox="0 0 40 40" fill="none" xmlns="http://www.w3.org/2000/svg">
<path d="M20.0268 36.6667C16.7252 36.6667 13.4977 35.6876 10.7524 33.8533C8.00719 32.019 5.86754 29.4118 4.60405 26.3615C3.34056 23.3112 3.00997 19.9547 3.6541 16.7164C4.29822 13.4782 5.88812 10.5037 8.22275 8.1691C10.5574 5.83447 13.5319 4.24457 16.7701 3.60045C20.0083 2.95632 23.3648 3.28691 26.4152 4.5504C29.4655 5.81389 32.0727 7.95354 33.907 10.6988C35.7413 13.444 36.7203 16.6715 36.7203 19.9732C36.7203 24.4006 34.9615 28.6466 31.8309 31.7773C28.7003 34.9079 24.4542 36.6667 20.0268 36.6667ZM20.0268 5.75986C17.2157 5.75986 14.4677 6.59346 12.1303 8.15524C9.79297 9.71702 7.97121 11.9368 6.89544 14.534C5.81966 17.1311 5.53819 19.9889 6.08662 22.7461C6.63504 25.5032 7.98873 28.0357 9.9765 30.0235C11.9643 32.0113 14.4968 33.365 17.254 33.9134C20.0111 34.4618 22.8689 34.1803 25.466 33.1046C28.0632 32.0288 30.283 30.207 31.8448 27.8697C33.4065 25.5323 34.2401 22.7843 34.2401 19.9732C34.237 16.2045 32.7385 12.5912 30.0737 9.92633C27.4088 7.2615 23.7955 5.76302 20.0268 5.75986Z" fill="#2C323F"/>
<path d="M26.4667 23.6017C25.6426 22.6303 24.6427 21.855 23.5297 21.3248C22.4168 20.7946 21.215 20.5208 20 20.5208C18.785 20.5208 17.5832 20.7946 16.4703 21.3248C15.3573 21.855 14.3574 22.6303 13.5333 23.6017C13.4061 23.7548 13.3349 23.9533 13.3333 24.1597V27.5075C13.336 27.7276 13.4183 27.9376 13.5622 28.0921C13.7062 28.2467 13.9003 28.3333 14.1026 28.3333H25.8974C26.1015 28.3333 26.2971 28.2452 26.4414 28.0882C26.5856 27.9312 26.6667 27.7183 26.6667 27.4964V24.1485C26.6626 23.946 26.5916 23.7519 26.4667 23.6017Z" fill="#2C323F"/>
<path d="M19.9479 19.4792C22.1053 19.4792 23.8542 17.7303 23.8542 15.5729C23.8542 13.4156 22.1053 11.6667 19.9479 11.6667C17.7906 11.6667 16.0417 13.4156 16.0417 15.5729C16.0417 17.7303 17.7906 19.4792 19.9479 19.4792Z" fill="#2C323F"/>
</svg>
