<svg width="40" height="40" viewBox="0 0 40 40" fill="none" xmlns="http://www.w3.org/2000/svg">
<path d="M30.591 9.40625C29.2024 8.00909 27.5509 6.90043 25.7315 6.14418C23.9122 5.38794 21.9611 4.99907 19.9906 5C11.6979 5 5 11.7125 5 20C5 28.2875 11.6979 35 19.9906 35C26.9887 35 32.8236 30.2188 34.4934 23.75H30.591C29.8181 25.9428 28.3834 27.842 26.4847 29.1853C24.586 30.5287 22.317 31.2501 19.9906 31.25C13.7805 31.25 8.73358 26.2063 8.73358 20C8.73358 13.7938 13.7805 8.75 19.9906 8.75C23.1051 8.75 25.8818 10.0438 27.9081 12.0875L21.8668 18.125H35V5L30.591 9.40625Z" fill="#2C323F"/>
</svg>
