<svg width="40" height="40" viewBox="0 0 40 40" fill="none" xmlns="http://www.w3.org/2000/svg">
<path d="M10.3031 36.6667H29.697C31.7022 36.6667 33.3334 35.0647 33.3334 33.0952V20C33.3334 18.0306 31.7022 16.4286 29.697 16.4286V11.6667C29.697 7.07142 25.8909 3.33333 21.2121 3.33333H18.7879C14.1091 3.33333 10.3031 7.07142 10.3031 11.6667V16.4286C8.2978 16.4286 6.66669 18.0306 6.66669 20V33.0952C6.66669 35.0647 8.2978 36.6667 10.3031 36.6667ZM12.7273 11.6667C12.7273 8.38452 15.4461 5.71428 18.7879 5.71428H21.2121C24.554 5.71428 27.2728 8.38452 27.2728 11.6667V16.4286H12.7273V11.6667ZM9.09093 20C9.09093 19.3436 9.63477 18.8095 10.3031 18.8095C17.4489 18.8095 22.5447 18.8095 29.697 18.8095C30.3653 18.8095 30.9091 19.3436 30.9091 20V33.0952C30.9091 33.7516 30.3653 34.2857 29.697 34.2857H10.3031C9.63477 34.2857 9.09093 33.7516 9.09093 33.0952V20Z" fill="#2C323F"/>
<path d="M17.5755 24.7617C17.5755 23.4486 18.6628 22.3808 19.9998 22.3808C21.3367 22.3808 22.424 23.4486 22.424 24.7617C22.424 25.6391 21.9331 26.3986 21.2119 26.8117V29.5236C21.2119 30.1811 20.6693 30.7141 19.9998 30.7141C19.3303 30.7141 18.7877 30.1811 18.7877 29.5236V26.8117C18.0664 26.3986 17.5755 25.6391 17.5755 24.7617Z" fill="#2C323F"/>
</svg>
