<svg width="24" height="24" viewBox="0 0 24 24" fill="none" xmlns="http://www.w3.org/2000/svg">
<path fill-rule="evenodd" clip-rule="evenodd" d="M4.29609 2.40799C4.53979 2.15696 4.87769 2 5.25013 2H18.5458C18.9194 2 19.2583 2.15746 19.5027 2.40922C19.7471 2.66101 19.9 3.01015 19.9 3.39493V20.6092C19.9 20.9929 19.7476 21.341 19.5039 21.592C19.2602 21.843 18.9223 22 18.5498 22H5.25014C4.87769 22 4.53978 21.843 4.29609 21.592C4.05239 21.341 3.89999 20.9929 3.89999 20.6092V3.39074C3.89999 3.0071 4.05239 2.65902 4.29609 2.40799ZM5.25013 3.28019C5.22237 3.28019 5.19573 3.29167 5.17484 3.3132C5.15394 3.33472 5.1428 3.36216 5.1428 3.39075V8.89996H18.6572V3.39494C18.6572 3.36519 18.6456 3.3367 18.6239 3.31441C18.6023 3.29214 18.5746 3.28019 18.5458 3.28019H5.25013ZM18.6572 10.1H5.1428V15H18.6572V10.1ZM18.6572 16.2H5.1428V20.6093C5.1428 20.6379 5.15394 20.6653 5.17484 20.6868C5.19573 20.7083 5.22237 20.7198 5.25013 20.7198H18.5498C18.5776 20.7198 18.6042 20.7083 18.6251 20.6868C18.646 20.6653 18.6572 20.6379 18.6572 20.6093V16.2ZM7.90002 4.99994C7.90002 5.55223 7.4523 5.99994 6.90002 5.99994C6.34773 5.99994 5.90002 5.55223 5.90002 4.99994C5.90002 4.44766 6.34773 3.99994 6.90002 3.99994C7.4523 3.99994 7.90002 4.44766 7.90002 4.99994ZM7.84154 12C7.84154 12.5523 7.39383 13 6.84154 13C6.28926 13 5.84154 12.5523 5.84154 12C5.84154 11.4477 6.28926 11 6.84154 11C7.39383 11 7.84154 11.4477 7.84154 12ZM6.84154 19C7.39383 19 7.84154 18.5523 7.84154 18C7.84154 17.4477 7.39383 17 6.84154 17C6.28926 17 5.84154 17.4477 5.84154 18C5.84154 18.5523 6.28926 19 6.84154 19Z"/>
</svg>
