<svg width="40" height="40" viewBox="0 0 40 40" fill="none" xmlns="http://www.w3.org/2000/svg">
<path fill-rule="evenodd" clip-rule="evenodd" d="M7.16016 4.01332C7.56633 3.59493 8.1295 3.33333 8.75022 3.33333H30.9097C31.5323 3.33333 32.0972 3.59575 32.5045 4.01537C32.9119 4.43501 33.1667 5.01691 33.1667 5.65821V34.3487C33.1667 34.9881 32.9127 35.5683 32.5065 35.9867C32.1003 36.405 31.5372 36.6667 30.9164 36.6667H8.75024C8.1295 36.6667 7.56631 36.405 7.16016 35.9866C6.754 35.5683 6.5 34.9881 6.5 34.3487V5.65122C6.5 5.01182 6.754 4.43169 7.16016 4.01332ZM8.75022 5.46698C8.70395 5.46698 8.65957 5.48611 8.62474 5.52199C8.58991 5.55787 8.57134 5.60359 8.57134 5.65125V14.8333H31.0953V5.65823C31.0953 5.60864 31.0759 5.56117 31.0399 5.52401C31.0038 5.48689 30.9577 5.46698 30.9097 5.46698H8.75022ZM31.0953 16.8333H8.57134V24.9999H31.0953V16.8333ZM31.0953 26.9999H8.57134V34.3488C8.57134 34.3964 8.58991 34.4421 8.62474 34.478C8.65957 34.5139 8.70396 34.533 8.75022 34.533H30.9164C30.9627 34.533 31.007 34.5139 31.0419 34.478C31.0767 34.4421 31.0953 34.3964 31.0953 34.3488V26.9999ZM13.1667 8.33323C13.1667 9.25371 12.4205 9.9999 11.5 9.9999C10.5796 9.9999 9.83338 9.25371 9.83338 8.33323C9.83338 7.41276 10.5796 6.66657 11.5 6.66657C12.4205 6.66657 13.1667 7.41276 13.1667 8.33323ZM13.0692 19.9999C13.0692 20.9204 12.3231 21.6666 11.4026 21.6666C10.4821 21.6666 9.73591 20.9204 9.73591 19.9999C9.73591 19.0795 10.4821 18.3333 11.4026 18.3333C12.3231 18.3333 13.0692 19.0795 13.0692 19.9999ZM11.4026 31.6666C12.3231 31.6666 13.0692 30.9204 13.0692 29.9999C13.0692 29.0795 12.3231 28.3333 11.4026 28.3333C10.4821 28.3333 9.73591 29.0795 9.73591 29.9999C9.73591 30.9204 10.4821 31.6666 11.4026 31.6666Z" fill="#2C323F"/>
</svg>
