<svg width="40" height="40" viewBox="0 0 40 40" fill="none" xmlns="http://www.w3.org/2000/svg">
<path d="M32.9333 27.2034C31.2853 25.2606 29.2853 23.7101 27.0594 22.6496C24.8335 21.5891 22.4299 21.0417 20 21.0417C17.5701 21.0417 15.1665 21.5891 12.9406 22.6496C10.7147 23.7101 8.71471 25.2606 7.06666 27.2034C6.81221 27.5095 6.66988 27.9066 6.66666 28.3194V35.0151C6.67205 35.4551 6.83651 35.8752 7.12445 36.1843C7.41238 36.4934 7.80062 36.6667 8.20512 36.6667H31.7949C32.2029 36.6667 32.5942 36.4903 32.8827 36.1764C33.1712 35.8625 33.3333 35.4367 33.3333 34.9927V28.297C33.3251 27.892 33.1831 27.5038 32.9333 27.2034Z" fill="#2C323F"/>
<path d="M19.8958 18.9583C24.2106 18.9583 27.7083 15.4606 27.7083 11.1458C27.7083 6.8311 24.2106 3.33333 19.8958 3.33333C15.5811 3.33333 12.0833 6.8311 12.0833 11.1458C12.0833 15.4606 15.5811 18.9583 19.8958 18.9583Z" fill="#2C323F"/>
</svg>
