<svg width="40" height="40" viewBox="0 0 40 40" fill="none" xmlns="http://www.w3.org/2000/svg">
<path fill-rule="evenodd" clip-rule="evenodd" d="M34.0219 7.45053L21.017 5.02082C20.6548 4.95333 20.2925 5.05457 20.0027 5.25704C19.7129 5.45952 19.568 5.79698 19.568 6.13444V7.41678H12.3229C11.6346 7.41678 11.0913 7.92297 11.0913 8.56414V12.9511C11.0913 13.5923 11.6346 14.0985 12.3229 14.0985C13.0112 14.0985 13.5546 13.5923 13.5546 12.9511V9.7115H19.5318V30.1615H13.5546V26.9219C13.5546 26.2807 13.0112 25.7745 12.3229 25.7745C11.6346 25.7745 11.0913 26.2807 11.0913 26.9219V31.3089C11.0913 31.95 11.6346 32.4562 12.3229 32.4562H19.5318V33.7386C19.5318 34.076 19.7129 34.4135 19.9665 34.616C20.1838 34.7847 20.4736 34.8859 20.7634 34.8859C20.8359 34.8859 20.9083 34.8859 21.017 34.8522L34.0219 32.4225C34.6015 32.3212 35 31.8488 35 31.3089V8.56414C35 8.0242 34.6015 7.55176 34.0219 7.45053ZM18.3267 19.9371C18.3267 19.603 18.138 19.2689 17.8549 19.0867L13.3877 16.2318C13.0731 16.0192 12.6327 15.9888 12.2866 16.171C11.9406 16.3533 11.7204 16.6873 11.7204 17.0822V18.9044H6.0696C5.47188 18.9044 5 19.36 5 19.9371C5 20.5141 5.47188 20.9697 6.0696 20.9697H11.7204V22.792C11.7204 23.1564 11.9406 23.5209 12.2866 23.7031C12.4439 23.7942 12.6327 23.8246 12.79 23.8246C13.0102 23.8246 13.1989 23.7638 13.3877 23.6424L17.8549 20.7875C18.138 20.6052 18.3267 20.2712 18.3267 19.9371Z" fill="#2C323F"/>
</svg>
