<?xml version="1.0" standalone="no"?>
<!DOCTYPE svg PUBLIC "-//W3C//DTD SVG 20010904//EN"
 "http://www.w3.org/TR/2001/REC-SVG-20010904/DTD/svg10.dtd">
<svg version="1.0" xmlns="http://www.w3.org/2000/svg"
 width="890.000000pt" height="890.000000pt" viewBox="0 0 890.000000 890.000000"
 preserveAspectRatio="xMidYMid meet">
<metadata>
Created by potrace 1.14, written by Peter Selinger 2001-2017
</metadata>
<g transform="translate(0.000000,890.000000) scale(0.100000,-0.100000)"
fill="#000000" stroke="none">
<path d="M2675 6157 c-286 -288 -526 -531 -533 -540 -12 -14 25 -56 330 -363
188 -190 366 -362 393 -383 136 -100 290 -132 456 -95 144 32 168 51 572 454
202 202 367 371 367 374 0 4 -240 248 -533 542 l-532 535 -520 -524z"/>
<path d="M5193 6145 c-293 -294 -533 -538 -533 -541 0 -3 165 -171 368 -374
251 -251 381 -375 412 -390 25 -13 47 -26 50 -29 14 -18 135 -45 215 -48 106
-3 208 20 295 69 40 22 158 134 423 398 202 202 367 371 367 374 0 3 -240 247
-532 541 l-533 536 -532 -536z"/>
<path d="M4145 5093 c-170 -172 -410 -413 -533 -536 l-223 -223 364 -365 c278
-280 379 -375 428 -404 35 -20 72 -39 81 -40 10 -2 22 -6 26 -9 23 -14 87 -21
187 -20 97 0 118 3 180 29 39 15 92 44 119 63 27 19 208 194 403 390 l353 356
-83 83 c-46 46 -81 85 -79 88 3 3 1 5 -4 5 -13 0 25 -36 -455 446 -224 225
-417 418 -430 430 l-24 21 -310 -314z"/>
<path d="M6497 4913 c-270 -272 -511 -514 -535 -537 l-43 -41 353 -355 c194
-195 369 -367 388 -382 99 -75 202 -107 338 -106 110 1 199 27 289 84 44 28
778 752 770 760 -1 1 -242 243 -535 538 l-532 534 -493 -495z"/>
<path d="M1453 4929 c-257 -259 -496 -499 -531 -533 l-62 -61 360 -363 c198
-199 365 -362 370 -362 6 0 10 -4 10 -8 0 -5 12 -15 28 -23 15 -8 29 -16 32
-20 8 -9 104 -47 136 -54 72 -16 165 -21 213 -10 18 4 42 8 54 10 35 4 108 36
155 67 24 15 45 28 48 28 7 0 734 733 731 736 -50 56 -1061 1064 -1067 1064
-4 0 -219 -212 -477 -471z"/>
<path d="M2665 3604 c-291 -294 -532 -537 -535 -540 -2 -2 7 -15 20 -28 14
-13 174 -173 355 -356 182 -183 348 -345 371 -360 44 -31 143 -79 178 -86 100
-22 182 -22 284 0 37 8 127 52 174 84 40 28 740 722 746 740 1 5 -237 250
-530 544 l-533 536 -530 -534z"/>
<path d="M5195 3604 c-292 -294 -532 -536 -535 -539 -2 -3 7 -16 20 -29 14
-13 153 -153 310 -311 157 -157 314 -314 350 -348 90 -85 203 -142 305 -154
42 -5 146 -4 170 1 118 24 230 81 299 152 6 7 161 163 345 348 l334 336 -19
21 c-10 12 -251 255 -534 539 l-515 518 -530 -534z"/>
</g>
</svg>
