<svg
  xmlns="http://www.w3.org/2000/svg"
  fill="none"
  version="1.1"
  viewBox="0 0 23.2 26.6"
>
  <path
    fill-rule="evenodd"
    d="M15.886.754C15.301.272 14.5 0 13.66 0H3.107C1.391 0 0 1.116 0 2.494v21.612C0 25.483 1.391 26.6 3.107 26.6h16.986c1.716 0 3.107-1.117 3.107-2.494V7.796c0-.65-.316-1.274-.88-1.74zm-8.51 6.44C8.493 6.69 9.972 6.4 11.6 6.4c1.628 0 3.107.29 4.224.793.558.252 1.03.553 1.384.93.354.378.592.86.592 1.382v7.67c0 .522-.244.998-.598 1.375-.354.378-.825.678-1.384.93-1.117.504-2.59.8-4.218.8-1.628 0-3.107-.296-4.224-.8-.558-.252-1.03-.552-1.384-.93-.354-.377-.592-.853-.592-1.375v-7.67c0-.523.238-1.004.592-1.382.354-.377.826-.678 1.384-.93zm8.021 1.004c-.934-.422-2.295-.702-3.797-.702-1.503 0-2.863.28-3.798.702-.467.21-.826.456-1.046.69-.22.234-.293.433-.293.617 0 .183.074.376.293.61.22.234.58.48 1.046.69.935.422 2.295.708 3.798.708 1.502 0 2.863-.286 3.797-.707.468-.211.827-.457 1.047-.69.22-.235.293-.428.293-.611 0-.184-.074-.383-.293-.617-.22-.234-.579-.48-1.047-.69zm-8.02 3.612a5.12 5.12 0 01-.914-.52v.771c0 .184.074.377.293.611.22.234.58.48 1.046.69.935.422 2.295.708 3.798.708 1.502 0 2.863-.286 3.797-.707.468-.211.827-.457 1.047-.691.22-.234.293-.427.293-.61v-.771a5.124 5.124 0 01-.913.52c-1.117.503-2.596.798-4.224.798-1.628 0-3.107-.295-4.224-.799zm0 2.557a5.12 5.12 0 01-.914-.52v.771c0 .184.074.377.293.61.22.235.58.48 1.046.691.935.422 2.295.708 3.798.708 1.502 0 2.863-.286 3.797-.708.468-.21.827-.456 1.047-.69.22-.234.293-.427.293-.611v-.77a5.124 5.124 0 01-.913.519c-1.117.504-2.596.799-4.224.799-1.628 0-3.107-.295-4.224-.8zm0 2.557a5.114 5.114 0 01-.914-.52v.77c0 .185.074.377.293.611.22.235.58.48 1.046.69.935.423 2.296.709 3.798.709 1.502 0 2.856-.286 3.792-.708.468-.21.826-.456 1.046-.69.22-.235.3-.428.3-.611v-.77a5.118 5.118 0 01-.914.519c-1.117.503-2.596.799-4.224.799-1.628 0-3.107-.296-4.224-.8z"
    clip-rule="evenodd"
  ></path>
</svg>