<?xml version="1.0" standalone="no"?>
<!DOCTYPE svg PUBLIC "-//W3C//DTD SVG 20010904//EN"
 "http://www.w3.org/TR/2001/REC-SVG-20010904/DTD/svg10.dtd">
<svg version="1.0" xmlns="http://www.w3.org/2000/svg"
 width="650.000000pt" height="650.000000pt" viewBox="0 0 650.000000 650.000000"
 preserveAspectRatio="xMidYMid meet">
<metadata>
Created by potrace 1.14, written by Peter Selinger 2001-2017
</metadata>
<g transform="translate(0.000000,650.000000) scale(0.100000,-0.100000)"
fill="#000000" stroke="none">
<path d="M1656 4724 l-469 -476 329 -329 c287 -287 338 -334 396 -363 140 -71
292 -72 434 -2 68 34 99 63 396 362 178 179 323 329 323 334 0 10 -923 950
-933 950 -4 0 -218 -214 -476 -476z"/>
<path d="M3885 4723 l-469 -474 334 -333 c294 -293 343 -337 400 -364 139 -67
286 -66 429 3 71 35 96 57 398 364 178 179 323 329 323 333 0 9 -931 948 -939
947 -3 0 -217 -214 -476 -476z"/>
<path d="M542 3605 l-473 -479 328 -328 c345 -345 379 -373 497 -404 65 -18
177 -18 242 0 118 31 152 59 497 404 l327 327 -472 479 -473 479 -473 -478z"/>
<path d="M2772 3603 l-471 -478 332 -331 c349 -349 367 -363 492 -399 117 -34
282 -8 383 60 20 14 182 170 359 347 l322 322 -59 65 c-32 37 -245 252 -473
479 l-413 413 -472 -478z"/>
<path d="M5012 3605 l-474 -478 328 -328 c346 -346 380 -374 498 -405 65 -18
177 -18 242 0 118 31 152 59 497 404 l327 327 -473 479 -472 479 -473 -478z"/>
<path d="M1655 2484 l-468 -476 329 -329 c287 -287 338 -334 396 -363 141 -71
292 -72 436 -1 72 36 97 58 397 363 176 178 320 328 320 332 0 10 -924 950
-934 950 -4 0 -218 -214 -476 -476z"/>
<path d="M3899 2490 c-255 -258 -464 -474 -464 -480 0 -5 146 -156 324 -335
295 -296 331 -329 395 -360 143 -70 289 -70 431 0 63 31 103 67 399 364 l329
329 -467 474 c-257 260 -471 474 -475 476 -5 2 -217 -209 -472 -468z"/>
</g>
</svg>
