<?xml version="1.0" standalone="no"?>
<!DOCTYPE svg PUBLIC "-//W3C//DTD SVG 20010904//EN"
 "http://www.w3.org/TR/2001/REC-SVG-20010904/DTD/svg10.dtd">
<svg version="1.0" xmlns="http://www.w3.org/2000/svg"
 width="651.000000pt" height="651.000000pt" viewBox="0 0 651.000000 651.000000"
 preserveAspectRatio="xMidYMid meet">
<metadata>
Created by potrace 1.14, written by Peter Selinger 2001-2017
</metadata>
<g transform="translate(0.000000,651.000000) scale(0.100000,-0.100000)"
fill="#000000" stroke="none">
<path d="M1666 4744 l-470 -476 335 -334 c307 -306 340 -336 402 -364 142 -64
290 -62 425 6 58 29 110 76 397 364 l330 330 -190 192 c-459 466 -750 758
-755 758 -3 0 -216 -214 -474 -476z"/>
<path d="M3896 4744 l-470 -475 320 -320 c175 -176 340 -333 365 -349 97 -63
234 -91 344 -71 33 6 94 27 135 47 70 35 96 58 395 361 176 179 321 328 323
333 3 8 -926 951 -937 949 -3 0 -217 -214 -475 -475z"/>
<path d="M545 3618 l-466 -472 328 -328 c347 -347 376 -371 498 -403 73 -19
173 -19 241 -1 118 31 152 59 497 404 l327 327 -466 473 c-256 259 -472 472
-479 472 -7 0 -223 -212 -480 -472z"/>
<path d="M2777 3618 l-466 -473 332 -332 c294 -293 339 -335 396 -362 85 -40
159 -54 251 -49 87 6 170 33 232 76 24 17 187 175 362 351 l320 320 -469 470
c-258 259 -474 471 -481 471 -6 0 -221 -213 -477 -472z"/>
<path d="M5015 3618 l-466 -472 328 -328 c347 -347 376 -371 498 -403 73 -19
173 -19 241 -1 118 31 152 59 497 404 l327 327 -466 473 c-256 259 -472 472
-479 472 -7 0 -223 -212 -480 -472z"/>
<path d="M1665 2504 l-468 -476 329 -329 c299 -300 335 -333 400 -364 142 -70
293 -69 432 1 58 29 110 76 397 364 l330 330 -210 212 c-544 551 -730 738
-735 738 -3 0 -217 -214 -475 -476z"/>
<path d="M3909 2510 c-255 -258 -464 -474 -464 -480 0 -5 146 -156 324 -335
294 -295 331 -329 395 -360 141 -69 296 -69 434 1 58 29 109 76 396 363 l329
329 -467 474 c-257 260 -471 474 -475 476 -5 2 -217 -209 -472 -468z"/>
</g>
</svg>
