<svg width="40" height="40" viewBox="0 0 40 40" fill="none" xmlns="http://www.w3.org/2000/svg">
<path d="M33.333 13.333V33.333C33.333 35.1663 31.8333 36.667 30 36.667H9.9834C8.15007 36.667 6.66699 35.1663 6.66699 33.333L6.68359 6.66699C6.68359 4.83366 8.16667 3.33301 10 3.33301H23.333L33.333 13.333ZM13.333 25L17.333 29L18.2666 28.0664L15.2002 25L18.2666 21.9336L17.333 21L13.333 25ZM21.7334 21.9336L24.7998 25L21.7334 28.0664L22.667 29L26.667 25L22.667 21L21.7334 21.9336ZM21.667 15H30.833L21.667 5.83301V15Z"/>
</svg>
