<svg width="40" height="40" viewBox="0 0 40 40" fill="none" xmlns="http://www.w3.org/2000/svg">
<path d="M33.333 13.333V33.333C33.333 35.1663 31.8333 36.667 30 36.667H9.9834C8.15007 36.667 6.66699 35.1663 6.66699 33.333L6.68359 6.66699C6.68359 4.83366 8.16667 3.33301 10 3.33301H23.333L33.333 13.333ZM15.333 19C14.5999 19.0002 14.0002 19.5999 14 20.333V29.667C14.0002 30.4001 14.5999 30.9998 15.333 31H24.667C25.4001 30.9998 25.9998 30.4001 26 29.667V20.333C25.9998 19.5999 25.4001 19.0002 24.667 19H15.333ZM24.667 29.667H15.333V20.333H24.667V29.667ZM19.4268 27.4863L18 25.7598L16 28.333H24L21.4268 24.9062L19.4268 27.4863ZM21.667 15H30.833L21.667 5.83301V15Z"/>
</svg>
