<svg width="40" height="40" viewBox="0 0 40 40" fill="none" xmlns="http://www.w3.org/2000/svg">
<path d="M33.333 13.333V33.333C33.333 35.1663 31.8333 36.667 30 36.667H9.9834C8.15007 36.667 6.66699 35.1663 6.66699 33.333L6.68359 6.66699C6.68359 4.83366 8.16667 3.33301 10 3.33301H23.333L33.333 13.333ZM11.9658 22.0596V28H13.8018V26.1465H14.918C15.4278 26.1464 15.86 26.0681 16.2139 25.9121C16.5737 25.7501 16.8463 25.5187 17.0322 25.2188C17.2242 24.9128 17.3203 24.5405 17.3203 24.1025C17.3202 23.6647 17.2242 23.296 17.0322 22.9961C16.8463 22.6902 16.5737 22.4587 16.2139 22.3027C15.86 22.1408 15.4278 22.0596 14.918 22.0596H11.9658ZM18.1621 28H20.8887C21.8187 28 22.5267 27.7416 23.0127 27.2256C23.4985 26.7036 23.7421 25.972 23.7422 25.0303C23.7422 24.0823 23.4987 23.35 23.0127 22.834C22.5267 22.318 21.8186 22.0596 20.8887 22.0596H18.1621V28ZM24.6133 28H26.4492V25.8486H28.8066V24.4717H26.4492V23.4365H29.3916V22.0596H24.6133V28ZM20.6641 23.4014C21.1078 23.4014 21.4168 23.5359 21.5908 23.8057C21.7648 24.0697 21.8516 24.4783 21.8516 25.0303C21.8515 25.582 21.7647 25.9927 21.5908 26.2627C21.4169 26.5266 21.1079 26.6591 20.6641 26.6592H19.998V23.4014H20.6641ZM14.6201 23.3916C14.8901 23.3916 15.101 23.4523 15.251 23.5723C15.4006 23.6862 15.4755 23.863 15.4756 24.1025C15.4756 24.3423 15.4006 24.5226 15.251 24.6426C15.101 24.7566 14.8901 24.8145 14.6201 24.8145H13.8018V23.3916H14.6201ZM21.667 15H30.833L21.667 5.83301V15Z"/>
</svg>
