<svg width="40" height="40" viewBox="0 0 40 40" fill="none" xmlns="http://www.w3.org/2000/svg">
<path d="M33.333 13.333V33.333C33.333 35.1663 31.8333 36.667 30 36.667H9.9834C8.15007 36.667 6.66699 35.1663 6.66699 33.333L6.68359 6.66699C6.68359 4.83366 8.16667 3.33301 10 3.33301H23.333L33.333 13.333ZM20.0068 26.0332C19.6135 25.8065 19.1595 25.667 18.6729 25.667C17.1932 25.6673 16.0002 26.86 16 28.333C16 29.8062 17.1931 30.9997 18.6729 31C20.1529 31 21.333 29.8063 21.333 28.333V21.667H24V19H20L20.0068 26.0332ZM18.6729 27C19.4061 27 20.0067 27.5998 20.0068 28.333C20.0068 29.0663 19.4062 29.667 18.6729 29.667C17.9397 29.6667 17.3398 29.0662 17.3398 28.333C17.34 27.6 17.9398 27.0003 18.6729 27ZM21.667 15H30.833L21.667 5.83301V15Z"/>
</svg>
