<svg width="40" height="40" viewBox="0 0 40 40" fill="none" xmlns="http://www.w3.org/2000/svg">
<path d="M33.333 13.333V33.333C33.333 35.1663 31.8333 36.667 30 36.667H9.9834C8.15007 36.667 6.66699 35.1663 6.66699 33.333L6.68359 6.66699C6.68359 4.83366 8.16667 3.33301 10 3.33301H23.333L33.333 13.333ZM14.667 19.667C13.9337 19.667 13.3399 20.2667 13.3398 21L13.333 29C13.333 29.7333 13.9337 30.333 14.667 30.333H25.333C26.0663 30.333 26.667 29.7333 26.667 29V19.667H24L25.333 22.333H23.333L22 19.667H20.667L22 22.333H20L18.667 19.667H17.333L18.667 22.333H16.667L15.333 19.667H14.667ZM15.8398 23.667H25.333V29H14.667V21.3135L15.8398 23.667ZM21.667 15H30.833L21.667 5.83301V15Z"/>
</svg>
