<?xml version="1.0" encoding="UTF-8" standalone="no"?>
<svg
   xmlns:dc="http://purl.org/dc/elements/1.1/"
   xmlns:cc="http://creativecommons.org/ns#"
   xmlns:rdf="http://www.w3.org/1999/02/22-rdf-syntax-ns#"
   xmlns:svg="http://www.w3.org/2000/svg"
   xmlns="http://www.w3.org/2000/svg"
   xmlns:sodipodi="http://sodipodi.sourceforge.net/DTD/sodipodi-0.dtd"
   xmlns:inkscape="http://www.inkscape.org/namespaces/inkscape"
   width="40"
   height="40"
   viewBox="0 0 40 40"
   id="svg4536"
   version="1.1"
   sodipodi:docname="docs_resources_catalogue.svg"
   inkscape:version="0.92.3 (2405546, 2018-03-11)">
  <metadata
     id="metadata15">
    <rdf:RDF>
      <cc:Work
         rdf:about="">
        <dc:format>image/svg+xml</dc:format>
        <dc:type
           rdf:resource="http://purl.org/dc/dcmitype/StillImage" />
        <dc:title></dc:title>
      </cc:Work>
    </rdf:RDF>
  </metadata>
  <defs
     id="defs13" />
  <sodipodi:namedview
     pagecolor="#ffffff"
     bordercolor="#666666"
     borderopacity="1"
     objecttolerance="10"
     gridtolerance="10"
     guidetolerance="10"
     inkscape:pageopacity="0"
     inkscape:pageshadow="2"
     inkscape:window-width="734"
     inkscape:window-height="480"
     id="namedview11"
     showgrid="false"
     inkscape:pagecheckerboard="true"
     inkscape:zoom="5.9"
     inkscape:cx="-5.0847458"
     inkscape:cy="20"
     inkscape:window-x="0"
     inkscape:window-y="0"
     inkscape:window-maximized="0"
     inkscape:current-layer="svg4536" />
  <g
     id="layer1"
     transform="translate(0 -257)">
    <g
       id="g5212"
       fill="#777">
      <g
         id="g5188">
        <path
           d="m 0,292 c 8.4893949,-0.51608 14.698522,2.79374 17.764343,5 -3.183345,-3.62158 -9.9912374,-6.79322 -15.7748167,-8.22195 V 262.08231 H 0 Z"
           id="path5081"
           strokeWidth="0.265" />
        <path
           d="m 3.7728964,259.191 -0.094494,28.1004 c 4.6853455,0.50405 9.0180626,2.72955 13.7313596,7.46255 -0.922345,-2.03811 -4.722421,-9.67863 -8.6290243,-10.72167 V 261.632 c -1.3557663,-0.75268 -3.1008003,-2.29338 -5.0078413,-2.441 z"
           id="path5085"
           strokeWidth="0.265" />
        <path
           d="m 10.700452,282.29683 c 4.562749,3.39694 5.792875,7.02436 7.615925,11.6191 V 267.6 c -1.357953,-2.60204 -3.632772,-8.05895 -7.615925,-10.6 z"
           id="path5087"
           strokeWidth="0.265" />
        <path
           d="M 19.811012,295.57 C 25.724283,293.55389 34.696855,292.30625 40,294.3 v -26.662 c -4.398148,-2.62419 -14.308693,-0.81973 -20.188988,0.5 z"
           id="path5087-8"
           strokeWidth="0.265" />
      </g>
      <path
         d="M 19.841055,297 C 24.8178,296.0749 38.243252,295.56752 40,297 v -1.40433 C 37.210224,293.60805 25.433688,294.24889 19.841055,297 Z"
         id="path5087-8-7"
         strokeWidth="0.06" />
    </g>
  </g>
</svg>
