<?xml version="1.0" encoding="UTF-8" standalone="no"?>
<!-- Created with Inkscape (http://www.inkscape.org/) -->

<svg
   xmlns:dc="http://purl.org/dc/elements/1.1/"
   xmlns:cc="http://creativecommons.org/ns#"
   xmlns:rdf="http://www.w3.org/1999/02/22-rdf-syntax-ns#"
   xmlns:svg="http://www.w3.org/2000/svg"
   xmlns="http://www.w3.org/2000/svg"
   xmlns:sodipodi="http://sodipodi.sourceforge.net/DTD/sodipodi-0.dtd"
   xmlns:inkscape="http://www.inkscape.org/namespaces/inkscape"
   width="166.6875mm"
   height="166.6875mm"
   viewBox="0 0 166.6875 166.6875"
   version="1.1"
   id="svg8"
   inkscape:version="0.92.3 (2405546, 2018-03-11)"
   sodipodi:docname="rocket-chat.svg">
  <defs
     id="defs2" />
  <sodipodi:namedview
     id="base"
     pagecolor="#ffffff"
     bordercolor="#666666"
     borderopacity="1.0"
     inkscape:pageopacity="0.0"
     inkscape:pageshadow="2"
     inkscape:zoom="1.4"
     inkscape:cx="406.2209"
     inkscape:cy="248.9974"
     inkscape:document-units="mm"
     inkscape:current-layer="layer2"
     showgrid="false"
     fit-margin-top="0"
     fit-margin-left="0"
     fit-margin-right="0"
     fit-margin-bottom="0"
     inkscape:window-width="1680"
     inkscape:window-height="988"
     inkscape:window-x="1672"
     inkscape:window-y="-8"
     inkscape:window-maximized="1"
     inkscape:pagecheckerboard="true" />
  <metadata
     id="metadata5">
    <rdf:RDF>
      <cc:Work
         rdf:about="">
        <dc:format>image/svg+xml</dc:format>
        <dc:type
           rdf:resource="http://purl.org/dc/dcmitype/StillImage" />
        <dc:title></dc:title>
      </cc:Work>
    </rdf:RDF>
  </metadata>
  <g
     inkscape:groupmode="layer"
     id="layer2"
     inkscape:label="svg"
     style="display:inline;opacity:1">
    <g
       id="g828">
      <g
         clip-path="none"
         id="g857">
        <g
           id="g855"
           inkscape:label="Clip">
          <path
             style="fill:#b61a1f;fill-opacity:1;stroke:none;stroke-width:0.26458332px;stroke-linecap:butt;stroke-linejoin:miter;stroke-opacity:1"
             d="M 0.18898809,147.03274 C 14.505735,133.97463 18.070339,124.8259 17.575893,116.03869 -0.87790345,99.452993 -2.0829295,67.235187 17.764881,51.40476 18.412175,37.801192 10.550638,28.065275 0.18898809,19.465773 30.809238,5.2349322 50.997699,19.610632 63.688988,29.293156 108.3927,23.113891 142.13043,41.944365 151.28497,53.48363 c 16.24522,17.720409 17.24939,42.031058 -2.55134,62.74405 -20.04181,15.8325 -44.74747,26.77906 -85.800596,20.5997 -9.485646,11.07604 -36.071758,23.75184 -62.74404591,10.20536 z"
             id="path827"
             inkscape:connector-curvature="0"
             sodipodi:nodetypes="ccccccccc" />
          <path
             style="fill:#fbffff;fill-opacity:1;stroke:none;stroke-width:0.26458332px;stroke-linecap:butt;stroke-linejoin:miter;stroke-opacity:1"
             d="m 18.898809,142.30803 c 6.535963,-8.13864 12.29804,-15.61927 11.150298,-30.99404 -40.533103,-36.88054 8.963822,-64.052685 21.922618,-67.468751 17.450192,-5.436466 37.382322,-7.743532 66.334825,1.322916 64.34801,29.935243 22.01988,70.018625 0.94494,75.784225 -24.173948,9.0935 -48.230889,7.0105 -59.90923,3.59077 -17.871453,20.38361 -31.868494,18.51818 -40.443451,17.76488 z"
             id="path829"
             inkscape:connector-curvature="0"
             sodipodi:nodetypes="ccccccc" />
        </g>
      </g>
      <path
         style="fill:#989794;fill-opacity:1;stroke:#989794;stroke-width:0.26458332px;stroke-linecap:butt;stroke-linejoin:miter;stroke-opacity:1"
         d="m 18.898809,142.30803 5.390909,-7.30371 c 14.462433,2.42899 31.165175,-12.71474 34.674567,-15.75283 14.993347,1.74508 72.912085,8.03697 92.131695,-27.875746 -0.28591,3.94938 -11.45211,23.739246 -31.84449,29.576636 -13.39982,5.27043 -36.135651,10.1288 -59.90923,3.59077 -17.871453,20.38361 -31.868494,18.51818 -40.443451,17.76488 z"
         id="path831"
         inkscape:connector-curvature="0"
         sodipodi:nodetypes="ccccccc" />
      <ellipse
         ry="9.4880686"
         rx="8.9535294"
         cy="84.502113"
         cx="51.449383"
         id="path833"
         style="opacity:1;fill:#b71a1e;fill-opacity:1;stroke:none;stroke-width:1.46499991;stroke-miterlimit:4;stroke-dasharray:none;stroke-opacity:1" />
      <ellipse
         style="opacity:1;fill:#b71a1e;fill-opacity:1;stroke:none;stroke-width:1.46499991;stroke-miterlimit:4;stroke-dasharray:none;stroke-opacity:1"
         id="ellipse835"
         cx="83.521729"
         cy="84.502113"
         rx="8.9535294"
         ry="9.4880686" />
      <ellipse
         ry="9.4880686"
         rx="8.9535294"
         cy="84.502113"
         cx="115.05953"
         id="ellipse837"
         style="opacity:1;fill:#b71a1e;fill-opacity:1;stroke:none;stroke-width:1.46499991;stroke-miterlimit:4;stroke-dasharray:none;stroke-opacity:1" />
    </g>
  </g>
</svg>
