<?xml version="1.0" encoding="UTF-8" standalone="no"?>
<!-- Created with Inkscape (http://www.inkscape.org/) -->

<svg
   xmlns:dc="http://purl.org/dc/elements/1.1/"
   xmlns:cc="http://creativecommons.org/ns#"
   xmlns:rdf="http://www.w3.org/1999/02/22-rdf-syntax-ns#"
   xmlns:svg="http://www.w3.org/2000/svg"
   xmlns="http://www.w3.org/2000/svg"
   xmlns:xlink="http://www.w3.org/1999/xlink"
   xmlns:sodipodi="http://sodipodi.sourceforge.net/DTD/sodipodi-0.dtd"
   xmlns:inkscape="http://www.inkscape.org/namespaces/inkscape"
   width="45.350765"
   height="64.254562"
   viewBox="0 0 11.999057 17.000686"
   version="1.1"
   id="svg6100"
   inkscape:version="0.92.3 (2405546, 2018-03-11)"
   sodipodi:docname="work-in-progress.svg">
  <defs
     id="defs6094">
    <linearGradient
       inkscape:collect="always"
       id="linearGradient6766">
      <stop
         style="stop-color:#ff2a2a;stop-opacity:1;"
         offset="0"
         id="stop6762" />
      <stop
         style="stop-color:#ff2a2a;stop-opacity:0;"
         offset="1"
         id="stop6764" />
    </linearGradient>
    <inkscape:path-effect
       effect="powerstroke"
       id="path-effect6746"
       is_visible="true"
       offset_points="0.029237283,0.57800898"
       sort_points="true"
       interpolator_type="CubicBezierJohan"
       interpolator_beta="0.2"
       start_linecap_type="zerowidth"
       linejoin_type="extrp_arc"
       miter_limit="4"
       end_linecap_type="zerowidth" />
    <inkscape:path-effect
       effect="powerstroke"
       id="path-effect6742"
       is_visible="true"
       offset_points="0.0095697131,0.29078275"
       sort_points="true"
       interpolator_type="CubicBezierJohan"
       interpolator_beta="0.2"
       start_linecap_type="zerowidth"
       linejoin_type="extrp_arc"
       miter_limit="4"
       end_linecap_type="zerowidth" />
    <linearGradient
       inkscape:collect="always"
       id="linearGradient6728">
      <stop
         style="stop-color:#cccccc;stop-opacity:1;"
         offset="0"
         id="stop6724" />
      <stop
         style="stop-color:#cccccc;stop-opacity:0;"
         offset="1"
         id="stop6726" />
    </linearGradient>
    <linearGradient
       inkscape:collect="always"
       id="linearGradient6712">
      <stop
         style="stop-color:#cccccc;stop-opacity:1"
         offset="0"
         id="stop6708" />
      <stop
         style="stop-color:#ffffff;stop-opacity:1"
         offset="1"
         id="stop6710" />
    </linearGradient>
    <linearGradient
       inkscape:collect="always"
       xlink:href="#linearGradient6712"
       id="linearGradient6714"
       x1="58.288692"
       y1="101.76175"
       x2="104.25281"
       y2="104.78556"
       gradientUnits="userSpaceOnUse" />
    <linearGradient
       inkscape:collect="always"
       xlink:href="#linearGradient6712"
       id="linearGradient6722"
       x1="72.20829"
       y1="42.941936"
       x2="105.01247"
       y2="59.194916"
       gradientUnits="userSpaceOnUse" />
    <linearGradient
       inkscape:collect="always"
       xlink:href="#linearGradient6728"
       id="linearGradient6730"
       x1="106.78873"
       y1="51.350273"
       x2="99.791527"
       y2="52.152084"
       gradientUnits="userSpaceOnUse" />
    <linearGradient
       inkscape:collect="always"
       xlink:href="#linearGradient6712"
       id="linearGradient6738"
       x1="113.75478"
       y1="96.090347"
       x2="102.36423"
       y2="97.02578"
       gradientUnits="userSpaceOnUse" />
    <linearGradient
       inkscape:collect="always"
       xlink:href="#linearGradient6766"
       id="linearGradient6768"
       x1="107.62872"
       y1="136.54504"
       x2="118.30655"
       y2="126.76492"
       gradientUnits="userSpaceOnUse" />
    <linearGradient
       inkscape:collect="always"
       xlink:href="#linearGradient6766"
       id="linearGradient6776"
       x1="87.149422"
       y1="150.71292"
       x2="57.445709"
       y2="137.21581"
       gradientUnits="userSpaceOnUse" />
    <linearGradient
       gradientTransform="translate(-37.553161,28.161369)"
       inkscape:collect="always"
       xlink:href="#linearGradient6766"
       id="linearGradient6768-2"
       x1="107.62872"
       y1="136.54504"
       x2="118.30655"
       y2="126.76492"
       gradientUnits="userSpaceOnUse" />
    <inkscape:path-effect
       effect="powerstroke"
       id="path-effect6742-5"
       is_visible="true"
       offset_points="0.0095697131,0.29078274"
       sort_points="true"
       interpolator_type="CubicBezierJohan"
       interpolator_beta="0.2"
       start_linecap_type="zerowidth"
       linejoin_type="extrp_arc"
       miter_limit="4"
       end_linecap_type="zerowidth" />
  </defs>
  <sodipodi:namedview
     id="base"
     pagecolor="#ffffff"
     bordercolor="#666666"
     borderopacity="1.0"
     inkscape:pageopacity="0.0"
     inkscape:pageshadow="2"
     inkscape:zoom="5.6"
     inkscape:cx="73.202079"
     inkscape:cy="29.35078"
     inkscape:document-units="mm"
     inkscape:current-layer="layer3"
     showgrid="false"
     fit-margin-top="0"
     fit-margin-left="0"
     fit-margin-right="0"
     fit-margin-bottom="0"
     inkscape:window-width="1680"
     inkscape:window-height="988"
     inkscape:window-x="-8"
     inkscape:window-y="-8"
     inkscape:window-maximized="1"
     inkscape:snap-global="false"
     inkscape:pagecheckerboard="true"
     units="px" />
  <metadata
     id="metadata6097">
    <rdf:RDF>
      <cc:Work
         rdf:about="">
        <dc:format>image/svg+xml</dc:format>
        <dc:type
           rdf:resource="http://purl.org/dc/dcmitype/StillImage" />
        <dc:title></dc:title>
      </cc:Work>
    </rdf:RDF>
  </metadata>
  <g
     inkscape:groupmode="layer"
     id="layer3"
     inkscape:label="svg"
     style="display:inline;opacity:1"
     transform="translate(-13.517918,-156.73081)">
    <g
       id="g6818"
       transform="matrix(0.10514808,0,0,0.09924615,10.398768,156.45673)">
      <path
         transform="translate(-16.12698,-43.251977)"
         style="fill:#d40000;fill-opacity:1;stroke:none;stroke-width:0.26458332px;stroke-linecap:butt;stroke-linejoin:miter;stroke-opacity:1"
         d="M 74.926274,139.86091 93.902411,52.330146 c 5.705784,-10.202085 19.680759,-6.030667 20.847019,0 l 14.43256,86.394864 29.17824,30.10223 c 1.57795,2.36562 2.15753,9.74517 0.0324,11.87334 -19.99061,11.14795 -39.93818,22.55411 -59.679386,35.19851 -4.917118,1.78614 -9.57719,2.04859 -14.243567,-1.43083 -12.820018,-20.74881 -24.903611,-34.34819 -38.14126,-51.48853 -1.576916,-6.50994 1.860743,-10.04171 3.274051,-10.62396 z"
         id="path6662"
         inkscape:connector-curvature="0"
         sodipodi:nodetypes="ccccccccccc" />
      <path
         sodipodi:nodetypes="cssccsscc"
         inkscape:connector-curvature="0"
         id="path6660"
         d="m 62.674703,79.236421 c 4.942545,13.213196 25.129669,18.581939 36.641503,13.333611 1.249144,-0.569495 2.437314,-1.257325 3.547344,-2.064857 3.58481,-2.607908 6.05397,-6.163574 7.51876,-11.40239 l 4.07586,25.323785 c -0.92431,6.54646 -4.57282,11.47349 -9.60061,14.79853 -1.54559,1.02215 -3.22153,1.89291 -4.988733,2.61279 -18.152592,7.39451 -45.935432,-1.13115 -41.002714,-25.028498 z"
         style="fill:url(#linearGradient6714);fill-opacity:1;stroke:none;stroke-width:0.26458332px;stroke-linecap:butt;stroke-linejoin:miter;stroke-opacity:1" />
      <path
         sodipodi:nodetypes="cssccssscc"
         inkscape:connector-curvature="0"
         id="path6664"
         d="m 72.597086,32.931975 c 2.980172,8.527018 17.380217,10.945465 25.533932,4.738277 0.26453,-0.20138 0.522486,-0.411838 0.773264,-0.631461 1.457528,-1.276454 2.672588,-2.862492 3.526758,-4.774989 l 5.22727,30.850059 c -0.31162,3.29427 -2.61891,6.355928 -6.14603,8.659232 -0.7865,0.513606 -1.633653,0.989505 -2.532858,1.421867 -3.214353,1.545546 -7.093825,2.534769 -11.245485,2.701404 -10.094264,0.405153 -20.799929,-4.23931 -21.195289,-15.094826 z"
         style="fill:url(#linearGradient6722);fill-opacity:1;stroke:none;stroke-width:0.26458332px;stroke-linecap:butt;stroke-linejoin:miter;stroke-opacity:1" />
      <path
         sodipodi:nodetypes="sssss"
         inkscape:connector-curvature="0"
         id="path6668"
         d="m 88.198943,2.8641532 c -6.502096,0.067442 -10.504613,4.7527208 -10.443082,6.23764 0.07623,1.8396978 4.48303,7.3331218 10.443082,7.3931058 4.929332,0.04961 9.134893,-3.667016 10.317555,-7.6212345 C 98.93079,7.4884831 94.027612,2.8036958 88.198943,2.8641532 Z"
         style="fill:#ff5555;stroke:none;stroke-width:0.26458332px;stroke-linecap:butt;stroke-linejoin:miter;stroke-opacity:1" />
      <path
         sodipodi:nodetypes="ccccc"
         inkscape:connector-curvature="0"
         id="path6674"
         d="m 102.86355,90.505175 c 2.19342,-1.924316 5.40982,-3.975196 7.51876,-11.40239 l 4.07586,25.323785 c -1.60388,10.05043 -7.91067,14.001 -9.60061,14.79853 z"
         style="fill:url(#linearGradient6738);fill-opacity:1;stroke:none;stroke-width:0.26458332px;stroke-linecap:butt;stroke-linejoin:miter;stroke-opacity:1" />
      <path
         sodipodi:nodetypes="ccccc"
         inkscape:connector-curvature="0"
         id="path6672"
         d="m 98.904282,37.038791 c 1.204688,-1.339414 2.447738,-2.346461 3.526758,-4.774989 l 5.24493,31.015717 c -0.60971,4.131562 -3.04659,6.618668 -6.16369,8.493574 z"
         style="fill:url(#linearGradient6730);fill-opacity:1;stroke:none;stroke-width:0.26458332px;stroke-linecap:butt;stroke-linejoin:miter;stroke-opacity:1" />
      <path
         style="fill:#f11213;fill-opacity:1;stroke:none;stroke-width:0.20336682px;stroke-linecap:butt;stroke-linejoin:miter;stroke-opacity:1"
         d="m 88.24985,4.1396366 c -5.190152,0.049916 -7.937382,3.5806328 -8.335957,4.6166693 -0.618,1.6064001 3.580388,5.6044851 8.335957,5.4718651 4.953004,-0.138127 8.352126,-2.708075 8.235758,-5.6407101 -0.06625,-1.669598 -3.583153,-4.4925707 -8.235758,-4.4478243 z"
         id="path6670"
         inkscape:connector-curvature="0"
         sodipodi:nodetypes="sssss" />
      <path
         sodipodi:nodetypes="ccccc"
         inkscape:connector-curvature="0"
         id="path6680"
         d="m 99.868827,121.83789 c 1.788683,-0.61938 3.467133,-1.45924 4.988733,-2.61279 l -1.99401,-28.719927 c -1.21057,0.828906 -2.42349,1.669557 -3.547344,2.064859 z"
         style="fill:#ffffff;fill-opacity:1;stroke:none;stroke-width:0.26458332px;stroke-linecap:butt;stroke-linejoin:miter;stroke-opacity:1" />
      <path
         sodipodi:nodetypes="ccccc"
         inkscape:connector-curvature="0"
         id="path6682"
         d="m 98.904281,37.03879 2.607999,34.734301 c -0.76504,0.553199 -1.643944,0.992541 -2.532858,1.421869 L 98.131018,37.670252 Z"
         style="fill:#ffffff;stroke:none;stroke-width:0.26458332px;stroke-linecap:butt;stroke-linejoin:miter;stroke-opacity:1" />
      <path
         sodipodi:nodetypes="cc"
         inkscape:original-d="m 110.74702,138.40229 c 8.26231,-6.02416 6.56936,-13.9417 7.55953,-20.50521"
         inkscape:path-effect="#path-effect6742"
         inkscape:connector-curvature="0"
         id="path6740"
         d="m 110.74702,138.40229 c 0.0474,-0.0346 0.36204,0.0944 0.40905,0.0591 1.43695,-1.07868 3.07049,-2.61834 4.3205,-4.75989 0.96776,-1.658 1.5625,-3.42103 1.92138,-5.3198 0.34816,-1.84207 0.45306,-3.71286 0.52967,-5.35522 0.11602,-2.48717 0.16593,-3.71748 0.37893,-5.12939 -0.16903,1.12044 -0.32485,2.93979 -0.4951,5.12215 -0.12819,1.64316 -0.29609,3.49341 -0.70172,5.30297 -0.41731,1.86159 -1.05624,3.55748 -2.03707,5.13612 -1.26684,2.03896 -2.86632,3.48746 -4.26573,4.53795 -0.0457,0.0343 -0.0125,0.37143 -0.0599,0.40602 z"
         style="fill:url(#linearGradient6768);fill-opacity:1;fill-rule:nonzero;stroke:none;stroke-width:0.26458332px;stroke-linecap:butt;stroke-linejoin:miter;stroke-opacity:1" />
      <path
         sodipodi:nodetypes="cc"
         inkscape:original-d="m 85.375373,146.43428 c -5.22267,-0.26798 -22.564929,-4.27506 -26.088802,-8.76143"
         inkscape:path-effect="#path-effect6746"
         inkscape:connector-curvature="0"
         id="path6744"
         d="m 85.375373,146.43428 c -0.09162,-0.005 -0.340765,-0.60086 -0.441353,-0.60909 -0.442739,-0.0363 -1.076061,-0.0936 -1.95468,-0.20475 -0.873566,-0.11049 -1.972667,-0.27215 -3.294224,-0.50635 -2.254376,-0.39952 -5.034178,-0.99005 -7.906608,-1.76634 -2.857966,-0.77238 -5.487502,-1.64277 -7.613732,-2.5591 -1.201696,-0.51789 -2.170391,-1.01907 -2.936422,-1.49766 -1.008884,-0.63032 -1.595755,-1.1776 -1.941783,-1.61814 0.346098,0.44063 0.908516,1.00901 1.895275,1.68897 0.749199,0.51627 1.697682,1.06556 2.883661,1.64319 2.10043,1.023 4.698685,2.01376 7.543832,2.91816 2.846895,0.90495 5.636749,1.62693 7.888003,2.12904 1.321744,0.29479 2.436519,0.50946 3.32217,0.65712 0.892899,0.14887 1.551276,0.22963 2.02017,0.26802 0.106734,0.009 0.444073,-0.54777 0.535691,-0.54307 z"
         style="fill:url(#linearGradient6776);fill-opacity:1;fill-rule:nonzero;stroke:none;stroke-width:0.26458332px;stroke-linecap:butt;stroke-linejoin:miter;stroke-opacity:1" />
      <path
         sodipodi:nodetypes="cc"
         inkscape:original-d="m 73.127045,168.93568 c 1.945565,1.27258 2.762239,1.42204 6.056139,-0.22614"
         inkscape:path-effect="#path-effect6742-5"
         inkscape:connector-curvature="0"
         id="path6740-2"
         d="m 73.127045,168.93568 c 0.01117,0.007 -0.114137,0.27274 -0.102946,0.28002 0.312869,0.2034 0.813351,0.49567 1.316192,0.67091 0.41539,0.14477 0.83703,0.21592 1.310839,0.17842 0.46789,-0.037 0.952455,-0.17706 1.488845,-0.39089 0.689555,-0.27489 1.479604,-0.68259 2.043209,-0.9646 -0.571035,0.28573 -1.369307,0.64359 -2.081373,0.85463 -0.551445,0.16345 -1.024505,0.2339 -1.453963,0.20659 -0.424335,-0.027 -0.780988,-0.14791 -1.126345,-0.31939 -0.415883,-0.2065 -0.88022,-0.52809 -1.180415,-0.72326 -0.01091,-0.007 -0.202872,0.21488 -0.214043,0.20757 z"
         style="display:inline;opacity:1;fill:url(#linearGradient6768-2);fill-opacity:1;fill-rule:nonzero;stroke:none;stroke-width:0.26458332px;stroke-linecap:butt;stroke-linejoin:miter;stroke-opacity:1" />
      <path
         sodipodi:nodetypes="ccccccccccc"
         inkscape:connector-curvature="0"
         id="path6656"
         d="M 74.926274,139.86091 93.902411,52.330146 c 5.705784,-10.202085 19.680759,-6.030667 20.847019,0 l 14.43256,86.394864 29.17824,30.10223 c 1.57795,2.36562 2.15753,9.74517 0.0324,11.87334 -19.99061,11.14795 -39.93818,22.55411 -59.679386,35.19851 -4.917118,1.78614 -9.57719,2.04859 -14.243567,-1.43083 -12.820018,-20.74881 -24.903611,-34.34819 -38.14126,-51.48853 -1.576916,-6.50994 1.860743,-10.04171 3.274051,-10.62396 z"
         style="fill:none;fill-opacity:1;stroke:#000000;stroke-width:0.26458332px;stroke-linecap:butt;stroke-linejoin:miter;stroke-opacity:1"
         transform="translate(-16.12698,-43.251977)" />
    </g>
  </g>
</svg>
