<?xml version="1.0" standalone="no"?>
<!DOCTYPE svg PUBLIC "-//W3C//DTD SVG 20010904//EN"
 "http://www.w3.org/TR/2001/REC-SVG-20010904/DTD/svg10.dtd">
<svg version="1.0" xmlns="http://www.w3.org/2000/svg"
 width="648.000000pt" height="648.000000pt" viewBox="0 0 648.000000 648.000000"
 preserveAspectRatio="xMidYMid meet">
<metadata>
Created by potrace 1.14, written by Peter Selinger 2001-2017
</metadata>
<g transform="translate(0.000000,648.000000) scale(0.100000,-0.100000)"
fill="#000000" stroke="none">
<path d="M1626 4711 l-468 -470 329 -328 c233 -233 343 -336 379 -356 156 -82
356 -75 496 19 29 19 194 177 366 351 l313 315 -467 469 c-258 258 -471 469
-474 469 -3 0 -216 -211 -474 -469z"/>
<path d="M3858 4711 l-467 -469 327 -329 c236 -237 341 -336 378 -356 156 -82
348 -75 494 17 33 21 183 164 369 352 l314 316 -469 469 c-258 258 -471 469
-474 469 -3 0 -216 -211 -472 -469z"/>
<path d="M515 3590 l-470 -470 45 -46 c25 -26 171 -174 325 -329 259 -260 286
-285 355 -318 143 -70 286 -70 427 -1 61 29 97 59 238 199 91 90 165 169 165
174 0 6 4 11 9 11 17 0 131 122 124 133 -3 6 -1 7 5 3 9 -6 52 25 52 38 0 2
30 33 68 70 l67 65 -470 471 -470 470 -470 -470z"/>
<path d="M2745 3590 l-469 -470 149 -152 c476 -483 498 -504 576 -541 146 -70
285 -70 428 -1 68 34 99 62 401 364 l327 328 -471 471 -471 471 -470 -470z"/>
<path d="M4986 3591 l-470 -470 20 -22 c10 -13 156 -161 324 -329 284 -286
310 -310 380 -344 144 -69 286 -69 430 0 70 34 95 57 398 362 177 179 322 328
322 331 0 3 -210 216 -468 474 l-467 467 -469 -469z"/>
<path d="M1626 2470 l-468 -469 328 -328 c233 -233 344 -336 380 -355 158 -84
356 -76 500 22 33 21 198 179 368 350 l310 310 -469 470 c-258 259 -472 470
-475 470 -3 0 -216 -211 -474 -470z"/>
<path d="M3866 2470 l-470 -469 310 -312 c181 -183 333 -327 368 -350 161
-106 374 -106 532 0 33 22 197 179 367 351 l308 312 -468 469 c-257 258 -470
469 -473 469 -3 0 -216 -211 -474 -470z"/>
</g>
</svg>
