<svg width="24" height="24" viewBox="0 0 24 24" fill="none" xmlns="http://www.w3.org/2000/svg">
<path d="M11.7666 2C6.38144 2 2 6.38144 2 11.7666C2 17.1517 6.38144 21.5331 11.7666 21.5331C17.1517 21.5331 21.5331 17.1517 21.5331 11.7666C21.5331 6.38144 17.1522 2 11.7666 2ZM11.7666 19.9256C7.268 19.9256 3.608 16.2656 3.608 11.767C3.608 7.26848 7.268 3.608 11.7666 3.608C16.2651 3.608 19.9251 7.268 19.9251 11.7666C19.9251 16.2651 16.2656 19.9256 11.7666 19.9256Z"/>
<path fill-rule="evenodd" clip-rule="evenodd" d="M11.9844 11.2217C11.9896 11.2217 11.9948 11.2218 12 11.2218C12.0052 11.2218 12.0105 11.2217 12.0157 11.2217C13.5992 11.2317 14.9958 12.7503 14.9958 14.4685C14.9958 15.4894 14.4603 16.4794 12 16.4794C9.53975 16.4794 9.00418 15.4894 9.00418 14.4685C9.00418 12.7503 10.4008 11.2317 11.9844 11.2217ZM10.3313 10.6172C9.75599 10.1378 9.38916 9.41628 9.38916 8.61088C9.38916 7.17155 10.5607 6 12 6C13.4394 6 14.6109 7.17155 14.6109 8.61088C14.6109 9.41629 14.2441 10.1379 13.6687 10.6172C15.0336 11.3016 16 12.7875 16 14.4685C16 16.7112 13.8745 17.4836 12 17.4836C10.1255 17.4836 8 16.7112 8 14.4685C8 12.7875 8.96638 11.3015 10.3313 10.6172ZM12.0148 10.2175C12.0098 10.2175 12.0049 10.2175 12 10.2175C11.9951 10.2175 11.9902 10.2175 11.9853 10.2175C11.105 10.2096 10.3933 9.49299 10.3933 8.61088C10.3933 7.72385 11.113 7.00418 12 7.00418C12.8871 7.00418 13.6067 7.72385 13.6067 8.61088C13.6067 9.493 12.895 10.2096 12.0148 10.2175Z"/>
<path fill-rule="evenodd" clip-rule="evenodd" d="M12 6.19999C10.6711 6.19999 9.58914 7.28199 9.58914 8.61087C9.58914 9.35419 9.92747 10.0204 10.4593 10.4635L10.694 10.6591L10.4209 10.796C9.12354 11.4465 8.19999 12.8633 8.19999 14.4685C8.19999 15.5134 8.68911 16.206 9.40224 16.6469C10.1258 17.0943 11.0852 17.2836 12 17.2836C12.9147 17.2836 13.8742 17.0943 14.5977 16.6469C15.3109 16.206 15.8 15.5134 15.8 14.4685C15.8 12.8633 14.8765 11.4465 13.5791 10.796L13.306 10.6591L13.5407 10.4636C14.0726 10.0204 14.4109 9.3542 14.4109 8.61087C14.4109 7.28199 13.3289 6.19999 12 6.19999ZM9.18914 8.61087C9.18914 7.06108 10.4502 5.79999 12 5.79999C13.5498 5.79999 14.8109 7.06108 14.8109 8.61087C14.8109 9.37465 14.5044 10.0682 14.0088 10.575C15.307 11.3419 16.2 12.816 16.2 14.4685C16.2 15.6663 15.6263 16.4812 14.8081 16.9872C14.0003 17.4866 12.9597 17.6836 12 17.6836C11.0403 17.6836 9.99968 17.4866 9.19188 16.9872C8.37363 16.4812 7.79999 15.6663 7.79999 14.4685C7.79999 12.816 8.69296 11.3419 9.99119 10.575C9.49559 10.0682 9.18914 9.37463 9.18914 8.61087ZM10.1933 8.61087C10.1933 7.61338 11.0025 6.80417 12 6.80417C12.9975 6.80417 13.8067 7.61338 13.8067 8.61087C13.8067 9.60284 13.0064 10.4086 12.0165 10.4175L12.0139 10.4175V10.4175L12 10.4175L11.9861 10.4175L11.9835 10.4175C10.9936 10.4086 10.1933 9.60283 10.1933 8.61087ZM12 7.20417C11.2234 7.20417 10.5933 7.83429 10.5933 8.61087C10.5933 9.38277 11.2159 10.01 11.986 10.0175L12 10.0175L12.014 10.0175C12.7841 10.01 13.4067 9.38278 13.4067 8.61087C13.4067 7.83429 12.7766 7.20417 12 7.20417ZM11.9855 11.0217V11.0217L12 11.0217L12.0145 11.0217L12.0169 11.0217C13.7249 11.0324 15.1958 12.6554 15.1958 14.4685C15.1958 15.0141 15.0514 15.5831 14.55 16.0092C14.0563 16.4287 13.2509 16.6794 12 16.6794C10.7491 16.6794 9.94369 16.4287 9.44998 16.0092C8.94853 15.5831 8.80417 15.0141 8.80417 14.4685C8.80417 12.6554 10.2751 11.0324 11.9831 11.0217L11.9855 11.0217ZM11.9848 11.4217C10.526 11.4314 9.20417 12.8455 9.20417 14.4685C9.20417 14.9439 9.3276 15.3803 9.70899 15.7044C10.0981 16.0351 10.7907 16.2794 12 16.2794C13.2093 16.2794 13.9018 16.0351 14.291 15.7044C14.6724 15.3803 14.7958 14.9439 14.7958 14.4685C14.7958 12.8455 13.4739 11.4314 12.0152 11.4217L12 11.4217L11.9848 11.4217Z"/>
</svg>
