<svg width="24" height="24" viewBox="0 0 24 24" fill="none" xmlns="http://www.w3.org/2000/svg">
<path d="M9.30572 5.73215V9.25775H5.78012V5.73215H9.30572ZM10.0737 4.00415H5.01212C4.48172 4.00415 4.05212 4.43423 4.05212 4.96415V10.0257C4.05212 10.5561 4.4822 10.9857 5.01212 10.9857H10.0737C10.6041 10.9857 11.0337 10.5557 11.0337 10.0257V4.96415C11.0337 4.43375 10.6036 4.00415 10.0737 4.00415Z"/>
<path d="M18.2203 5.73215V9.25775H14.6943V5.73215H18.2203ZM18.9879 4.00415H13.9267C13.3963 4.00415 12.9667 4.43423 12.9667 4.96415V10.0257C12.9667 10.5561 13.3968 10.9857 13.9267 10.9857H18.9883C19.5187 10.9857 19.9483 10.5557 19.9483 10.0257V4.96415C19.9483 4.43375 19.5183 4.00415 18.9879 4.00415Z"/>
<path d="M9.27454 14.6942V18.2198H5.74846V14.6942H9.27454ZM10.0421 12.9662H4.98094C4.45054 12.9662 4.02094 13.3963 4.02094 13.9262V18.9878C4.02094 19.5182 4.45102 19.9478 4.98094 19.9478H10.0425C10.5729 19.9478 11.0025 19.5178 11.0025 18.9878V13.9262C11.0025 13.3963 10.5725 12.9662 10.0421 12.9662Z"/>
<path d="M18.1887 14.6942V18.2198H14.6631V14.6942H18.1887ZM18.9567 12.9662H13.8951C13.3647 12.9662 12.9351 13.3963 12.9351 13.9262V18.9878C12.9351 19.5182 13.3651 19.9478 13.8951 19.9478H18.9567C19.4871 19.9478 19.9167 19.5178 19.9167 18.9878V13.9262C19.9167 13.3963 19.4871 12.9662 18.9567 12.9662Z"/>
</svg>
