<svg width="24" height="24" viewBox="0 0 24 24" fill="none" xmlns="http://www.w3.org/2000/svg">
<path d="M21.7493 13.7918V12.4848C21.7493 11.5325 21.4637 10.6166 20.9232 9.83616C20.6241 9.40416 20.2584 9.02976 19.8374 8.72256L19.6925 8.61696L19.7885 8.4648C20.1072 7.96032 20.2757 7.37568 20.2757 6.77472C20.2757 5.0208 18.8491 3.59424 17.0952 3.59424C15.8529 3.59424 14.7168 4.32624 14.2008 5.45856L14.1177 5.64048L13.9392 5.55024C13.3315 5.24352 12.6504 5.08128 11.9697 5.08128C11.2833 5.08128 10.5974 5.24592 9.98591 5.55744L9.80927 5.6472L9.72479 5.46768C9.20159 4.35456 8.07119 3.63504 6.84431 3.63504C5.09039 3.63504 3.66383 5.0616 3.66383 6.81552C3.66383 7.41408 3.83135 7.9968 4.14767 8.50032L4.24319 8.65248L4.09775 8.75808C2.89823 9.62736 2.20271 10.9987 2.18927 12.5213V13.8326C2.18927 14.2128 2.49887 14.5224 2.87903 14.5224H6.35999L6.21023 14.8046C5.71439 15.7387 5.45231 16.7938 5.45231 17.856V19.777C5.45231 20.1571 5.76191 20.4667 6.14207 20.4667H17.7965C18.1766 20.4667 18.4862 20.1571 18.4862 19.777V17.856C18.4862 16.777 18.2169 15.708 17.7072 14.7643L17.5541 14.4811H21.059C21.4401 14.4816 21.7493 14.1725 21.7493 13.7918ZM15.3101 6.53472C15.4291 5.64528 16.1961 4.97424 17.0942 4.97424C18.0873 4.97424 18.8947 5.78208 18.8947 6.77472C18.8947 7.76784 18.0869 8.5752 17.0942 8.5752C16.8129 8.5752 16.5326 8.50848 16.284 8.38272L16.2091 8.3448L16.1861 8.26416C16.0224 7.69248 15.7344 7.14528 15.3523 6.6816L15.299 6.6168L15.3101 6.53472ZM11.9693 6.46176C13.6257 6.46176 14.9736 7.8096 14.9736 9.46608C14.9736 11.1226 13.6257 12.4704 11.9693 12.4704C10.3128 12.4704 8.96495 11.1226 8.96495 9.46608C8.96495 7.8096 10.3123 6.46176 11.9693 6.46176ZM6.84383 5.016C7.72079 5.016 8.48543 5.66976 8.62223 6.53664L8.63567 6.6216L8.58095 6.68832C8.19167 7.16256 7.90127 7.7232 7.73999 8.31072L7.71743 8.39376L7.64015 8.43216C7.39295 8.55504 7.12463 8.61744 6.84335 8.61744C5.85023 8.61744 5.04287 7.8096 5.04287 6.81696C5.04287 5.82432 5.85119 5.016 6.84383 5.016ZM3.56879 13.1434V12.5304C3.58079 11.3227 4.22255 10.225 5.24303 9.66336L5.33135 9.61488L5.42159 9.66C5.86079 9.88032 6.35279 9.99696 6.84383 9.99696C7.03295 9.99696 7.22351 9.98016 7.40927 9.94656L7.60415 9.91152L7.63295 10.1078C7.74047 10.8422 8.02367 11.5152 8.47391 12.1085L8.59919 12.2731L8.42591 12.3854C8.10719 12.5923 7.80335 12.8299 7.52351 13.0915L7.46831 13.1434H3.56879ZM17.1062 19.0877H6.83183V17.8565C6.83183 15.9115 7.90559 14.1576 9.63407 13.2797L9.72575 13.2331L9.81551 13.284C10.4702 13.6546 11.2147 13.8504 11.9688 13.8504C12.7229 13.8504 13.4678 13.6546 14.1221 13.284L14.2118 13.2331L14.3035 13.2797C16.032 14.1576 17.1057 15.9115 17.1057 17.8565V19.0877H17.1062ZM20.3697 13.1021H16.427L16.3718 13.0517C16.1045 12.8064 15.815 12.5822 15.5126 12.3859L15.3389 12.2731L15.4641 12.1085C15.923 11.5046 16.2081 10.8182 16.3109 10.069L16.3382 9.8712L16.535 9.90624C16.7189 9.93888 16.9075 9.95568 17.0947 9.95568C17.5848 9.95568 18.0753 9.84 18.5136 9.62064L18.6043 9.57552L18.6926 9.62448C19.727 10.1995 20.3697 11.2954 20.3697 12.4848V13.1021Z"/>
</svg>
