<svg width="24" height="24" viewBox="0 0 24 24" fill="none" xmlns="http://www.w3.org/2000/svg">
<path fill-rule="evenodd" clip-rule="evenodd" d="M14.5866 4.45712C14.2336 4.16485 13.7492 4 13.2432 4H6.875C5.83947 4 5 4.67682 5 5.51172V18.6133C5 19.4482 5.83947 20.125 6.875 20.125H17.125C18.1605 20.125 19 19.4482 19 18.6133V8.726C19 8.33205 18.8093 7.95366 18.4684 7.6714L14.5866 4.45712ZM11.5077 11.4045L11.3806 11.3472C10.9399 11.1485 10.4446 11.0834 9.96303 11.1609C9.48141 11.2384 9.03722 11.4547 8.69174 11.7799C7.76941 12.6479 7.76941 14.0592 8.69174 14.9273C9.61407 15.7954 11.1135 15.7954 12.0359 14.9273C12.3814 14.6021 12.6111 14.184 12.6935 13.7308C12.7758 13.2775 12.7067 12.8113 12.4956 12.3966L12.4347 12.277L13.9894 10.8137L15.1979 11.9512L16.125 11.0787L14.9164 9.94123L15.5207 9.37251L14.5937 8.5L11.5077 11.4045ZM11.1088 14.0548C10.6987 14.4407 10.0289 14.4407 9.61878 14.0548C9.2087 13.6688 9.2087 13.0383 9.61878 12.6524C10.0289 12.2664 10.6987 12.2664 11.1088 12.6524C11.5189 13.0383 11.5189 13.6688 11.1088 14.0548Z"/>
</svg>
