<svg viewBox="0 0 121 120" fill="none" xmlns="http://www.w3.org/2000/svg">
    <g class="focus-color-fill" fill="#2C323F">
        <path d="M26.8744 58.9312V103.2C26.8744 104.58 27.9937 105.7 29.3744 105.7H90.7313C92.1121 105.7 93.2314 104.58 93.2314 103.2V58.9312H88.2313V100.7H62.5529V89.0718H57.5529V100.7H31.8744V58.9312H26.8744Z"/>
    </g>
    <g class="text-color-fill" fill="#FF562C">
        <path d="M21.1517 14.8046C25.2685 13.0238 30.7201 12 36.7221 12C42.7241 12 48.1757 13.0238 52.2925 14.8046C54.3509 15.6949 56.0889 16.7585 57.3942 18.0935C58.6995 19.4284 59.5778 21.13 59.5778 22.9763V41.4191C59.7506 41.4173 59.9239 41.4164 60.0976 41.4164C61.2455 41.4164 62.3731 41.4551 63.4746 41.5305V22.9763C63.4746 21.13 64.3428 19.4284 65.6333 18.0935C66.9238 16.7585 68.6421 15.695 70.677 14.8047C74.747 13.0238 80.1367 12 86.0705 12C92.0043 12 97.394 13.0238 101.464 14.8047C103.499 15.695 105.217 16.7585 106.508 18.0935C107.798 19.4284 108.666 21.13 108.666 22.9763V50.0942C108.666 51.941 107.779 53.6221 106.488 54.9568C105.196 56.2918 103.48 57.3554 101.444 58.2457C97.3721 60.0263 92.0027 61.0705 86.0705 61.0705C84.9228 61.0705 83.7952 61.0314 82.6936 60.9555V79.8601C82.6936 81.7239 81.806 83.4203 80.5147 84.7674C79.2233 86.1145 77.5068 87.1879 75.4709 88.0864C71.3992 89.8833 66.0298 90.9371 60.0976 90.9371C54.1654 90.9371 48.7731 89.8836 44.7042 88.0864C42.6697 87.1878 40.9506 86.1147 39.6604 84.7674C38.3703 83.4202 37.5017 81.7231 37.5017 79.8601V61.0646C37.243 61.0685 36.9831 61.0705 36.7221 61.0705C30.7217 61.0705 25.2674 60.0265 21.1517 58.2457C19.0938 57.3552 17.355 56.2919 16.05 54.9568C14.745 53.6219 13.8665 51.9403 13.8665 50.0942V22.9763C13.8665 21.13 14.7447 19.4284 16.05 18.0935C17.3553 16.7585 19.0933 15.6949 21.1517 14.8046ZM37.5017 57.1898V52.4934C37.5017 52.3362 37.5079 52.18 37.52 52.025C37.2552 52.0291 36.9892 52.0312 36.7221 52.0312C30.7201 52.0312 25.2685 50.9872 21.1517 49.2064C19.9003 48.6651 18.7739 48.0616 17.7846 47.3702V50.0942C17.7846 50.7442 18.0569 51.4252 18.8661 52.2532C19.6754 53.0811 21.0005 53.9492 22.723 54.6945C26.1681 56.1852 31.1851 57.1965 36.7221 57.1965C36.9832 57.1965 37.2431 57.1942 37.5017 57.1898ZM39.1957 48.0896C39.3434 47.9095 39.4986 47.7347 39.6604 47.5658C40.9509 46.2186 42.6692 45.1453 44.7042 44.2468C47.7144 42.9175 51.4466 42.0062 55.587 41.6218C55.6375 41.4285 55.6596 41.2404 55.6596 41.0549V38.3309C54.6703 39.0223 53.5439 39.6258 52.2925 40.1671C48.1757 41.9479 42.7241 42.9919 36.7221 42.9919C30.7201 42.9919 25.2685 41.9479 21.1517 40.1671C19.9003 39.6258 18.7739 39.0223 17.7846 38.3309V41.0549C17.7846 41.7047 18.0566 42.3859 18.8661 43.2139C19.6757 44.0417 20.9999 44.9098 22.723 45.6552C26.1693 47.146 31.1833 48.1572 36.7221 48.1572C37.5599 48.1572 38.3856 48.134 39.1957 48.0896ZM82.6936 57.0672C83.79 57.1517 84.9189 57.1965 86.0705 57.1965C91.5446 57.1965 96.481 56.1855 99.8904 54.6945C101.595 53.9491 102.902 53.0812 103.703 52.2532C104.505 51.425 104.793 50.7435 104.793 50.0942V47.3703C103.815 48.0616 102.701 48.6651 101.464 49.2064C97.394 50.9872 92.0043 52.0312 86.0705 52.0312C84.9129 52.0312 83.776 51.9914 82.6656 51.9143C82.6841 52.1055 82.6936 52.2987 82.6936 52.4934V57.0672ZM80.7846 47.8372C82.4627 48.0439 84.2375 48.1572 86.0705 48.1572C91.5464 48.1572 96.5034 47.146 99.9105 45.6552C101.614 44.9098 102.923 44.0417 103.724 43.2139C104.524 42.3859 104.793 41.7048 104.793 41.0549V38.331C103.815 39.0223 102.701 39.6258 101.464 40.1671C97.394 41.9479 92.0043 42.9919 86.0705 42.9919C80.1367 42.9919 74.747 41.9479 70.677 40.1671C69.4399 39.6258 68.3263 39.0223 67.3482 38.331V41.0549C67.3482 41.3572 67.4064 41.6663 67.5492 41.9937C70.5195 42.4737 73.2122 43.2405 75.4911 44.2468C77.5261 45.1453 79.2444 46.2186 80.5348 47.5658C80.62 47.6547 80.7033 47.7452 80.7846 47.8372ZM50.7212 18.3558C47.2749 16.865 42.2609 15.874 36.7221 15.874C31.1833 15.874 26.1693 16.865 22.723 18.3558C20.9999 19.1011 19.6757 19.9692 18.8661 20.7972C18.0566 21.6251 17.7846 22.3264 17.7846 22.9763C17.7846 23.6262 18.0566 24.3073 18.8661 25.1353C19.6757 25.9631 20.9999 26.8312 22.723 27.5766C26.1693 29.0674 31.1833 30.0786 36.7221 30.0786C42.2609 30.0786 47.2749 29.0674 50.7212 27.5766C52.4443 26.8312 53.7685 25.9631 54.5781 25.1353C55.3876 24.3073 55.6596 23.6262 55.6596 22.9763C55.6596 22.3264 55.3876 21.6251 54.5781 20.7972C53.7685 19.9692 52.4443 19.1011 50.7212 18.3558ZM21.1517 31.1278C19.9003 30.5865 18.7739 29.983 17.7846 29.2916V32.0156C17.7846 32.6654 18.0566 33.3466 18.8661 34.1746C19.6757 35.0024 20.9999 35.8705 22.723 36.6159C26.1693 38.1067 31.1833 39.1179 36.7221 39.1179C42.2609 39.1179 47.2749 38.1067 50.7212 36.6159C52.4443 35.8705 53.7685 35.0024 54.5781 34.1746C55.3876 33.3466 55.6596 32.6654 55.6596 32.0156V29.2916C54.6703 29.983 53.5439 30.5865 52.2925 31.1278C48.1757 32.9086 42.7241 33.9526 36.7221 33.9526C30.7201 33.9526 25.2685 32.9086 21.1517 31.1278ZM99.9105 18.3558C96.5034 16.865 91.5464 15.874 86.0705 15.874C80.5946 15.874 75.6377 16.865 72.2305 18.3558C70.5269 19.1011 69.2178 19.9693 68.4175 20.7972C67.6171 21.6251 67.3482 22.3264 67.3482 22.9763C67.3482 23.6262 67.6171 24.3073 68.4175 25.1353C69.2178 25.9632 70.527 26.8312 72.2305 27.5767C75.6377 29.0674 80.5946 30.0786 86.0705 30.0786C91.5464 30.0786 96.5034 29.0674 99.9105 27.5767C101.614 26.8312 102.923 25.9632 103.724 25.1353C104.524 24.3073 104.793 23.6262 104.793 22.9763C104.793 22.3264 104.524 21.6251 103.724 20.7972C102.923 19.9693 101.614 19.1011 99.9105 18.3558ZM70.677 31.1278C69.4399 30.5865 68.3263 29.983 67.3482 29.2917V32.0156C67.3482 32.6655 67.6171 33.3466 68.4175 34.1746C69.2178 35.0024 70.5269 35.8705 72.2305 36.616C75.6377 38.1067 80.5946 39.1179 86.0705 39.1179C91.5464 39.1179 96.5034 38.1067 99.9105 36.616C101.614 35.8705 102.923 35.0024 103.724 34.1746C104.524 33.3466 104.793 32.6655 104.793 32.0156V29.2917C103.815 29.983 102.701 30.5865 101.464 31.1278C97.394 32.9086 92.0043 33.9526 86.0705 33.9526C80.1367 33.9526 74.747 32.9086 70.677 31.1278ZM73.9376 47.8305C70.5305 46.3261 65.5735 45.326 60.0976 45.326C54.6217 45.326 49.6648 46.3261 46.2576 47.8305C44.5541 48.5827 43.2449 49.4588 42.4446 50.2943C41.6442 51.1298 41.3753 51.8376 41.3753 52.4934C41.3753 53.1493 41.6442 53.8366 42.4446 54.6722C43.2449 55.5077 44.5541 56.3837 46.2576 57.136C49.6648 58.6404 54.6217 59.6609 60.0976 59.6609C65.5735 59.6609 70.5305 58.6404 73.9376 57.136C75.6412 56.3837 76.9504 55.5077 77.7507 54.6722C78.551 53.8366 78.82 53.1493 78.82 52.4934C78.82 51.8376 78.551 51.1298 77.7507 50.2943C76.9504 49.4588 75.6412 48.5827 73.9376 47.8305ZM44.7042 60.7197C43.467 60.1734 42.3534 59.5644 41.3753 58.8667V61.6156C41.3753 62.2715 41.6442 62.9588 42.4446 63.7944C43.2449 64.6299 44.5541 65.5059 46.2576 66.2582C49.6648 67.7627 54.6217 68.7831 60.0976 68.7831C65.5735 68.7831 70.5305 67.7627 73.9376 66.2582C75.6412 65.5059 76.9504 64.6299 77.7507 63.7944C78.551 62.9588 78.82 62.2715 78.82 61.6156V58.8667C77.8419 59.5644 76.7283 60.1734 75.4911 60.7197C71.4211 62.5169 66.0315 63.5704 60.0976 63.5704C54.1638 63.5704 48.7742 62.5169 44.7042 60.7197ZM44.7042 69.8419C43.467 69.2956 42.3534 68.6867 41.3753 67.9889V70.7379C41.3753 71.3937 41.6442 72.0811 42.4446 72.9167C43.2449 73.7521 44.5541 74.6282 46.2576 75.3804C49.6648 76.8849 54.6217 77.9053 60.0976 77.9053C65.5735 77.9053 70.5305 76.8849 73.9376 75.3804C75.6412 74.6282 76.9504 73.7521 77.7507 72.9167C78.551 72.0811 78.82 71.3937 78.82 70.7379V67.9889C77.8419 68.6867 76.7283 69.2956 75.4911 69.8419C71.4211 71.6391 66.0315 72.6926 60.0976 72.6926C54.1638 72.6926 48.7742 71.6391 44.7042 69.8419ZM44.7042 78.9642C43.467 78.4179 42.3534 77.8089 41.3753 77.1112V79.8601C41.3753 80.5161 41.6445 81.2033 42.4446 82.0389C43.2446 82.8744 44.5546 83.7505 46.2576 84.5027C49.6636 86.007 54.6235 87.0276 60.0976 87.0276C65.5718 87.0276 70.5081 86.0073 73.9175 84.5027C75.6221 83.7503 76.9294 82.8745 77.7305 82.0389C78.5316 81.2031 78.82 80.5153 78.82 79.8601V77.1112C77.8419 77.8089 76.7283 78.4179 75.4911 78.9642C71.4211 80.7613 66.0315 81.8149 60.0976 81.8149C54.1638 81.8149 48.7742 80.7613 44.7042 78.9642Z"/>
    </g>
</svg>
