<svg viewBox="0 0 121 120" fill="none" xmlns="http://www.w3.org/2000/svg">
    <g class="focus-color-fill" fill="#FF562C">
    <path d="M67.2546 45.6816C67.2546 42.0634 64.1277 39.1279 60.3058 39.1279C56.484 39.1279 53.357 42.0634 53.357 45.6816C53.357 49.2998 56.4695 52.2353 60.3058 52.2353C64.1421 52.2353 67.2546 49.2998 67.2546 45.6816Z"/>
    <path d="M65.8959 55.0205H54.7199C52.2444 55.0205 50.2466 56.9184 50.2466 59.2395V65.3699H70.3837V59.2395C70.3692 56.9184 68.3714 55.0205 65.8959 55.0205Z"/>
    <path d="M93.3658 45.6816C93.3658 42.0634 90.2389 39.1279 86.417 39.1279C82.5952 39.1279 79.4682 42.0634 79.4682 45.6816C79.4682 49.2998 82.5807 52.2353 86.417 52.2353C90.2533 52.2353 93.3658 49.2998 93.3658 45.6816Z"/>
    <path d="M91.9906 55.0195H80.8146C78.3391 55.0195 76.3413 56.9174 76.3413 59.2385V65.3689H96.4784V59.2385C96.4784 56.9174 94.4661 55.0195 91.9906 55.0195Z"/>
    <path d="M39.8371 55.0195H28.6611C26.1856 55.0195 24.1878 56.9174 24.1878 59.2385V65.3689H44.3249V59.2385C44.3104 56.9174 42.2981 55.0195 39.8371 55.0195Z"/>
    <path d="M41.1958 45.6821C41.1958 42.0639 38.0834 39.1284 34.247 39.1284C30.4107 39.1284 27.2982 42.0639 27.2982 45.6821C27.2982 49.3003 30.4252 52.2358 34.247 52.2358C38.0689 52.2358 41.1958 49.3003 41.1958 45.6821Z"/>
    </g>
    <g class="text-color-fill" fill="#2C323F">
        <path d="M9.33325 19.8001C9.33325 15.8237 12.5568 12.6001 16.5332 12.6001H104.133C108.11 12.6001 111.333 15.8236 111.333 19.8001V85.8001C111.333 89.7766 108.11 93.0001 104.133 93.0001H45.5751L30.1822 105.314C27.825 107.2 24.3333 105.522 24.3333 102.503V93.0001H16.5333C12.5568 93.0001 9.33325 89.7766 9.33325 85.8001V19.8001ZM16.5332 17.4001C15.2078 17.4001 14.1333 18.4746 14.1333 19.8001V85.8001C14.1333 87.1256 15.2078 88.2001 16.5333 88.2001H25.5333C27.5215 88.2001 29.1333 89.8119 29.1333 91.8001V100.007L42.9053 88.989C43.5436 88.4783 44.3367 88.2001 45.1542 88.2001H104.133C105.459 88.2001 106.533 87.1256 106.533 85.8001V19.8001C106.533 18.4746 105.459 17.4001 104.133 17.4001H16.5332Z" />
    </g>
</svg>
