<svg viewBox="0 0 40 40" xmlns="http://www.w3.org/2000/svg">
  <path
    d="M29.4886 6C33.7016 6.00009 36.7788 9.97995 35.7187 14.0574L31.5485 30.0988C30.8108 32.9358 28.2488 34.9164 25.3174 34.9164H14.2907C11.3141 34.9164 8.7249 32.8748 8.03024 29.9804L4.18072 13.94C3.20922 9.89206 6.27728 6.00023 10.4401 6H29.4886ZM10.4401 10.2917C9.05263 10.2919 8.03018 11.5891 8.354 12.9383L12.2035 28.9797C12.4352 29.9444 13.2986 30.6247 14.2907 30.6247H25.3174C26.2945 30.6247 27.1482 29.9641 27.3941 29.0185L31.5653 12.9771C31.9184 11.6181 30.8928 10.2918 29.4886 10.2917H10.4401Z"
    fill="currentColor"
    stroke="currentColor"
    stroke-linejoin="round"
  />
  <path
    d="M24.5 15C25.6046 15 26.5 15.8954 26.5 17C26.5 18.1046 25.6046 19 24.5 19H15C13.8954 19 13 18.1046 13 17C13 15.8954 13.8954 15 15 15H24.5Z"
    fill="currentColor"
  />
</svg>
