<svg viewBox="0 0 40 40" fill="none" xmlns="http://www.w3.org/2000/svg">
  <path
    d="M30.5 16.9229C30.5 16.4673 30.2932 16.0357 29.9375 15.751L21.3008 8.84182C20.7767 8.42259 20.0373 8.40292 19.4912 8.793L9.62793 15.8379C9.23383 16.1195 9 16.5743 9 17.0586V29C9 29.8285 9.67157 30.5 10.5 30.5H29C29.8284 30.5 30.5 29.8285 30.5 29V16.9229ZM35.5 29C35.5 32.5899 32.5899 35.5 29 35.5H10.5C6.91015 35.5 4 32.5899 4 29V17.0586C4 14.9596 5.01371 12.9897 6.72168 11.7696L16.585 4.72366C18.9514 3.03336 22.153 3.12088 24.4238 4.93753L33.0605 11.8467C34.6024 13.0802 35.5 14.9483 35.5 16.9229V29Z"
    fill="currentColor"
  />
</svg>
