<svg width="24" height="24" viewBox="0 0 24 24" fill="none" xmlns="http://www.w3.org/2000/svg">
<path fill-rule="evenodd" clip-rule="evenodd" d="M10.6665 3.38163C11.3207 2.87279 12.2368 2.87279 12.891 3.38163L19.7393 8.70809C20.6719 9.43341 20.6719 10.8429 19.7393 11.5682L12.891 16.8947C12.2368 17.4035 11.3207 17.4035 10.6665 16.8947L3.81816 11.5682C2.88561 10.8429 2.8856 9.43342 3.81816 8.7081L10.6665 3.38163ZM11.8073 4.77501C11.7905 4.76197 11.767 4.76196 11.7502 4.77501L4.9019 10.1015C4.89325 10.1082 4.89011 10.1134 4.88831 10.1172C4.88594 10.1222 4.88397 10.1294 4.88397 10.1381C4.88397 10.1469 4.88594 10.1541 4.88831 10.1591C4.89011 10.1629 4.89325 10.1681 4.90191 10.1748L11.7502 15.5013C11.767 15.5143 11.7905 15.5143 11.8073 15.5013L18.6556 10.1748C18.6642 10.1681 18.6674 10.1629 18.6692 10.1591C18.6715 10.1541 18.6735 10.1469 18.6735 10.1381C18.6735 10.1294 18.6715 10.1222 18.6692 10.1172C18.6674 10.1134 18.6642 10.1082 18.6556 10.1015L11.8073 4.77501Z"/>
<path fill-rule="evenodd" clip-rule="evenodd" d="M3.18155 13.7828C3.47765 13.3956 4.03159 13.3217 4.4188 13.6178L11.7515 19.2252C11.7682 19.2379 11.7913 19.2379 11.8079 19.2252L19.1406 13.6178C19.5279 13.3217 20.0818 13.3956 20.3779 13.7828C20.674 14.17 20.6002 14.7239 20.2129 15.02L12.8802 20.6274C12.2306 21.1242 11.3288 21.1242 10.6792 20.6274L3.34652 15.02C2.9593 14.7239 2.88544 14.17 3.18155 13.7828Z"/>
</svg>
