<svg width="24" height="24" viewBox="0 0 24 24" fill="none" xmlns="http://www.w3.org/2000/svg">
<path d="M19.76 16.3221C18.7712 15.1563 17.5712 14.2261 16.2357 13.5898C14.9001 12.9535 13.458 12.625 12 12.625C10.542 12.625 9.09988 12.9535 7.76434 13.5898C6.42881 14.2261 5.22883 15.1563 4.24 16.3221C4.08733 16.5057 4.00193 16.744 4 16.9916V21.009C4.00324 21.2731 4.10192 21.5251 4.27468 21.7106C4.44744 21.896 4.68038 22 4.92308 22H19.0769C19.3217 22 19.5565 21.8942 19.7296 21.7058C19.9027 21.5175 20 21.262 20 20.9956V16.9782C19.9951 16.7352 19.9099 16.5023 19.76 16.3221V16.3221Z"/>
<path d="M11.9375 11.375C14.5263 11.375 16.625 9.27633 16.625 6.6875C16.625 4.09867 14.5263 2 11.9375 2C9.34867 2 7.25 4.09867 7.25 6.6875C7.25 9.27633 9.34867 11.375 11.9375 11.375Z" fill="#2C323F"/>
</svg>
