<svg width="24" height="24" viewBox="0 0 24 24" fill="none" xmlns="http://www.w3.org/2000/svg">
<path d="M12.0078 2.12207C6.62265 2.12207 2.24121 6.50351 2.24121 11.8886C2.24121 17.2737 6.62265 21.6552 12.0078 21.6552C17.3929 21.6552 21.7743 17.2737 21.7743 11.8886C21.7743 6.50351 17.3934 2.12207 12.0078 2.12207ZM12.0078 20.0477C7.50921 20.0477 3.84921 16.3877 3.84921 11.8891C3.84921 7.39055 7.50921 3.73007 12.0078 3.73007C16.5063 3.73007 20.1663 7.39007 20.1663 11.8886C20.1663 16.3872 16.5068 20.0477 12.0078 20.0477Z"/>
<path d="M15.5243 16.477C15.5924 16.477 15.6572 16.4472 15.7071 16.393C15.7604 16.3349 15.7911 16.2538 15.7911 16.1698V14.1735C15.7897 14.1005 15.7633 14.0271 15.7167 13.9709C15.2401 13.4093 14.6727 12.9691 14.03 12.6634C13.3883 12.3576 12.7081 12.2026 12.0078 12.2026C11.3075 12.2026 10.6273 12.3576 9.98555 12.6634C9.34283 12.9696 8.77499 13.4098 8.29787 13.9719C8.25131 14.028 8.22491 14.1029 8.22443 14.1816V16.1765C8.22539 16.2571 8.25659 16.3373 8.30939 16.3944C8.35931 16.4477 8.42363 16.477 8.49131 16.477H15.5243Z"/>
<path d="M11.9185 7.30078C10.7401 7.30078 9.78107 8.25934 9.78107 9.43774C9.78107 10.6161 10.7396 11.5752 11.9185 11.5752C13.0969 11.5752 14.0555 10.6166 14.0555 9.43774C14.0555 8.25886 13.0969 7.30078 11.9185 7.30078Z"/>
</svg>
