<svg width="24" height="24" viewBox="0 0 24 24" fill="none" xmlns="http://www.w3.org/2000/svg">
<path fill-rule="evenodd" clip-rule="evenodd" d="M20.4131 4.47032L12.6102 3.01249C12.3929 2.972 12.1755 3.03274 12.0016 3.15423C11.8277 3.27571 11.7408 3.47819 11.7408 3.68066V4.45007H7.39376C6.98079 4.45007 6.65476 4.75378 6.65476 5.13848V7.77066C6.65476 8.15536 6.98079 8.45908 7.39376 8.45908C7.80673 8.45908 8.13275 8.15536 8.13275 7.77066V5.8269H11.7191V18.0969H8.13275V16.1531C8.13275 15.7684 7.80673 15.4647 7.39376 15.4647C6.98079 15.4647 6.65476 15.7684 6.65476 16.1531V18.7853C6.65476 19.17 6.98079 19.4737 7.39376 19.4737H11.7191V20.2431C11.7191 20.4456 11.8277 20.6481 11.9799 20.7696C12.1103 20.8708 12.2842 20.9315 12.4581 20.9315C12.5015 20.9315 12.545 20.9315 12.6102 20.9113L20.4131 19.4535C20.7609 19.3927 21 19.1093 21 18.7853V5.13848C21 4.81452 20.7609 4.53106 20.4131 4.47032ZM10.996 11.9622C10.996 11.7618 10.8828 11.5613 10.7129 11.452L8.03262 9.73906C7.84386 9.6115 7.57961 9.59328 7.37198 9.70261C7.16435 9.81195 7.03223 10.0124 7.03223 10.2493V11.3427H3.64176C3.28313 11.3427 3 11.616 3 11.9622C3 12.3085 3.28313 12.5818 3.64176 12.5818H7.03223V13.6752C7.03223 13.8939 7.16435 14.1125 7.37198 14.2219C7.46636 14.2765 7.57961 14.2948 7.67399 14.2948C7.80611 14.2948 7.91937 14.2583 8.03262 14.1854L10.7129 12.4725C10.8828 12.3631 10.996 12.1627 10.996 11.9622Z"/>
</svg>
