<svg width="24" height="24" viewBox="0 0 24 24" fill="none" xmlns="http://www.w3.org/2000/svg">
<path d="M19.34 34.8C18.17 34.765 15.83 34.715 13.495 34.63C11.87 34.57 10.265 34.39 8.69002 33.95C6.82502 33.43 5.68002 32.255 5.20502 30.385C4.91002 29.22 4.74002 28.04 4.62002 26.845C4.40502 24.73 4.31502 22.615 4.32002 20.49C4.32502 18.11 4.40502 15.73 4.72502 13.37C4.86502 12.35 5.07002 11.34 5.32502 10.34C5.74502 8.68997 6.86502 7.68997 8.46002 7.18497C9.50502 6.85497 10.585 6.72497 11.665 6.57497C15.275 6.06997 18.91 6.32497 22.535 6.27497C23.8 6.25497 25.065 6.24497 26.33 6.29497C27.61 6.34497 28.885 6.46997 30.16 6.55497C31.15 6.62497 32.115 6.83497 33.07 7.10497C34.87 7.61497 35.97 8.79997 36.52 10.555C36.87 11.675 37.02 12.825 37.16 13.98C37.525 16.915 37.43 19.86 37.415 22.805C37.405 24.655 37.305 26.495 37.01 28.325C36.86 29.245 36.69 30.16 36.345 31.03C35.675 32.695 34.405 33.665 32.71 34.07C31.76 34.295 30.78 34.41 29.81 34.535C26.72 34.93 23.61 34.77 19.34 34.8ZM21.115 8.64997C21.115 8.66997 21.115 8.68997 21.115 8.70497C19.425 8.70497 17.735 8.68497 16.05 8.70997C14 8.73497 11.965 8.88997 9.94502 9.26997C8.70502 9.50497 7.75502 10.045 7.46502 11.375C7.42502 11.555 7.38002 11.73 7.35002 11.91C6.94002 14.24 6.77002 16.595 6.72002 18.96C6.66502 21.505 6.72002 24.05 7.01002 26.585C7.12002 27.55 7.24002 28.515 7.41502 29.47C7.64002 30.69 8.37002 31.445 9.61502 31.72C11.62 32.165 13.655 32.355 15.705 32.39C17.275 32.42 18.85 32.385 20.425 32.39C23.32 32.4 26.215 32.465 29.105 32.19C30.07 32.1 31.04 31.97 31.99 31.79C33.305 31.545 34.105 30.72 34.375 29.415C34.535 28.65 34.67 27.88 34.77 27.105C35.005 25.285 35.035 23.455 35.06 21.625C35.095 19.405 35.09 17.18 34.865 14.97C34.755 13.855 34.58 12.745 34.37 11.645C34.115 10.31 33.255 9.53497 31.935 9.24997C30.445 8.92997 28.93 8.75997 27.405 8.72497C25.31 8.68497 23.215 8.67497 21.115 8.64997Z"/>
<path d="M13.635 25.38C13.25 25.32 12.975 25.165 12.81 24.855C12.645 24.55 12.66 24.225 12.87 23.96C13.115 23.66 13.4 23.39 13.68 23.12C14.45 22.385 15.225 21.66 16 20.93C16.28 20.665 16.28 20.54 16.005 20.28C15.015 19.345 14.02 18.41 13.035 17.47C12.545 17 12.52 16.46 12.965 16.065C13.32 15.75 13.85 15.77 14.26 16.135C14.77 16.595 15.275 17.07 15.775 17.545C16.565 18.295 17.355 19.045 18.14 19.795C18.2 19.85 18.26 19.91 18.315 19.975C18.695 20.42 18.685 20.875 18.265 21.28C16.95 22.54 15.63 23.795 14.3 25.035C14.125 25.195 13.86 25.265 13.635 25.38Z"/>
<path d="M25.0748 25.315C24.0698 25.315 23.0598 25.315 22.0548 25.315C21.3298 25.315 20.9248 24.89 20.9248 24.13C20.9248 23.37 21.3298 22.935 22.0548 22.935C24.0848 22.93 26.1148 22.93 28.1448 22.935C28.8798 22.935 29.2748 23.43 29.2198 24.265C29.1748 24.955 28.8048 25.31 28.1198 25.31C27.1048 25.315 26.0898 25.31 25.0748 25.315C25.0748 25.315 25.0748 25.31 25.0748 25.315Z"/>
</svg>
