<svg fill="none">
  <path
     d="M 10.903216,22.175029 C 10.058193,22.150222 8.3681473,22.114803 6.6817124,22.054568 5.508069,22.012051 4.3488708,21.884504 3.2113541,21.57272 1.8643729,21.204249 1.0374059,20.371643 0.69434096,19.046564 0.48127967,18.221046 0.35849852,17.384898 0.27182956,16.538122 0.11654747,15.039434 0.05154573,13.540747 0.05515689,12.034973 0.05876817,10.348507 0.11654747,8.6620409 0.34766491,6.9897461 0.44877875,6.2669746 0.59683829,5.5512897 0.78101002,4.8426903 1.0843518,3.6734802 1.8932627,2.9648809 3.0452385,2.6070382 3.7999814,2.3732005 4.5799881,2.2810825 5.3600094,2.1747927 7.9673023,1.8169501 10.592652,1.9976429 13.210779,1.962213 c 0.913636,-0.014173 1.827272,-0.021258 2.740909,0.014173 0.92447,0.035429 1.845327,0.1240048 2.766185,0.1842358 0.715021,0.049602 1.411984,0.1984077 2.101726,0.3897296 1.300035,0.3613856 2.0945,1.2010758 2.491734,2.4446888 0.252784,0.7936312 0.36112,1.6085207 0.462234,2.4269523 0.263619,2.0797384 0.195005,4.1665635 0.184172,6.2533875 -0.0072,1.310909 -0.07944,2.614732 -0.292508,3.911469 -0.108341,0.651911 -0.231117,1.30028 -0.480291,1.916762 -0.483902,1.179817 -1.401149,1.867157 -2.625349,2.15414 -0.686129,0.159435 -1.393927,0.240924 -2.094501,0.329499 -2.231728,0.279898 -4.477901,0.166521 -7.561874,0.187779 z m 1.28198,-18.5298928 c 0,0.014173 0,0.028344 0,0.038972 -1.220589,0 -2.4411788,-0.014173 -3.6581559,0.00355 C 7.0464443,3.7053727 5.5766819,3.8152053 4.1177676,4.084473 3.2221877,4.2509938 2.5360579,4.6336587 2.3266078,5.5760957 2.2977182,5.7036436 2.2652168,5.8276485 2.2435496,5.9551964 1.9474305,7.6062327 1.8246492,9.2749845 1.7885371,10.950823 c -0.039722,1.803384 0,3.606769 0.2094503,5.403069 0.079446,0.683797 0.1661155,1.367597 0.292508,2.044308 0.1625043,0.864492 0.6897409,1.399484 1.5889322,1.594349 1.4480805,0.315326 2.9178433,0.44996 4.3984391,0.474761 1.1339192,0.02126 2.2714503,-0.0036 3.4089823,0 2.090891,0.007 4.181781,0.05314 6.269059,-0.14172 0.696964,-0.06377 1.39754,-0.155891 2.083669,-0.283439 0.949749,-0.173607 1.527542,-0.758201 1.722546,-1.682923 0.115558,-0.542079 0.213062,-1.0877 0.285286,-1.636864 0.169727,-1.289652 0.191394,-2.586388 0.20945,-3.883124 0.02529,-1.573091 0.02167,-3.1497251 -0.140837,-4.7157296 C 22.036576,7.3334165 21.910184,6.5468713 21.758513,5.7674124 21.574341,4.8214323 20.953213,4.2722467 19.999854,4.0702958 18.923713,3.8435441 17.829517,3.7230822 16.728098,3.6982812 15.215001,3.6699372 13.701904,3.6628512 12.185196,3.6451362 Z"
     id="path10"
     style="stroke-width:0.715387" />
  <path
     d="M 6.7828261,15.500024 C 6.5047628,15.457508 6.3061463,15.347676 6.1869763,15.128009 6.0678065,14.911887 6.0786404,14.681592 6.2303107,14.493813 6.40726,14.281233 6.613099,14.089912 6.8153262,13.898589 7.3714535,13.37777 7.9311902,12.864035 8.490928,12.346757 8.6931553,12.158979 8.6931553,12.070403 8.494528,11.886167 7.7795059,11.223627 7.0608752,10.561087 6.3494669,9.8950029 5.9955684,9.5619619 5.9775123,9.1793176 6.2989101,8.8994209 6.5553061,8.676212 6.9380944,8.6903842 7.2342129,8.9490237 c 0.3683436,0.3259551 0.7330755,0.6625392 1.0941967,0.9991242 0.5705709,0.5314501 1.1411415,1.0628991 1.7081014,1.5943491 0.04333,0.03897 0.08667,0.08148 0.126393,0.127547 0.274453,0.315328 0.267231,0.637741 -0.0361,0.924722 -0.9497486,0.892836 -1.9031079,1.782128 -2.8636896,2.660791 -0.1263925,0.113376 -0.3177868,0.162979 -0.4802915,0.244467 z"
     id="path12"
     style="stroke-width:0.715387" />
  <path
     d="m 15.04513,15.453965 c -0.725853,0 -1.455318,0 -2.181171,0 -0.523625,0 -0.816134,-0.301154 -0.816134,-0.839691 0,-0.538534 0.292509,-0.846776 0.816134,-0.846776 1.46615,-0.0036 2.932301,-0.0036 4.398453,0 0.530848,0 0.816133,0.350757 0.77641,0.942438 -0.0325,0.488933 -0.29973,0.740485 -0.794465,0.740485 -0.733076,0.0036 -1.466151,0 -2.199227,0.0036 0,0 0,-0.0036 0,0 z"
     id="path14"
     style="stroke-width:0.715387" />
</svg>
