<svg width="24" height="24" viewBox="0 0 24 24" fill="none" xmlns="http://www.w3.org/2000/svg">
<rect x="8" y="17" width="8" height="2" fill="#2C323F"/>
<rect x="8" y="14" width="8" height="2" fill="#2C323F"/>
<rect x="8" y="11" width="8" height="2" fill="#2C323F"/>
<rect x="8" y="8" width="8" height="2" fill="#2C323F"/>
<rect x="8" y="5" width="8" height="2" fill="#2C323F"/>
<path fill-rule="evenodd" clip-rule="evenodd" d="M7.20399 4.00699H16.796C16.7973 4.00747 16.7992 4.00831 16.802 4.00973C16.8128 4.01534 16.8383 4.0317 16.8698 4.07107C16.9369 4.155 17 4.30722 17 4.5V19.5C17 19.6928 16.9369 19.845 16.8698 19.9289C16.8383 19.9683 16.8128 19.9847 16.802 19.9903C16.7992 19.9917 16.7972 19.9925 16.796 19.993H7.20399C7.20275 19.9925 7.20079 19.9917 7.19805 19.9903C7.1872 19.9847 7.16171 19.9683 7.13021 19.9289C7.06307 19.845 7 19.6928 7 19.5L7 4.5C7 4.30722 7.06307 4.155 7.13021 4.07107C7.16171 4.0317 7.18721 4.01534 7.19805 4.00973C7.20078 4.00831 7.20275 4.00747 7.20399 4.00699ZM7.20564 19.9936L7.20537 19.9935ZM7.2 3H16.8C17.1183 3 17.4235 3.15804 17.6485 3.43934C17.8736 3.72064 18 4.10217 18 4.5V19.5C18 19.8978 17.8736 20.2794 17.6485 20.5607C17.4235 20.842 17.1183 21 16.8 21H7.2C6.88174 21 6.57652 20.842 6.35147 20.5607C6.12643 20.2794 6 19.8978 6 19.5L6 4.5C6 4.10217 6.12643 3.72064 6.35147 3.43934C6.57652 3.15804 6.88174 3 7.2 3Z"/>
</svg>
