<svg width="24" height="24" viewBox="0 0 24 24" fill="none" xmlns="http://www.w3.org/2000/svg">
<path fill-rule="evenodd" clip-rule="evenodd" d="M10.4 4H18.4C18.8243 4 19.2313 4.16857 19.5314 4.46863C19.8314 4.76869 20 5.17565 20 5.6V13.6C20 14.0243 19.8314 14.4313 19.5314 14.7314C19.2313 15.0314 18.8243 15.2 18.4 15.2H16.8V8.8C16.8 8.37565 16.6314 7.96869 16.3314 7.66863C16.0313 7.36857 15.6243 7.2 15.2 7.2H8.8V5.6C8.8 5.17565 8.96858 4.76869 9.26863 4.46863C9.56869 4.16857 9.97566 4 10.4 4ZM5.6 8.8H13.6C14.4824 8.8 15.2 9.5176 15.2 10.4V18.4C15.2 19.2824 14.4824 20 13.6 20H5.6C4.7176 20 4 19.2824 4 18.4V10.4C4 9.5176 4.7176 8.8 5.6 8.8Z"/>
</svg>
