<svg width="24" height="24" viewBox="0 0 24 24" fill="none" xmlns="http://www.w3.org/2000/svg">
<path d="M21.8786 10.5131C21.7733 10.3874 21.626 10.3246 21.4576 10.3246H21.2049V8.58639C21.2049 8.29319 20.9523 8.04188 20.6576 8.04188H20.4681V6.30366C20.4681 6.01047 20.2155 5.75916 19.9207 5.75916H10.9735L10.3841 4.33508C10.2999 4.12565 10.0893 4 9.87881 4H4.08944C3.79471 4 3.54208 4.25131 3.54208 4.5445V8.04188H3.35261C3.05788 8.04188 2.80525 8.29319 2.80525 8.58639V10.3246H2.55262C2.3842 10.3246 2.23684 10.3874 2.13158 10.5131C2.02632 10.6387 1.98421 10.7853 2.00526 10.9529L3.2684 19.5393C3.3105 19.8115 3.54208 20 3.81576 20H20.1734C20.4471 20 20.6786 19.8115 20.7207 19.5393L21.9839 10.9529C22.026 10.7853 21.9839 10.6387 21.8786 10.5131ZM4.6368 5.08901H9.52092L10.1104 6.51309C10.1946 6.72251 10.4051 6.84817 10.6156 6.84817H19.3734V8.04188H4.6368V5.08901ZM3.89997 9.13089H20.1102V10.3246H3.89997V9.13089ZM19.7102 18.911H4.29996L3.18419 11.4136H20.8049L19.7102 18.911Z"/>
</svg>
