<svg width="24" height="24" viewBox="0 0 24 24" fill="none" xmlns="http://www.w3.org/2000/svg">
<path fill-rule="evenodd" clip-rule="evenodd" d="M11.22 3.58501C11.6822 3.23835 12.3178 3.23835 12.78 3.58501L20.28 9.21001C20.6073 9.45552 20.8 9.84083 20.8 10.25V19.5C20.8 20.218 20.218 20.8 19.5 20.8H14.2V15.8H9.8V20.8H4.5C3.78203 20.8 3.2 20.218 3.2 19.5V10.25C3.2 9.84083 3.39265 9.45552 3.72 9.21001L11.22 3.58501ZM12 5.00001L4.8 10.4V19.2H8.2V15.5C8.2 14.782 8.78203 14.2 9.5 14.2H14.5C15.218 14.2 15.8 14.782 15.8 15.5V19.2H19.2V10.4L12 5.00001Z"/>
</svg>
