<svg width="24" height="24" viewBox="0 0 24 24" fill="none" xmlns="http://www.w3.org/2000/svg">
<path fill-rule="evenodd" clip-rule="evenodd" d="M10.3215 10.5814L10.6343 10.7225L18.2306 3.57303L20.5126 5.72074L19.0251 7.12068L22 9.92055L19.7181 12.0683L16.7432 9.26839L12.9163 12.8702L13.0661 13.1646C13.5858 14.1855 13.7559 15.333 13.5532 16.4488C13.3505 17.5645 12.7849 18.5936 11.9344 19.394C9.66408 21.5308 5.97312 21.5308 3.70276 19.394C1.4324 17.2572 1.43242 13.7834 3.70277 11.6466C4.55319 10.8461 5.64658 10.3138 6.83209 10.123C8.0176 9.93221 9.2368 10.0924 10.3215 10.5814ZM5.98471 17.2463C6.99414 18.1964 8.64306 18.1964 9.65249 17.2463C10.6619 16.2963 10.6619 14.7443 9.65249 13.7943C8.64306 12.8442 6.99414 12.8442 5.98471 13.7943C4.97527 14.7443 4.97527 16.2963 5.98471 17.2463Z"/>
</svg>
