<svg width="24" height="24" viewBox="0 0 24 24" fill="none" xmlns="http://www.w3.org/2000/svg">
<path d="M11.7677 14.8147C10.9915 15.5309 10.2711 15.7704 9.67826 15.7709C9.1733 15.7709 8.76146 15.5971 8.48594 15.3965L6.9101 17.821H17.0909L15.1181 14.796C14.5507 14.2407 13.1419 13.5466 11.7677 14.8147Z"/>
<path d="M20.3534 17.9179C20.3395 17.8507 20.3169 17.7859 20.2862 17.725L15.8006 8.85745V3.98449C15.8006 3.56017 15.4569 3.21649 15.0326 3.21649H12.0403H11.9587H8.96637C8.54205 3.21649 8.19837 3.56017 8.19837 3.98449V8.85697L3.71373 17.725C3.68301 17.7859 3.66045 17.8507 3.64653 17.9179C3.62061 18.0442 3.41421 19.1741 4.08237 19.992C4.35741 20.329 4.88349 20.7307 5.82717 20.7307C6.63453 20.7307 9.30141 20.7279 12.0005 20.7245C14.699 20.7279 17.3659 20.7307 18.1737 20.7307C19.1174 20.7307 19.643 20.329 19.9185 19.992C20.5857 19.1736 20.3793 18.0442 20.3534 17.9179ZM18.7262 19.0229C18.6317 19.1367 18.4454 19.1947 18.1733 19.1947C17.3702 19.1947 14.7259 19.1919 12.0408 19.1885C12.0273 19.1885 12.0134 19.1885 12 19.1885C11.9865 19.1885 11.9726 19.1885 11.9592 19.1885C9.27405 19.1919 6.62973 19.1947 5.82669 19.1947C5.55453 19.1947 5.36829 19.1371 5.27373 19.0229C5.12973 18.8496 5.11917 18.5107 5.13981 18.3072L9.65181 9.38689C9.70605 9.27937 9.73437 9.16081 9.73437 9.04033V4.75249H11.9587H12.0403H14.2646V9.04033C14.2646 9.16081 14.2929 9.27937 14.3472 9.38689L18.8592 18.3072C18.8803 18.5103 18.8697 18.8496 18.7262 19.0229Z"/>
</svg>
