<svg width="24" height="24" viewBox="0 0 24 24" fill="none" xmlns="http://www.w3.org/2000/svg">
<path d="M12.0161 22C10.0351 22 8.09859 21.4126 6.45146 20.312C4.80432 19.2114 3.52053 17.6471 2.76243 15.8169C2.00434 13.9867 1.80599 11.9728 2.19246 10.0299C2.57893 8.08693 3.53288 6.30224 4.93365 4.90146C6.33443 3.50068 8.11913 2.54674 10.0621 2.16027C12.005 1.7738 14.0189 1.97215 15.8491 2.73024C17.6793 3.48834 19.2436 4.77213 20.3442 6.41926C21.4448 8.0664 22.0322 10.0029 22.0322 11.9839C22.0322 14.6403 20.9769 17.188 19.0985 19.0664C17.2202 20.9447 14.6725 22 12.0161 22V22ZM12.0161 3.45592C10.3294 3.45592 8.68062 3.95608 7.2782 4.89314C5.87578 5.83021 4.78273 7.1621 4.13727 8.72039C3.4918 10.2787 3.32292 11.9934 3.65197 13.6476C3.98103 15.3019 4.79324 16.8214 5.9859 18.0141C7.17856 19.2068 8.69811 20.019 10.3524 20.348C12.0066 20.6771 13.7213 20.5082 15.2796 19.8627C16.8379 19.2173 18.1698 18.1242 19.1069 16.7218C20.0439 15.3194 20.5441 13.6706 20.5441 11.9839C20.5422 9.72273 19.6431 7.5547 18.0442 5.9558C16.4453 4.3569 14.2773 3.45781 12.0161 3.45592V3.45592Z"/>
<path d="M15.88 14.161C15.3856 13.5782 14.7856 13.113 14.1178 12.7949C13.4501 12.4767 12.729 12.3125 12 12.3125C11.271 12.3125 10.5499 12.4767 9.88217 12.7949C9.2144 13.113 8.61442 13.5782 8.12 14.161C8.04367 14.2529 8.00097 14.372 8 14.4958V16.5045C8.00162 16.6365 8.05096 16.7626 8.13734 16.8553C8.22372 16.948 8.34019 17 8.46154 17H15.5385C15.6609 17 15.7783 16.9471 15.8648 16.8529C15.9514 16.7587 16 16.631 16 16.4978V14.4891C15.9975 14.3676 15.9549 14.2511 15.88 14.161V14.161Z"/>
<path d="M11.9688 11.6875C13.2632 11.6875 14.3125 10.6382 14.3125 9.34375C14.3125 8.04933 13.2632 7 11.9688 7C10.6743 7 9.62501 8.04933 9.62501 9.34375C9.62501 10.6382 10.6743 11.6875 11.9688 11.6875Z"/>
</svg>
