<svg width="24" height="24" viewBox="0 0 24 24" fill="none" xmlns="http://www.w3.org/2000/svg">
<path d="M18.3546 5.64375C17.5215 4.80545 16.5305 4.14026 15.4389 3.68651C14.3473 3.23276 13.1766 2.99944 11.9944 3C7.01876 3 3 7.0275 3 12C3 16.9725 7.01876 21 11.9944 21C16.1932 21 19.6942 18.1313 20.6961 14.25H18.3546C17.8909 15.5657 17.03 16.7052 15.8908 17.5112C14.7516 18.3172 13.3902 18.7501 11.9944 18.75C8.26829 18.75 5.24015 15.7238 5.24015 12C5.24015 8.27625 8.26829 5.25 11.9944 5.25C13.863 5.25 15.5291 6.02625 16.7448 7.2525L13.1201 10.875H21V3L18.3546 5.64375Z"/>
</svg>
