<svg width="24" height="24" viewBox="0 0 24 24" fill="none" xmlns="http://www.w3.org/2000/svg">
<path d="M6.18182 22H17.8182C19.0213 22 20 21.0388 20 19.8571V12C20 10.8183 19.0213 9.85714 17.8182 9.85714V7C17.8182 4.24286 15.5345 2 12.7273 2H11.2727C8.46545 2 6.18182 4.24286 6.18182 7V9.85714C4.97867 9.85714 4 10.8183 4 12V19.8571C4 21.0388 4.97867 22 6.18182 22ZM7.63636 7C7.63636 5.03071 9.26764 3.42857 11.2727 3.42857H12.7273C14.7324 3.42857 16.3636 5.03071 16.3636 7V9.85714H7.63636V7ZM5.45455 12C5.45455 11.6062 5.78085 11.2857 6.18182 11.2857C10.4693 11.2857 13.5268 11.2857 17.8182 11.2857C18.2192 11.2857 18.5455 11.6062 18.5455 12V19.8571C18.5455 20.251 18.2192 20.5714 17.8182 20.5714H6.18182C5.78085 20.5714 5.45455 20.251 5.45455 19.8571V12Z"/>
<path d="M10.5453 14.857C10.5453 14.0692 11.1977 13.4285 11.9998 13.4285C12.802 13.4285 13.4544 14.0692 13.4544 14.857C13.4544 15.3835 13.1598 15.8392 12.7271 16.087V17.7142C12.7271 18.1087 12.4015 18.4285 11.9998 18.4285C11.5981 18.4285 11.2726 18.1087 11.2726 17.7142V16.087C10.8398 15.8392 10.5453 15.3835 10.5453 14.857Z"/>
</svg>
