<svg width="24" height="24" viewBox="0 0 24 24" fill="none" xmlns="http://www.w3.org/2000/svg">
<path fill-rule="evenodd" clip-rule="evenodd" d="M19.3594 2.75998C19.1506 2.54494 18.4993 2.22766 18.1906 2.22766H6.01589C5.44517 2.22766 4.98197 2.40622 4.64021 2.75854C4.44677 2.95774 4.21349 3.5515 4.21349 3.98974L4.15109 20.052C4.15109 20.9073 4.39781 21.1603 4.61573 21.3835L4.64021 21.4085C4.85573 21.6302 5.14085 21.7526 5.44325 21.7526H18.5583C18.8607 21.7526 19.1458 21.6302 19.3613 21.4085C19.5557 21.2078 19.7881 20.9001 19.7881 20.5709V3.59614C19.7871 3.26926 19.5548 2.9611 19.3594 2.75998ZM5.82389 3.85342L18.2079 3.90142V8.21998L5.82389 8.20366V3.85342ZM5.82389 10.0181H18.2079V14.2277H5.82389V10.0181ZM18.1585 20.1811H5.77445L5.82629 16.0334H18.2103L18.1585 20.1811Z"/>
<path d="M8.0102 6.83088C8.44867 6.83088 8.80412 6.47543 8.80412 6.03696C8.80412 5.59849 8.44867 5.24304 8.0102 5.24304C7.57173 5.24304 7.21628 5.59849 7.21628 6.03696C7.21628 6.47543 7.57173 6.83088 8.0102 6.83088Z"/>
<path d="M8.0102 12.8659C8.44867 12.8659 8.80412 12.5105 8.80412 12.072C8.80412 11.6335 8.44867 11.2781 8.0102 11.2781C7.57173 11.2781 7.21628 11.6335 7.21628 12.072C7.21628 12.5105 7.57173 12.8659 8.0102 12.8659Z"/>
<path d="M8.0102 18.7882C8.44867 18.7882 8.80412 18.4327 8.80412 17.9942C8.80412 17.5558 8.44867 17.2003 8.0102 17.2003C7.57173 17.2003 7.21628 17.5558 7.21628 17.9942C7.21628 18.4327 7.57173 18.7882 8.0102 18.7882Z"/>
</svg>
