<svg width="24" height="24" viewBox="0 0 24 24" fill="none" xmlns="http://www.w3.org/2000/svg">
<path d="M20.6554 9.46653C20.7058 9.29421 20.6866 9.11277 20.6007 8.95533C20.5147 8.79789 20.3727 8.68317 20.2003 8.63277C20.028 8.58189 19.8466 8.60157 19.6891 8.68749C19.5317 8.77341 19.417 8.91549 19.3666 9.08781L16.3459 19.3699H5.69954L4.7357 17.3313L4.77458 17.1931L8.33378 4.47693H17.5459L13.9296 15.8246H8.5157C8.14514 15.8246 7.8437 16.1261 7.8437 16.4966C7.8437 16.8672 8.14514 17.1686 8.5157 17.1686H14.4202C14.7139 17.1686 14.9712 16.9805 15.0605 16.7006L19.105 4.00893C19.1698 3.80541 19.1333 3.58077 19.0071 3.40845C18.8808 3.23613 18.6783 3.13293 18.4647 3.13293H7.82354C7.52354 3.13293 7.25714 3.33501 7.1765 3.62397L3.37346 17.2104C3.32978 17.3664 3.3437 17.5325 3.4133 17.6789L4.66658 20.3289C4.77698 20.5627 5.01554 20.7139 5.27426 20.7139H16.848C17.1442 20.7139 17.4091 20.5157 17.4927 20.2315L20.6554 9.46653Z"/>
<path fill-rule="evenodd" clip-rule="evenodd" d="M9.48529 5.79834C9.27457 5.79834 9.10033 5.88714 8.98033 6.0345C8.86369 6.17754 8.80993 6.36234 8.80945 6.53994C8.80945 6.71754 8.86321 6.90234 8.97985 7.04538C9.09985 7.19274 9.27457 7.28154 9.48529 7.28154H15.2414C15.4522 7.28154 15.6264 7.19322 15.7464 7.04538C15.863 6.90234 15.9168 6.71754 15.9168 6.53994C15.9168 6.36282 15.863 6.17802 15.7464 6.0345C15.6264 5.88714 15.4517 5.79834 15.2414 5.79834H9.48529Z" />
<path fill-rule="evenodd" clip-rule="evenodd" d="M9.60052 7.79425C9.39028 7.79425 9.21556 7.88305 9.09556 8.03041C8.97892 8.17345 8.92516 8.35825 8.92468 8.53585C8.92468 8.71345 8.97844 8.89825 9.09508 9.04129C9.21508 9.18865 9.3898 9.27745 9.60052 9.27745H13.7448C13.9556 9.27745 14.1298 9.18913 14.2498 9.04129C14.3664 8.89825 14.4202 8.71345 14.4202 8.53585C14.4202 8.35873 14.3664 8.17393 14.2498 8.03041C14.1298 7.88305 13.9551 7.79425 13.7448 7.79425H9.60052Z" />
</svg>
