    <svg
      xmlns="http://www.w3.org/2000/svg"
      fill="#2C323F"
      version="1.1"
      viewBox="-3 0 29.494 34.688"
    >
      <defs>
        <filter
          id="dropshadow"
          width="29.487"
          height="34.683"
          x="-2.997"
          y="0.003"
          colorInterpolationFilters="sRGB"
          filterUnits="userSpaceOnUse"
        >
          <feFlood floodOpacity="0" result="BackgroundImageFix"></feFlood>
          <feColorMatrix
            in="SourceAlpha"
            type="matrix"
            values="0 0 0 0 0 0 0 0 0 0 0 0 0 0 0 0 0 0 127 0"
          ></feColorMatrix>
          <feOffset dy="4"></feOffset>
          <feGaussianBlur stdDeviation="2"></feGaussianBlur>
          <feColorMatrix
            type="matrix"
            values="0 0 0 0 0 0 0 0 0 0 0 0 0 0 0 0 0 0 0.1 0"
          ></feColorMatrix>
          <feBlend
            in2="BackgroundImageFix"
            mode="normal"
            result="effect1_dropShadow"
          ></feBlend>
          <feBlend
            in="SourceGraphic"
            in2="effect1_dropShadow"
            mode="normal"
            result="shape"
          ></feBlend>
        </filter>
      </defs>
      <path
        fillRule="evenodd"
        d="M15.596 1.727c-.585-.483-1.388-.755-2.226-.755H2.817C1.1.972-.291 2.09-.291 3.466V25.08c0 1.377 1.392 2.493 3.108 2.493h16.985c1.716 0 3.107-1.116 3.107-2.493V8.769c0-.65-.316-1.275-.88-1.74zm-8.51 6.439c1.116-.504 2.595-.794 4.223-.794 1.629 0 3.107.29 4.224.794.559.252 1.03.552 1.384.93.354.378.592.859.592 1.381v7.67c0 .523-.243.998-.597 1.376-.355.377-.826.678-1.384.93-1.118.503-2.59.799-4.219.799-1.627 0-3.107-.295-4.223-.8-.558-.251-1.03-.552-1.384-.93-.354-.377-.593-.853-.593-1.375v-7.67c0-.522.239-1.003.593-1.381.354-.378.825-.678 1.384-.93zm8.021 1.004c-.935-.422-2.295-.702-3.798-.702-1.502 0-2.862.28-3.797.702-.467.211-.827.457-1.046.69-.22.235-.294.433-.294.617s.074.377.294.61c.22.235.579.48 1.046.691.935.422 2.295.708 3.797.708 1.503 0 2.863-.286 3.798-.708.467-.21.827-.456 1.046-.69.22-.234.294-.427.294-.61 0-.185-.074-.383-.294-.617-.22-.234-.579-.48-1.046-.69zm-8.021 3.613a5.12 5.12 0 01-.914-.52v.77c0 .185.074.377.294.611.22.235.579.48 1.046.691.935.422 2.295.708 3.797.708 1.503 0 2.863-.286 3.798-.708.467-.21.827-.456 1.046-.69.22-.235.294-.427.294-.611v-.77a5.124 5.124 0 01-.914.519c-1.117.503-2.595.799-4.224.799-1.628 0-3.107-.296-4.223-.8zm0 2.556a5.12 5.12 0 01-.914-.519v.77c0 .184.074.377.294.611.22.234.579.48 1.046.69.935.422 2.295.708 3.797.708 1.503 0 2.863-.286 3.798-.707.467-.211.827-.457 1.046-.69.22-.235.294-.428.294-.612v-.77a5.124 5.124 0 01-.914.52c-1.117.503-2.595.798-4.224.798-1.628 0-3.107-.295-4.223-.799zm0 2.557a5.114 5.114 0 01-.914-.52v.771c0 .184.074.377.294.61.22.235.579.48 1.046.691.935.422 2.295.708 3.797.708 1.503 0 2.857-.286 3.792-.708.468-.21.827-.456 1.047-.69.22-.234.299-.427.299-.61v-.771a5.118 5.118 0 01-.914.52c-1.117.503-2.595.798-4.224.798-1.628 0-3.107-.295-4.223-.799z"
        clipRule="evenodd"
        filter="url(#dropshadow)"
      ></path>
    </svg>