<svg
  xmlns="http://www.w3.org/2000/svg"
  fill="none"
  version="1.1"
  viewBox="0 0 23.333 26.667"
>
  <path
    fill="#2c323f"
    fillRule="evenodd"
    d="M15.978.756C15.389.273 14.582 0 13.738 0H3.126C1.399 0 0 1.12 0 2.5v21.667c0 1.38 1.4 2.5 3.125 2.5h17.083c1.726 0 3.125-1.12 3.125-2.5V7.816c0-.652-.318-1.278-.886-1.744zm-5.132 11.49l-.212-.096a4.186 4.186 0 00-2.362-.308 4.035 4.035 0 00-2.12 1.024c-1.536 1.436-1.536 3.77 0 5.205 1.538 1.436 4.037 1.436 5.574 0a3.598 3.598 0 001.097-1.979c.137-.75.022-1.52-.33-2.206l-.102-.198 2.591-2.42 2.015 1.881 1.545-1.443-2.015-1.88 1.008-.941-1.545-1.443zm-.665 4.382a1.85 1.85 0 01-2.483 0 1.568 1.568 0 010-2.32 1.85 1.85 0 012.483 0c.684.64.684 1.682 0 2.32z"
    clipRule="evenodd"
  ></path>
</svg>
