<svg
  xmlns="http://www.w3.org/2000/svg"
  fill="#2C323F"
  version="1.1"
  viewBox="-3 0 66 75"
>
  <defs>
    <filter
      id="dropshadow"
      width="65.995"
      height="75"
      x="-2.997"
      y="0.002"
      colorInterpolationFilters="sRGB"
      filterUnits="userSpaceOnUse"
    >
      <feFlood floodOpacity="0" result="BackgroundImageFix"></feFlood>
      <feColorMatrix
        in="SourceAlpha"
        type="matrix"
        values="0 0 0 0 0 0 0 0 0 0 0 0 0 0 0 0 0 0 127 0"
      ></feColorMatrix>
      <feOffset dy="4"></feOffset>
      <feGaussianBlur stdDeviation="2"></feGaussianBlur>
      <feColorMatrix
        type="matrix"
        values="0 0 0 0 0 0 0 0 0 0 0 0 0 0 0 0 0 0 0.1 0"
      ></feColorMatrix>
      <feBlend
        in2="BackgroundImageFix"
        mode="normal"
        result="effect1_dropShadow"
      ></feBlend>
      <feBlend
        in="SourceGraphic"
        in2="effect1_dropShadow"
        mode="normal"
        result="shape"
      ></feBlend>
    </filter>
  </defs>
  <path
    fillRule="evenodd"
    d="M40.778 2.571C39.307 1.353 37.288.667 35.18.667H8.646C4.331.667.833 3.487.833 6.965v54.59c0 3.479 3.498 6.299 7.813 6.299h42.708c4.315 0 7.813-2.82 7.813-6.299V20.358c0-1.641-.795-3.218-2.215-4.394zm-12.83 28.947l-.529-.238a10.388 10.388 0 00-5.906-.776c-2.007.323-3.858 1.224-5.297 2.579-3.843 3.617-3.843 9.497 0 13.114 3.843 3.617 10.09 3.617 13.934 0 1.44-1.355 2.397-3.097 2.74-4.986a8.77 8.77 0 00-.825-5.559l-.254-.498 6.478-6.097 5.036 4.74 3.863-3.636-5.036-4.74 2.518-2.37-3.863-3.635zm-1.661 11.043c-1.709 1.608-4.5 1.608-6.209 0a3.971 3.971 0 010-5.843c1.71-1.608 4.5-1.608 6.209 0a3.971 3.971 0 010 5.843z"
    clipRule="evenodd"
    filter="url(#dropshadow)"
  ></path>
</svg>
