<svg id='Layer_1' xmlns='http://www.w3.org/2000/svg' viewBox="0 0 74 26">
    <defs>
        <style>.cls-1{fill:#274247;}</style>
    </defs>
    <g class='cls-1' transform="scale(1,1)" >
        <path  d='M14.23,15.17l11-6.35a12.95,12.95,0,0,0-24.9,7l12.19-7Z'/>
        <path d='M13.42,17.12l-1.71-6.37L.69,17.1a12.95,12.95,0,0,0,24.9-7Z'/>
    </g>
    <g transform="translate(30,3.2) scale(0.2,0.2)"  class='cls-1'>
        <g class="splashscreen-animation-group1">
            <path class="onyxia-fill-useCases-typography-textFocus" d="M15.2,100.5H29v-9H15.7c-0.3,0-0.5-0.2-0.5-0.5V61.4c0-4.7-1.6-9-5.8-10.6c-0.4-0.2-0.4-0.8,0-0.9
			c4.1-1.6,5.8-5.8,5.8-10V9.5c0-0.3,0.2-0.5,0.5-0.5H29V0L15.2,0c-5,0-9,4-9,9v32.4c0,3.9-3.8,4.6-6.2,4.9l0,7.8
			c2.2,0.4,6.2,1.1,6.2,6.1v31.3C6.2,96.4,10.3,100.5,15.2,100.5z"/>
        </g>
        <g class="splashscreen-animation-group2">
            <path class="onyxia-fill-useCases-typography-textFocus" d="M30.3,73V27.4h14c3.1,0,5.9,0.5,8.4,1.6c2.6,1.1,4.7,2.5,6.6,4.4c1.8,1.9,3.3,4.2,4.3,6.9
			c1,2.7,1.5,5.6,1.5,8.9v2.1c0,3.3-0.5,6.2-1.5,8.9c-1,2.7-2.4,4.9-4.3,6.9c-1.8,1.9-4.1,3.4-6.6,4.4c-2.6,1-5.4,1.6-8.5,1.6H30.3z
			 M39.7,35v30.4h4.5c3.7,0,6.5-1.2,8.5-3.7c1.9-2.5,2.9-6,2.9-10.5v-2.1c0-4.6-1-8.1-2.9-10.5C50.8,36.2,48,35,44.3,35H39.7z"/>
            <path class="onyxia-fill-useCases-typography-textFocus" d="M89.7,73c-0.4-0.8-0.7-1.8-0.9-3c-0.9,1-2.1,1.9-3.5,2.6c-1.4,0.7-3.1,1.1-5.1,1.1c-1.6,0-3.1-0.3-4.6-0.8
			c-1.4-0.5-2.6-1.2-3.7-2.1c-1-0.9-1.8-2-2.4-3.2c-0.6-1.2-0.9-2.6-0.9-4.1c0-1.8,0.3-3.3,1-4.7s1.6-2.5,3-3.5
			c1.3-1,2.9-1.7,4.9-2.2c2-0.5,4.2-0.8,6.8-0.8h4v-1.9c0-1.6-0.4-2.8-1.2-3.8c-0.8-0.9-2.1-1.4-3.8-1.4c-1.5,0-2.7,0.4-3.6,1.1
			c-0.9,0.7-1.3,1.7-1.3,3h-9c0-1.5,0.3-2.8,1-4.2c0.7-1.3,1.6-2.5,2.9-3.4c1.3-1,2.8-1.8,4.5-2.3s3.8-0.9,5.9-0.9
			c2,0,3.8,0.3,5.4,0.8c1.7,0.5,3.1,1.2,4.3,2.2c1.2,1,2.2,2.2,2.8,3.7c0.7,1.5,1,3.2,1,5.2v14.3c0,1,0,1.8,0.1,2.6
			c0.1,0.8,0.1,1.5,0.3,2.1c0.1,0.6,0.2,1.2,0.4,1.7c0.2,0.5,0.3,1,0.6,1.4V73H89.7z M82.2,66.7c0.8,0,1.5-0.1,2.1-0.3
			c0.7-0.2,1.2-0.4,1.8-0.7c0.5-0.3,1-0.7,1.4-1c0.4-0.4,0.7-0.8,0.9-1.2v-5.8h-3.7c-1.2,0-2.2,0.1-3.1,0.4
			c-0.9,0.3-1.6,0.6-2.2,1.1c-0.6,0.5-1,1-1.3,1.7s-0.4,1.3-0.4,2.1c0,1.1,0.4,2.1,1.2,2.8C79.8,66.3,80.9,66.7,82.2,66.7z"/>
            <path class="onyxia-fill-useCases-typography-textFocus" d="M134.4,56.4c0,2.5-0.3,4.7-0.9,6.9c-0.6,2.1-1.4,3.9-2.5,5.5c-1.1,1.5-2.5,2.7-4.1,3.6
			c-1.6,0.9-3.5,1.3-5.7,1.3c-1.8,0-3.4-0.3-4.7-0.9c-1.4-0.6-2.6-1.5-3.6-2.6v16h-9V39.1h8.4l0.3,3.3c1-1.3,2.3-2.2,3.6-2.9
			c1.4-0.7,3-1,4.9-1c2.1,0,4,0.4,5.7,1.2c1.6,0.8,3,2,4.1,3.5c1.1,1.5,1.9,3.3,2.5,5.4c0.6,2.1,0.9,4.5,0.9,7V56.4z M125.4,55.7
			c0-1.4-0.1-2.7-0.4-3.9c-0.2-1.2-0.6-2.2-1.1-3.1c-0.5-0.9-1.2-1.6-2-2.1c-0.8-0.5-1.8-0.8-3-0.8c-1.5,0-2.7,0.3-3.6,0.8
			c-0.9,0.6-1.7,1.4-2.2,2.4V63c0.5,1,1.3,1.9,2.2,2.5c0.9,0.6,2.2,0.9,3.7,0.9c1.2,0,2.2-0.3,3-0.8c0.8-0.5,1.5-1.2,2-2.1
			c0.5-0.9,0.9-2,1.1-3.2c0.2-1.2,0.3-2.5,0.3-3.9V55.7z"/>
            <path class="onyxia-fill-useCases-typography-textFocus" d="M148.6,73h-9.1V24.9h9.1V73z"/>
            <path class="onyxia-fill-useCases-typography-textFocus" d="M175.6,73c-0.4-0.8-0.7-1.8-0.9-3c-0.9,1-2.1,1.9-3.5,2.6c-1.4,0.7-3.1,1.1-5.1,1.1c-1.6,0-3.1-0.3-4.6-0.8
			s-2.6-1.2-3.7-2.1c-1-0.9-1.8-2-2.4-3.2c-0.6-1.2-0.9-2.6-0.9-4.1c0-1.8,0.3-3.3,1-4.7c0.7-1.4,1.6-2.5,3-3.5
			c1.3-1,2.9-1.7,4.9-2.2c2-0.5,4.2-0.8,6.8-0.8h4v-1.9c0-1.6-0.4-2.8-1.2-3.8c-0.8-0.9-2.1-1.4-3.8-1.4c-1.5,0-2.7,0.4-3.6,1.1
			c-0.9,0.7-1.3,1.7-1.3,3h-9c0-1.5,0.3-2.8,1-4.2c0.7-1.3,1.6-2.5,2.9-3.4c1.3-1,2.8-1.8,4.5-2.3s3.8-0.9,5.9-0.9
			c2,0,3.8,0.3,5.4,0.8c1.7,0.5,3.1,1.2,4.3,2.2c1.2,1,2.2,2.2,2.8,3.7c0.7,1.5,1,3.2,1,5.2v14.3c0,1,0,1.8,0.1,2.6
			c0.1,0.8,0.1,1.5,0.3,2.1c0.1,0.6,0.2,1.2,0.4,1.7c0.2,0.5,0.4,1,0.6,1.4V73H175.6z M168.2,66.7c0.8,0,1.5-0.1,2.1-0.3
			c0.7-0.2,1.2-0.4,1.8-0.7c0.5-0.3,1-0.7,1.4-1c0.4-0.4,0.7-0.8,0.9-1.2v-5.8h-3.7c-1.2,0-2.2,0.1-3.1,0.4
			c-0.9,0.3-1.6,0.6-2.2,1.1c-0.6,0.5-1,1-1.3,1.7s-0.4,1.3-0.4,2.1c0,1.1,0.4,2.1,1.2,2.8C165.7,66.3,166.8,66.7,168.2,66.7z"/>
        </g>
        <g class="splashscreen-animation-group3">
            <path class="onyxia-fill-useCases-typography-textFocus" d="M199.3,100.5h-13.8v-9h13.3c0.3,0,0.5-0.2,0.5-0.5V61.4c0-4.7,1.6-9,5.8-10.6c0.4-0.2,0.4-0.8,0-0.9
			c-4.1-1.6-5.8-5.8-5.8-10V9.5c0-0.3-0.2-0.5-0.5-0.5h-13.3V0h13.8c5,0,9,4,9,9v32.4c0,3.9,3.8,4.6,6.2,4.9v7.8
			c-2.2,0.4-6.2,1.1-6.2,6.1v31.3C208.3,96.4,204.3,100.5,199.3,100.5z"/>
        </g>
    </g>
</svg>