<?xml version="1.0" encoding="UTF-8" standalone="no"?>
<svg
   width="800px"
   height="800px"
   viewBox="0 0 24 26"
   version="1.1"
   id="svg1"
   xmlns="http://www.w3.org/2000/svg">
  <defs
     id="defs1" />
  <!-- Uploaded to: SVG Repo, www.svgrepo.com, Generator: SVG Repo Mixer Tools -->
  <title
     id="title1">ic_fluent_team_add_24_filled</title>
  <desc
     id="desc1">Created with Sketch.</desc>
  <g
     id="ðŸ”-Product-Icons"
     stroke="none"
     stroke-width="1"
     fill="none"
     fill-rule="evenodd">
    <g
       id="ic_fluent_team_add_24_filled"
       fill="#212121"
       fill-rule="nonzero"
       class="onyxia-fill-useCases-typography-textFocus"
    >
      <path
         d="M17.5,12 C20.5375661,12 23,14.4624339 23,17.5 C23,20.5375661 20.5375661,23 17.5,23 C14.4624339,23 12,20.5375661 12,17.5 C12,14.4624339 14.4624339,12 17.5,12 Z M17.5,13.9992349 L17.4101244,14.0072906 C17.2060313,14.0443345 17.0450996,14.2052662 17.0080557,14.4093593 L17,14.4992349 L16.9996498,16.9992349 L14.4976498,17 L14.4077742,17.0080557 C14.2036811,17.0450996 14.0427494,17.2060313 14.0057055,17.4101244 L13.9976498,17.5 L14.0057055,17.5898756 C14.0427494,17.7939687 14.2036811,17.9549004 14.4077742,17.9919443 L14.4976498,18 L17.0006498,17.9992349 L17.0011076,20.5034847 L17.0091633,20.5933603 C17.0462073,20.7974534 17.207139,20.9583851 17.411232,20.995429 L17.5011076,21.0034847 L17.5909833,20.995429 C17.7950763,20.9583851 17.956008,20.7974534 17.993052,20.5933603 L18.0011076,20.5034847 L18.0006498,17.9992349 L20.5045655,18 L20.5944411,17.9919443 C20.7985342,17.9549004 20.9594659,17.7939687 20.9965098,17.5898756 L21.0045655,17.5 L20.9965098,17.4101244 C20.9594659,17.2060313 20.7985342,17.0450996 20.5944411,17.0080557 L20.5045655,17 L17.9996498,16.9992349 L18,14.4992349 L17.9919443,14.4093593 C17.9549004,14.2052662 17.7939687,14.0443345 17.5898756,14.0072906 L17.5,13.9992349 Z M14.2540247,10 C15.0885672,10 15.8169906,10.4543496 16.2054276,11.1291814 C13.23532,11.7296535 11,14.3537833 11,17.5 C11,18.7891565 11.3752958,19.9906579 12.0225923,21.0012092 L12.002976,21 C9.51711551,21 7.50192738,18.9848119 7.50192738,16.4989513 L7.50192738,12.25 C7.50192738,11.0073593 8.5092867,10 9.75192738,10 L14.2540247,10 Z M7.40645343,10.000271 C6.89290875,10.5355324 6.56080951,11.2462228 6.50902592,12.0334718 L6.50192738,12.25 L6.50192738,16.4989513 C6.50192738,17.3455959 6.69319107,18.1475684 7.03486751,18.8640179 C6.70577369,18.9530495 6.35898976,19 6.00123996,19 C3.79141615,19 2,17.2085839 2,14.99876 L2,12.25 C2,11.059136 2.92516159,10.0843551 4.09595119,10.0051908 L4.25,10 L7.40645343,10.000271 Z M19.75,10 C20.9926407,10 22,11.0073593 22,12.25 L22.0008195,12.8103588 C20.8328473,11.6891263 19.2469007,11 17.5,11 L17.2568191,11.0044649 L17.2568191,11.0044649 C17.1013063,10.6296432 16.8768677,10.2893694 16.5994986,10.000271 L19.75,10 Z M18.5,4 C19.8807119,4 21,5.11928813 21,6.5 C21,7.88071187 19.8807119,9 18.5,9 C17.1192881,9 16,7.88071187 16,6.5 C16,5.11928813 17.1192881,4 18.5,4 Z M12,3 C13.6568542,3 15,4.34314575 15,6 C15,7.65685425 13.6568542,9 12,9 C10.3431458,9 9,7.65685425 9,6 C9,4.34314575 10.3431458,3 12,3 Z M5.5,4 C6.88071187,4 8,5.11928813 8,6.5 C8,7.88071187 6.88071187,9 5.5,9 C4.11928813,9 3,7.88071187 3,6.5 C3,5.11928813 4.11928813,4 5.5,4 Z"
         id="ðŸŽ¨-Color"
      />
    </g>
    <path

       d="m 559.35619,764.21239 c -29.27186,-4.26268 -63.546,-18.34671 -85.78551,-35.25125 -32.02578,-24.34321 -56.41208,-61.04668 -67.10253,-100.99504 -4.06172,-15.17795 -4.53156,-19.87164 -4.49604,-44.91525 0.035,-24.63772 0.56167,-29.92396 4.42563,-44.41663 18.73923,-70.28574 75.42987,-122.55004 146.67633,-135.224 15.44185,-2.74694 47.95642,-2.30691 64.56981,0.87383 69.18839,13.24658 124.6047,65.67589 142.67466,134.98437 4.62332,17.73302 6.19765,51.28421 3.33907,71.16038 -9.8611,68.56593 -62.24219,128.43256 -129.40258,147.89488 -24.98167,7.23941 -51.37423,9.31444 -74.89884,5.88871 z m 37.19247,-69.32703 c 3.27436,-3.27177 3.47705,-5.79292 3.95288,-49.16699 L 601.00309,600 h 44.96781 44.96783 l 4.95436,-4.95437 c 5.41445,-5.41444 6.40232,-12.04721 2.92947,-19.66926 -3.93981,-8.64698 -7.63983,-9.27467 -54.67059,-9.27467 h -43.30451 v -43.14059 c 0,-46.57066 -0.58748,-50.23846 -8.72039,-54.44415 -7.44561,-3.85029 -14.29419,-3.00536 -20.49015,2.52793 l -5.53522,4.94319 -0.50275,45.05681 -0.50275,45.05681 h -43.85873 -43.85874 l -5.09018,4.2831 c -2.7996,2.35571 -5.57086,6.47161 -6.15835,9.14645 -1.32068,6.013 2.66764,16.13485 7.3437,18.63741 2.20015,1.17749 19.19547,1.83134 47.60112,1.83134 h 44.17922 l 0.003,42.79661 c 0.002,37.34892 0.37986,43.55173 2.9661,48.72881 5.12518,10.25948 19.69145,11.98729 28.32569,3.35994 z"
       id="path7"
       transform="scale(0.03)" />
    <path
       d="M 555.08475,763.61661 C 462.82673,748.25649 396.61762,666.87049 401.37332,574.67044 c 4.4246,-85.78075 66.75669,-156.1496 151.70075,-171.26022 15.39407,-2.73844 47.95688,-2.30685 64.46761,0.85444 34.50247,6.60617 65.43386,22.5895 91.35427,47.20595 35.13273,33.36533 54.04491,75.06485 55.95032,123.36497 1.70405,43.19603 -8.23985,78.07779 -32.14607,112.76366 -10.57461,15.34286 -34.79,38.79707 -50.64689,49.05483 -36.14607,23.38278 -85.50868,33.86522 -126.96856,26.96254 z M 595.24447,695.91185 600,691.8237 600.50154,645.91185 601.00309,600 h 44.60886 c 42.35776,0 44.83105,-0.17476 49.01171,-3.46327 5.41141,-4.25663 7.40605,-13.31942 4.48407,-20.37371 -3.91763,-9.45802 -7.21292,-10.06132 -54.95576,-10.06132 h -43.30451 v -42.11997 c 0,-26.45524 -0.6987,-44.12422 -1.87868,-47.50912 -3.76844,-10.81018 -18.11453,-13.65916 -27.33186,-5.42782 l -5.53522,4.9431 -0.52634,45.0569 -0.52633,45.05691 h -43.83515 -43.83515 l -5.09018,4.2831 c -2.7996,2.35571 -5.57086,6.47161 -6.15835,9.14645 -1.32068,6.013 2.66764,16.13485 7.3437,18.63741 2.20015,1.17749 19.19547,1.83134 47.60112,1.83134 h 44.17922 v 40.4661 c 0,22.25636 0.47453,42.83875 1.0545,45.73865 2.62038,13.10188 18.70857,18.49901 28.93573,9.7071 z"
       id="path8"
       transform="scale(0.03)" />
    <path
       id="path9"
       d="M 588.74219 401.58984 C 573.3773 401.41528 556.73059 402.5696 545.54688 404.90039 C 465.33664 421.61692 405.40235 492.19214 401.3418 574.70703 C 398.39834 634.52118 425.51453 692.4331 473.57031 728.96094 C 495.64349 745.73905 531.15037 760.49126 558.89844 764.41406 C 576.57126 766.9125 608.12349 765.03629 626.39648 760.39844 C 660.10613 751.84263 684.19452 738.44498 709.18359 714.35547 C 739.18662 685.43246 758.04897 649.4274 763.66992 610.34766 C 766.74138 588.99333 764.83915 555.50925 759.44336 535.92188 C 740.57733 467.43609 682.13862 414.33964 613.55859 403.37305 C 606.71763 402.27911 597.96112 401.69458 588.74219 401.58984 z M 583.95117 466.4707 C 589.86103 466.64623 595.4882 469.72787 598.18555 475.41211 C 600.38433 480.0457 600.84766 488.41314 600.84766 523.56055 L 600.84766 566.10156 L 642.9668 566.10156 C 669.42198 566.10156 687.09168 566.80049 690.47656 567.98047 C 696.0827 569.93478 700.84766 576.85856 700.84766 583.05078 C 700.84766 588.02449 696.35558 596.17269 692.4668 598.25391 C 690.47009 599.3225 672.1171 600 645.12695 600 L 601.04883 600 L 600.52539 645.91211 L 600 691.82422 L 595.24414 695.91211 C 588.34871 701.8397 578.84642 701.49511 571.63672 695.05664 L 566.10156 690.11328 L 565.57617 645.05664 L 565.04883 600 L 522.01172 600 C 494.0757 600 477.52312 599.33889 474.8418 598.11719 C 464.97281 593.62058 463.34241 578.45867 471.9043 570.80859 L 477.17188 566.10156 L 521.11133 566.10156 L 565.04883 566.10156 L 565.57617 521.32031 C 566.10102 476.66508 566.11246 476.52585 570.18555 472.19336 C 573.31207 468.86772 577.33753 467.02747 581.4082 466.57422 C 582.25626 466.47979 583.10691 466.44563 583.95117 466.4707 z "
       transform="scale(0.03)" />
  </g>
</svg>
